<?xml version="1.0" standalone="no"?><!-- Generator: Gravit.io --><svg xmlns="http://www.w3.org/2000/svg" xmlns:xlink="http://www.w3.org/1999/xlink" style="isolation:isolate" viewBox="0 0 250 250" width="250" height="250"><defs><clipPath id="_clipPath_jj60RCKRQelYivnK9xjdzASWGy41UPdu"><rect width="250" height="250"/></clipPath></defs><g clip-path="url(#_clipPath_jj60RCKRQelYivnK9xjdzASWGy41UPdu)"><rect width="250" height="250" style="fill:rgb(0,0,0)" fill-opacity="0"/><defs><filter id="lmOzMepBic4KmEoXSihltPXqXBLvrBiX" x="-200%" y="-200%" width="400%" height="400%" filterUnits="objectBoundingBox" color-interpolation-filters="sRGB"><feOffset xmlns="http://www.w3.org/2000/svg" in="SourceGraphic" dx="0" dy="3"/><feGaussianBlur xmlns="http://www.w3.org/2000/svg" stdDeviation="2.146804531419514" result="pf_100_offsetBlur"/><feComposite xmlns="http://www.w3.org/2000/svg" in="SourceGraphic" in2="pf_100_offsetBlur" result="pf_100_inverse" operator="out"/><feFlood xmlns="http://www.w3.org/2000/svg" flood-color="#FFFFFF" flood-opacity="0.5" result="pf_100_color"/><feComposite xmlns="http://www.w3.org/2000/svg" in="pf_100_color" in2="pf_100_inverse" operator="in" result="pf_100_shadow"/><feComposite xmlns="http://www.w3.org/2000/svg" in="pf_100_shadow" in2="SourceGraphic" operator="over" result="_out_tx6XzYGGF7aegWEG9Nrc1kpWcP4wiJfN"/><feOffset xmlns="http://www.w3.org/2000/svg" in="_out_tx6XzYGGF7aegWEG9Nrc1kpWcP4wiJfN" dx="0" dy="-3"/><feGaussianBlur xmlns="http://www.w3.org/2000/svg" stdDeviation="2.146804531419514" result="pf_101_offsetBlur"/><feComposite xmlns="http://www.w3.org/2000/svg" in="_out_tx6XzYGGF7aegWEG9Nrc1kpWcP4wiJfN" in2="pf_101_offsetBlur" result="pf_101_inverse" operator="out"/><feFlood xmlns="http://www.w3.org/2000/svg" flood-color="#000000" flood-opacity="0.5" result="pf_101_color"/><feComposite xmlns="http://www.w3.org/2000/svg" in="pf_101_color" in2="pf_101_inverse" operator="in" result="pf_101_shadow"/><feComposite xmlns="http://www.w3.org/2000/svg" in="pf_101_shadow" in2="_out_tx6XzYGGF7aegWEG9Nrc1kpWcP4wiJfN" operator="over" result="_out_nH3Nfw19cYoQLDFdfX3zG3hLuQR407cS"/><feMerge><feMergeNode in="_out_nH3Nfw19cYoQLDFdfX3zG3hLuQR407cS"/></feMerge></filter></defs><g filter="url(#lmOzMepBic4KmEoXSihltPXqXBLvrBiX)"><path d="M 15 0 L 235 0 C 243.279 0 250 6.721 250 15 L 250 235 C 250 243.279 243.279 250 235 250 L 15 250 C 6.721 250 0 243.279 0 235 L 0 15 C 0 6.721 6.721 0 15 0 Z" style="stroke:none;fill:#C83737;stroke-miterlimit:10;"/></g><g filter="url(#U0dYdAx5VHKcaOOgQ3VGCJvcKhBRFS3q)"><path d=" M 193.602 125 L 206.773 125 L 206.773 86.762 C 206.773 82.088 202.949 78.265 198.275 77.84 L 132.846 77.84 C 131.146 77.84 129.447 77.415 127.747 76.14 L 111.178 62.969 C 109.903 61.695 108.204 61.27 106.079 61.27 L 53.821 61.27 C 49.147 61.27 45.323 65.094 45.323 69.767 L 45.323 125 L 58.494 125 L 58.494 99.508 C 58.494 94.834 62.318 91.011 66.991 91.011 L 185.104 91.011 C 189.778 91.011 193.602 94.834 193.602 99.508 L 193.602 125 Z " fill-rule="evenodd" fill="rgb(255,255,255)"/><path d=" M 206.773 113.529 L 206.773 180.233 C 206.773 184.906 202.949 188.73 198.275 188.73 L 53.821 188.73 C 49.147 188.73 45.323 184.906 45.323 180.233 L 45.323 113.529 C 45.323 108.005 49.997 103.757 55.52 103.757 L 196.151 103.757 C 202.099 103.757 206.773 108.43 206.773 113.529 Z  M 131.586 173.671 L 103.631 173.671 C 103.194 173.671 102.84 173.316 102.84 172.879 L 102.84 132.266 C 102.84 131.829 103.194 131.475 103.631 131.475 L 113.389 131.475 L 113.389 161.012 C 113.389 164.508 116.223 167.341 119.719 167.341 L 132.377 167.341 L 132.377 172.879 C 132.377 173.316 132.023 173.671 131.586 173.671 L 131.586 173.671 Z  M 148.464 161.012 L 120.51 161.012 C 120.073 161.012 119.719 160.658 119.719 160.221 L 119.719 119.607 C 119.719 119.17 120.073 118.816 120.51 118.816 L 134.487 118.816 L 134.487 130.42 C 134.487 132.168 135.904 133.585 137.652 133.585 L 149.256 133.585 L 149.256 160.221 C 149.256 160.658 148.901 161.012 148.464 161.012 L 148.464 161.012 Z  M 149.256 127.255 L 140.816 127.255 L 140.816 118.816 L 142.087 118.816 C 142.296 118.816 142.498 118.899 142.646 119.048 L 149.024 125.426 C 149.172 125.574 149.256 125.775 149.256 125.985 L 149.256 127.255 L 149.256 127.255 Z  M 153.731 121.182 L 146.89 114.341 C 145.703 113.154 144.093 112.487 142.414 112.487 L 119.719 112.487 C 116.223 112.487 113.389 115.32 113.389 118.816 L 113.389 125.145 L 102.84 125.145 C 99.345 125.145 96.511 127.979 96.511 131.475 L 96.511 173.671 C 96.511 177.166 99.345 180 102.84 180 L 132.377 180 C 135.873 180 138.707 177.166 138.707 173.671 L 138.707 167.341 L 149.256 167.341 C 152.751 167.341 155.585 164.508 155.585 161.012 L 155.585 125.657 C 155.585 123.979 154.918 122.369 153.731 121.182 L 153.731 121.182 L 153.731 121.182 Z " fill-rule="evenodd" fill="rgb(255,255,255)"/></g><defs><filter id="U0dYdAx5VHKcaOOgQ3VGCJvcKhBRFS3q" x="-200%" y="-200%" width="400%" height="400%" filterUnits="objectBoundingBox" color-interpolation-filters="sRGB"><feGaussianBlur xmlns="http://www.w3.org/2000/svg" in="SourceGraphic" stdDeviation="2.146804531419514"/><feOffset xmlns="http://www.w3.org/2000/svg" dx="-5" dy="5" result="pf_100_offsetBlur"/><feFlood xmlns="http://www.w3.org/2000/svg" flood-color="#000000" flood-opacity="0.5"/><feComposite xmlns="http://www.w3.org/2000/svg" in2="pf_100_offsetBlur" operator="in" result="pf_100_dropShadow"/><feBlend xmlns="http://www.w3.org/2000/svg" in="SourceGraphic" in2="pf_100_dropShadow" mode="normal"/></filter></defs></g></svg>
