<?xml version="1.0" standalone="no"?><!-- Generator: Gravit.io --><svg xmlns="http://www.w3.org/2000/svg" xmlns:xlink="http://www.w3.org/1999/xlink" style="isolation:isolate" viewBox="0 0 256 256" width="256" height="256"><defs><clipPath id="_clipPath_54SBDTNgQpkFtn3DOaerMxpmQz2WYUVP"><rect width="256" height="256"/></clipPath></defs><g clip-path="url(#_clipPath_54SBDTNgQpkFtn3DOaerMxpmQz2WYUVP)"><rect width="256" height="256" style="fill:rgb(0,0,0)" fill-opacity="0"/><g><g><path d=" M 156.239 40 L 65.027 40 C 62.487 40 60.429 42.059 60.429 46.053 L 60.429 212.857 C 60.429 213.941 62.487 216 65.027 216 L 190.973 216 C 193.513 216 195.571 213.941 195.571 212.857 L 195.571 80.788 C 195.571 78.601 195.279 77.897 194.764 77.378 L 158.193 40.808 C 157.675 40.292 156.971 40 156.239 40 Z " fill="rgb(233,233,224)"/><path d=" M 157.857 40.475 L 157.857 77.714 L 195.097 77.714 L 157.857 40.475 Z " fill="rgb(217,215,202)"/><path d=" M 98.143 80.857 L 79.286 80.857 C 77.551 80.857 76.143 79.449 76.143 77.714 C 76.143 75.979 77.551 74.571 79.286 74.571 L 98.143 74.571 C 99.878 74.571 101.286 75.979 101.286 77.714 C 101.286 79.449 99.878 80.857 98.143 80.857 Z " fill="rgb(134,151,203)"/><path d=" M 107.571 96.571 L 79.286 96.571 C 77.551 96.571 76.143 95.163 76.143 93.429 C 76.143 91.694 77.551 90.286 79.286 90.286 L 107.571 90.286 C 109.306 90.286 110.714 91.694 110.714 93.429 C 110.714 95.163 109.306 96.571 107.571 96.571 Z " fill="rgb(134,151,203)"/><path d=" M 120.143 96.571 C 119.326 96.571 118.509 96.226 117.911 95.66 C 117.346 95.063 117 94.246 117 93.429 C 117 92.611 117.346 91.794 117.911 91.197 C 119.074 90.034 121.211 90.034 122.374 91.197 C 122.94 91.794 123.286 92.611 123.286 93.429 C 123.286 94.246 122.94 95.063 122.374 95.66 C 121.777 96.226 120.96 96.571 120.143 96.571 Z " fill="rgb(134,151,203)"/><path d=" M 157.857 96.571 L 132.714 96.571 C 130.979 96.571 129.571 95.163 129.571 93.429 C 129.571 91.694 130.979 90.286 132.714 90.286 L 157.857 90.286 C 159.592 90.286 161 91.694 161 93.429 C 161 95.163 159.592 96.571 157.857 96.571 Z " fill="rgb(134,151,203)"/><path d=" M 79.286 143.714 C 78.469 143.714 77.651 143.369 77.054 142.803 C 76.489 142.206 76.143 141.389 76.143 140.571 C 76.143 139.754 76.489 138.937 77.054 138.34 C 78.217 137.177 80.354 137.177 81.517 138.34 C 82.083 138.937 82.429 139.723 82.429 140.571 C 82.429 141.389 82.083 142.206 81.517 142.803 C 80.92 143.369 80.103 143.714 79.286 143.714 Z " fill="rgb(134,151,203)"/><path d=" M 117 143.714 L 91.857 143.714 C 90.122 143.714 88.714 142.306 88.714 140.571 C 88.714 138.837 90.122 137.429 91.857 137.429 L 117 137.429 C 118.735 137.429 120.143 138.837 120.143 140.571 C 120.143 142.306 118.735 143.714 117 143.714 Z " fill="rgb(134,151,203)"/><path d=" M 176.714 96.571 L 170.429 96.571 C 168.694 96.571 167.286 95.163 167.286 93.429 C 167.286 91.694 168.694 90.286 170.429 90.286 L 176.714 90.286 C 178.449 90.286 179.857 91.694 179.857 93.429 C 179.857 95.163 178.449 96.571 176.714 96.571 Z " fill="rgb(134,151,203)"/><path d=" M 148.429 112.286 L 79.286 112.286 C 77.551 112.286 76.143 110.878 76.143 109.143 C 76.143 107.408 77.551 106 79.286 106 L 148.429 106 C 150.163 106 151.571 107.408 151.571 109.143 C 151.571 110.878 150.163 112.286 148.429 112.286 Z " fill="rgb(134,151,203)"/><path d=" M 176.714 112.286 L 157.857 112.286 C 156.122 112.286 154.714 110.878 154.714 109.143 C 154.714 107.408 156.122 106 157.857 106 L 176.714 106 C 178.449 106 179.857 107.408 179.857 109.143 C 179.857 110.878 178.449 112.286 176.714 112.286 Z " fill="rgb(134,151,203)"/><path d=" M 91.857 128 L 79.286 128 C 77.551 128 76.143 126.592 76.143 124.857 C 76.143 123.122 77.551 121.714 79.286 121.714 L 91.857 121.714 C 93.592 121.714 95 123.122 95 124.857 C 95 126.592 93.592 128 91.857 128 Z " fill="rgb(134,151,203)"/><path d=" M 135.857 128 L 104.429 128 C 102.694 128 101.286 126.592 101.286 124.857 C 101.286 123.122 102.694 121.714 104.429 121.714 L 135.857 121.714 C 137.592 121.714 139 123.122 139 124.857 C 139 126.592 137.592 128 135.857 128 Z " fill="rgb(134,151,203)"/><path d=" M 176.714 128 L 148.429 128 C 146.694 128 145.286 126.592 145.286 124.857 C 145.286 123.122 146.694 121.714 148.429 121.714 L 176.714 121.714 C 178.449 121.714 179.857 123.122 179.857 124.857 C 179.857 126.592 178.449 128 176.714 128 Z " fill="rgb(134,151,203)"/><path d=" M 190.973 216 L 65.027 216 C 62.487 216 60.429 213.941 60.429 211.402 L 60.429 162.571 L 195.571 162.571 L 195.571 211.402 C 195.571 213.941 193.513 216 190.973 216 Z " fill="rgb(0,150,230)"/></g></g><path d=" M 96.915 203.746 L 87.666 203.746 L 87.666 173.887 L 96.854 173.887 L 96.854 173.887 Q 100.791 173.887 103.898 175.661 L 103.898 175.661 L 103.898 175.661 Q 107.005 177.435 108.748 180.706 L 108.748 180.706 L 108.748 180.706 Q 110.491 183.977 110.491 188.14 L 110.491 188.14 L 110.491 189.514 L 110.491 189.514 Q 110.491 193.677 108.779 196.917 L 108.779 196.917 L 108.779 196.917 Q 107.066 200.157 103.949 201.941 L 103.949 201.941 L 103.949 201.941 Q 100.832 203.726 96.915 203.746 L 96.915 203.746 L 96.915 203.746 Z  M 96.854 178.87 L 93.818 178.87 L 93.818 198.804 L 96.792 198.804 L 96.792 198.804 Q 100.401 198.804 102.309 196.445 L 102.309 196.445 L 102.309 196.445 Q 104.216 194.087 104.257 189.698 L 104.257 189.698 L 104.257 188.119 L 104.257 188.119 Q 104.257 183.566 102.37 181.218 L 102.37 181.218 L 102.37 181.218 Q 100.483 178.87 96.854 178.87 L 96.854 178.87 L 96.854 178.87 Z  M 139.489 188.16 L 139.489 189.493 L 139.489 189.493 Q 139.489 193.902 137.931 197.225 L 137.931 197.225 L 137.931 197.225 Q 136.372 200.547 133.47 202.352 L 133.47 202.352 L 133.47 202.352 Q 130.568 204.156 126.815 204.156 L 126.815 204.156 L 126.815 204.156 Q 123.104 204.156 120.191 202.372 L 120.191 202.372 L 120.191 202.372 Q 117.279 200.588 115.68 197.276 L 115.68 197.276 L 115.68 197.276 Q 114.08 193.964 114.06 189.657 L 114.06 189.657 L 114.06 188.181 L 114.06 188.181 Q 114.06 183.771 115.649 180.418 L 115.649 180.418 L 115.649 180.418 Q 117.238 177.065 120.14 175.271 L 120.14 175.271 L 120.14 175.271 Q 123.042 173.477 126.774 173.477 L 126.774 173.477 L 126.774 173.477 Q 130.507 173.477 133.409 175.271 L 133.409 175.271 L 133.409 175.271 Q 136.311 177.065 137.9 180.418 L 137.9 180.418 L 137.9 180.418 Q 139.489 183.771 139.489 188.16 L 139.489 188.16 L 139.489 188.16 Z  M 133.255 189.596 L 133.255 188.14 L 133.255 188.14 Q 133.255 183.443 131.573 181.003 L 131.573 181.003 L 131.573 181.003 Q 129.892 178.563 126.774 178.563 L 126.774 178.563 L 126.774 178.563 Q 123.678 178.563 121.996 180.972 L 121.996 180.972 L 121.996 180.972 Q 120.314 183.382 120.294 188.037 L 120.294 188.037 L 120.294 189.493 L 120.294 189.493 Q 120.294 194.066 121.976 196.589 L 121.976 196.589 L 121.976 196.589 Q 123.657 199.111 126.815 199.111 L 126.815 199.111 L 126.815 199.111 Q 129.912 199.111 131.573 196.681 L 131.573 196.681 L 131.573 196.681 Q 133.234 194.251 133.255 189.596 L 133.255 189.596 L 133.255 189.596 Z  M 161.248 193.8 L 167.4 193.8 L 167.4 193.8 Q 167.052 198.619 163.842 201.388 L 163.842 201.388 L 163.842 201.388 Q 160.633 204.156 155.383 204.156 L 155.383 204.156 L 155.383 204.156 Q 149.641 204.156 146.349 200.291 L 146.349 200.291 L 146.349 200.291 Q 143.058 196.425 143.058 189.678 L 143.058 189.678 L 143.058 187.853 L 143.058 187.853 Q 143.058 183.546 144.575 180.265 L 144.575 180.265 L 144.575 180.265 Q 146.093 176.983 148.913 175.23 L 148.913 175.23 L 148.913 175.23 Q 151.732 173.477 155.465 173.477 L 155.465 173.477 L 155.465 173.477 Q 160.633 173.477 163.791 176.245 L 163.791 176.245 L 163.791 176.245 Q 166.949 179.014 167.441 184.018 L 167.441 184.018 L 161.289 184.018 L 161.289 184.018 Q 161.063 181.126 159.679 179.824 L 159.679 179.824 L 159.679 179.824 Q 158.295 178.521 155.465 178.521 L 155.465 178.521 L 155.465 178.521 Q 152.389 178.521 150.861 180.726 L 150.861 180.726 L 150.861 180.726 Q 149.333 182.931 149.292 187.565 L 149.292 187.565 L 149.292 189.821 L 149.292 189.821 Q 149.292 194.661 150.758 196.896 L 150.758 196.896 L 150.758 196.896 Q 152.225 199.132 155.383 199.132 L 155.383 199.132 L 155.383 199.132 Q 158.233 199.132 159.638 197.83 L 159.638 197.83 L 159.638 197.83 Q 161.043 196.527 161.248 193.8 L 161.248 193.8 L 161.248 193.8 Z " fill-rule="evenodd" fill="rgb(255,255,255)"/></g></svg>
