<?xml version="1.0" standalone="no"?><!-- Generator: Gravit.io --><svg xmlns="http://www.w3.org/2000/svg" xmlns:xlink="http://www.w3.org/1999/xlink" style="isolation:isolate" viewBox="0 0 256 256" width="256" height="256"><defs><clipPath id="_clipPath_cfbSQzBKfRUXVWtELZ5utsl7ZhZ3mlDk"><rect width="256" height="256"/></clipPath></defs><g clip-path="url(#_clipPath_cfbSQzBKfRUXVWtELZ5utsl7ZhZ3mlDk)"><rect width="256" height="256" style="fill:rgb(0,0,0)" fill-opacity="0"/><g><g><path d=" M 156.239 40 L 65.027 40 C 62.487 40 60.429 42.059 60.429 46.053 L 60.429 212.857 C 60.429 213.941 62.487 216 65.027 216 L 190.973 216 C 193.513 216 195.571 213.941 195.571 212.857 L 195.571 80.788 C 195.571 78.601 195.279 77.897 194.764 77.378 L 158.193 40.808 C 157.675 40.292 156.971 40 156.239 40 Z " fill="rgb(233,233,224)"/><path d=" M 157.857 40.475 L 157.857 77.714 L 195.097 77.714 L 157.857 40.475 Z " fill="rgb(217,215,202)"/><circle vector-effect="non-scaling-stroke" cx="99.49742857142849" cy="85.35457142857132" r="14.35971428571429" fill="rgb(243,213,91)"/><path d=" M 60.429 162.571 L 95 162.571 L 195.571 162.571 L 195.571 128 L 164.143 98.143 L 131.143 134.286 L 113.911 117.053 L 60.429 162.571 Z " fill="rgb(38,185,154)"/><path d=" M 190.973 216 L 65.027 216 C 62.487 216 60.429 213.941 60.429 211.402 L 60.429 162.571 L 195.571 162.571 L 195.571 211.402 C 195.571 213.941 193.513 216 190.973 216 Z " fill="rgb(20,160,133)"/></g></g><path d=" M 101.704 194.559 L 101.704 173.887 L 107.856 173.887 L 107.856 194.559 L 107.856 194.559 Q 107.856 197.409 106.595 199.593 L 106.595 199.593 L 106.595 199.593 Q 105.334 201.777 103.037 202.967 L 103.037 202.967 L 103.037 202.967 Q 100.74 204.156 97.849 204.156 L 97.849 204.156 L 97.849 204.156 Q 93.111 204.156 90.466 201.747 L 90.466 201.747 L 90.466 201.747 Q 87.82 199.337 87.82 194.928 L 87.82 194.928 L 94.014 194.928 L 94.014 194.928 Q 94.014 197.122 94.937 198.168 L 94.937 198.168 L 94.937 198.168 Q 95.859 199.214 97.849 199.214 L 97.849 199.214 L 97.849 199.214 Q 99.612 199.214 100.658 198.004 L 100.658 198.004 L 100.658 198.004 Q 101.704 196.794 101.704 194.559 L 101.704 194.559 L 101.704 194.559 Z  M 124.673 193.226 L 119.279 193.226 L 119.279 203.746 L 113.127 203.746 L 113.127 173.887 L 124.775 173.887 L 124.775 173.887 Q 128.139 173.887 130.692 175.117 L 130.692 175.117 L 130.692 175.117 Q 133.245 176.348 134.619 178.614 L 134.619 178.614 L 134.619 178.614 Q 135.993 180.88 135.993 183.771 L 135.993 183.771 L 135.993 183.771 Q 135.993 188.16 132.989 190.693 L 132.989 190.693 L 132.989 190.693 Q 129.984 193.226 124.673 193.226 L 124.673 193.226 L 124.673 193.226 Z  M 119.279 178.87 L 119.279 188.242 L 124.775 188.242 L 124.775 188.242 Q 127.216 188.242 128.498 187.094 L 128.498 187.094 L 128.498 187.094 Q 129.779 185.945 129.779 183.813 L 129.779 183.813 L 129.779 183.813 Q 129.779 181.618 128.487 180.265 L 128.487 180.265 L 128.487 180.265 Q 127.195 178.911 124.919 178.87 L 124.919 178.87 L 119.279 178.87 L 119.279 178.87 Z  M 163.843 188.058 L 163.843 199.973 L 163.843 199.973 Q 162.182 201.962 159.146 203.059 L 159.146 203.059 L 159.146 203.059 Q 156.111 204.156 152.42 204.156 L 152.42 204.156 L 152.42 204.156 Q 148.544 204.156 145.622 202.464 L 145.622 202.464 L 145.622 202.464 Q 142.699 200.772 141.11 197.553 L 141.11 197.553 L 141.11 197.553 Q 139.521 194.333 139.479 189.985 L 139.479 189.985 L 139.479 187.955 L 139.479 187.955 Q 139.479 183.484 140.987 180.213 L 140.987 180.213 L 140.987 180.213 Q 142.494 176.942 145.334 175.209 L 145.334 175.209 L 145.334 175.209 Q 148.175 173.477 151.989 173.477 L 151.989 173.477 L 151.989 173.477 Q 157.301 173.477 160.295 176.009 L 160.295 176.009 L 160.295 176.009 Q 163.289 178.542 163.843 183.382 L 163.843 183.382 L 157.854 183.382 L 157.854 183.382 Q 157.444 180.818 156.04 179.629 L 156.04 179.629 L 156.04 179.629 Q 154.635 178.439 152.174 178.439 L 152.174 178.439 L 152.174 178.439 Q 149.036 178.439 147.396 180.798 L 147.396 180.798 L 147.396 180.798 Q 145.755 183.156 145.734 187.812 L 145.734 187.812 L 145.734 189.719 L 145.734 189.719 Q 145.734 194.415 147.519 196.814 L 147.519 196.814 L 147.519 196.814 Q 149.303 199.214 152.748 199.214 L 152.748 199.214 L 152.748 199.214 Q 156.214 199.214 157.69 197.737 L 157.69 197.737 L 157.69 192.59 L 152.092 192.59 L 152.092 188.058 L 163.843 188.058 L 163.843 188.058 Z " fill-rule="evenodd" fill="rgb(255,255,255)"/></g></svg>
