<?xml version="1.0" standalone="no"?><!-- Generator: Gravit.io --><svg xmlns="http://www.w3.org/2000/svg" xmlns:xlink="http://www.w3.org/1999/xlink" style="isolation:isolate" viewBox="0 0 256 256" width="256" height="256"><defs><clipPath id="_clipPath_2OU59RX26Z25RRKMSSLcaTTjFJr3xE4G"><rect width="256" height="256"/></clipPath></defs><g clip-path="url(#_clipPath_2OU59RX26Z25RRKMSSLcaTTjFJr3xE4G)"><rect width="256" height="256" style="fill:rgb(0,0,0)" fill-opacity="0"/><path d=" M 156.239 40 L 65.027 40 C 62.487 40 60.429 42.059 60.429 46.053 L 60.429 212.857 C 60.429 213.941 62.487 216 65.027 216 L 190.973 216 C 193.513 216 195.571 213.941 195.571 212.857 L 195.571 80.788 C 195.571 78.601 195.279 77.897 194.764 77.378 L 158.193 40.808 C 157.675 40.292 156.971 40 156.239 40 Z " fill="rgb(233,233,224)"/><path d=" M 157.857 40.475 L 157.857 77.714 L 195.097 77.714 L 157.857 40.475 Z " fill="rgb(217,215,202)"/><path d=" M 190.973 216 L 65.027 216 C 62.487 216 60.429 213.941 60.429 211.402 L 60.429 162.571 L 195.571 162.571 L 195.571 211.402 C 195.571 213.941 193.513 216 190.973 216 Z " fill="rgb(248,198,61)"/><path d=" M 114.212 193.121 L 108.818 193.121 L 108.818 203.641 L 102.666 203.641 L 102.666 173.782 L 114.314 173.782 L 114.314 173.782 Q 117.678 173.782 120.231 175.012 L 120.231 175.012 L 120.231 175.012 Q 122.784 176.243 124.158 178.509 L 124.158 178.509 L 124.158 178.509 Q 125.532 180.775 125.532 183.667 L 125.532 183.667 L 125.532 183.667 Q 125.532 188.055 122.528 190.588 L 122.528 190.588 L 122.528 190.588 Q 119.523 193.121 114.212 193.121 L 114.212 193.121 L 114.212 193.121 Z  M 108.818 178.765 L 108.818 188.137 L 114.314 188.137 L 114.314 188.137 Q 116.755 188.137 118.037 186.989 L 118.037 186.989 L 118.037 186.989 Q 119.318 185.84 119.318 183.708 L 119.318 183.708 L 119.318 183.708 Q 119.318 181.513 118.026 180.16 L 118.026 180.16 L 118.026 180.16 Q 116.734 178.806 114.458 178.765 L 114.458 178.765 L 108.818 178.765 L 108.818 178.765 Z  M 133.879 173.782 L 140.052 187.235 L 146.266 173.782 L 152.992 173.782 L 143.189 192.813 L 143.189 203.641 L 136.935 203.641 L 136.935 192.813 L 127.132 173.782 L 133.879 173.782 L 133.879 173.782 Z " fill-rule="evenodd" fill="rgb(255,255,255)"/><g><g><linearGradient id="_lgradient_0" x1="0.12959359372586665" y1="0.1169963052650701" x2="0.7956443961566904" y2="0.7852749007964104" gradientTransform="matrix(51.243,0,0,51.358,93.449,75.258)" gradientUnits="userSpaceOnUse"><stop offset="0%" stop-opacity="1" style="stop-color:rgb(56,126,184)"/><stop offset="100%" stop-opacity="1" style="stop-color:rgb(54,105,148)"/></linearGradient><path d=" M 127.751 75.258 C 110.209 75.258 111.304 82.866 111.304 82.866 L 111.324 90.747 L 128.064 90.747 L 128.064 93.113 L 104.675 93.113 C 104.675 93.113 93.449 91.84 93.449 109.54 C 93.449 127.241 103.247 126.613 103.247 126.613 L 109.094 126.613 L 109.094 118.399 C 109.094 118.399 108.779 108.602 118.735 108.602 C 128.692 108.602 135.339 108.602 135.339 108.602 C 135.339 108.602 144.667 108.752 144.667 99.586 C 144.667 90.42 144.667 84.43 144.667 84.43 C 144.667 84.43 146.083 75.258 127.751 75.258 Z  M 118.52 80.558 C 120.186 80.558 121.532 81.904 121.532 83.57 C 121.532 85.235 120.186 86.581 118.52 86.581 C 116.855 86.581 115.509 85.235 115.509 83.57 C 115.509 81.904 116.855 80.558 118.52 80.558 Z " fill="url(#_lgradient_0)"/><linearGradient id="_lgradient_1" x1="0.19127525011261282" y1="0.20315845977702884" x2="0.9066531095995977" y2="0.8885264992652997" gradientTransform="matrix(51.243,0,0,51.358,111.308,92.642)" gradientUnits="userSpaceOnUse"><stop offset="0%" stop-opacity="1" style="stop-color:rgb(255,224,82)"/><stop offset="100%" stop-opacity="1" style="stop-color:rgb(255,195,49)"/></linearGradient><path d=" M 128.249 144 C 145.791 144 144.696 136.393 144.696 136.393 L 144.676 128.511 L 127.936 128.511 L 127.936 126.145 L 151.325 126.145 C 151.325 126.145 162.551 127.418 162.551 109.718 C 162.551 92.018 152.753 92.645 152.753 92.645 L 146.906 92.645 L 146.906 100.859 C 146.906 100.859 147.221 110.657 137.265 110.657 C 127.308 110.657 120.661 110.657 120.661 110.657 C 120.661 110.657 111.333 110.506 111.333 119.672 C 111.333 128.838 111.333 134.828 111.333 134.828 C 111.333 134.828 109.917 144 128.249 144 Z  M 137.48 138.7 C 135.814 138.7 134.468 137.354 134.468 135.689 C 134.468 134.023 135.814 132.677 137.48 132.677 C 139.145 132.677 140.491 134.023 140.491 135.689 C 140.491 137.354 139.145 138.7 137.48 138.7 Z " fill="url(#_lgradient_1)"/></g></g></g></svg>
