<?xml version="1.0" standalone="no"?><!-- Generator: Gravit.io --><svg xmlns="http://www.w3.org/2000/svg" xmlns:xlink="http://www.w3.org/1999/xlink" style="isolation:isolate" viewBox="0 0 256 256" width="256" height="256"><defs><clipPath id="_clipPath_AC8gC2Fy7eYKCxX4InFHVsjb6C7TwY0y"><rect width="256" height="256"/></clipPath></defs><g clip-path="url(#_clipPath_AC8gC2Fy7eYKCxX4InFHVsjb6C7TwY0y)"><rect width="256" height="256" style="fill:rgb(0,0,0)" fill-opacity="0"/><g><g><path d=" M 156.239 40 L 65.027 40 C 62.487 40 60.429 42.059 60.429 46.053 L 60.429 212.857 C 60.429 213.941 62.487 216 65.027 216 L 190.973 216 C 193.513 216 195.571 213.941 195.571 212.857 L 195.571 80.788 C 195.571 78.601 195.279 77.897 194.764 77.378 L 158.193 40.808 C 157.675 40.292 156.971 40 156.239 40 Z " fill="rgb(233,233,224)"/><path d=" M 157.857 40.475 L 157.857 77.714 L 195.097 77.714 L 157.857 40.475 Z " fill="rgb(217,215,202)"/><path d=" M 190.973 216 L 65.027 216 C 62.487 216 60.429 213.941 60.429 211.402 L 60.429 162.571 L 195.571 162.571 L 195.571 211.402 C 195.571 213.941 193.513 216 190.973 216 Z " fill="rgb(233,99,96)"/><path d=" M 117 90.286 L 117 77.714 L 79.286 77.714 L 79.286 90.286 L 79.286 96.571 L 79.286 102.857 L 79.286 109.143 L 79.286 115.429 L 79.286 121.714 L 79.286 128 L 79.286 134.286 L 79.286 146.857 L 110.714 146.857 L 117 146.857 L 183 146.857 L 183 134.286 L 183 128 L 183 121.714 L 183 115.429 L 183 109.143 L 183 102.857 L 183 90.286 L 117 90.286 Z  M 85.571 84 L 110.714 84 L 110.714 90.286 L 85.571 90.286 L 85.571 84 Z  M 85.571 96.571 L 110.714 96.571 L 110.714 102.857 L 85.571 102.857 L 85.571 96.571 Z  M 85.571 109.143 L 110.714 109.143 L 110.714 115.429 L 85.571 115.429 L 85.571 109.143 Z  M 85.571 121.714 L 110.714 121.714 L 110.714 128 L 85.571 128 L 85.571 121.714 Z  M 110.714 140.571 L 85.571 140.571 L 85.571 134.286 L 110.714 134.286 L 110.714 140.571 Z  M 176.714 140.571 L 117 140.571 L 117 134.286 L 176.714 134.286 L 176.714 140.571 Z  M 176.714 128 L 117 128 L 117 121.714 L 176.714 121.714 L 176.714 128 Z  M 176.714 115.429 L 117 115.429 L 117 109.143 L 176.714 109.143 L 176.714 115.429 Z  M 117 102.857 L 117 96.571 L 176.714 96.571 L 176.714 102.857 L 117 102.857 Z " fill="rgb(200,189,184)"/></g></g><path d=" M 99.915 205.746 L 90.666 205.746 L 90.666 175.887 L 99.854 175.887 L 99.854 175.887 Q 103.791 175.887 106.898 177.661 L 106.898 177.661 L 106.898 177.661 Q 110.005 179.435 111.748 182.706 L 111.748 182.706 L 111.748 182.706 Q 113.491 185.977 113.491 190.14 L 113.491 190.14 L 113.491 191.514 L 113.491 191.514 Q 113.491 195.677 111.779 198.917 L 111.779 198.917 L 111.779 198.917 Q 110.066 202.157 106.949 203.941 L 106.949 203.941 L 106.949 203.941 Q 103.832 205.726 99.915 205.746 L 99.915 205.746 L 99.915 205.746 Z  M 99.854 180.87 L 96.818 180.87 L 96.818 200.804 L 99.792 200.804 L 99.792 200.804 Q 103.401 200.804 105.309 198.445 L 105.309 198.445 L 105.309 198.445 Q 107.216 196.087 107.257 191.698 L 107.257 191.698 L 107.257 190.119 L 107.257 190.119 Q 107.257 185.566 105.37 183.218 L 105.37 183.218 L 105.37 183.218 Q 103.483 180.87 99.854 180.87 L 99.854 180.87 L 99.854 180.87 Z  M 129.569 205.746 L 117.962 205.746 L 117.962 175.887 L 128.421 175.887 L 128.421 175.887 Q 133.855 175.887 136.665 177.968 L 136.665 177.968 L 136.665 177.968 Q 139.475 180.05 139.475 184.069 L 139.475 184.069 L 139.475 184.069 Q 139.475 186.264 138.347 187.935 L 138.347 187.935 L 138.347 187.935 Q 137.219 189.606 135.209 190.386 L 135.209 190.386 L 135.209 190.386 Q 137.506 190.96 138.829 192.703 L 138.829 192.703 L 138.829 192.703 Q 140.151 194.446 140.151 196.969 L 140.151 196.969 L 140.151 196.969 Q 140.151 201.275 137.403 203.49 L 137.403 203.49 L 137.403 203.49 Q 134.655 205.705 129.569 205.746 L 129.569 205.746 L 129.569 205.746 Z  M 129.754 192.744 L 124.114 192.744 L 124.114 200.804 L 129.385 200.804 L 129.385 200.804 Q 131.559 200.804 132.779 199.768 L 132.779 199.768 L 132.779 199.768 Q 133.999 198.732 133.999 196.907 L 133.999 196.907 L 133.999 196.907 Q 133.999 192.806 129.754 192.744 L 129.754 192.744 L 129.754 192.744 Z  M 124.114 180.87 L 124.114 188.396 L 128.667 188.396 L 128.667 188.396 Q 133.322 188.314 133.322 184.685 L 133.322 184.685 L 133.322 184.685 Q 133.322 182.654 132.143 181.762 L 132.143 181.762 L 132.143 181.762 Q 130.964 180.87 128.421 180.87 L 128.421 180.87 L 124.114 180.87 L 124.114 180.87 Z  M 162.73 188.581 L 162.73 193.544 L 150.918 193.544 L 150.918 205.746 L 144.766 205.746 L 144.766 175.887 L 164.207 175.887 L 164.207 180.87 L 150.918 180.87 L 150.918 188.581 L 162.73 188.581 L 162.73 188.581 Z " fill-rule="evenodd" fill="rgb(255,255,255)"/></g></svg>
