<?xml version="1.0" standalone="no"?><!-- Generator: Gravit.io --><svg xmlns="http://www.w3.org/2000/svg" xmlns:xlink="http://www.w3.org/1999/xlink" style="isolation:isolate" viewBox="0 0 256 256" width="256" height="256"><defs><clipPath id="_clipPath_aHGuroPPSn3bQvMdTobuKZlOp1kZ4lEM"><rect width="256" height="256"/></clipPath></defs><g clip-path="url(#_clipPath_aHGuroPPSn3bQvMdTobuKZlOp1kZ4lEM)"><rect width="256" height="256" style="fill:rgb(0,0,0)" fill-opacity="0"/><g><g><path d=" M 156.239 40 L 65.027 40 C 62.487 40 60.429 42.059 60.429 46.053 L 60.429 212.857 C 60.429 213.941 62.487 216 65.027 216 L 190.973 216 C 193.513 216 195.571 213.941 195.571 212.857 L 195.571 80.788 C 195.571 78.601 195.279 77.897 194.764 77.378 L 158.193 40.808 C 157.675 40.292 156.971 40 156.239 40 Z " fill="rgb(233,233,224)"/><path d=" M 157.857 40.475 L 157.857 77.714 L 195.097 77.714 L 157.857 40.475 Z " fill="rgb(217,215,202)"/><path d=" M 190.973 216 L 65.027 216 C 62.487 216 60.429 213.941 60.429 211.402 L 60.429 162.571 L 195.571 162.571 L 195.571 211.402 C 195.571 213.941 193.513 216 190.973 216 Z " fill="rgb(246,113,46)"/><path d=" M 164.143 134.286 L 88.714 134.286 L 88.714 84 L 164.143 84 L 164.143 134.286 Z  M 95 128 L 157.857 128 L 157.857 90.286 L 95 90.286 L 95 128 Z " fill="rgb(200,189,184)"/><path d=" M 104.425 150 C 103.875 150 103.316 149.855 102.81 149.551 C 101.32 148.658 100.839 146.728 101.732 145.239 L 111.161 129.524 C 112.053 128.035 113.983 127.554 115.473 128.446 C 116.962 129.339 117.443 131.269 116.551 132.758 L 107.122 148.473 C 106.534 149.456 105.494 150 104.425 150 Z " fill="rgb(200,189,184)"/><path d=" M 148.432 150 C 147.363 150 146.323 149.456 145.735 148.476 L 136.307 132.761 C 135.414 131.272 135.895 129.342 137.385 128.449 C 138.874 127.56 140.804 128.038 141.697 129.527 L 151.125 145.242 C 152.018 146.731 151.537 148.661 150.047 149.554 C 149.541 149.855 148.982 150 148.432 150 Z " fill="rgb(200,189,184)"/><path d=" M 126.429 90.286 C 124.694 90.286 123.286 88.881 123.286 87.143 L 123.286 77.714 C 123.286 75.976 124.694 74.571 126.429 74.571 C 128.163 74.571 129.571 75.976 129.571 77.714 L 129.571 87.143 C 129.571 88.881 128.163 90.286 126.429 90.286 Z " fill="rgb(200,189,184)"/><rect x="95" y="90.286" width="62.857" height="37.714" transform="matrix(1,0,0,1,0,0)" fill="rgb(211,204,201)"/></g></g><path d=" M 100.712 193.226 L 95.318 193.226 L 95.318 203.746 L 89.166 203.746 L 89.166 173.887 L 100.814 173.887 L 100.814 173.887 Q 104.178 173.887 106.731 175.117 L 106.731 175.117 L 106.731 175.117 Q 109.284 176.348 110.658 178.614 L 110.658 178.614 L 110.658 178.614 Q 112.032 180.88 112.032 183.771 L 112.032 183.771 L 112.032 183.771 Q 112.032 188.16 109.028 190.693 L 109.028 190.693 L 109.028 190.693 Q 106.023 193.226 100.712 193.226 L 100.712 193.226 L 100.712 193.226 Z  M 95.318 178.87 L 95.318 188.242 L 100.814 188.242 L 100.814 188.242 Q 103.255 188.242 104.537 187.094 L 104.537 187.094 L 104.537 187.094 Q 105.818 185.945 105.818 183.813 L 105.818 183.813 L 105.818 183.813 Q 105.818 181.618 104.526 180.265 L 104.526 180.265 L 104.526 180.265 Q 103.234 178.911 100.958 178.87 L 100.958 178.87 L 95.318 178.87 L 95.318 178.87 Z  M 127.803 193.226 L 122.409 193.226 L 122.409 203.746 L 116.257 203.746 L 116.257 173.887 L 127.905 173.887 L 127.905 173.887 Q 131.269 173.887 133.822 175.117 L 133.822 175.117 L 133.822 175.117 Q 136.375 176.348 137.749 178.614 L 137.749 178.614 L 137.749 178.614 Q 139.123 180.88 139.123 183.771 L 139.123 183.771 L 139.123 183.771 Q 139.123 188.16 136.119 190.693 L 136.119 190.693 L 136.119 190.693 Q 133.114 193.226 127.803 193.226 L 127.803 193.226 L 127.803 193.226 Z  M 122.409 178.87 L 122.409 188.242 L 127.905 188.242 L 127.905 188.242 Q 130.346 188.242 131.627 187.094 L 131.627 187.094 L 131.627 187.094 Q 132.909 185.945 132.909 183.813 L 132.909 183.813 L 132.909 183.813 Q 132.909 181.618 131.617 180.265 L 131.617 180.265 L 131.617 180.265 Q 130.325 178.911 128.049 178.87 L 128.049 178.87 L 122.409 178.87 L 122.409 178.87 Z  M 165.824 173.887 L 165.824 178.87 L 156.678 178.87 L 156.678 203.746 L 150.525 203.746 L 150.525 178.87 L 141.502 178.87 L 141.502 173.887 L 165.824 173.887 L 165.824 173.887 Z " fill-rule="evenodd" fill="rgb(255,255,255)"/></g></svg>
