<?xml version="1.0" standalone="no"?><!-- Generator: Gravit.io --><svg xmlns="http://www.w3.org/2000/svg" xmlns:xlink="http://www.w3.org/1999/xlink" style="isolation:isolate" viewBox="0 0 256 256" width="256" height="256"><defs><clipPath id="_clipPath_I1G28y1htKKMJgcF7pHEbsBWAMJckYyY"><rect width="256" height="256"/></clipPath></defs><g clip-path="url(#_clipPath_I1G28y1htKKMJgcF7pHEbsBWAMJckYyY)"><rect width="256" height="256" style="fill:rgb(0,0,0)" fill-opacity="0"/><g><g><path d=" M 156.239 40 L 65.027 40 C 62.487 40 60.429 42.059 60.429 46.053 L 60.429 212.857 C 60.429 213.941 62.487 216 65.027 216 L 190.973 216 C 193.513 216 195.571 213.941 195.571 212.857 L 195.571 80.788 C 195.571 78.601 195.279 77.897 194.764 77.378 L 158.193 40.808 C 157.675 40.292 156.971 40 156.239 40 Z " fill="rgb(233,233,224)"/><path d=" M 157.857 40.475 L 157.857 77.714 L 195.097 77.714 L 157.857 40.475 Z " fill="rgb(217,215,202)"/><path d=" M 190.973 216 L 65.027 216 C 62.487 216 60.429 213.941 60.429 211.402 L 60.429 162.571 L 195.571 162.571 L 195.571 211.402 C 195.571 213.941 193.513 216 190.973 216 Z " fill="rgb(149,203,165)"/></g></g><path d=" M 97.333 174.887 L 105.372 174.887 L 113.042 196.543 L 120.671 174.887 L 128.751 174.887 L 128.751 204.746 L 122.578 204.746 L 122.578 196.584 L 123.193 182.495 L 115.133 204.746 L 110.909 204.746 L 102.87 182.516 L 103.485 196.584 L 103.485 204.746 L 97.333 204.746 L 97.333 174.887 L 97.333 174.887 Z  M 143.373 204.746 L 134.124 204.746 L 134.124 174.887 L 143.311 174.887 L 143.311 174.887 Q 147.249 174.887 150.356 176.661 L 150.356 176.661 L 150.356 176.661 Q 153.463 178.435 155.206 181.706 L 155.206 181.706 L 155.206 181.706 Q 156.949 184.977 156.949 189.14 L 156.949 189.14 L 156.949 190.514 L 156.949 190.514 Q 156.949 194.677 155.236 197.917 L 155.236 197.917 L 155.236 197.917 Q 153.524 201.157 150.407 202.941 L 150.407 202.941 L 150.407 202.941 Q 147.29 204.726 143.373 204.746 L 143.373 204.746 L 143.373 204.746 Z  M 143.311 179.87 L 140.276 179.87 L 140.276 199.804 L 143.25 199.804 L 143.25 199.804 Q 146.859 199.804 148.766 197.445 L 148.766 197.445 L 148.766 197.445 Q 150.674 195.087 150.715 190.698 L 150.715 190.698 L 150.715 189.119 L 150.715 189.119 Q 150.715 184.566 148.828 182.218 L 148.828 182.218 L 148.828 182.218 Q 146.941 179.87 143.311 179.87 L 143.311 179.87 L 143.311 179.87 Z " fill-rule="evenodd" fill="rgb(255,255,255)"/><g><path d="M 93.808 90.667 L 162.192 90.667 C 164.312 90.667 166.034 92.388 166.034 94.508 L 166.034 132.158 C 166.034 134.279 164.312 136 162.192 136 L 93.808 136 C 91.688 136 89.966 134.279 89.966 132.158 L 89.966 94.508 C 89.966 92.388 91.688 90.667 93.808 90.667 Z" style="fill:none;stroke:#95CBA5;stroke-width:4;"/><path d=" M 99.737 126.395 L 99.737 100.271 L 107.421 100.271 L 115.105 109.876 L 122.788 100.271 L 130.472 100.271 L 130.472 126.395 L 122.788 126.395 L 122.788 111.412 L 115.105 121.017 L 107.421 111.412 L 107.421 126.395 L 99.737 126.395 Z  M 147.76 126.395 L 136.234 113.718 L 143.918 113.718 L 143.918 100.271 L 151.602 100.271 L 151.602 113.718 L 159.285 113.718 L 147.76 126.395 Z " fill="rgb(149,203,165)"/></g></g></svg>
