<?xml version="1.0" standalone="no"?><!-- Generator: Gravit.io --><svg xmlns="http://www.w3.org/2000/svg" xmlns:xlink="http://www.w3.org/1999/xlink" style="isolation:isolate" viewBox="0 0 256 256" width="256" height="256"><defs><clipPath id="_clipPath_q21FbrYhm4rXvezdMbXGpW3CD1Ri61Wi"><rect width="256" height="256"/></clipPath></defs><g clip-path="url(#_clipPath_q21FbrYhm4rXvezdMbXGpW3CD1Ri61Wi)"><rect width="256" height="256" style="fill:rgb(0,0,0)" fill-opacity="0"/><g><g><path d=" M 156.239 40 L 65.027 40 C 62.487 40 60.429 42.059 60.429 46.053 L 60.429 212.857 C 60.429 213.941 62.487 216 65.027 216 L 190.973 216 C 193.513 216 195.571 213.941 195.571 212.857 L 195.571 80.788 C 195.571 78.601 195.279 77.897 194.764 77.378 L 158.193 40.808 C 157.675 40.292 156.971 40 156.239 40 Z " fill="rgb(233,233,224)"/><path d=" M 157.857 40.475 L 157.857 77.714 L 195.097 77.714 L 157.857 40.475 Z " fill="rgb(217,215,202)"/><path d=" M 190.973 216 L 65.027 216 C 62.487 216 60.429 213.941 60.429 211.402 L 60.429 162.571 L 195.571 162.571 L 195.571 211.402 C 195.571 213.941 193.513 216 190.973 216 Z " fill="rgb(85,96,128)"/><g><path d=" M 129.571 115.429 L 129.571 109.143 L 135.857 109.143 L 135.857 102.857 L 129.571 102.857 L 129.571 96.571 L 135.857 96.571 L 135.857 90.286 L 129.571 90.286 L 129.571 84 L 135.857 84 L 135.857 77.714 L 129.571 77.714 L 129.571 71.429 L 135.857 71.429 L 135.857 65.143 L 129.571 65.143 L 129.571 58.857 L 123.286 58.857 L 123.286 65.143 L 117 65.143 L 117 71.429 L 123.286 71.429 L 123.286 77.714 L 117 77.714 L 117 84 L 123.286 84 L 123.286 90.286 L 117 90.286 L 117 96.571 L 123.286 96.571 L 123.286 102.857 L 117 102.857 L 117 109.143 L 123.286 109.143 L 123.286 115.429 L 110.714 115.429 L 110.714 131.143 C 110.714 139.808 117.764 146.857 126.429 146.857 C 135.093 146.857 142.143 139.808 142.143 131.143 L 142.143 115.429 L 129.571 115.429 Z  M 135.857 131.143 C 135.857 136.341 131.627 140.571 126.429 140.571 C 121.23 140.571 117 136.341 117 131.143 L 117 121.714 L 135.857 121.714 L 135.857 131.143 Z " fill="rgb(200,189,184)"/><path d=" M 123.286 134.286 L 129.571 134.286 C 131.306 134.286 132.714 132.881 132.714 131.143 C 132.714 129.405 131.306 128 129.571 128 L 123.286 128 C 121.551 128 120.143 129.405 120.143 131.143 C 120.143 132.881 121.551 134.286 123.286 134.286 Z " fill="rgb(200,189,184)"/></g></g></g><path d=" M 111.143 173.887 L 111.143 178.87 L 101.996 178.87 L 101.996 203.746 L 95.844 203.746 L 95.844 178.87 L 86.82 178.87 L 86.82 173.887 L 111.143 173.887 L 111.143 173.887 Z  M 133.578 203.746 L 131.507 197.594 L 120.72 197.594 L 118.669 203.746 L 112.127 203.746 L 123.242 173.887 L 128.943 173.887 L 140.12 203.746 L 133.578 203.746 L 133.578 203.746 Z  M 126.093 181.434 L 122.381 192.61 L 129.846 192.61 L 126.093 181.434 L 126.093 181.434 Z  M 159.562 203.746 L 153.963 192.815 L 149.062 192.815 L 149.062 203.746 L 142.909 203.746 L 142.909 173.887 L 154.004 173.887 L 154.004 173.887 Q 159.295 173.887 162.166 176.245 L 162.166 176.245 L 162.166 176.245 Q 165.037 178.604 165.037 182.91 L 165.037 182.91 L 165.037 182.91 Q 165.037 185.966 163.714 188.006 L 163.714 188.006 L 163.714 188.006 Q 162.392 190.047 159.705 191.257 L 159.705 191.257 L 166.165 203.459 L 166.165 203.746 L 159.562 203.746 L 159.562 203.746 Z  M 149.062 178.87 L 149.062 187.832 L 154.024 187.832 L 154.024 187.832 Q 156.342 187.832 157.613 186.653 L 157.613 186.653 L 157.613 186.653 Q 158.885 185.474 158.885 183.402 L 158.885 183.402 L 158.885 183.402 Q 158.885 181.29 157.685 180.08 L 157.685 180.08 L 157.685 180.08 Q 156.485 178.87 154.004 178.87 L 154.004 178.87 L 149.062 178.87 L 149.062 178.87 Z " fill-rule="evenodd" fill="rgb(255,255,255)"/></g></svg>
