<?xml version="1.0" standalone="no"?><!-- Generator: Gravit.io --><svg xmlns="http://www.w3.org/2000/svg" xmlns:xlink="http://www.w3.org/1999/xlink" style="isolation:isolate" viewBox="0 0 256 256" width="256" height="256"><defs><clipPath id="_clipPath_6nAp4GoljLPqc74aMxxhpy3ZhrUJqOMK"><rect width="256" height="256"/></clipPath></defs><g clip-path="url(#_clipPath_6nAp4GoljLPqc74aMxxhpy3ZhrUJqOMK)"><rect width="256" height="256" style="fill:rgb(0,0,0)" fill-opacity="0"/><g><g><path d=" M 156.239 40 L 65.027 40 C 62.487 40 60.429 42.059 60.429 46.053 L 60.429 212.857 C 60.429 213.941 62.487 216 65.027 216 L 190.973 216 C 193.513 216 195.571 213.941 195.571 212.857 L 195.571 80.788 C 195.571 78.601 195.279 77.897 194.764 77.378 L 158.193 40.808 C 157.675 40.292 156.971 40 156.239 40 Z " fill="rgb(233,233,224)"/><path d=" M 157.857 40.475 L 157.857 77.714 L 195.097 77.714 L 157.857 40.475 Z " fill="rgb(217,215,202)"/><path d=" M 190.973 216 L 65.027 216 C 62.487 216 60.429 213.941 60.429 211.402 L 60.429 162.571 L 195.571 162.571 L 195.571 211.402 C 195.571 213.941 193.513 216 190.973 216 Z " fill="rgb(93,93,93)"/><g><path d=" M 112.936 91.207 C 111.707 89.978 109.721 89.978 108.492 91.207 L 89.635 110.064 C 88.406 111.293 88.406 113.279 89.635 114.508 L 108.492 133.365 C 109.105 133.978 109.91 134.286 110.714 134.286 C 111.519 134.286 112.323 133.978 112.936 133.365 C 114.165 132.136 114.165 130.15 112.936 128.921 L 96.301 112.286 L 112.936 95.651 C 114.165 94.422 114.165 92.435 112.936 91.207 Z " fill="rgb(93,93,93)"/><path d=" M 169.508 110.064 L 161.722 102.278 L 150.651 91.207 C 149.422 89.978 147.435 89.978 146.207 91.207 C 144.978 92.435 144.978 94.422 146.207 95.651 L 162.842 112.286 L 146.207 128.921 C 144.978 130.15 144.978 132.136 146.207 133.365 C 146.819 133.978 147.624 134.286 148.429 134.286 C 149.233 134.286 150.038 133.978 150.651 133.365 L 169.508 114.508 C 170.737 113.279 170.737 111.293 169.508 110.064 Z " fill="rgb(93,93,93)"/></g></g></g><path d=" M 122.595 203.746 L 120.523 197.594 L 109.736 197.594 L 107.686 203.746 L 101.144 203.746 L 112.259 173.887 L 117.96 173.887 L 129.137 203.746 L 122.595 203.746 L 122.595 203.746 Z  M 115.109 181.434 L 111.397 192.61 L 118.862 192.61 L 115.109 181.434 L 115.109 181.434 Z  M 143.964 194.559 L 143.964 173.887 L 150.116 173.887 L 150.116 194.559 L 150.116 194.559 Q 150.116 197.409 148.855 199.593 L 148.855 199.593 L 148.855 199.593 Q 147.594 201.777 145.297 202.967 L 145.297 202.967 L 145.297 202.967 Q 143 204.156 140.108 204.156 L 140.108 204.156 L 140.108 204.156 Q 135.371 204.156 132.726 201.747 L 132.726 201.747 L 132.726 201.747 Q 130.08 199.337 130.08 194.928 L 130.08 194.928 L 136.273 194.928 L 136.273 194.928 Q 136.273 197.122 137.196 198.168 L 137.196 198.168 L 137.196 198.168 Q 138.119 199.214 140.108 199.214 L 140.108 199.214 L 140.108 199.214 Q 141.872 199.214 142.918 198.004 L 142.918 198.004 L 142.918 198.004 Q 143.964 196.794 143.964 194.559 L 143.964 194.559 L 143.964 194.559 Z " fill-rule="evenodd" fill="rgb(255,255,255)"/></g></svg>
