<?xml version="1.0" standalone="no"?><!-- Generator: Gravit.io --><svg xmlns="http://www.w3.org/2000/svg" xmlns:xlink="http://www.w3.org/1999/xlink" style="isolation:isolate" viewBox="0 0 256 256" width="256" height="256"><defs><clipPath id="_clipPath_TmFC4HHluelSgN1NslxujnVenHXdyqsa"><rect width="256" height="256"/></clipPath></defs><g clip-path="url(#_clipPath_TmFC4HHluelSgN1NslxujnVenHXdyqsa)"><rect width="256" height="256" style="fill:rgb(0,0,0)" fill-opacity="0"/><g><g><path d=" M 156.239 40 L 65.027 40 C 62.487 40 60.429 42.059 60.429 46.053 L 60.429 212.857 C 60.429 213.941 62.487 216 65.027 216 L 190.973 216 C 193.513 216 195.571 213.941 195.571 212.857 L 195.571 80.788 C 195.571 78.601 195.279 77.897 194.764 77.378 L 158.193 40.808 C 157.675 40.292 156.971 40 156.239 40 Z " fill="rgb(233,233,224)"/><path d=" M 157.857 40.475 L 157.857 77.714 L 195.097 77.714 L 157.857 40.475 Z " fill="rgb(217,215,202)"/><path d=" M 190.973 216 L 65.027 216 C 62.487 216 60.429 213.941 60.429 211.402 L 60.429 162.571 L 195.571 162.571 L 195.571 211.402 C 195.571 213.941 193.513 216 190.973 216 Z " fill="rgb(0,150,230)"/><g><path d=" M 101.286 99.714 L 101.286 87.143 C 101.286 85.411 102.694 84 104.429 84 C 106.167 84 107.571 82.592 107.571 80.857 C 107.571 79.122 106.167 77.714 104.429 77.714 C 99.23 77.714 95 81.945 95 87.143 L 95 99.714 C 95 103.181 92.181 106 88.714 106 C 86.976 106 85.571 107.408 85.571 109.143 C 85.571 110.878 86.976 112.286 88.714 112.286 C 92.181 112.286 95 115.105 95 118.571 L 95 131.143 C 95 136.341 99.23 140.571 104.429 140.571 C 106.167 140.571 107.571 139.163 107.571 137.429 C 107.571 135.694 106.167 134.286 104.429 134.286 C 102.694 134.286 101.286 132.875 101.286 131.143 L 101.286 118.571 C 101.286 114.8 99.582 111.45 96.942 109.143 C 99.582 106.836 101.286 103.486 101.286 99.714 Z " fill="rgb(0,150,230)"/><path d=" M 164.143 106 C 160.676 106 157.857 103.181 157.857 99.714 L 157.857 87.143 C 157.857 81.945 153.627 77.714 148.429 77.714 C 146.691 77.714 145.286 79.122 145.286 80.857 C 145.286 82.592 146.691 84 148.429 84 C 150.163 84 151.571 85.411 151.571 87.143 L 151.571 99.714 C 151.571 103.486 153.275 106.836 155.915 109.143 C 153.275 111.45 151.571 114.8 151.571 118.571 L 151.571 131.143 C 151.571 132.875 150.163 134.286 148.429 134.286 C 146.691 134.286 145.286 135.694 145.286 137.429 C 145.286 139.163 146.691 140.571 148.429 140.571 C 153.627 140.571 157.857 136.341 157.857 131.143 L 157.857 118.571 C 157.857 115.105 160.676 112.286 164.143 112.286 C 165.881 112.286 167.286 110.878 167.286 109.143 C 167.286 107.408 165.881 106 164.143 106 Z " fill="rgb(0,150,230)"/></g></g></g><path d=" M 106.954 193.8 L 113.106 193.8 L 113.106 193.8 Q 112.758 198.619 109.548 201.388 L 109.548 201.388 L 109.548 201.388 Q 106.339 204.156 101.089 204.156 L 101.089 204.156 L 101.089 204.156 Q 95.347 204.156 92.055 200.291 L 92.055 200.291 L 92.055 200.291 Q 88.764 196.425 88.764 189.678 L 88.764 189.678 L 88.764 187.853 L 88.764 187.853 Q 88.764 183.546 90.281 180.265 L 90.281 180.265 L 90.281 180.265 Q 91.799 176.983 94.619 175.23 L 94.619 175.23 L 94.619 175.23 Q 97.438 173.477 101.171 173.477 L 101.171 173.477 L 101.171 173.477 Q 106.339 173.477 109.497 176.245 L 109.497 176.245 L 109.497 176.245 Q 112.655 179.014 113.147 184.018 L 113.147 184.018 L 106.995 184.018 L 106.995 184.018 Q 106.77 181.126 105.385 179.824 L 105.385 179.824 L 105.385 179.824 Q 104.001 178.521 101.171 178.521 L 101.171 178.521 L 101.171 178.521 Q 98.095 178.521 96.567 180.726 L 96.567 180.726 L 96.567 180.726 Q 95.039 182.931 94.998 187.565 L 94.998 187.565 L 94.998 189.821 L 94.998 189.821 Q 94.998 194.661 96.464 196.896 L 96.464 196.896 L 96.464 196.896 Q 97.931 199.132 101.089 199.132 L 101.089 199.132 L 101.089 199.132 Q 103.939 199.132 105.344 197.83 L 105.344 197.83 L 105.344 197.83 Q 106.749 196.527 106.954 193.8 L 106.954 193.8 L 106.954 193.8 Z  M 132.63 195.912 L 132.63 195.912 L 132.63 195.912 Q 132.63 194.169 131.399 193.236 L 131.399 193.236 L 131.399 193.236 Q 130.169 192.303 126.97 191.267 L 126.97 191.267 L 126.97 191.267 Q 123.771 190.231 121.904 189.227 L 121.904 189.227 L 121.904 189.227 Q 116.818 186.479 116.818 181.823 L 116.818 181.823 L 116.818 181.823 Q 116.818 179.403 118.182 177.506 L 118.182 177.506 L 118.182 177.506 Q 119.546 175.609 122.099 174.543 L 122.099 174.543 L 122.099 174.543 Q 124.652 173.477 127.831 173.477 L 127.831 173.477 L 127.831 173.477 Q 131.03 173.477 133.532 174.635 L 133.532 174.635 L 133.532 174.635 Q 136.034 175.794 137.418 177.906 L 137.418 177.906 L 137.418 177.906 Q 138.803 180.019 138.803 182.705 L 138.803 182.705 L 132.65 182.705 L 132.65 182.705 Q 132.65 180.654 131.358 179.516 L 131.358 179.516 L 131.358 179.516 Q 130.066 178.378 127.729 178.378 L 127.729 178.378 L 127.729 178.378 Q 125.473 178.378 124.222 179.332 L 124.222 179.332 L 124.222 179.332 Q 122.971 180.285 122.971 181.844 L 122.971 181.844 L 122.971 181.844 Q 122.971 183.3 124.437 184.284 L 124.437 184.284 L 124.437 184.284 Q 125.903 185.269 128.754 186.13 L 128.754 186.13 L 128.754 186.13 Q 134.004 187.709 136.403 190.047 L 136.403 190.047 L 136.403 190.047 Q 138.803 192.385 138.803 195.871 L 138.803 195.871 L 138.803 195.871 Q 138.803 199.747 135.87 201.952 L 135.87 201.952 L 135.87 201.952 Q 132.938 204.156 127.975 204.156 L 127.975 204.156 L 127.975 204.156 Q 124.529 204.156 121.699 202.895 L 121.699 202.895 L 121.699 202.895 Q 118.869 201.634 117.382 199.439 L 117.382 199.439 L 117.382 199.439 Q 115.896 197.245 115.896 194.354 L 115.896 194.354 L 122.068 194.354 L 122.068 194.354 Q 122.068 199.296 127.975 199.296 L 127.975 199.296 L 127.975 199.296 Q 130.169 199.296 131.399 198.404 L 131.399 198.404 L 131.399 198.404 Q 132.63 197.512 132.63 195.912 Z  M 158.449 195.912 L 158.449 195.912 L 158.449 195.912 Q 158.449 194.169 157.219 193.236 L 157.219 193.236 L 157.219 193.236 Q 155.988 192.303 152.789 191.267 L 152.789 191.267 L 152.789 191.267 Q 149.59 190.231 147.724 189.227 L 147.724 189.227 L 147.724 189.227 Q 142.638 186.479 142.638 181.823 L 142.638 181.823 L 142.638 181.823 Q 142.638 179.403 144.001 177.506 L 144.001 177.506 L 144.001 177.506 Q 145.365 175.609 147.918 174.543 L 147.918 174.543 L 147.918 174.543 Q 150.472 173.477 153.65 173.477 L 153.65 173.477 L 153.65 173.477 Q 156.85 173.477 159.352 174.635 L 159.352 174.635 L 159.352 174.635 Q 161.854 175.794 163.238 177.906 L 163.238 177.906 L 163.238 177.906 Q 164.622 180.019 164.622 182.705 L 164.622 182.705 L 158.47 182.705 L 158.47 182.705 Q 158.47 180.654 157.178 179.516 L 157.178 179.516 L 157.178 179.516 Q 155.886 178.378 153.548 178.378 L 153.548 178.378 L 153.548 178.378 Q 151.292 178.378 150.041 179.332 L 150.041 179.332 L 150.041 179.332 Q 148.79 180.285 148.79 181.844 L 148.79 181.844 L 148.79 181.844 Q 148.79 183.3 150.256 184.284 L 150.256 184.284 L 150.256 184.284 Q 151.723 185.269 154.573 186.13 L 154.573 186.13 L 154.573 186.13 Q 159.823 187.709 162.223 190.047 L 162.223 190.047 L 162.223 190.047 Q 164.622 192.385 164.622 195.871 L 164.622 195.871 L 164.622 195.871 Q 164.622 199.747 161.689 201.952 L 161.689 201.952 L 161.689 201.952 Q 158.757 204.156 153.794 204.156 L 153.794 204.156 L 153.794 204.156 Q 150.349 204.156 147.519 202.895 L 147.519 202.895 L 147.519 202.895 Q 144.688 201.634 143.202 199.439 L 143.202 199.439 L 143.202 199.439 Q 141.715 197.245 141.715 194.354 L 141.715 194.354 L 147.888 194.354 L 147.888 194.354 Q 147.888 199.296 153.794 199.296 L 153.794 199.296 L 153.794 199.296 Q 155.988 199.296 157.219 198.404 L 157.219 198.404 L 157.219 198.404 Q 158.449 197.512 158.449 195.912 Z " fill-rule="evenodd" fill="rgb(255,255,255)"/></g></svg>
