<?xml version="1.0" standalone="no"?><!-- Generator: Gravit.io --><svg xmlns="http://www.w3.org/2000/svg" xmlns:xlink="http://www.w3.org/1999/xlink" style="isolation:isolate" viewBox="0 0 256 256" width="256" height="256"><defs><clipPath id="_clipPath_ecGPLG9nrQvtE2ypJ2zXrdchBjT2UYsB"><rect width="256" height="256"/></clipPath></defs><g clip-path="url(#_clipPath_ecGPLG9nrQvtE2ypJ2zXrdchBjT2UYsB)"><rect width="256" height="256" style="fill:rgb(0,0,0)" fill-opacity="0"/><g><g><path d=" M 156.239 40 L 65.027 40 C 62.487 40 60.429 42.059 60.429 46.053 L 60.429 212.857 C 60.429 213.941 62.487 216 65.027 216 L 190.973 216 C 193.513 216 195.571 213.941 195.571 212.857 L 195.571 80.788 C 195.571 78.601 195.279 77.897 194.764 77.378 L 158.193 40.808 C 157.675 40.292 156.971 40 156.239 40 Z " fill="rgb(233,233,224)"/><path d=" M 157.857 40.475 L 157.857 77.714 L 195.097 77.714 L 157.857 40.475 Z " fill="rgb(217,215,202)"/><path d=" M 190.973 216 L 65.027 216 C 62.487 216 60.429 213.941 60.429 211.402 L 60.429 162.571 L 195.571 162.571 L 195.571 211.402 C 195.571 213.941 193.513 216 190.973 216 Z " fill="rgb(93,93,93)"/><g><path d=" M 112.936 91.207 C 111.707 89.978 109.721 89.978 108.492 91.207 L 89.635 110.064 C 88.406 111.293 88.406 113.279 89.635 114.508 L 108.492 133.365 C 109.105 133.978 109.91 134.286 110.714 134.286 C 111.519 134.286 112.323 133.978 112.936 133.365 C 114.165 132.136 114.165 130.15 112.936 128.921 L 96.301 112.286 L 112.936 95.651 C 114.165 94.422 114.165 92.435 112.936 91.207 Z " fill="rgb(93,93,93)"/><path d=" M 169.508 110.064 L 161.722 102.278 L 150.651 91.207 C 149.422 89.978 147.435 89.978 146.207 91.207 C 144.978 92.435 144.978 94.422 146.207 95.651 L 162.842 112.286 L 146.207 128.921 C 144.978 130.15 144.978 132.136 146.207 133.365 C 146.819 133.978 147.624 134.286 148.429 134.286 C 149.233 134.286 150.038 133.978 150.651 133.365 L 169.508 114.508 C 170.737 113.279 170.737 111.293 169.508 110.064 Z " fill="rgb(93,93,93)"/></g></g></g><path d=" M 92.035 187.951 L 92.035 198.164 L 92.035 198.164 Q 90.611 199.869 88.01 200.81 L 88.01 200.81 L 88.01 200.81 Q 85.408 201.75 82.244 201.75 L 82.244 201.75 L 82.244 201.75 Q 78.922 201.75 76.417 200.3 L 76.417 200.3 L 76.417 200.3 Q 73.912 198.85 72.55 196.09 L 72.55 196.09 L 72.55 196.09 Q 71.188 193.33 71.152 189.604 L 71.152 189.604 L 71.152 187.863 L 71.152 187.863 Q 71.152 184.031 72.444 181.228 L 72.444 181.228 L 72.444 181.228 Q 73.736 178.424 76.171 176.938 L 76.171 176.938 L 76.171 176.938 Q 78.605 175.453 81.875 175.453 L 81.875 175.453 L 81.875 175.453 Q 86.428 175.453 88.994 177.624 L 88.994 177.624 L 88.994 177.624 Q 91.561 179.795 92.035 183.943 L 92.035 183.943 L 86.902 183.943 L 86.902 183.943 Q 86.551 181.746 85.347 180.727 L 85.347 180.727 L 85.347 180.727 Q 84.143 179.707 82.033 179.707 L 82.033 179.707 L 82.033 179.707 Q 79.344 179.707 77.938 181.729 L 77.938 181.729 L 77.938 181.729 Q 76.531 183.75 76.514 187.74 L 76.514 187.74 L 76.514 189.375 L 76.514 189.375 Q 76.514 193.4 78.043 195.457 L 78.043 195.457 L 78.043 195.457 Q 79.572 197.514 82.525 197.514 L 82.525 197.514 L 82.525 197.514 Q 85.496 197.514 86.762 196.248 L 86.762 196.248 L 86.762 191.836 L 81.963 191.836 L 81.963 187.951 L 92.035 187.951 L 92.035 187.951 Z  M 106.73 182.256 L 106.66 187.143 L 106.66 187.143 Q 105.623 187.002 104.832 187.002 L 104.832 187.002 L 104.832 187.002 Q 101.949 187.002 101.053 188.953 L 101.053 188.953 L 101.053 201.398 L 95.973 201.398 L 95.973 182.379 L 100.771 182.379 L 100.912 184.646 L 100.912 184.646 Q 102.441 182.027 105.148 182.027 L 105.148 182.027 L 105.148 182.027 Q 105.992 182.027 106.73 182.256 L 106.73 182.256 L 106.73 182.256 Z  M 108.313 191.941 L 108.313 191.713 L 108.313 191.713 Q 108.313 188.883 109.402 186.668 L 109.402 186.668 L 109.402 186.668 Q 110.492 184.453 112.54 183.24 L 112.54 183.24 L 112.54 183.24 Q 114.588 182.027 117.295 182.027 L 117.295 182.027 L 117.295 182.027 Q 121.145 182.027 123.579 184.383 L 123.579 184.383 L 123.579 184.383 Q 126.014 186.738 126.295 190.781 L 126.295 190.781 L 126.33 192.082 L 126.33 192.082 Q 126.33 196.459 123.887 199.104 L 123.887 199.104 L 123.887 199.104 Q 121.443 201.75 117.33 201.75 L 117.33 201.75 L 117.33 201.75 Q 113.217 201.75 110.765 199.113 L 110.765 199.113 L 110.765 199.113 Q 108.313 196.477 108.313 191.941 L 108.313 191.941 L 108.313 191.941 Z  M 113.393 192.082 L 113.393 192.082 L 113.393 192.082 Q 113.393 194.789 114.412 196.222 L 114.412 196.222 L 114.412 196.222 Q 115.432 197.654 117.33 197.654 L 117.33 197.654 L 117.33 197.654 Q 119.176 197.654 120.213 196.239 L 120.213 196.239 L 120.213 196.239 Q 121.25 194.824 121.25 191.713 L 121.25 191.713 L 121.25 191.713 Q 121.25 189.059 120.213 187.6 L 120.213 187.6 L 120.213 187.6 Q 119.176 186.141 117.295 186.141 L 117.295 186.141 L 117.295 186.141 Q 115.432 186.141 114.412 187.591 L 114.412 187.591 L 114.412 187.591 Q 113.393 189.041 113.393 192.082 Z  M 128.668 191.941 L 128.668 191.713 L 128.668 191.713 Q 128.668 188.883 129.758 186.668 L 129.758 186.668 L 129.758 186.668 Q 130.848 184.453 132.896 183.24 L 132.896 183.24 L 132.896 183.24 Q 134.943 182.027 137.65 182.027 L 137.65 182.027 L 137.65 182.027 Q 141.5 182.027 143.935 184.383 L 143.935 184.383 L 143.935 184.383 Q 146.369 186.738 146.65 190.781 L 146.65 190.781 L 146.686 192.082 L 146.686 192.082 Q 146.686 196.459 144.242 199.104 L 144.242 199.104 L 144.242 199.104 Q 141.799 201.75 137.686 201.75 L 137.686 201.75 L 137.686 201.75 Q 133.572 201.75 131.12 199.113 L 131.12 199.113 L 131.12 199.113 Q 128.668 196.477 128.668 191.941 L 128.668 191.941 L 128.668 191.941 Z  M 133.748 192.082 L 133.748 192.082 L 133.748 192.082 Q 133.748 194.789 134.768 196.222 L 134.768 196.222 L 134.768 196.222 Q 135.787 197.654 137.686 197.654 L 137.686 197.654 L 137.686 197.654 Q 139.531 197.654 140.568 196.239 L 140.568 196.239 L 140.568 196.239 Q 141.605 194.824 141.605 191.713 L 141.605 191.713 L 141.605 191.713 Q 141.605 189.059 140.568 187.6 L 140.568 187.6 L 140.568 187.6 Q 139.531 186.141 137.65 186.141 L 137.65 186.141 L 137.65 186.141 Q 135.787 186.141 134.768 187.591 L 134.768 187.591 L 134.768 187.591 Q 133.748 189.041 133.748 192.082 Z  M 153.4 182.379 L 156.934 195.193 L 160.467 182.379 L 165.775 182.379 L 159.359 201.398 L 154.508 201.398 L 148.092 182.379 L 153.4 182.379 L 153.4 182.379 Z  M 171.576 182.379 L 175.109 194.209 L 178.625 182.379 L 184.074 182.379 L 176.428 204.352 L 176.006 205.354 L 176.006 205.354 Q 174.301 209.08 170.381 209.08 L 170.381 209.08 L 170.381 209.08 Q 169.273 209.08 168.131 208.746 L 168.131 208.746 L 168.131 204.896 L 168.904 204.914 L 168.904 204.914 Q 170.346 204.914 171.058 204.475 L 171.058 204.475 L 171.058 204.475 Q 171.77 204.035 172.174 203.016 L 172.174 203.016 L 172.771 201.451 L 166.109 182.379 L 171.576 182.379 L 171.576 182.379 Z " fill-rule="evenodd" fill="rgb(255,255,255)"/></g></svg>
