<?xml version="1.0" standalone="no"?><!-- Generator: Gravit.io --><svg xmlns="http://www.w3.org/2000/svg" xmlns:xlink="http://www.w3.org/1999/xlink" style="isolation:isolate" viewBox="0 0 256 256" width="256" height="256"><defs><clipPath id="_clipPath_gbMfy3cEtTHqV2jPZnkys9sHeVaJVEL6"><rect width="256" height="256"/></clipPath></defs><g clip-path="url(#_clipPath_gbMfy3cEtTHqV2jPZnkys9sHeVaJVEL6)"><rect width="256" height="256" style="fill:rgb(0,0,0)" fill-opacity="0"/><g><g><path d=" M 156.239 40 L 65.027 40 C 62.487 40 60.429 42.059 60.429 46.053 L 60.429 212.857 C 60.429 213.941 62.487 216 65.027 216 L 190.973 216 C 193.513 216 195.571 213.941 195.571 212.857 L 195.571 80.788 C 195.571 78.601 195.279 77.897 194.764 77.378 L 158.193 40.808 C 157.675 40.292 156.971 40 156.239 40 Z " fill="rgb(233,233,224)"/><path d=" M 157.857 40.475 L 157.857 77.714 L 195.097 77.714 L 157.857 40.475 Z " fill="rgb(217,215,202)"/><path d=" M 190.973 216 L 65.027 216 C 62.487 216 60.429 213.941 60.429 211.402 L 60.429 162.571 L 195.571 162.571 L 195.571 211.402 C 195.571 213.941 193.513 216 190.973 216 Z " fill="rgb(85,96,128)"/><g><path d=" M 129.571 115.429 L 129.571 109.143 L 135.857 109.143 L 135.857 102.857 L 129.571 102.857 L 129.571 96.571 L 135.857 96.571 L 135.857 90.286 L 129.571 90.286 L 129.571 84 L 135.857 84 L 135.857 77.714 L 129.571 77.714 L 129.571 71.429 L 135.857 71.429 L 135.857 65.143 L 129.571 65.143 L 129.571 58.857 L 123.286 58.857 L 123.286 65.143 L 117 65.143 L 117 71.429 L 123.286 71.429 L 123.286 77.714 L 117 77.714 L 117 84 L 123.286 84 L 123.286 90.286 L 117 90.286 L 117 96.571 L 123.286 96.571 L 123.286 102.857 L 117 102.857 L 117 109.143 L 123.286 109.143 L 123.286 115.429 L 110.714 115.429 L 110.714 131.143 C 110.714 139.808 117.764 146.857 126.429 146.857 C 135.093 146.857 142.143 139.808 142.143 131.143 L 142.143 115.429 L 129.571 115.429 Z  M 135.857 131.143 C 135.857 136.341 131.627 140.571 126.429 140.571 C 121.23 140.571 117 136.341 117 131.143 L 117 121.714 L 135.857 121.714 L 135.857 131.143 Z " fill="rgb(200,189,184)"/><path d=" M 123.286 134.286 L 129.571 134.286 C 131.306 134.286 132.714 132.881 132.714 131.143 C 132.714 129.405 131.306 128 129.571 128 L 123.286 128 C 121.551 128 120.143 129.405 120.143 131.143 C 120.143 132.881 121.551 134.286 123.286 134.286 Z " fill="rgb(200,189,184)"/></g></g></g><path d=" M 118.412 177.414 L 103.688 198.804 L 118.74 198.804 L 118.74 203.746 L 95.997 203.746 L 95.997 200.137 L 110.763 178.87 L 96.018 178.87 L 96.018 173.887 L 118.412 173.887 L 118.412 177.414 L 118.412 177.414 Z  M 129.158 173.887 L 129.158 203.746 L 123.006 203.746 L 123.006 173.887 L 129.158 173.887 L 129.158 173.887 Z  M 146.405 193.226 L 141.012 193.226 L 141.012 203.746 L 134.859 203.746 L 134.859 173.887 L 146.508 173.887 L 146.508 173.887 Q 149.871 173.887 152.424 175.117 L 152.424 175.117 L 152.424 175.117 Q 154.978 176.348 156.352 178.614 L 156.352 178.614 L 156.352 178.614 Q 157.726 180.88 157.726 183.771 L 157.726 183.771 L 157.726 183.771 Q 157.726 188.16 154.721 190.693 L 154.721 190.693 L 154.721 190.693 Q 151.717 193.226 146.405 193.226 L 146.405 193.226 L 146.405 193.226 Z  M 141.012 178.87 L 141.012 188.242 L 146.508 188.242 L 146.508 188.242 Q 148.948 188.242 150.23 187.094 L 150.23 187.094 L 150.23 187.094 Q 151.512 185.945 151.512 183.813 L 151.512 183.813 L 151.512 183.813 Q 151.512 181.618 150.22 180.265 L 150.22 180.265 L 150.22 180.265 Q 148.928 178.911 146.651 178.87 L 146.651 178.87 L 141.012 178.87 L 141.012 178.87 Z " fill-rule="evenodd" fill="rgb(255,255,255)"/></g></svg>
