<?xml version="1.0" standalone="no"?><!-- Generator: Gravit.io --><svg xmlns="http://www.w3.org/2000/svg" xmlns:xlink="http://www.w3.org/1999/xlink" style="isolation:isolate" viewBox="0 0 256 256" width="256" height="256"><defs><clipPath id="_clipPath_CSCnFZmK6EwoMF84uCsUiFl4cfgVJNZp"><rect width="256" height="256"/></clipPath></defs><g clip-path="url(#_clipPath_CSCnFZmK6EwoMF84uCsUiFl4cfgVJNZp)"><rect width="256" height="256" style="fill:rgb(0,0,0)" fill-opacity="0"/><g><g><path d=" M 156.239 40 L 65.027 40 C 62.487 40 60.429 42.059 60.429 46.053 L 60.429 212.857 C 60.429 213.941 62.487 216 65.027 216 L 190.973 216 C 193.513 216 195.571 213.941 195.571 212.857 L 195.571 80.788 C 195.571 78.601 195.279 77.897 194.764 77.378 L 158.193 40.808 C 157.675 40.292 156.971 40 156.239 40 Z " fill="rgb(233,233,224)"/><path d=" M 157.857 40.475 L 157.857 77.714 L 195.097 77.714 L 157.857 40.475 Z " fill="rgb(217,215,202)"/><path d=" M 190.973 216 L 65.027 216 C 62.487 216 60.429 213.941 60.429 211.402 L 60.429 162.571 L 195.571 162.571 L 195.571 211.402 C 195.571 213.941 193.513 216 190.973 216 Z " fill="rgb(119,123,179)"/></g></g><path d=" M 99.212 193.226 L 93.818 193.226 L 93.818 203.746 L 87.666 203.746 L 87.666 173.887 L 99.314 173.887 L 99.314 173.887 Q 102.678 173.887 105.231 175.117 L 105.231 175.117 L 105.231 175.117 Q 107.784 176.348 109.158 178.614 L 109.158 178.614 L 109.158 178.614 Q 110.532 180.88 110.532 183.771 L 110.532 183.771 L 110.532 183.771 Q 110.532 188.16 107.528 190.693 L 107.528 190.693 L 107.528 190.693 Q 104.523 193.226 99.212 193.226 L 99.212 193.226 L 99.212 193.226 Z  M 93.818 178.87 L 93.818 188.242 L 99.314 188.242 L 99.314 188.242 Q 101.755 188.242 103.037 187.094 L 103.037 187.094 L 103.037 187.094 Q 104.318 185.945 104.318 183.813 L 104.318 183.813 L 104.318 183.813 Q 104.318 181.618 103.026 180.265 L 103.026 180.265 L 103.026 180.265 Q 101.734 178.911 99.458 178.87 L 99.458 178.87 L 93.818 178.87 L 93.818 178.87 Z  M 139.059 173.887 L 139.059 203.746 L 132.906 203.746 L 132.906 190.949 L 120.909 190.949 L 120.909 203.746 L 114.757 203.746 L 114.757 173.887 L 120.909 173.887 L 120.909 185.986 L 132.906 185.986 L 132.906 173.887 L 139.059 173.887 L 139.059 173.887 Z  M 155.978 193.226 L 150.584 193.226 L 150.584 203.746 L 144.432 203.746 L 144.432 173.887 L 156.08 173.887 L 156.08 173.887 Q 159.443 173.887 161.997 175.117 L 161.997 175.117 L 161.997 175.117 Q 164.55 176.348 165.924 178.614 L 165.924 178.614 L 165.924 178.614 Q 167.298 180.88 167.298 183.771 L 167.298 183.771 L 167.298 183.771 Q 167.298 188.16 164.293 190.693 L 164.293 190.693 L 164.293 190.693 Q 161.289 193.226 155.978 193.226 L 155.978 193.226 L 155.978 193.226 Z  M 150.584 178.87 L 150.584 188.242 L 156.08 188.242 L 156.08 188.242 Q 158.521 188.242 159.802 187.094 L 159.802 187.094 L 159.802 187.094 Q 161.084 185.945 161.084 183.813 L 161.084 183.813 L 161.084 183.813 Q 161.084 181.618 159.792 180.265 L 159.792 180.265 L 159.792 180.265 Q 158.5 178.911 156.224 178.87 L 156.224 178.87 L 150.584 178.87 L 150.584 178.87 Z " fill-rule="evenodd" fill="rgb(255,255,255)"/><g><g><clipPath id="_clipPath_w8i8yiHLzkUQfxhZF70FnAGYKGjmD1xd"><path d=" M 81.92 113 C 81.92 126.387 102.551 137.24 128 137.24 L 128 137.24 C 153.449 137.24 174.08 126.387 174.08 113 L 174.08 113 C 174.08 99.613 153.449 88.76 128 88.76 L 128 88.76 C 102.551 88.76 81.92 99.613 81.92 113 Z " fill="rgb(255,255,255)"/></clipPath><g clip-path="url(#_clipPath_w8i8yiHLzkUQfxhZF70FnAGYKGjmD1xd)"><g><g><g><radialGradient id="_rgradient_0" fx="0.30020203956517727" fy="0.8242154098969326" cx="0.30020203956517727" cy="0.8242154098969326" r="1" gradientTransform="matrix(-92.16,0,0,48.48,81.92,137.24)" gradientUnits="userSpaceOnUse"><stop offset="0%" stop-opacity="1" style="stop-color:rgb(174,178,213)"/><stop offset="30%" stop-opacity="1" style="stop-color:rgb(174,178,213)"/><stop offset="75%" stop-opacity="1" style="stop-color:rgb(72,76,137)"/><stop offset="100%" stop-opacity="1" style="stop-color:rgb(72,76,137)"/></radialGradient><path d=" M 81.92 113 C 81.92 126.387 102.551 137.24 128 137.24 L 128 137.24 C 153.449 137.24 174.08 126.387 174.08 113 L 174.08 113 C 174.08 99.613 153.449 88.76 128 88.76 L 128 88.76 C 102.551 88.76 81.92 99.613 81.92 113 Z " fill="url(#_rgradient_0)"/></g></g></g></g></g><g><clipPath id="_clipPath_GIOKE402KsdWTc8zrExx08rElTuo0gbI"><path d=" M 80 86 L 176 86 L 176 140 L 80 140 L 80 86 Z " fill="rgb(255,255,255)"/></clipPath><g clip-path="url(#_clipPath_GIOKE402KsdWTc8zrExx08rElTuo0gbI)"><g><g><path d=" M 128 135.44 C 152.455 135.44 172.28 125.393 172.28 113 C 172.28 100.607 152.455 90.56 128 90.56 C 103.545 90.56 83.72 100.607 83.72 113 C 83.72 125.393 103.545 135.44 128 135.44 Z " fill="rgb(119,123,179)"/></g></g></g></g><g><clipPath id="_clipPath_2BThWv5AkrAQ6iovMzGs7kf8X42se5hU"><path d=" M 80 86 L 176 86 L 176 140 L 80 140 L 80 86 Z " fill="rgb(255,255,255)"/></clipPath><g clip-path="url(#_clipPath_2BThWv5AkrAQ6iovMzGs7kf8X42se5hU)"><g><g><path d=" M 106.956 115.782 C 108.967 115.782 110.468 115.411 111.418 114.68 C 112.357 113.957 113.006 112.703 113.346 110.955 C 113.664 109.321 113.543 108.179 112.987 107.564 C 112.42 106.935 111.192 106.616 109.339 106.616 L 106.125 106.616 L 104.344 115.782 L 106.956 115.782 Z  M 96.445 127.074 C 96.296 127.074 96.154 127.007 96.06 126.892 C 95.965 126.777 95.926 126.625 95.955 126.479 L 100.676 102.187 C 100.722 101.952 100.927 101.782 101.167 101.782 L 111.342 101.782 C 114.54 101.782 116.921 102.651 118.417 104.363 C 119.921 106.085 120.386 108.492 119.797 111.517 C 119.558 112.749 119.146 113.894 118.574 114.918 C 118.001 115.944 117.243 116.893 116.322 117.74 C 115.219 118.772 113.971 119.52 112.616 119.961 C 111.282 120.395 109.569 120.616 107.525 120.616 L 103.404 120.616 L 102.228 126.669 C 102.182 126.904 101.976 127.074 101.737 127.074 L 96.445 127.074 Z " fill="rgb(0,0,0)"/></g><g><path d=" M 106.537 107.115 L 109.339 107.115 C 111.575 107.115 112.352 107.606 112.616 107.899 C 113.054 108.384 113.137 109.408 112.856 110.86 C 112.539 112.485 111.953 113.637 111.113 114.284 C 110.252 114.946 108.854 115.282 106.956 115.282 L 104.95 115.282 L 106.537 107.115 Z  M 111.342 101.282 L 101.167 101.282 C 100.688 101.282 100.276 101.621 100.185 102.091 L 95.464 126.383 C 95.407 126.676 95.484 126.979 95.674 127.21 C 95.864 127.44 96.147 127.574 96.445 127.574 L 101.737 127.574 C 102.216 127.574 102.627 127.234 102.719 126.765 L 103.817 121.115 L 107.525 121.115 C 109.622 121.115 111.387 120.887 112.771 120.436 C 114.195 119.973 115.504 119.189 116.664 118.105 C 117.622 117.223 118.412 116.233 119.01 115.162 C 119.609 114.091 120.039 112.897 120.288 111.612 C 120.907 108.428 120.404 105.878 118.793 104.034 C 117.198 102.208 114.691 101.282 111.342 101.282 Z  M 103.737 116.282 L 106.956 116.282 C 109.089 116.282 110.678 115.88 111.723 115.076 C 112.767 114.272 113.471 112.931 113.837 111.05 C 114.187 109.245 114.028 107.971 113.359 107.229 C 112.689 106.487 111.349 106.115 109.339 106.115 L 105.713 106.115 L 103.737 116.282 Z  M 111.342 102.282 C 114.404 102.282 116.637 103.085 118.04 104.692 C 119.444 106.299 119.867 108.542 119.307 111.421 C 119.076 112.608 118.686 113.692 118.137 114.675 C 117.588 115.658 116.87 116.557 115.984 117.372 C 114.927 118.361 113.753 119.065 112.462 119.485 C 111.17 119.906 109.525 120.115 107.525 120.115 L 102.992 120.115 L 101.737 126.574 L 96.445 126.574 L 101.167 102.282 L 111.342 102.282 Z " fill="rgb(255,255,255)"/></g><g><path d=" M 131.931 120.616 C 131.781 120.616 131.64 120.549 131.545 120.434 C 131.45 120.318 131.411 120.167 131.44 120.02 L 133.528 109.272 C 133.727 108.25 133.678 107.516 133.39 107.206 C 133.214 107.017 132.686 106.699 131.123 106.699 L 127.339 106.699 L 124.713 120.211 C 124.667 120.446 124.461 120.616 124.222 120.616 L 118.972 120.616 C 118.823 120.616 118.681 120.549 118.586 120.434 C 118.491 120.318 118.453 120.167 118.481 120.02 L 123.203 95.728 C 123.248 95.494 123.454 95.324 123.693 95.324 L 128.944 95.324 C 129.093 95.324 129.234 95.391 129.329 95.506 C 129.424 95.621 129.463 95.773 129.434 95.919 L 128.295 101.782 L 132.365 101.782 C 135.466 101.782 137.569 102.329 138.794 103.454 C 140.042 104.601 140.431 106.435 139.951 108.907 L 137.755 120.211 C 137.709 120.446 137.503 120.616 137.264 120.616 L 131.931 120.616 Z " fill="rgb(0,0,0)"/></g><g><path d=" M 128.944 94.824 L 123.694 94.824 C 123.215 94.824 122.803 95.163 122.712 95.633 L 117.991 119.925 C 117.934 120.218 118.011 120.521 118.201 120.752 C 118.391 120.982 118.674 121.115 118.972 121.115 L 124.222 121.115 C 124.701 121.115 125.113 120.776 125.204 120.306 L 127.751 107.199 L 131.123 107.199 C 132.683 107.199 133.011 107.532 133.024 107.546 C 133.118 107.648 133.243 108.12 133.037 109.177 L 130.949 119.925 C 130.892 120.218 130.969 120.521 131.159 120.752 C 131.349 120.982 131.632 121.115 131.931 121.115 L 137.264 121.115 C 137.743 121.115 138.154 120.776 138.246 120.306 L 140.442 109.002 C 140.958 106.349 140.517 104.358 139.132 103.085 C 137.811 101.872 135.597 101.282 132.365 101.282 L 128.901 101.282 L 129.925 96.015 C 129.982 95.721 129.905 95.418 129.715 95.188 C 129.525 94.957 129.242 94.824 128.944 94.824 Z  M 128.944 95.824 L 127.688 102.282 L 132.365 102.282 C 135.308 102.282 137.338 102.796 138.455 103.822 C 139.572 104.848 139.907 106.512 139.461 108.811 L 137.264 120.115 L 131.931 120.115 L 134.019 109.367 C 134.257 108.145 134.169 107.311 133.757 106.866 C 133.344 106.421 132.466 106.199 131.123 106.199 L 126.927 106.199 L 124.222 120.115 L 118.972 120.115 L 123.694 95.824 L 128.944 95.824 Z " fill="rgb(255,255,255)"/></g><g><path d=" M 148.258 115.782 C 150.269 115.782 151.77 115.411 152.72 114.68 C 153.66 113.957 154.309 112.704 154.649 110.955 C 154.966 109.321 154.845 108.179 154.29 107.564 C 153.722 106.935 152.494 106.616 150.641 106.616 L 147.428 106.616 L 145.646 115.782 L 148.258 115.782 Z  M 137.748 127.074 C 137.599 127.074 137.457 127.007 137.362 126.892 C 137.267 126.777 137.229 126.625 137.257 126.479 L 141.978 102.187 C 142.024 101.952 142.23 101.782 142.469 101.782 L 152.645 101.782 C 155.843 101.782 158.223 102.651 159.72 104.363 C 161.224 106.085 161.688 108.492 161.1 111.517 C 160.86 112.749 160.449 113.894 159.876 114.918 C 159.303 115.944 158.546 116.893 157.625 117.74 C 156.522 118.772 155.274 119.52 153.919 119.961 C 152.585 120.395 150.872 120.616 148.827 120.616 L 144.707 120.616 L 143.531 126.669 C 143.485 126.904 143.279 127.074 143.04 127.074 L 137.748 127.074 Z " fill="rgb(0,0,0)"/></g><g><path d=" M 147.84 107.115 L 150.641 107.115 C 152.878 107.115 153.655 107.606 153.919 107.899 C 154.357 108.384 154.44 109.408 154.158 110.86 C 153.842 112.485 153.255 113.637 152.415 114.284 C 151.555 114.946 150.156 115.282 148.258 115.282 L 146.253 115.282 L 147.84 107.115 Z  M 152.645 101.282 L 142.469 101.282 C 141.991 101.282 141.579 101.621 141.488 102.091 L 136.767 126.383 C 136.71 126.676 136.787 126.979 136.976 127.21 C 137.166 127.44 137.449 127.574 137.748 127.574 L 143.04 127.574 C 143.518 127.574 143.93 127.234 144.021 126.765 L 145.119 121.115 L 148.827 121.115 C 150.924 121.115 152.69 120.887 154.074 120.436 C 155.497 119.973 156.807 119.189 157.967 118.105 C 158.925 117.223 159.715 116.233 160.313 115.162 C 160.911 114.091 161.341 112.897 161.591 111.612 C 162.21 108.428 161.707 105.878 160.096 104.034 C 158.501 102.208 155.994 101.282 152.645 101.282 Z  M 145.04 116.282 L 148.258 116.282 C 150.392 116.282 151.981 115.88 153.025 115.076 C 154.07 114.272 154.774 112.931 155.14 111.05 C 155.49 109.245 155.331 107.971 154.661 107.229 C 153.991 106.487 152.652 106.115 150.641 106.115 L 147.016 106.115 L 145.04 116.282 Z  M 152.645 102.282 C 155.706 102.282 157.939 103.085 159.343 104.692 C 160.747 106.299 161.169 108.542 160.609 111.421 C 160.379 112.608 159.989 113.692 159.44 114.675 C 158.891 115.658 158.173 116.557 157.286 117.372 C 156.23 118.361 155.056 119.065 153.764 119.485 C 152.473 119.906 150.827 120.115 148.827 120.115 L 144.295 120.115 L 143.04 126.574 L 137.748 126.574 L 142.469 102.282 L 152.645 102.282 Z " fill="rgb(255,255,255)"/></g></g></g></g></g></g></svg>
