<?xml version="1.0" standalone="no"?><!-- Generator: Gravit.io --><svg xmlns="http://www.w3.org/2000/svg" xmlns:xlink="http://www.w3.org/1999/xlink" style="isolation:isolate" viewBox="0 0 256 256" width="256" height="256"><defs><clipPath id="_clipPath_zAIJaBBFxZ4xllLjqtNpT4CVTvqyBDCc"><rect width="256" height="256"/></clipPath></defs><g clip-path="url(#_clipPath_zAIJaBBFxZ4xllLjqtNpT4CVTvqyBDCc)"><rect width="256" height="256" style="fill:rgb(0,0,0)" fill-opacity="0"/><g><g><path d=" M 156.239 40 L 65.027 40 C 62.487 40 60.429 42.059 60.429 46.053 L 60.429 212.857 C 60.429 213.941 62.487 216 65.027 216 L 190.973 216 C 193.513 216 195.571 213.941 195.571 212.857 L 195.571 80.788 C 195.571 78.601 195.279 77.897 194.764 77.378 L 158.193 40.808 C 157.675 40.292 156.971 40 156.239 40 Z " fill="rgb(233,233,224)"/><path d=" M 190.973 216 L 65.027 216 C 62.487 216 60.429 213.941 60.429 211.402 L 60.429 162.571 L 195.571 162.571 L 195.571 211.402 C 195.571 213.941 193.513 216 190.973 216 Z " fill="rgb(88,137,196)"/><path d=" M 162.238 75.084 C 160.783 74.138 158.838 74.546 157.889 75.998 C 153.385 82.9 145.383 92.228 141.577 96.034 L 132.815 104.796 L 123.927 95.908 L 132.683 87.143 C 138.249 81.577 152.392 70.039 158.19 67.965 C 158.316 67.946 158.476 67.918 158.542 67.902 C 160.18 67.535 161.141 65.963 160.852 64.31 C 160.56 62.657 158.916 61.529 157.26 61.752 L 156.371 61.947 C 148.705 64.502 132.934 78 128.236 82.702 L 105.654 105.283 C 105.356 105.271 105.06 105.239 104.759 105.239 C 95.421 105.239 87.589 111.918 85.955 121.004 L 85.615 121.233 L 85.553 122.918 C 85.446 125.879 84.603 135.653 78.189 137.205 C 76.564 137.611 75.492 139.17 75.697 140.826 L 76.206 143.714 L 98.143 143.714 L 98.206 143.714 L 98.206 143.714 L 104.762 143.62 C 115.344 143.62 123.955 135.009 123.955 124.427 C 123.955 123.82 123.921 123.223 123.864 122.629 L 146.018 100.478 C 150.119 96.377 158.354 86.781 163.15 79.433 C 164.099 77.978 163.69 76.033 162.238 75.084 Z  M 104.762 137.334 L 93.011 137.334 L 93.058 137.429 L 87.837 137.429 C 90.625 133.214 91.486 127.884 91.747 124.716 L 92.005 123.132 C 92.674 116.513 98.159 111.522 104.765 111.522 C 105.145 111.522 105.503 111.601 105.877 111.635 L 106.402 111.701 C 109.687 112.122 112.55 113.76 114.574 116.136 C 114.756 116.353 114.945 116.56 115.111 116.789 C 115.369 117.135 115.598 117.503 115.821 117.874 C 115.979 118.141 116.126 118.414 116.268 118.691 C 116.466 119.087 116.657 119.489 116.815 119.907 C 116.909 120.159 116.978 120.423 117.057 120.683 C 117.198 121.145 117.343 121.607 117.434 122.095 L 117.449 122.176 C 117.578 122.912 117.676 123.657 117.676 124.427 C 117.669 131.542 111.88 137.334 104.762 137.334 Z  M 120.193 113.062 C 120.171 113.034 120.152 113.009 120.13 112.98 C 118.229 110.431 115.715 108.376 112.801 107.025 L 119.473 100.352 L 128.361 109.24 L 121.853 115.746 C 121.378 114.803 120.819 113.907 120.193 113.062 Z " fill="rgb(200,189,184)"/><path d=" M 157.857 40.475 L 157.857 77.714 L 195.097 77.714 L 157.857 40.475 Z " fill="rgb(217,215,202)"/></g></g><path d=" M 100.712 193.226 L 95.318 193.226 L 95.318 203.746 L 89.166 203.746 L 89.166 173.887 L 100.814 173.887 L 100.814 173.887 Q 104.178 173.887 106.731 175.117 L 106.731 175.117 L 106.731 175.117 Q 109.284 176.348 110.658 178.614 L 110.658 178.614 L 110.658 178.614 Q 112.032 180.88 112.032 183.771 L 112.032 183.771 L 112.032 183.771 Q 112.032 188.16 109.028 190.693 L 109.028 190.693 L 109.028 190.693 Q 106.023 193.226 100.712 193.226 L 100.712 193.226 L 100.712 193.226 Z  M 95.318 178.87 L 95.318 188.242 L 100.814 188.242 L 100.814 188.242 Q 103.255 188.242 104.537 187.094 L 104.537 187.094 L 104.537 187.094 Q 105.818 185.945 105.818 183.813 L 105.818 183.813 L 105.818 183.813 Q 105.818 181.618 104.526 180.265 L 104.526 180.265 L 104.526 180.265 Q 103.234 178.911 100.958 178.87 L 100.958 178.87 L 95.318 178.87 L 95.318 178.87 Z  M 131.74 195.912 L 131.74 195.912 L 131.74 195.912 Q 131.74 194.169 130.51 193.236 L 130.51 193.236 L 130.51 193.236 Q 129.279 192.303 126.08 191.267 L 126.08 191.267 L 126.08 191.267 Q 122.881 190.231 121.015 189.227 L 121.015 189.227 L 121.015 189.227 Q 115.929 186.479 115.929 181.823 L 115.929 181.823 L 115.929 181.823 Q 115.929 179.403 117.292 177.506 L 117.292 177.506 L 117.292 177.506 Q 118.656 175.609 121.209 174.543 L 121.209 174.543 L 121.209 174.543 Q 123.763 173.477 126.941 173.477 L 126.941 173.477 L 126.941 173.477 Q 130.141 173.477 132.643 174.635 L 132.643 174.635 L 132.643 174.635 Q 135.145 175.794 136.529 177.906 L 136.529 177.906 L 136.529 177.906 Q 137.913 180.019 137.913 182.705 L 137.913 182.705 L 131.761 182.705 L 131.761 182.705 Q 131.761 180.654 130.469 179.516 L 130.469 179.516 L 130.469 179.516 Q 129.177 178.378 126.839 178.378 L 126.839 178.378 L 126.839 178.378 Q 124.583 178.378 123.332 179.332 L 123.332 179.332 L 123.332 179.332 Q 122.081 180.285 122.081 181.844 L 122.081 181.844 L 122.081 181.844 Q 122.081 183.3 123.547 184.284 L 123.547 184.284 L 123.547 184.284 Q 125.014 185.269 127.864 186.13 L 127.864 186.13 L 127.864 186.13 Q 133.114 187.709 135.514 190.047 L 135.514 190.047 L 135.514 190.047 Q 137.913 192.385 137.913 195.871 L 137.913 195.871 L 137.913 195.871 Q 137.913 199.747 134.98 201.952 L 134.98 201.952 L 134.98 201.952 Q 132.048 204.156 127.085 204.156 L 127.085 204.156 L 127.085 204.156 Q 123.64 204.156 120.81 202.895 L 120.81 202.895 L 120.81 202.895 Q 117.979 201.634 116.493 199.439 L 116.493 199.439 L 116.493 199.439 Q 115.006 197.245 115.006 194.354 L 115.006 194.354 L 121.179 194.354 L 121.179 194.354 Q 121.179 199.296 127.085 199.296 L 127.085 199.296 L 127.085 199.296 Q 129.279 199.296 130.51 198.404 L 130.51 198.404 L 130.51 198.404 Q 131.74 197.512 131.74 195.912 Z  M 151.325 203.746 L 142.076 203.746 L 142.076 173.887 L 151.264 173.887 L 151.264 173.887 Q 155.201 173.887 158.308 175.661 L 158.308 175.661 L 158.308 175.661 Q 161.415 177.435 163.158 180.706 L 163.158 180.706 L 163.158 180.706 Q 164.901 183.977 164.901 188.14 L 164.901 188.14 L 164.901 189.514 L 164.901 189.514 Q 164.901 193.677 163.189 196.917 L 163.189 196.917 L 163.189 196.917 Q 161.477 200.157 158.359 201.941 L 158.359 201.941 L 158.359 201.941 Q 155.242 203.726 151.325 203.746 L 151.325 203.746 L 151.325 203.746 Z  M 151.264 178.87 L 148.229 178.87 L 148.229 198.804 L 151.202 198.804 L 151.202 198.804 Q 154.812 198.804 156.719 196.445 L 156.719 196.445 L 156.719 196.445 Q 158.626 194.087 158.667 189.698 L 158.667 189.698 L 158.667 188.119 L 158.667 188.119 Q 158.667 183.566 156.78 181.218 L 156.78 181.218 L 156.78 181.218 Q 154.894 178.87 151.264 178.87 L 151.264 178.87 L 151.264 178.87 Z " fill-rule="evenodd" fill="rgb(255,255,255)"/></g></svg>
