<svg width="100" height="100" viewBox="0 0 100 100" fill="none" xmlns="http://www.w3.org/2000/svg">
<path d="M10.6594 14.0094C12.443 12.2246 14.8624 11.2213 17.3856 11.22H36.4169C39.4075 11.22 42.235 12.6338 44.0294 15.0263L48.9231 21.5513C49.0498 21.7201 49.2139 21.8571 49.4027 21.9515C49.5915 22.0459 49.7996 22.095 50.0106 22.095H78.5575C79.9996 22.095 81.3827 22.6679 82.4024 23.6876C83.4221 24.7073 83.995 26.0904 83.995 27.5325V30.2513H22.8231C21.7415 30.2513 20.7043 30.6809 19.9395 31.4457C19.1747 32.2105 18.745 33.2478 18.745 34.3294C18.745 35.411 19.1747 36.4483 19.9395 37.213C20.7043 37.9778 21.7415 38.4075 22.8231 38.4075H87.9535C88.7217 38.4068 89.4812 38.5689 90.1822 38.8831C90.8832 39.1973 91.5096 39.6564 92.0203 40.2303C92.5309 40.8041 92.9142 41.4796 93.1448 42.2123C93.3755 42.945 93.4482 43.7183 93.3584 44.4812L89.4325 77.8294C89.4325 80.3531 88.43 82.7734 86.6454 84.5579C84.8609 86.3425 82.4406 87.345 79.9169 87.345H17.3856C14.8619 87.345 12.4416 86.3425 10.6571 84.5579C8.87254 82.7734 7.87 80.3531 7.87 77.8294V20.7356C7.87 18.2126 8.8705 15.7875 10.6594 14.0094Z" fill="#C83737"/>
<path fill-rule="evenodd" clip-rule="evenodd" d="M42.5039 38.4075H22.8231C21.7415 38.4075 20.7043 37.9778 19.9395 37.213C19.1747 36.4482 18.745 35.411 18.745 34.3294C18.745 33.2478 19.1747 32.2105 19.9395 31.4457C20.7043 30.6809 21.7415 30.2513 22.8231 30.2513H83.995V27.5325C83.995 26.0904 83.4221 24.7073 82.4024 23.6876C81.3827 22.6679 79.9996 22.095 78.5575 22.095H50.0106C49.7996 22.095 49.5914 22.0459 49.4027 21.9515C49.2139 21.8571 49.0498 21.7201 48.9231 21.5513L44.0294 15.0263C42.235 12.6338 39.4075 11.22 36.4169 11.22H17.3856C14.8624 11.2213 12.443 12.2246 10.6594 14.0094C8.8705 15.7875 7.87 18.2126 7.87 20.7356V47.9602C16.6861 44.4618 28.757 40.875 42.5039 38.4075Z" fill="#EC8A8A"/>
</svg>
