<svg width="64" height="64" viewBox="0 0 64 64" fill="none" xmlns="http://www.w3.org/2000/svg">
<g clip-path="url(#clip0_1008_2)">
<path d="M54 3L5 22L6.5 32.5L9.5 40L10.5 39.5L12 35L15 32.5L32.5 23.5L38 16L59.5 6.5V4.5L58 5H57V3L54.5 3.5L54 3Z" fill="#FBDBD0"/>
<path d="M13 59L11 37L11.5 36L14 32.5L23 28.5L32.5 23L36 18.5L38 16L61 6.5L59.5 16L55.5 30.5L14 59H13Z" fill="#C1DBF6"/>
<path d="M61.3151 5.90296L61.3155 5.90333C61.6617 6.31166 61.7685 6.68018 61.7936 6.93821C61.8062 7.06846 61.7983 7.17296 61.7878 7.24284C61.7826 7.27776 61.7768 7.30393 61.7727 7.32019C61.7707 7.32832 61.769 7.33394 61.7681 7.33693L61.7679 7.33778L61.7679 7.338L61.7678 7.33821L61.7677 7.33857L61.7675 7.33911L61.7674 7.3394L61.7643 7.34837L61.7618 7.3593L56.5987 30.4221L12.3444 61.661L12.3341 61.6121L12.2974 61.639L2.62867 20.6111L2.62906 20.611L2.6254 20.599L2.62539 20.5989L2.62538 20.5989L2.62532 20.5987L2.62491 20.5973L2.62307 20.5911L2.61557 20.5652C2.60896 20.5421 2.59925 20.5073 2.58716 20.4619C2.56297 20.3711 2.52925 20.2375 2.4917 20.0688C2.41656 19.731 2.32628 19.2531 2.26611 18.6938C2.14534 17.5714 2.14795 16.1398 2.6216 14.8583L2.62161 14.8583C3.10122 13.5603 3.92967 12.6648 4.64144 12.0926C4.99711 11.8067 5.32236 11.6025 5.55779 11.4702C5.67544 11.4041 5.77044 11.3561 5.83533 11.3249C5.86776 11.3093 5.89265 11.2979 5.90905 11.2906L5.92532 11.2834L23.5018 5.60147L23.5027 5.60126L23.5256 5.59594C23.5464 5.59128 23.578 5.58455 23.6193 5.57674C23.7019 5.56113 23.8233 5.54128 23.975 5.52508C24.2788 5.49264 24.7018 5.47516 25.1779 5.5347C26.1281 5.65349 27.2829 6.07705 28.1371 7.29954L28.1373 7.29989C28.5139 7.83635 28.9079 8.55923 29.21 9.15349C29.3604 9.44951 29.487 9.71156 29.576 9.89952C29.6204 9.99348 29.6555 10.0689 29.6793 10.1206L29.7065 10.18L29.7134 10.1952L29.7151 10.199L29.7155 10.1999L29.7156 10.2001L29.7157 10.2001L29.7907 10.3666L29.9633 10.307L53.0293 2.34204L53.0293 2.34208L53.0331 2.34068L53.0331 2.34067L53.0332 2.34064L53.0333 2.3406L53.0336 2.34051L53.0365 2.33944L53.0504 2.33463C53.0631 2.33034 53.0824 2.324 53.1073 2.31637C53.1574 2.30109 53.2299 2.28078 53.3176 2.26136C53.4948 2.22217 53.7267 2.18829 53.9592 2.20261C54.1922 2.21697 54.41 2.27862 54.5774 2.41514C54.7403 2.54801 54.8788 2.77075 54.9212 3.15587L54.9497 3.41461L55.1924 3.32044L57.4985 2.42557L57.1831 4.58306L57.1319 4.93309L57.4582 4.79647L59.7852 3.82223L59.5263 5.50966L59.4722 5.86247L59.8013 5.72443L60.0975 5.60023C60.1011 5.59938 60.1055 5.59835 60.1107 5.59718C60.1287 5.59316 60.1559 5.58754 60.1906 5.58185C60.2603 5.57043 60.3582 5.55899 60.47 5.55899C60.7509 5.55899 61.0838 5.62869 61.3151 5.90296ZM6.59316 22.903L6.43985 22.9625L6.46857 23.1244L9.35108 39.3709L9.74667 39.313L8.139 25.4484L56.4503 5.21947L56.5773 5.16629L56.5729 5.02866L56.5344 3.81316L56.5255 3.53088L56.2622 3.63304L56.3345 3.8195C56.2622 3.63304 56.2621 3.63306 56.262 3.6331L56.2615 3.6333L56.2594 3.63411L56.2512 3.63731L56.2184 3.65L56.0898 3.6999L55.5928 3.89271L53.7456 4.60938L47.4818 7.03952L31.4277 13.268L15.3735 19.4965L9.1097 21.9267L7.26248 22.6434L6.76551 22.8362L6.63688 22.8861L6.60417 22.8988L6.59592 22.902L6.59385 22.9028L6.59333 22.903C6.59322 22.903 6.59316 22.903 6.6655 23.0895L6.59316 22.903ZM10.0533 37.282L10.4476 37.3005C10.6223 36.4776 10.9443 35.3837 11.5322 34.4093C12.1129 33.4531 12.9088 32.6731 13.5645 32.1301C13.8915 31.8593 14.1818 31.6489 14.3898 31.5065C14.4938 31.4354 14.5771 31.3813 14.634 31.3452C14.6625 31.3272 14.6843 31.3137 14.6989 31.3048L14.7136 31.2959L14.7164 31.2945L14.7476 31.2792L14.8695 31.2195L15.3351 30.9916C15.7377 30.7944 16.3162 30.5109 17.0202 30.1657C18.428 29.4753 20.3374 28.5381 22.3435 27.5507C26.3543 25.5764 30.7553 23.3997 32.3042 22.5955L32.3042 22.5954C33.0514 22.2071 33.6925 21.553 34.2321 20.8061C34.7728 20.0577 35.2199 19.2046 35.5753 18.4033C35.931 17.6014 36.1969 16.8467 36.3738 16.2927C36.4623 16.0156 36.5287 15.7883 36.573 15.6299C36.5902 15.5686 36.604 15.5176 36.6146 15.478L58.7886 6.15034L58.8918 6.10692L58.9087 5.99623L59.0557 5.03523L59.1096 4.68281L58.7808 4.82051L8.85876 25.7245L8.72001 25.7826L8.73733 25.932L10.0533 37.282ZM55.2191 29.5986L55.2823 29.5541L55.2992 29.4787L60.2242 7.47768L60.3089 7.09927L59.9514 7.24964L37.9284 16.5146L37.8428 16.5507L37.8151 16.6395C37.5248 17.5703 36.9978 19.0345 36.1989 20.4436C35.3979 21.8565 34.3365 23.1907 32.9878 23.8915C30.0006 25.4431 16.7408 31.9355 15.4411 32.5713L15.4313 32.5762L15.422 32.582C15.1367 32.7628 13.6545 33.7473 12.795 35.1643L12.7948 35.1645C12.0305 36.4292 11.799 38.0005 11.7434 38.4736L11.7407 38.4963L11.7432 38.5189L13.9182 58.2819L13.9552 58.6183L14.2321 58.4236L55.2191 29.5986Z" fill="white" stroke="#374874" stroke-width="0.4"/>
</g>
<defs>
<clipPath id="clip0_1008_2">
<rect width="64" height="64" fill="white"/>
</clipPath>
</defs>
</svg>
