<?xml version="1.0" standalone="no"?><!-- Generator: Gravit.io --><svg xmlns="http://www.w3.org/2000/svg" xmlns:xlink="http://www.w3.org/1999/xlink" style="isolation:isolate" viewBox="0 0 256 256" width="256" height="256"><defs><clipPath id="_clipPath_L14fLo1HCu5B3xjBZXBWsGxoWmUc9V9L"><rect width="256" height="256"/></clipPath></defs><g clip-path="url(#_clipPath_L14fLo1HCu5B3xjBZXBWsGxoWmUc9V9L)"><rect width="256" height="256" style="fill:rgb(0,0,0)" fill-opacity="0"/><g><g><path d=" M 156.239 40 L 65.027 40 C 62.487 40 60.429 42.059 60.429 46.053 L 60.429 212.857 C 60.429 213.941 62.487 216 65.027 216 L 190.973 216 C 193.513 216 195.571 213.941 195.571 212.857 L 195.571 80.788 C 195.571 78.601 195.279 77.897 194.764 77.378 L 158.193 40.808 C 157.675 40.292 156.971 40 156.239 40 Z " fill="rgb(233,233,224)"/><path d=" M 157.857 40.475 L 157.857 77.714 L 195.097 77.714 L 157.857 40.475 Z " fill="rgb(217,215,202)"/><path d=" M 190.973 216 L 65.027 216 C 62.487 216 60.429 213.941 60.429 211.402 L 60.429 162.571 L 195.571 162.571 L 195.571 211.402 C 195.571 213.941 193.513 216 190.973 216 Z " fill="rgb(149,165,165)"/><path d=" M 98.143 80.857 L 79.286 80.857 C 77.548 80.857 76.143 79.449 76.143 77.714 C 76.143 75.979 77.548 74.571 79.286 74.571 L 98.143 74.571 C 99.881 74.571 101.286 75.979 101.286 77.714 C 101.286 79.449 99.881 80.857 98.143 80.857 Z " fill="rgb(200,189,184)"/><path d=" M 107.571 96.571 L 79.286 96.571 C 77.548 96.571 76.143 95.163 76.143 93.429 C 76.143 91.694 77.548 90.286 79.286 90.286 L 107.571 90.286 C 109.309 90.286 110.714 91.694 110.714 93.429 C 110.714 95.163 109.309 96.571 107.571 96.571 Z " fill="rgb(200,189,184)"/><path d=" M 120.143 96.571 C 119.326 96.571 118.505 96.226 117.911 95.66 C 117.343 95.063 117 94.277 117 93.429 C 117 92.58 117.343 91.794 117.943 91.197 C 119.074 90.034 121.211 90.034 122.374 91.197 C 122.94 91.794 123.286 92.611 123.286 93.429 C 123.286 94.246 122.94 95.063 122.374 95.66 C 121.777 96.226 120.96 96.571 120.143 96.571 Z " fill="rgb(200,189,184)"/><path d=" M 157.857 96.571 L 132.714 96.571 C 130.976 96.571 129.571 95.163 129.571 93.429 C 129.571 91.694 130.976 90.286 132.714 90.286 L 157.857 90.286 C 159.595 90.286 161 91.694 161 93.429 C 161 95.163 159.595 96.571 157.857 96.571 Z " fill="rgb(200,189,184)"/><path d=" M 79.286 143.714 C 78.469 143.714 77.648 143.369 77.054 142.803 C 76.485 142.206 76.143 141.389 76.143 140.571 C 76.143 139.754 76.485 138.937 77.054 138.34 C 78.217 137.177 80.354 137.177 81.517 138.371 C 82.083 138.937 82.429 139.754 82.429 140.571 C 82.429 141.389 82.083 142.206 81.517 142.803 C 80.92 143.369 80.103 143.714 79.286 143.714 Z " fill="rgb(200,189,184)"/><path d=" M 117 143.714 L 91.857 143.714 C 90.119 143.714 88.714 142.306 88.714 140.571 C 88.714 138.837 90.119 137.429 91.857 137.429 L 117 137.429 C 118.738 137.429 120.143 138.837 120.143 140.571 C 120.143 142.306 118.738 143.714 117 143.714 Z " fill="rgb(200,189,184)"/><path d=" M 176.714 96.571 L 170.429 96.571 C 168.691 96.571 167.286 95.163 167.286 93.429 C 167.286 91.694 168.691 90.286 170.429 90.286 L 176.714 90.286 C 178.452 90.286 179.857 91.694 179.857 93.429 C 179.857 95.163 178.452 96.571 176.714 96.571 Z " fill="rgb(200,189,184)"/><path d=" M 148.429 112.286 L 79.286 112.286 C 77.548 112.286 76.143 110.878 76.143 109.143 C 76.143 107.408 77.548 106 79.286 106 L 148.429 106 C 150.167 106 151.571 107.408 151.571 109.143 C 151.571 110.878 150.167 112.286 148.429 112.286 Z " fill="rgb(200,189,184)"/><path d=" M 176.714 112.286 L 157.857 112.286 C 156.119 112.286 154.714 110.878 154.714 109.143 C 154.714 107.408 156.119 106 157.857 106 L 176.714 106 C 178.452 106 179.857 107.408 179.857 109.143 C 179.857 110.878 178.452 112.286 176.714 112.286 Z " fill="rgb(200,189,184)"/><path d=" M 91.857 128 L 79.286 128 C 77.548 128 76.143 126.592 76.143 124.857 C 76.143 123.122 77.548 121.714 79.286 121.714 L 91.857 121.714 C 93.595 121.714 95 123.122 95 124.857 C 95 126.592 93.595 128 91.857 128 Z " fill="rgb(200,189,184)"/><path d=" M 135.857 128 L 104.429 128 C 102.691 128 101.286 126.592 101.286 124.857 C 101.286 123.122 102.691 121.714 104.429 121.714 L 135.857 121.714 C 137.595 121.714 139 123.122 139 124.857 C 139 126.592 137.595 128 135.857 128 Z " fill="rgb(200,189,184)"/><path d=" M 176.714 128 L 148.429 128 C 146.691 128 145.286 126.592 145.286 124.857 C 145.286 123.122 146.691 121.714 148.429 121.714 L 176.714 121.714 C 178.452 121.714 179.857 123.122 179.857 124.857 C 179.857 126.592 178.452 128 176.714 128 Z " fill="rgb(200,189,184)"/></g></g><path d=" M 112.643 173.887 L 112.643 178.87 L 103.496 178.87 L 103.496 203.746 L 97.344 203.746 L 97.344 178.87 L 88.32 178.87 L 88.32 173.887 L 112.643 173.887 L 112.643 173.887 Z  M 121.235 173.887 L 126.834 184.182 L 132.433 173.887 L 139.508 173.887 L 130.813 188.693 L 139.733 203.746 L 132.576 203.746 L 126.834 193.287 L 121.092 203.746 L 113.935 203.746 L 122.855 188.693 L 114.16 173.887 L 121.235 173.887 L 121.235 173.887 Z  M 165.307 173.887 L 165.307 178.87 L 156.16 178.87 L 156.16 203.746 L 150.008 203.746 L 150.008 178.87 L 140.984 178.87 L 140.984 173.887 L 165.307 173.887 L 165.307 173.887 Z " fill-rule="evenodd" fill="rgb(255,255,255)"/></g></svg>
