<?xml version="1.0" standalone="no"?><!-- Generator: Gravit.io --><svg xmlns="http://www.w3.org/2000/svg" xmlns:xlink="http://www.w3.org/1999/xlink" style="isolation:isolate" viewBox="0 0 256 256" width="256" height="256"><defs><clipPath id="_clipPath_vTXj1UBRlX1G4H8YXsC5CxDRBKjcj0iC"><rect width="256" height="256"/></clipPath></defs><g clip-path="url(#_clipPath_vTXj1UBRlX1G4H8YXsC5CxDRBKjcj0iC)"><rect width="256" height="256" style="fill:rgb(0,0,0)" fill-opacity="0"/><g><g><path d=" M 156.239 40 L 65.027 40 C 62.487 40 60.429 42.059 60.429 46.053 L 60.429 212.857 C 60.429 213.941 62.487 216 65.027 216 L 190.973 216 C 193.513 216 195.571 213.941 195.571 212.857 L 195.571 80.788 C 195.571 78.601 195.279 77.897 194.764 77.378 L 158.193 40.808 C 157.675 40.292 156.971 40 156.239 40 Z " fill="rgb(233,233,224)"/><path d=" M 157.857 40.475 L 157.857 77.714 L 195.097 77.714 L 157.857 40.475 Z " fill="rgb(217,215,202)"/><path d=" M 190.973 216 L 65.027 216 C 62.487 216 60.429 213.941 60.429 211.402 L 60.429 162.571 L 195.571 162.571 L 195.571 211.402 C 195.571 213.941 193.513 216 190.973 216 Z " fill="rgb(85,96,128)"/><g><path d=" M 129.571 115.429 L 129.571 109.143 L 135.857 109.143 L 135.857 102.857 L 129.571 102.857 L 129.571 96.571 L 135.857 96.571 L 135.857 90.286 L 129.571 90.286 L 129.571 84 L 135.857 84 L 135.857 77.714 L 129.571 77.714 L 129.571 71.429 L 135.857 71.429 L 135.857 65.143 L 129.571 65.143 L 129.571 58.857 L 123.286 58.857 L 123.286 65.143 L 117 65.143 L 117 71.429 L 123.286 71.429 L 123.286 77.714 L 117 77.714 L 117 84 L 123.286 84 L 123.286 90.286 L 117 90.286 L 117 96.571 L 123.286 96.571 L 123.286 102.857 L 117 102.857 L 117 109.143 L 123.286 109.143 L 123.286 115.429 L 110.714 115.429 L 110.714 131.143 C 110.714 139.808 117.764 146.857 126.429 146.857 C 135.093 146.857 142.143 139.808 142.143 131.143 L 142.143 115.429 L 129.571 115.429 Z  M 135.857 131.143 C 135.857 136.341 131.627 140.571 126.429 140.571 C 121.23 140.571 117 136.341 117 131.143 L 117 121.714 L 135.857 121.714 L 135.857 131.143 Z " fill="rgb(200,189,184)"/><path d=" M 123.286 134.286 L 129.571 134.286 C 131.306 134.286 132.714 132.881 132.714 131.143 C 132.714 129.405 131.306 128 129.571 128 L 123.286 128 C 121.551 128 120.143 129.405 120.143 131.143 C 120.143 132.881 121.551 134.286 123.286 134.286 Z " fill="rgb(200,189,184)"/></g></g></g><path d=" M 105.318 203.746 L 99.72 192.815 L 94.818 192.815 L 94.818 203.746 L 88.666 203.746 L 88.666 173.887 L 99.761 173.887 L 99.761 173.887 Q 105.052 173.887 107.923 176.245 L 107.923 176.245 L 107.923 176.245 Q 110.794 178.604 110.794 182.91 L 110.794 182.91 L 110.794 182.91 Q 110.794 185.966 109.471 188.006 L 109.471 188.006 L 109.471 188.006 Q 108.148 190.047 105.462 191.257 L 105.462 191.257 L 111.922 203.459 L 111.922 203.746 L 105.318 203.746 L 105.318 203.746 Z  M 94.818 178.87 L 94.818 187.832 L 99.781 187.832 L 99.781 187.832 Q 102.099 187.832 103.37 186.653 L 103.37 186.653 L 103.37 186.653 Q 104.642 185.474 104.642 183.402 L 104.642 183.402 L 104.642 183.402 Q 104.642 181.29 103.442 180.08 L 103.442 180.08 L 103.442 180.08 Q 102.242 178.87 99.761 178.87 L 99.761 178.87 L 94.818 178.87 L 94.818 178.87 Z  M 134.398 203.746 L 132.327 197.594 L 121.54 197.594 L 119.489 203.746 L 112.947 203.746 L 124.063 173.887 L 129.764 173.887 L 140.94 203.746 L 134.398 203.746 L 134.398 203.746 Z  M 126.913 181.434 L 123.201 192.61 L 130.666 192.61 L 126.913 181.434 L 126.913 181.434 Z  M 160.382 203.746 L 154.783 192.815 L 149.882 192.815 L 149.882 203.746 L 143.729 203.746 L 143.729 173.887 L 154.824 173.887 L 154.824 173.887 Q 160.115 173.887 162.986 176.245 L 162.986 176.245 L 162.986 176.245 Q 165.857 178.604 165.857 182.91 L 165.857 182.91 L 165.857 182.91 Q 165.857 185.966 164.535 188.006 L 164.535 188.006 L 164.535 188.006 Q 163.212 190.047 160.525 191.257 L 160.525 191.257 L 166.985 203.459 L 166.985 203.746 L 160.382 203.746 L 160.382 203.746 Z  M 149.882 178.87 L 149.882 187.832 L 154.845 187.832 L 154.845 187.832 Q 157.162 187.832 158.434 186.653 L 158.434 186.653 L 158.434 186.653 Q 159.705 185.474 159.705 183.402 L 159.705 183.402 L 159.705 183.402 Q 159.705 181.29 158.505 180.08 L 158.505 180.08 L 158.505 180.08 Q 157.306 178.87 154.824 178.87 L 154.824 178.87 L 149.882 178.87 L 149.882 178.87 Z " fill-rule="evenodd" fill="rgb(255,255,255)"/></g></svg>
