<?xml version="1.0" standalone="no"?><!-- Generator: Gravit.io --><svg xmlns="http://www.w3.org/2000/svg" xmlns:xlink="http://www.w3.org/1999/xlink" style="isolation:isolate" viewBox="0 0 256 256" width="256" height="256"><defs><clipPath id="_clipPath_ZrO8e7BAT8xhESkr8uOMTOa6R0UZ2xQT"><rect width="256" height="256"/></clipPath></defs><g clip-path="url(#_clipPath_ZrO8e7BAT8xhESkr8uOMTOa6R0UZ2xQT)"><rect width="256" height="256" style="fill:rgb(0,0,0)" fill-opacity="0"/><g><g><path d=" M 156.239 40 L 65.027 40 C 62.487 40 60.429 42.059 60.429 46.053 L 60.429 212.857 C 60.429 213.941 62.487 216 65.027 216 L 190.973 216 C 193.513 216 195.571 213.941 195.571 212.857 L 195.571 80.788 C 195.571 78.601 195.279 77.897 194.764 77.378 L 158.193 40.808 C 157.675 40.292 156.971 40 156.239 40 Z " fill="rgb(233,233,224)"/><path d=" M 157.857 40.475 L 157.857 77.714 L 195.097 77.714 L 157.857 40.475 Z " fill="rgb(217,215,202)"/><path d=" M 190.973 216 L 65.027 216 C 62.487 216 60.429 213.941 60.429 211.402 L 60.429 162.571 L 195.571 162.571 L 195.571 211.402 C 195.571 213.941 193.513 216 190.973 216 Z " fill="rgb(40,51,75)"/></g></g><path d=" M 79.604 193.873 L 84.877 193.873 L 84.877 193.873 Q 84.578 198.004 81.827 200.377 L 81.827 200.377 L 81.827 200.377 Q 79.076 202.75 74.576 202.75 L 74.576 202.75 L 74.576 202.75 Q 69.654 202.75 66.833 199.437 L 66.833 199.437 L 66.833 199.437 Q 64.012 196.123 64.012 190.34 L 64.012 190.34 L 64.012 188.775 L 64.012 188.775 Q 64.012 185.084 65.313 182.271 L 65.313 182.271 L 65.313 182.271 Q 66.613 179.459 69.03 177.956 L 69.03 177.956 L 69.03 177.956 Q 71.447 176.453 74.646 176.453 L 74.646 176.453 L 74.646 176.453 Q 79.076 176.453 81.783 178.826 L 81.783 178.826 L 81.783 178.826 Q 84.49 181.199 84.912 185.488 L 84.912 185.488 L 79.639 185.488 L 79.639 185.488 Q 79.445 183.01 78.259 181.894 L 78.259 181.894 L 78.259 181.894 Q 77.072 180.777 74.646 180.777 L 74.646 180.777 L 74.646 180.777 Q 72.01 180.777 70.7 182.667 L 70.7 182.667 L 70.7 182.667 Q 69.391 184.557 69.355 188.529 L 69.355 188.529 L 69.355 190.463 L 69.355 190.463 Q 69.355 194.611 70.612 196.527 L 70.612 196.527 L 70.612 196.527 Q 71.869 198.443 74.576 198.443 L 74.576 198.443 L 74.576 198.443 Q 77.02 198.443 78.224 197.327 L 78.224 197.327 L 78.224 197.327 Q 79.428 196.211 79.604 193.873 L 79.604 193.873 L 79.604 193.873 Z  M 109.363 189.039 L 109.363 190.182 L 109.363 190.182 Q 109.363 193.961 108.027 196.809 L 108.027 196.809 L 108.027 196.809 Q 106.691 199.656 104.204 201.203 L 104.204 201.203 L 104.204 201.203 Q 101.717 202.75 98.5 202.75 L 98.5 202.75 L 98.5 202.75 Q 95.318 202.75 92.822 201.221 L 92.822 201.221 L 92.822 201.221 Q 90.326 199.691 88.955 196.853 L 88.955 196.853 L 88.955 196.853 Q 87.584 194.014 87.566 190.322 L 87.566 190.322 L 87.566 189.057 L 87.566 189.057 Q 87.566 185.277 88.929 182.403 L 88.929 182.403 L 88.929 182.403 Q 90.291 179.529 92.778 177.991 L 92.778 177.991 L 92.778 177.991 Q 95.266 176.453 98.465 176.453 L 98.465 176.453 L 98.465 176.453 Q 101.664 176.453 104.151 177.991 L 104.151 177.991 L 104.151 177.991 Q 106.639 179.529 108.001 182.403 L 108.001 182.403 L 108.001 182.403 Q 109.363 185.277 109.363 189.039 L 109.363 189.039 L 109.363 189.039 Z  M 104.02 190.27 L 104.02 189.021 L 104.02 189.021 Q 104.02 184.996 102.578 182.904 L 102.578 182.904 L 102.578 182.904 Q 101.137 180.813 98.465 180.813 L 98.465 180.813 L 98.465 180.813 Q 95.811 180.813 94.369 182.878 L 94.369 182.878 L 94.369 182.878 Q 92.928 184.943 92.91 188.934 L 92.91 188.934 L 92.91 190.182 L 92.91 190.182 Q 92.91 194.102 94.352 196.264 L 94.352 196.264 L 94.352 196.264 Q 95.793 198.426 98.5 198.426 L 98.5 198.426 L 98.5 198.426 Q 101.154 198.426 102.578 196.343 L 102.578 196.343 L 102.578 196.343 Q 104.002 194.26 104.02 190.27 L 104.02 190.27 L 104.02 190.27 Z  M 128.594 187.686 L 128.594 191.939 L 118.469 191.939 L 118.469 202.398 L 113.195 202.398 L 113.195 176.805 L 129.859 176.805 L 129.859 181.076 L 118.469 181.076 L 118.469 187.686 L 128.594 187.686 L 128.594 187.686 Z  M 148.316 187.686 L 148.316 191.939 L 138.191 191.939 L 138.191 202.398 L 132.918 202.398 L 132.918 176.805 L 149.582 176.805 L 149.582 181.076 L 138.191 181.076 L 138.191 187.686 L 148.316 187.686 L 148.316 187.686 Z  M 168.039 187.176 L 168.039 191.307 L 157.914 191.307 L 157.914 198.162 L 169.797 198.162 L 169.797 202.398 L 152.641 202.398 L 152.641 176.805 L 169.762 176.805 L 169.762 181.076 L 157.914 181.076 L 157.914 187.176 L 168.039 187.176 L 168.039 187.176 Z  M 188.289 187.176 L 188.289 191.307 L 178.164 191.307 L 178.164 198.162 L 190.047 198.162 L 190.047 202.398 L 172.891 202.398 L 172.891 176.805 L 190.012 176.805 L 190.012 181.076 L 178.164 181.076 L 178.164 187.176 L 188.289 187.176 L 188.289 187.176 Z " fill-rule="evenodd" fill="rgb(255,255,255)"/><path d=" M 120.761 92.014 C 120.825 92.397 120.633 92.717 119.994 93.036 C 119.164 92.589 117.375 92.333 115.906 92.461 C 114.308 92.589 112.967 93.1 113.158 94.186 C 113.414 95.272 114.947 95.911 117.694 95.655 C 124.402 95.08 124.338 90.544 134.177 89.65 C 141.844 88.947 146.124 91.311 146.699 94.186 C 147.146 96.422 145.293 98.594 139.735 99.041 C 134.816 99.489 131.941 98.147 131.685 96.805 C 131.558 96.103 131.941 95.08 134.305 94.825 C 134.56 95.911 135.902 97.061 139.096 96.742 C 141.396 96.55 143.313 95.719 143.057 94.442 C 142.802 93.1 140.374 92.333 136.541 92.653 C 128.747 93.355 126.83 97.636 120.186 98.211 C 115.458 98.658 111.625 96.933 111.114 94.378 C 110.922 93.419 110.922 91.183 115.906 90.736 C 118.461 90.544 120.505 90.992 120.761 92.014 Z  M 95.845 118.719 C 93.673 121.466 92.715 124.66 92.906 127.791 C 93.098 130.921 94.631 133.476 97.059 135.457 C 99.614 137.437 102.361 138.012 105.492 137.437 C 106.706 137.246 108.047 136.607 109.261 136.224 C 106.706 136.224 104.534 135.393 102.361 133.668 C 99.998 131.943 98.4 129.515 98.017 126.577 C 97.442 123.829 98.017 121.274 99.551 119.038 C 101.275 116.866 103.511 115.652 106.45 115.269 C 109.389 115.077 111.944 115.844 114.5 117.632 C 113.925 116.802 113.094 116.227 112.328 115.46 C 109.772 113.735 107.025 112.905 103.639 113.735 C 100.572 114.374 98.017 115.971 95.845 118.719 Z  M 130.088 103.961 C 121.847 103.961 114.5 103.13 109.197 101.98 C 103.511 100.575 100.509 99.041 100.509 97.061 C 100.509 96.23 100.892 95.527 102.042 94.697 C 98.464 96.103 96.548 97.253 96.548 99.041 C 96.739 101.022 99.934 103.002 106.45 104.536 C 112.583 106.069 120.441 106.899 129.897 106.899 C 139.544 106.899 147.21 106.069 153.343 104.536 C 159.86 103.002 162.99 100.958 162.99 99.041 C 162.99 97.636 161.584 96.294 159.029 95.272 C 159.604 95.655 160.051 96.294 160.051 96.997 C 160.051 98.978 157.112 100.575 151.171 101.916 C 145.677 103.13 138.649 103.961 130.088 103.961 L 130.088 103.961 Z  M 153.599 109.455 C 147.465 110.861 139.608 111.819 130.152 111.819 C 120.505 111.819 112.647 110.797 106.514 109.455 C 101.02 108.049 98.081 106.516 97.059 104.919 C 98.081 111.819 100.445 118.335 103.575 124.085 C 105.939 127.663 108.303 130.793 110.667 134.179 C 111.689 136.16 112.392 138.14 112.839 140.121 C 114.372 142.293 116.608 143.698 119.355 144.465 C 122.741 145.679 126.255 146.19 129.833 145.998 L 130.216 145.998 C 133.794 146.19 137.563 145.615 141.013 144.465 C 143.568 143.634 145.741 142.293 147.338 140.121 L 147.529 140.121 C 147.913 138.14 148.552 136.16 149.51 134.179 C 151.874 130.793 154.238 127.663 156.601 124.085 C 159.732 118.399 161.904 111.883 163.118 104.919 C 161.84 106.708 158.901 108.241 153.599 109.455 L 153.599 109.455 Z " fill="rgb(40,51,76)"/></g></svg>