<?xml version="1.0" standalone="no"?><!-- Generator: Gravit.io --><svg xmlns="http://www.w3.org/2000/svg" xmlns:xlink="http://www.w3.org/1999/xlink" style="isolation:isolate" viewBox="0 0 256 256" width="256" height="256"><defs><clipPath id="_clipPath_rhplHpdI3DTbrTRaojPyWupcuif0b6PM"><rect width="256" height="256"/></clipPath></defs><g clip-path="url(#_clipPath_rhplHpdI3DTbrTRaojPyWupcuif0b6PM)"><rect width="256" height="256" style="fill:rgb(0,0,0)" fill-opacity="0"/><g><g><path d=" M 156.239 40 L 65.027 40 C 62.487 40 60.429 42.059 60.429 46.053 L 60.429 212.857 C 60.429 213.941 62.487 216 65.027 216 L 190.973 216 C 193.513 216 195.571 213.941 195.571 212.857 L 195.571 80.788 C 195.571 78.601 195.279 77.897 194.764 77.378 L 158.193 40.808 C 157.675 40.292 156.971 40 156.239 40 Z " fill="rgb(233,233,224)"/><path d=" M 157.857 40.475 L 157.857 77.714 L 195.097 77.714 L 157.857 40.475 Z " fill="rgb(217,215,202)"/><path d=" M 190.973 216 L 65.027 216 C 62.487 216 60.429 213.941 60.429 211.402 L 60.429 162.571 L 195.571 162.571 L 195.571 211.402 C 195.571 213.941 193.513 216 190.973 216 Z " fill="rgb(236,102,48)"/><g><path d=" M 112.936 91.207 C 111.707 89.978 109.721 89.978 108.492 91.207 L 89.635 110.064 C 88.406 111.293 88.406 113.279 89.635 114.508 L 108.492 133.365 C 109.105 133.978 109.91 134.286 110.714 134.286 C 111.519 134.286 112.323 133.978 112.936 133.365 C 114.165 132.136 114.165 130.15 112.936 128.921 L 96.301 112.286 L 112.936 95.651 C 114.165 94.422 114.165 92.435 112.936 91.207 Z " fill="rgb(236,102,48)"/><path d=" M 169.508 110.064 L 150.651 91.207 C 149.422 89.978 147.435 89.978 146.207 91.207 C 144.978 92.435 144.978 94.422 146.207 95.651 L 162.842 112.286 L 146.207 128.921 C 144.978 130.15 144.978 132.136 146.207 133.365 C 146.819 133.978 147.624 134.286 148.429 134.286 C 149.233 134.286 150.038 133.978 150.651 133.365 L 169.508 114.508 C 170.737 113.279 170.737 111.293 169.508 110.064 Z " fill="rgb(236,102,48)"/></g></g></g><path d=" M 95.968 173.887 L 95.968 203.746 L 89.815 203.746 L 89.815 190.949 L 77.818 190.949 L 77.818 203.746 L 71.666 203.746 L 71.666 173.887 L 77.818 173.887 L 77.818 185.986 L 89.815 185.986 L 89.815 173.887 L 95.968 173.887 L 95.968 173.887 Z  M 123.817 173.887 L 123.817 178.87 L 114.671 178.87 L 114.671 203.746 L 108.519 203.746 L 108.519 178.87 L 99.495 178.87 L 99.495 173.887 L 123.817 173.887 L 123.817 173.887 Z  M 127.324 173.887 L 135.363 173.887 L 143.033 195.543 L 150.662 173.887 L 158.742 173.887 L 158.742 203.746 L 152.569 203.746 L 152.569 195.584 L 153.185 181.495 L 145.125 203.746 L 140.9 203.746 L 132.861 181.516 L 133.477 195.584 L 133.477 203.746 L 127.324 203.746 L 127.324 173.887 L 127.324 173.887 Z  M 170.268 173.887 L 170.268 198.804 L 183.331 198.804 L 183.331 203.746 L 164.115 203.746 L 164.115 173.887 L 170.268 173.887 L 170.268 173.887 Z " fill-rule="evenodd" fill="rgb(255,255,255)"/></g></svg>
