<?xml version="1.0" standalone="no"?><!-- Generator: Gravit.io --><svg xmlns="http://www.w3.org/2000/svg" xmlns:xlink="http://www.w3.org/1999/xlink" style="isolation:isolate" viewBox="0 0 256 256" width="256" height="256"><defs><clipPath id="_clipPath_rPfTPPFMBnUTQrUQfHFAK59lmjnAyK22"><rect width="256" height="256"/></clipPath></defs><g clip-path="url(#_clipPath_rPfTPPFMBnUTQrUQfHFAK59lmjnAyK22)"><rect width="256" height="256" style="fill:rgb(0,0,0)" fill-opacity="0"/><g><g><path d=" M 156.239 40 L 65.027 40 C 62.487 40 60.429 42.059 60.429 46.053 L 60.429 212.857 C 60.429 213.941 62.487 216 65.027 216 L 190.973 216 C 193.513 216 195.571 213.941 195.571 212.857 L 195.571 80.788 C 195.571 78.601 195.279 77.897 194.764 77.378 L 158.193 40.808 C 157.675 40.292 156.971 40 156.239 40 Z " fill="rgb(233,233,224)"/><path d=" M 157.857 40.475 L 157.857 77.714 L 195.097 77.714 L 157.857 40.475 Z " fill="rgb(217,215,202)"/><path d=" M 190.973 216 L 65.027 216 C 62.487 216 60.429 213.941 60.429 211.402 L 60.429 162.571 L 195.571 162.571 L 195.571 211.402 C 195.571 213.941 193.513 216 190.973 216 Z " fill="rgb(144,186,225)"/><g><path d=" M 79.286 80.857 L 98.143 80.857 C 99.881 80.857 101.286 79.449 101.286 77.714 C 101.286 75.979 99.881 74.571 98.143 74.571 L 79.286 74.571 C 77.548 74.571 76.143 75.979 76.143 77.714 C 76.143 79.449 77.548 80.857 79.286 80.857 Z " fill="rgb(200,189,184)"/><path d=" M 79.286 96.571 L 107.571 96.571 C 109.309 96.571 110.714 95.163 110.714 93.429 C 110.714 91.694 109.309 90.286 107.571 90.286 L 79.286 90.286 C 77.548 90.286 76.143 91.694 76.143 93.429 C 76.143 95.163 77.548 96.571 79.286 96.571 Z " fill="rgb(200,189,184)"/><path d=" M 120.143 96.571 C 120.96 96.571 121.777 96.226 122.374 95.66 C 122.94 95.063 123.286 94.246 123.286 93.429 C 123.286 92.611 122.94 91.794 122.374 91.197 C 121.18 90.034 119.106 90.034 117.911 91.197 C 117.343 91.794 117 92.58 117 93.429 C 117 94.277 117.343 95.063 117.911 95.66 C 118.505 96.226 119.326 96.571 120.143 96.571 Z " fill="rgb(200,189,184)"/><path d=" M 132.714 96.571 L 157.857 96.571 C 159.595 96.571 161 95.163 161 93.429 C 161 91.694 159.595 90.286 157.857 90.286 L 132.714 90.286 C 130.976 90.286 129.571 91.694 129.571 93.429 C 129.571 95.163 130.976 96.571 132.714 96.571 Z " fill="rgb(200,189,184)"/><path d=" M 77.054 138.34 C 76.485 138.937 76.143 139.723 76.143 140.571 C 76.143 141.42 76.485 142.206 77.054 142.803 C 77.648 143.369 78.434 143.714 79.286 143.714 C 80.134 143.714 80.92 143.369 81.517 142.803 C 82.083 142.206 82.429 141.389 82.429 140.571 C 82.429 139.754 82.083 138.937 81.517 138.34 C 80.354 137.177 78.217 137.177 77.054 138.34 Z " fill="rgb(200,189,184)"/><path d=" M 117 137.429 L 91.857 137.429 C 90.119 137.429 88.714 138.837 88.714 140.571 C 88.714 142.306 90.119 143.714 91.857 143.714 L 117 143.714 C 118.738 143.714 120.143 142.306 120.143 140.571 C 120.143 138.837 118.738 137.429 117 137.429 Z " fill="rgb(200,189,184)"/><path d=" M 170.429 96.571 L 176.714 96.571 C 178.452 96.571 179.857 95.163 179.857 93.429 C 179.857 91.694 178.452 90.286 176.714 90.286 L 170.429 90.286 C 168.691 90.286 167.286 91.694 167.286 93.429 C 167.286 95.163 168.691 96.571 170.429 96.571 Z " fill="rgb(200,189,184)"/><path d=" M 79.286 112.286 L 148.429 112.286 C 150.167 112.286 151.571 110.878 151.571 109.143 C 151.571 107.408 150.167 106 148.429 106 L 79.286 106 C 77.548 106 76.143 107.408 76.143 109.143 C 76.143 110.878 77.548 112.286 79.286 112.286 Z " fill="rgb(200,189,184)"/><path d=" M 176.714 106 L 157.857 106 C 156.119 106 154.714 107.408 154.714 109.143 C 154.714 110.878 156.119 112.286 157.857 112.286 L 176.714 112.286 C 178.452 112.286 179.857 110.878 179.857 109.143 C 179.857 107.408 178.452 106 176.714 106 Z " fill="rgb(200,189,184)"/><path d=" M 79.286 128 L 91.857 128 C 93.595 128 95 126.592 95 124.857 C 95 123.122 93.595 121.714 91.857 121.714 L 79.286 121.714 C 77.548 121.714 76.143 123.122 76.143 124.857 C 76.143 126.592 77.548 128 79.286 128 Z " fill="rgb(200,189,184)"/><path d=" M 135.857 121.714 L 104.429 121.714 C 102.691 121.714 101.286 123.122 101.286 124.857 C 101.286 126.592 102.691 128 104.429 128 L 135.857 128 C 137.595 128 139 126.592 139 124.857 C 139 123.122 137.595 121.714 135.857 121.714 Z " fill="rgb(200,189,184)"/><path d=" M 176.714 121.714 L 148.429 121.714 C 146.691 121.714 145.286 123.122 145.286 124.857 C 145.286 126.592 146.691 128 148.429 128 L 176.714 128 C 178.452 128 179.857 126.592 179.857 124.857 C 179.857 123.122 178.452 121.714 176.714 121.714 Z " fill="rgb(200,189,184)"/></g></g></g><path d=" M 108.318 203.746 L 102.72 192.815 L 97.818 192.815 L 97.818 203.746 L 91.666 203.746 L 91.666 173.887 L 102.761 173.887 L 102.761 173.887 Q 108.052 173.887 110.923 176.245 L 110.923 176.245 L 110.923 176.245 Q 113.794 178.604 113.794 182.91 L 113.794 182.91 L 113.794 182.91 Q 113.794 185.966 112.471 188.006 L 112.471 188.006 L 112.471 188.006 Q 111.148 190.047 108.462 191.257 L 108.462 191.257 L 114.922 203.459 L 114.922 203.746 L 108.318 203.746 L 108.318 203.746 Z  M 97.818 178.87 L 97.818 187.832 L 102.781 187.832 L 102.781 187.832 Q 105.099 187.832 106.37 186.653 L 106.37 186.653 L 106.37 186.653 Q 107.642 185.474 107.642 183.402 L 107.642 183.402 L 107.642 183.402 Q 107.642 181.29 106.442 180.08 L 106.442 180.08 L 106.442 180.08 Q 105.242 178.87 102.761 178.87 L 102.761 178.87 L 97.818 178.87 L 97.818 178.87 Z  M 140.946 173.887 L 140.946 178.87 L 131.8 178.87 L 131.8 203.746 L 125.647 203.746 L 125.647 178.87 L 116.624 178.87 L 116.624 173.887 L 140.946 173.887 L 140.946 173.887 Z  M 162.418 186.581 L 162.418 191.544 L 150.605 191.544 L 150.605 203.746 L 144.453 203.746 L 144.453 173.887 L 163.895 173.887 L 163.895 178.87 L 150.605 178.87 L 150.605 186.581 L 162.418 186.581 L 162.418 186.581 Z " fill-rule="evenodd" fill="rgb(255,255,255)"/></g></svg>