<?xml version="1.0" standalone="no"?><!-- Generator: Gravit.io --><svg xmlns="http://www.w3.org/2000/svg" xmlns:xlink="http://www.w3.org/1999/xlink" style="isolation:isolate" viewBox="0 0 256 256" width="256" height="256"><defs><clipPath id="_clipPath_D4Sj8YJrR0Fd21hr8GyZRcCPEVvEhAsA"><rect width="256" height="256"/></clipPath></defs><g clip-path="url(#_clipPath_D4Sj8YJrR0Fd21hr8GyZRcCPEVvEhAsA)"><rect width="256" height="256" style="fill:rgb(0,0,0)" fill-opacity="0"/><g><g><path d=" M 156.239 40 L 65.027 40 C 62.487 40 60.429 42.059 60.429 46.053 L 60.429 212.857 C 60.429 213.941 62.487 216 65.027 216 L 190.973 216 C 193.513 216 195.571 213.941 195.571 212.857 L 195.571 80.788 C 195.571 78.601 195.279 77.897 194.764 77.378 L 158.193 40.808 C 157.675 40.292 156.971 40 156.239 40 Z " fill="rgb(233,233,224)"/><path d=" M 157.857 40.475 L 157.857 77.714 L 195.097 77.714 L 157.857 40.475 Z " fill="rgb(217,215,202)"/><path d=" M 190.973 216 L 65.027 216 C 62.487 216 60.429 213.941 60.429 211.402 L 60.429 162.571 L 195.571 162.571 L 195.571 211.402 C 195.571 213.941 193.513 216 190.973 216 Z " fill="rgb(134,151,203)"/><rect x="79.286" y="80.857" width="47.143" height="47.347" transform="matrix(1,0,0,1,0,0)" fill="rgb(200,189,184)"/><rect x="148.429" y="84" width="6.286" height="22" transform="matrix(1,0,0,1,0,0)" fill="rgb(173,162,158)"/><rect x="148.429" y="131.143" width="6.286" height="22" transform="matrix(1,0,0,1,0,0)" fill="rgb(173,162,158)"/><path d=" M 167.286 134.286 L 135.857 134.286 L 135.857 102.857 L 167.286 102.857 L 167.286 134.286 Z  M 142.143 128 L 161 128 L 161 109.143 L 142.143 109.143 L 142.143 128 Z " fill="rgb(173,162,158)"/><rect x="164.143" y="115.429" width="22" height="6.286" transform="matrix(1,0,0,1,0,0)" fill="rgb(173,162,158)"/><rect x="117" y="115.429" width="22" height="6.286" transform="matrix(1,0,0,1,0,0)" fill="rgb(173,162,158)"/></g></g><path d=" M 92.415 203.746 L 83.166 203.746 L 83.166 173.887 L 92.354 173.887 L 92.354 173.887 Q 96.291 173.887 99.398 175.661 L 99.398 175.661 L 99.398 175.661 Q 102.505 177.435 104.248 180.706 L 104.248 180.706 L 104.248 180.706 Q 105.991 183.977 105.991 188.14 L 105.991 188.14 L 105.991 189.514 L 105.991 189.514 Q 105.991 193.677 104.279 196.917 L 104.279 196.917 L 104.279 196.917 Q 102.566 200.157 99.449 201.941 L 99.449 201.941 L 99.449 201.941 Q 96.332 203.726 92.415 203.746 L 92.415 203.746 L 92.415 203.746 Z  M 92.354 178.87 L 89.318 178.87 L 89.318 198.804 L 92.292 198.804 L 92.292 198.804 Q 95.901 198.804 97.809 196.445 L 97.809 196.445 L 97.809 196.445 Q 99.716 194.087 99.757 189.698 L 99.757 189.698 L 99.757 188.119 L 99.757 188.119 Q 99.757 183.566 97.87 181.218 L 97.87 181.218 L 97.87 181.218 Q 95.983 178.87 92.354 178.87 L 92.354 178.87 L 92.354 178.87 Z  M 128.816 173.887 L 133.718 195.133 L 137.737 173.887 L 143.869 173.887 L 137.245 203.746 L 131.052 203.746 L 126.191 183.771 L 121.331 203.746 L 115.138 203.746 L 108.514 173.887 L 114.646 173.887 L 118.686 195.092 L 123.607 173.887 L 128.816 173.887 L 128.816 173.887 Z  M 170.816 188.058 L 170.816 199.973 L 170.816 199.973 Q 169.155 201.962 166.12 203.059 L 166.12 203.059 L 166.12 203.059 Q 163.085 204.156 159.394 204.156 L 159.394 204.156 L 159.394 204.156 Q 155.518 204.156 152.595 202.464 L 152.595 202.464 L 152.595 202.464 Q 149.673 200.772 148.083 197.553 L 148.083 197.553 L 148.083 197.553 Q 146.494 194.333 146.453 189.985 L 146.453 189.985 L 146.453 187.955 L 146.453 187.955 Q 146.453 183.484 147.96 180.213 L 147.96 180.213 L 147.96 180.213 Q 149.468 176.942 152.308 175.209 L 152.308 175.209 L 152.308 175.209 Q 155.148 173.477 158.963 173.477 L 158.963 173.477 L 158.963 173.477 Q 164.274 173.477 167.269 176.009 L 167.269 176.009 L 167.269 176.009 Q 170.263 178.542 170.816 183.382 L 170.816 183.382 L 164.828 183.382 L 164.828 183.382 Q 164.418 180.818 163.013 179.629 L 163.013 179.629 L 163.013 179.629 Q 161.608 178.439 159.147 178.439 L 159.147 178.439 L 159.147 178.439 Q 156.01 178.439 154.369 180.798 L 154.369 180.798 L 154.369 180.798 Q 152.729 183.156 152.708 187.812 L 152.708 187.812 L 152.708 189.719 L 152.708 189.719 Q 152.708 194.415 154.492 196.814 L 154.492 196.814 L 154.492 196.814 Q 156.276 199.214 159.722 199.214 L 159.722 199.214 L 159.722 199.214 Q 163.188 199.214 164.664 197.737 L 164.664 197.737 L 164.664 192.59 L 159.065 192.59 L 159.065 188.058 L 170.816 188.058 L 170.816 188.058 Z " fill-rule="evenodd" fill="rgb(255,255,255)"/></g></svg>
