<?xml version="1.0" standalone="no"?><!-- Generator: Gravit.io --><svg xmlns="http://www.w3.org/2000/svg" xmlns:xlink="http://www.w3.org/1999/xlink" style="isolation:isolate" viewBox="0 0 256 256" width="256" height="256"><defs><clipPath id="_clipPath_5uhZyPV2qZ92Lmlp8r2jB5SYHO9Nfxfi"><rect width="256" height="256"/></clipPath></defs><g clip-path="url(#_clipPath_5uhZyPV2qZ92Lmlp8r2jB5SYHO9Nfxfi)"><rect width="256" height="256" style="fill:rgb(0,0,0)" fill-opacity="0"/><g><g><path d=" M 156.239 40 L 65.027 40 C 62.487 40 60.429 42.059 60.429 46.053 L 60.429 212.857 C 60.429 213.941 62.487 216 65.027 216 L 190.973 216 C 193.513 216 195.571 213.941 195.571 212.857 L 195.571 80.788 C 195.571 78.601 195.279 77.897 194.764 77.378 L 158.193 40.808 C 157.675 40.292 156.971 40 156.239 40 Z " fill="rgb(233,233,224)"/><path d=" M 157.857 40.475 L 157.857 77.714 L 195.097 77.714 L 157.857 40.475 Z " fill="rgb(217,215,202)"/><path d=" M 190.973 216 L 65.027 216 C 62.487 216 60.429 213.941 60.429 211.402 L 60.429 162.571 L 195.571 162.571 L 195.571 211.402 C 195.571 213.941 193.513 216 190.973 216 Z " fill="rgb(192,27,3)"/></g></g><path d=" M 80.785 195.773 L 80.785 195.773 L 80.785 195.773 Q 80.785 194.113 79.613 193.225 L 79.613 193.225 L 79.613 193.225 Q 78.441 192.336 75.395 191.35 L 75.395 191.35 L 75.395 191.35 Q 72.348 190.363 70.57 189.406 L 70.57 189.406 L 70.57 189.406 Q 65.727 186.789 65.727 182.355 L 65.727 182.355 L 65.727 182.355 Q 65.727 180.051 67.025 178.244 L 67.025 178.244 L 67.025 178.244 Q 68.324 176.438 70.756 175.422 L 70.756 175.422 L 70.756 175.422 Q 73.188 174.406 76.215 174.406 L 76.215 174.406 L 76.215 174.406 Q 79.262 174.406 81.645 175.51 L 81.645 175.51 L 81.645 175.51 Q 84.027 176.613 85.346 178.625 L 85.346 178.625 L 85.346 178.625 Q 86.664 180.637 86.664 183.195 L 86.664 183.195 L 80.805 183.195 L 80.805 183.195 Q 80.805 181.242 79.574 180.158 L 79.574 180.158 L 79.574 180.158 Q 78.344 179.074 76.117 179.074 L 76.117 179.074 L 76.117 179.074 Q 73.969 179.074 72.777 179.982 L 72.777 179.982 L 72.777 179.982 Q 71.586 180.891 71.586 182.375 L 71.586 182.375 L 71.586 182.375 Q 71.586 183.762 72.982 184.699 L 72.982 184.699 L 72.982 184.699 Q 74.379 185.637 77.094 186.457 L 77.094 186.457 L 77.094 186.457 Q 82.094 187.961 84.379 190.188 L 84.379 190.188 L 84.379 190.188 Q 86.664 192.414 86.664 195.734 L 86.664 195.734 L 86.664 195.734 Q 86.664 199.426 83.871 201.525 L 83.871 201.525 L 83.871 201.525 Q 81.078 203.625 76.352 203.625 L 76.352 203.625 L 76.352 203.625 Q 73.07 203.625 70.375 202.424 L 70.375 202.424 L 70.375 202.424 Q 67.68 201.223 66.264 199.133 L 66.264 199.133 L 66.264 199.133 Q 64.848 197.043 64.848 194.289 L 64.848 194.289 L 70.727 194.289 L 70.727 194.289 Q 70.727 198.996 76.352 198.996 L 76.352 198.996 L 76.352 198.996 Q 78.441 198.996 79.613 198.146 L 79.613 198.146 L 79.613 198.146 Q 80.785 197.297 80.785 195.773 Z  M 107.094 193.762 L 112.953 193.762 L 112.953 193.762 Q 112.621 198.352 109.564 200.988 L 109.564 200.988 L 109.564 200.988 Q 106.508 203.625 101.508 203.625 L 101.508 203.625 L 101.508 203.625 Q 96.039 203.625 92.904 199.943 L 92.904 199.943 L 92.904 199.943 Q 89.77 196.262 89.77 189.836 L 89.77 189.836 L 89.77 188.098 L 89.77 188.098 Q 89.77 183.996 91.215 180.871 L 91.215 180.871 L 91.215 180.871 Q 92.66 177.746 95.346 176.076 L 95.346 176.076 L 95.346 176.076 Q 98.031 174.406 101.586 174.406 L 101.586 174.406 L 101.586 174.406 Q 106.508 174.406 109.516 177.043 L 109.516 177.043 L 109.516 177.043 Q 112.523 179.68 112.992 184.445 L 112.992 184.445 L 107.133 184.445 L 107.133 184.445 Q 106.918 181.691 105.6 180.451 L 105.6 180.451 L 105.6 180.451 Q 104.281 179.211 101.586 179.211 L 101.586 179.211 L 101.586 179.211 Q 98.656 179.211 97.201 181.311 L 97.201 181.311 L 97.201 181.311 Q 95.746 183.41 95.707 187.824 L 95.707 187.824 L 95.707 189.973 L 95.707 189.973 Q 95.707 194.582 97.104 196.711 L 97.104 196.711 L 97.104 196.711 Q 98.5 198.84 101.508 198.84 L 101.508 198.84 L 101.508 198.84 Q 104.223 198.84 105.561 197.6 L 105.561 197.6 L 105.561 197.6 Q 106.898 196.359 107.094 193.762 L 107.094 193.762 L 107.094 193.762 Z  M 134.828 203.234 L 132.855 197.375 L 122.582 197.375 L 120.629 203.234 L 114.398 203.234 L 124.984 174.797 L 130.414 174.797 L 141.059 203.234 L 134.828 203.234 L 134.828 203.234 Z  M 127.699 181.984 L 124.164 192.629 L 131.273 192.629 L 127.699 181.984 L 127.699 181.984 Z  M 149.574 174.797 L 149.574 198.527 L 162.016 198.527 L 162.016 203.234 L 143.715 203.234 L 143.715 174.797 L 149.574 174.797 L 149.574 174.797 Z  M 183.402 203.234 L 181.43 197.375 L 171.156 197.375 L 169.203 203.234 L 162.973 203.234 L 173.559 174.797 L 178.988 174.797 L 189.633 203.234 L 183.402 203.234 L 183.402 203.234 Z  M 176.273 181.984 L 172.738 192.629 L 179.848 192.629 L 176.273 181.984 L 176.273 181.984 Z " fill-rule="evenodd" fill="rgb(255,255,255)"/><g><g><g><g><g><linearGradient id="_lgradient_2" x1="0.00006856743362493312" y1="0.4994311459540839" x2="1.2502545509953666" y2="0.4994311459540839" gradientTransform="matrix(40,0,0,-15,108,130.568)" gradientUnits="userSpaceOnUse"><stop offset="0%" stop-opacity="1" style="stop-color:rgb(68,68,68)"/><stop offset="100%" stop-opacity="1" style="stop-color:rgb(0,0,0)"/></linearGradient><path d=" M 108 120.567 L 108 125.567 C 108 126.41 126.184 127.822 138.031 130.568 L 138.031 130.568 C 143.754 129.241 148 127.604 148 125.567 L 148 125.567 L 148 120.567 C 148 118.533 143.754 116.894 138.031 115.568 L 138.031 115.568 C 126.184 118.314 108 119.725 108 120.567 Z " fill="url(#_lgradient_2)"/></g></g></g></g><g><g><g><g><linearGradient id="_lgradient_3" x1="0.00006856743362493312" y1="0.4995865052523403" x2="1.2502545509953666" y2="0.4995865052523403" gradientTransform="matrix(40,0,0,-15,108,110.568)" gradientUnits="userSpaceOnUse"><stop offset="0%" stop-opacity="1" style="stop-color:rgb(68,68,68)"/><stop offset="100%" stop-opacity="1" style="stop-color:rgb(0,0,0)"/></linearGradient><path d=" M 108 100.567 L 108 105.568 C 108 106.41 126.184 107.822 138.031 110.568 L 138.031 110.568 C 143.754 109.241 148 107.604 148 105.568 L 148 105.568 L 148 100.567 C 148 98.532 143.754 96.894 138.031 95.568 L 138.031 95.568 C 126.184 98.314 108 99.725 108 100.567 Z " fill="url(#_lgradient_3)"/></g></g></g></g><g><g><g><g><linearGradient id="_lgradient_4" x1="0.00006856743362515516" y1="0.499959845404806" x2="1.2502545509953666" y2="0.499959845404806" gradientTransform="matrix(40,0,0,-25,108,125.567)" gradientUnits="userSpaceOnUse"><stop offset="0%" stop-opacity="1" style="stop-color:rgb(166,18,20)"/><stop offset="100%" stop-opacity="1" style="stop-color:rgb(216,32,35)"/></linearGradient><path d=" M 108 110.568 L 108 125.567 C 108 124.317 148 121.817 148 115.568 L 148 115.568 L 148 100.567 C 148 106.817 108 109.317 108 110.568 Z " fill="url(#_lgradient_4)"/></g></g></g></g><g><g><g><g><linearGradient id="_lgradient_5" x1="0.00006856743362493312" y1="0.49960132223345566" x2="1.2502545509953666" y2="0.49960132223345566" gradientTransform="matrix(40,0,0,-25,108,105.567)" gradientUnits="userSpaceOnUse"><stop offset="0%" stop-opacity="1" style="stop-color:rgb(166,18,20)"/><stop offset="100%" stop-opacity="1" style="stop-color:rgb(216,32,35)"/></linearGradient><path d=" M 108 90.567 L 108 105.567 C 108 104.317 148 101.817 148 95.567 L 148 95.567 L 148 80.567 C 148 86.818 108 89.318 108 90.567 Z " fill="url(#_lgradient_5)"/></g></g></g></g><g><g><g><g><linearGradient id="_lgradient_6" x1="0.00006856743362493312" y1="0.499809265672839" x2="1.2502545509953666" y2="0.499809265672839" gradientTransform="matrix(40,0,0,-25,108,145.568)" gradientUnits="userSpaceOnUse"><stop offset="0%" stop-opacity="1" style="stop-color:rgb(166,18,20)"/><stop offset="100%" stop-opacity="1" style="stop-color:rgb(216,32,35)"/></linearGradient><path d=" M 108 130.568 L 108 145.568 C 108 144.318 148 141.817 148 135.568 L 148 135.568 L 148 120.568 C 148 126.818 108 129.318 108 130.568 Z " fill="url(#_lgradient_6)"/></g></g></g></g></g></g></svg>