<?xml version="1.0" standalone="no"?><!-- Generator: Gravit.io --><svg xmlns="http://www.w3.org/2000/svg" xmlns:xlink="http://www.w3.org/1999/xlink" style="isolation:isolate" viewBox="0 0 256 256" width="256" height="256"><defs><clipPath id="_clipPath_e3M9aOpWrhk7MFkAQlbZCi589S2F2L4O"><rect width="256" height="256"/></clipPath></defs><g clip-path="url(#_clipPath_e3M9aOpWrhk7MFkAQlbZCi589S2F2L4O)"><rect width="256" height="256" style="fill:rgb(0,0,0)" fill-opacity="0"/><g><g><path d=" M 156.239 40 L 65.027 40 C 62.487 40 60.429 42.059 60.429 46.053 L 60.429 212.857 C 60.429 213.941 62.487 216 65.027 216 L 190.973 216 C 193.513 216 195.571 213.941 195.571 212.857 L 195.571 80.788 C 195.571 78.601 195.279 77.897 194.764 77.378 L 158.193 40.808 C 157.675 40.292 156.971 40 156.239 40 Z " fill="rgb(233,233,224)"/><path d=" M 157.857 40.475 L 157.857 77.714 L 195.097 77.714 L 157.857 40.475 Z " fill="rgb(217,215,202)"/><path d=" M 98.143 80.857 L 79.286 80.857 C 77.551 80.857 76.143 79.449 76.143 77.714 C 76.143 75.979 77.551 74.571 79.286 74.571 L 98.143 74.571 C 99.878 74.571 101.286 75.979 101.286 77.714 C 101.286 79.449 99.878 80.857 98.143 80.857 Z " fill="rgb(134,151,203)"/><path d=" M 107.571 96.571 L 79.286 96.571 C 77.551 96.571 76.143 95.163 76.143 93.429 C 76.143 91.694 77.551 90.286 79.286 90.286 L 107.571 90.286 C 109.306 90.286 110.714 91.694 110.714 93.429 C 110.714 95.163 109.306 96.571 107.571 96.571 Z " fill="rgb(134,151,203)"/><path d=" M 120.143 96.571 C 119.326 96.571 118.509 96.226 117.911 95.66 C 117.346 95.063 117 94.246 117 93.429 C 117 92.611 117.346 91.794 117.911 91.197 C 119.074 90.034 121.211 90.034 122.374 91.197 C 122.94 91.794 123.286 92.611 123.286 93.429 C 123.286 94.246 122.94 95.063 122.374 95.66 C 121.777 96.226 120.96 96.571 120.143 96.571 Z " fill="rgb(134,151,203)"/><path d=" M 157.857 96.571 L 132.714 96.571 C 130.979 96.571 129.571 95.163 129.571 93.429 C 129.571 91.694 130.979 90.286 132.714 90.286 L 157.857 90.286 C 159.592 90.286 161 91.694 161 93.429 C 161 95.163 159.592 96.571 157.857 96.571 Z " fill="rgb(134,151,203)"/><path d=" M 79.286 143.714 C 78.469 143.714 77.651 143.369 77.054 142.803 C 76.489 142.206 76.143 141.389 76.143 140.571 C 76.143 139.754 76.489 138.937 77.054 138.34 C 78.217 137.177 80.354 137.177 81.517 138.34 C 82.083 138.937 82.429 139.723 82.429 140.571 C 82.429 141.389 82.083 142.206 81.517 142.803 C 80.92 143.369 80.103 143.714 79.286 143.714 Z " fill="rgb(134,151,203)"/><path d=" M 117 143.714 L 91.857 143.714 C 90.122 143.714 88.714 142.306 88.714 140.571 C 88.714 138.837 90.122 137.429 91.857 137.429 L 117 137.429 C 118.735 137.429 120.143 138.837 120.143 140.571 C 120.143 142.306 118.735 143.714 117 143.714 Z " fill="rgb(134,151,203)"/><path d=" M 176.714 96.571 L 170.429 96.571 C 168.694 96.571 167.286 95.163 167.286 93.429 C 167.286 91.694 168.694 90.286 170.429 90.286 L 176.714 90.286 C 178.449 90.286 179.857 91.694 179.857 93.429 C 179.857 95.163 178.449 96.571 176.714 96.571 Z " fill="rgb(134,151,203)"/><path d=" M 148.429 112.286 L 79.286 112.286 C 77.551 112.286 76.143 110.878 76.143 109.143 C 76.143 107.408 77.551 106 79.286 106 L 148.429 106 C 150.163 106 151.571 107.408 151.571 109.143 C 151.571 110.878 150.163 112.286 148.429 112.286 Z " fill="rgb(134,151,203)"/><path d=" M 176.714 112.286 L 157.857 112.286 C 156.122 112.286 154.714 110.878 154.714 109.143 C 154.714 107.408 156.122 106 157.857 106 L 176.714 106 C 178.449 106 179.857 107.408 179.857 109.143 C 179.857 110.878 178.449 112.286 176.714 112.286 Z " fill="rgb(134,151,203)"/><path d=" M 91.857 128 L 79.286 128 C 77.551 128 76.143 126.592 76.143 124.857 C 76.143 123.122 77.551 121.714 79.286 121.714 L 91.857 121.714 C 93.592 121.714 95 123.122 95 124.857 C 95 126.592 93.592 128 91.857 128 Z " fill="rgb(134,151,203)"/><path d=" M 135.857 128 L 104.429 128 C 102.694 128 101.286 126.592 101.286 124.857 C 101.286 123.122 102.694 121.714 104.429 121.714 L 135.857 121.714 C 137.592 121.714 139 123.122 139 124.857 C 139 126.592 137.592 128 135.857 128 Z " fill="rgb(134,151,203)"/><path d=" M 176.714 128 L 148.429 128 C 146.694 128 145.286 126.592 145.286 124.857 C 145.286 123.122 146.694 121.714 148.429 121.714 L 176.714 121.714 C 178.449 121.714 179.857 123.122 179.857 124.857 C 179.857 126.592 178.449 128 176.714 128 Z " fill="rgb(134,151,203)"/><path d=" M 190.973 216 L 65.027 216 C 62.487 216 60.429 213.941 60.429 211.402 L 60.429 162.571 L 195.571 162.571 L 195.571 211.402 C 195.571 213.941 193.513 216 190.973 216 Z " fill="rgb(0,150,230)"/></g></g><path d=" M 112.693 190.16 L 112.693 191.493 L 112.693 191.493 Q 112.693 195.902 111.135 199.225 L 111.135 199.225 L 111.135 199.225 Q 109.576 202.547 106.674 204.352 L 106.674 204.352 L 106.674 204.352 Q 103.772 206.156 100.02 206.156 L 100.02 206.156 L 100.02 206.156 Q 96.308 206.156 93.396 204.372 L 93.396 204.372 L 93.396 204.372 Q 90.483 202.588 88.884 199.276 L 88.884 199.276 L 88.884 199.276 Q 87.284 195.964 87.264 191.657 L 87.264 191.657 L 87.264 190.181 L 87.264 190.181 Q 87.264 185.771 88.853 182.418 L 88.853 182.418 L 88.853 182.418 Q 90.442 179.065 93.344 177.271 L 93.344 177.271 L 93.344 177.271 Q 96.246 175.477 99.979 175.477 L 99.979 175.477 L 99.979 175.477 Q 103.711 175.477 106.613 177.271 L 106.613 177.271 L 106.613 177.271 Q 109.515 179.065 111.104 182.418 L 111.104 182.418 L 111.104 182.418 Q 112.693 185.771 112.693 190.16 L 112.693 190.16 L 112.693 190.16 Z  M 106.459 191.596 L 106.459 190.14 L 106.459 190.14 Q 106.459 185.443 104.777 183.003 L 104.777 183.003 L 104.777 183.003 Q 103.096 180.563 99.979 180.563 L 99.979 180.563 L 99.979 180.563 Q 96.882 180.563 95.2 182.972 L 95.2 182.972 L 95.2 182.972 Q 93.519 185.382 93.498 190.037 L 93.498 190.037 L 93.498 191.493 L 93.498 191.493 Q 93.498 196.066 95.18 198.589 L 95.18 198.589 L 95.18 198.589 Q 96.861 201.111 100.02 201.111 L 100.02 201.111 L 100.02 201.111 Q 103.116 201.111 104.777 198.681 L 104.777 198.681 L 104.777 198.681 Q 106.438 196.251 106.459 191.596 L 106.459 191.596 L 106.459 191.596 Z  M 126.413 205.746 L 117.164 205.746 L 117.164 175.887 L 126.352 175.887 L 126.352 175.887 Q 130.289 175.887 133.396 177.661 L 133.396 177.661 L 133.396 177.661 Q 136.503 179.435 138.246 182.706 L 138.246 182.706 L 138.246 182.706 Q 139.989 185.977 139.989 190.14 L 139.989 190.14 L 139.989 191.514 L 139.989 191.514 Q 139.989 195.677 138.277 198.917 L 138.277 198.917 L 138.277 198.917 Q 136.564 202.157 133.447 203.941 L 133.447 203.941 L 133.447 203.941 Q 130.33 205.726 126.413 205.746 L 126.413 205.746 L 126.413 205.746 Z  M 126.352 180.87 L 123.316 180.87 L 123.316 200.804 L 126.29 200.804 L 126.29 200.804 Q 129.899 200.804 131.807 198.445 L 131.807 198.445 L 131.807 198.445 Q 133.714 196.087 133.755 191.698 L 133.755 191.698 L 133.755 190.119 L 133.755 190.119 Q 133.755 185.566 131.868 183.218 L 131.868 183.218 L 131.868 183.218 Q 129.981 180.87 126.352 180.87 L 126.352 180.87 L 126.352 180.87 Z  M 166.937 175.887 L 166.937 180.87 L 157.79 180.87 L 157.79 205.746 L 151.638 205.746 L 151.638 180.87 L 142.614 180.87 L 142.614 175.887 L 166.937 175.887 L 166.937 175.887 Z " fill-rule="evenodd" fill="rgb(255,255,255)"/></g></svg>