<?xml version="1.0" standalone="no"?><!-- Generator: Gravit.io --><svg xmlns="http://www.w3.org/2000/svg" xmlns:xlink="http://www.w3.org/1999/xlink" style="isolation:isolate" viewBox="0 0 256 256" width="256" height="256"><defs><clipPath id="_clipPath_QDq7UHuMAP1DndjZvSJ7oBHBPdwuwQhy"><rect width="256" height="256"/></clipPath></defs><g clip-path="url(#_clipPath_QDq7UHuMAP1DndjZvSJ7oBHBPdwuwQhy)"><rect width="256" height="256" style="fill:rgb(0,0,0)" fill-opacity="0"/><g><g><path d=" M 156.239 40 L 65.027 40 C 62.487 40 60.429 42.059 60.429 46.053 L 60.429 212.857 C 60.429 213.941 62.487 216 65.027 216 L 190.973 216 C 193.513 216 195.571 213.941 195.571 212.857 L 195.571 80.788 C 195.571 78.601 195.279 77.897 194.764 77.378 L 158.193 40.808 C 157.675 40.292 156.971 40 156.239 40 Z " fill="rgb(233,233,224)"/><path d=" M 157.857 40.475 L 157.857 77.714 L 195.097 77.714 L 157.857 40.475 Z " fill="rgb(217,215,202)"/><path d=" M 190.973 216 L 65.027 216 C 62.487 216 60.429 213.941 60.429 211.402 L 60.429 162.571 L 195.571 162.571 L 195.571 211.402 C 195.571 213.941 193.513 216 190.973 216 Z " fill="rgb(128,140,155)"/></g></g><path d=" M 132.954 195.8 L 139.106 195.8 L 139.106 195.8 Q 138.758 200.619 135.548 203.388 L 135.548 203.388 L 135.548 203.388 Q 132.339 206.156 127.089 206.156 L 127.089 206.156 L 127.089 206.156 Q 121.347 206.156 118.055 202.291 L 118.055 202.291 L 118.055 202.291 Q 114.764 198.425 114.764 191.678 L 114.764 191.678 L 114.764 189.853 L 114.764 189.853 Q 114.764 185.546 116.281 182.265 L 116.281 182.265 L 116.281 182.265 Q 117.799 178.983 120.619 177.23 L 120.619 177.23 L 120.619 177.23 Q 123.438 175.477 127.171 175.477 L 127.171 175.477 L 127.171 175.477 Q 132.339 175.477 135.497 178.245 L 135.497 178.245 L 135.497 178.245 Q 138.655 181.014 139.147 186.018 L 139.147 186.018 L 132.995 186.018 L 132.995 186.018 Q 132.77 183.126 131.385 181.824 L 131.385 181.824 L 131.385 181.824 Q 130.001 180.521 127.171 180.521 L 127.171 180.521 L 127.171 180.521 Q 124.095 180.521 122.567 182.726 L 122.567 182.726 L 122.567 182.726 Q 121.039 184.931 120.998 189.565 L 120.998 189.565 L 120.998 191.821 L 120.998 191.821 Q 120.998 196.661 122.464 198.896 L 122.464 198.896 L 122.464 198.896 Q 123.931 201.132 127.089 201.132 L 127.089 201.132 L 127.089 201.132 Q 129.939 201.132 131.344 199.83 L 131.344 199.83 L 131.344 199.83 Q 132.749 198.527 132.954 195.8 L 132.954 195.8 L 132.954 195.8 Z " fill="rgb(255,255,255)"/><path d=" M 131.94 106.301 L 131.94 106.301 L 131.94 106.301 Q 127.32 106.301 124.86 109.121 L 124.86 109.121 L 124.86 109.121 Q 122.4 111.941 122.4 117.101 L 122.4 117.101 L 122.4 117.101 Q 122.4 122.321 125.13 125.141 L 125.13 125.141 L 125.13 125.141 Q 127.86 127.961 132.48 127.961 L 132.48 127.961 L 132.48 127.961 Q 134.94 127.961 136.65 127.301 L 136.65 127.301 L 136.65 127.301 Q 138.36 126.641 139.92 125.801 L 139.92 125.801 L 139.92 125.801 Q 140.94 126.641 141.51 127.811 L 141.51 127.811 L 141.51 127.811 Q 142.08 128.981 142.08 130.541 L 142.08 130.541 L 142.08 130.541 Q 142.08 133.001 139.35 134.711 L 139.35 134.711 L 139.35 134.711 Q 136.62 136.421 131.04 136.421 L 131.04 136.421 L 131.04 136.421 Q 127.02 136.421 123.48 135.281 L 123.48 135.281 L 123.48 135.281 Q 119.94 134.141 117.3 131.771 L 117.3 131.771 L 117.3 131.771 Q 114.66 129.401 113.13 125.771 L 113.13 125.771 L 113.13 125.771 Q 111.6 122.141 111.6 117.101 L 111.6 117.101 L 111.6 117.101 Q 111.6 112.421 113.07 108.851 L 113.07 108.851 L 113.07 108.851 Q 114.54 105.281 117.09 102.821 L 117.09 102.821 L 117.09 102.821 Q 119.64 100.361 123.06 99.101 L 123.06 99.101 L 123.06 99.101 Q 126.48 97.841 130.38 97.841 L 130.38 97.841 L 130.38 97.841 Q 135.9 97.841 138.93 99.641 L 138.93 99.641 L 138.93 99.641 Q 141.96 101.441 141.96 104.261 L 141.96 104.261 L 141.96 104.261 Q 141.96 105.821 141.18 106.961 L 141.18 106.961 L 141.18 106.961 Q 140.4 108.101 139.38 108.761 L 139.38 108.761 L 139.38 108.761 Q 137.82 107.741 136.05 107.021 L 136.05 107.021 L 136.05 107.021 Q 134.28 106.301 131.94 106.301 Z " fill="rgb(128,140,155)"/></g></svg>