<?xml version="1.0" standalone="no"?><!-- Generator: Gravit.io --><svg xmlns="http://www.w3.org/2000/svg" xmlns:xlink="http://www.w3.org/1999/xlink" style="isolation:isolate" viewBox="0 0 256 256" width="256" height="256"><defs><clipPath id="_clipPath_I8L7zDWSXvJo2SU3oxoFvWEz06WAotPH"><rect width="256" height="256"/></clipPath></defs><g clip-path="url(#_clipPath_I8L7zDWSXvJo2SU3oxoFvWEz06WAotPH)"><rect width="256" height="256" style="fill:rgb(0,0,0)" fill-opacity="0"/><g><g><path d=" M 156.239 40 L 65.027 40 C 62.487 40 60.429 42.059 60.429 46.053 L 60.429 212.857 C 60.429 213.941 62.487 216 65.027 216 L 190.973 216 C 193.513 216 195.571 213.941 195.571 212.857 L 195.571 80.788 C 195.571 78.601 195.279 77.897 194.764 77.378 L 158.193 40.808 C 157.675 40.292 156.971 40 156.239 40 Z " fill="rgb(233,233,224)"/><path d=" M 157.857 40.475 L 157.857 77.714 L 195.097 77.714 L 157.857 40.475 Z " fill="rgb(217,215,202)"/><path d=" M 190.973 216 L 65.027 216 C 62.487 216 60.429 213.941 60.429 211.402 L 60.429 162.571 L 195.571 162.571 L 195.571 211.402 C 195.571 213.941 193.513 216 190.973 216 Z " fill="rgb(113,194,133)"/><circle vector-effect="non-scaling-stroke" cx="126.42857142857144" cy="106.00000000000006" r="37.714285714285715" fill="rgb(200,189,184)"/><circle vector-effect="non-scaling-stroke" cx="126.42857142857144" cy="106.00000000000006" r="9.428571428571423" fill="rgb(233,233,224)"/><path d=" M 119.763 99.334 C 120.177 98.919 120.63 98.564 121.098 98.243 L 113.678 70.545 C 108.602 72.365 103.828 75.269 99.765 79.333 C 95.698 83.397 92.797 88.171 90.977 93.246 L 118.675 100.667 C 118.993 100.201 119.348 99.749 119.763 99.334 Z " fill="rgb(211,204,201)"/><path d=" M 134.509 113.813 L 141.653 140.474 C 145.801 138.645 149.698 136.068 153.096 132.667 C 157.034 128.729 159.884 124.128 161.717 119.231 L 135.983 112.336 C 135.087 112.094 134.267 112.914 134.509 113.813 Z " fill="rgb(211,204,201)"/></g></g><path d=" M 102.208 173.887 L 102.208 203.746 L 96.056 203.746 L 96.056 173.887 L 102.208 173.887 L 102.208 173.887 Z  M 123.393 195.912 L 123.393 195.912 L 123.393 195.912 Q 123.393 194.169 122.162 193.236 L 122.162 193.236 L 122.162 193.236 Q 120.932 192.303 117.732 191.267 L 117.732 191.267 L 117.732 191.267 Q 114.533 190.231 112.667 189.227 L 112.667 189.227 L 112.667 189.227 Q 107.581 186.479 107.581 181.823 L 107.581 181.823 L 107.581 181.823 Q 107.581 179.403 108.945 177.506 L 108.945 177.506 L 108.945 177.506 Q 110.309 175.609 112.862 174.543 L 112.862 174.543 L 112.862 174.543 Q 115.415 173.477 118.594 173.477 L 118.594 173.477 L 118.594 173.477 Q 121.793 173.477 124.295 174.635 L 124.295 174.635 L 124.295 174.635 Q 126.797 175.794 128.181 177.906 L 128.181 177.906 L 128.181 177.906 Q 129.565 180.019 129.565 182.705 L 129.565 182.705 L 123.413 182.705 L 123.413 182.705 Q 123.413 180.654 122.121 179.516 L 122.121 179.516 L 122.121 179.516 Q 120.829 178.378 118.491 178.378 L 118.491 178.378 L 118.491 178.378 Q 116.235 178.378 114.984 179.332 L 114.984 179.332 L 114.984 179.332 Q 113.733 180.285 113.733 181.844 L 113.733 181.844 L 113.733 181.844 Q 113.733 183.3 115.2 184.284 L 115.2 184.284 L 115.2 184.284 Q 116.666 185.269 119.517 186.13 L 119.517 186.13 L 119.517 186.13 Q 124.767 187.709 127.166 190.047 L 127.166 190.047 L 127.166 190.047 Q 129.565 192.385 129.565 195.871 L 129.565 195.871 L 129.565 195.871 Q 129.565 199.747 126.633 201.952 L 126.633 201.952 L 126.633 201.952 Q 123.7 204.156 118.737 204.156 L 118.737 204.156 L 118.737 204.156 Q 115.292 204.156 112.462 202.895 L 112.462 202.895 L 112.462 202.895 Q 109.632 201.634 108.145 199.439 L 108.145 199.439 L 108.145 199.439 Q 106.658 197.245 106.658 194.354 L 106.658 194.354 L 112.831 194.354 L 112.831 194.354 Q 112.831 199.296 118.737 199.296 L 118.737 199.296 L 118.737 199.296 Q 120.932 199.296 122.162 198.404 L 122.162 198.404 L 122.162 198.404 Q 123.393 197.512 123.393 195.912 Z  M 158.256 188.16 L 158.256 189.493 L 158.256 189.493 Q 158.256 193.902 156.697 197.225 L 156.697 197.225 L 156.697 197.225 Q 155.139 200.547 152.237 202.352 L 152.237 202.352 L 152.237 202.352 Q 149.335 204.156 145.582 204.156 L 145.582 204.156 L 145.582 204.156 Q 141.87 204.156 138.958 202.372 L 138.958 202.372 L 138.958 202.372 Q 136.046 200.588 134.446 197.276 L 134.446 197.276 L 134.446 197.276 Q 132.847 193.964 132.826 189.657 L 132.826 189.657 L 132.826 188.181 L 132.826 188.181 Q 132.826 183.771 134.416 180.418 L 134.416 180.418 L 134.416 180.418 Q 136.005 177.065 138.907 175.271 L 138.907 175.271 L 138.907 175.271 Q 141.809 173.477 145.541 173.477 L 145.541 173.477 L 145.541 173.477 Q 149.273 173.477 152.175 175.271 L 152.175 175.271 L 152.175 175.271 Q 155.077 177.065 156.667 180.418 L 156.667 180.418 L 156.667 180.418 Q 158.256 183.771 158.256 188.16 L 158.256 188.16 L 158.256 188.16 Z  M 152.021 189.596 L 152.021 188.14 L 152.021 188.14 Q 152.021 183.443 150.34 181.003 L 150.34 181.003 L 150.34 181.003 Q 148.658 178.563 145.541 178.563 L 145.541 178.563 L 145.541 178.563 Q 142.444 178.563 140.763 180.972 L 140.763 180.972 L 140.763 180.972 Q 139.081 183.382 139.061 188.037 L 139.061 188.037 L 139.061 189.493 L 139.061 189.493 Q 139.061 194.066 140.742 196.589 L 140.742 196.589 L 140.742 196.589 Q 142.424 199.111 145.582 199.111 L 145.582 199.111 L 145.582 199.111 Q 148.679 199.111 150.34 196.681 L 150.34 196.681 L 150.34 196.681 Q 152.001 194.251 152.021 189.596 L 152.021 189.596 L 152.021 189.596 Z " fill-rule="evenodd" fill="rgb(255,255,255)"/></g></svg>