<?xml version="1.0" standalone="no"?><!-- Generator: Gravit.io --><svg xmlns="http://www.w3.org/2000/svg" xmlns:xlink="http://www.w3.org/1999/xlink" style="isolation:isolate" viewBox="0 0 256 256" width="256" height="256"><defs><clipPath id="_clipPath_7VbsU9NlSVoJV8XCfuIzJDKTFiJMv0gW"><rect width="256" height="256"/></clipPath></defs><g clip-path="url(#_clipPath_7VbsU9NlSVoJV8XCfuIzJDKTFiJMv0gW)"><rect width="256" height="256" style="fill:rgb(0,0,0)" fill-opacity="0"/><g><g><path d=" M 156.239 40 L 65.027 40 C 62.487 40 60.429 42.059 60.429 46.053 L 60.429 212.857 C 60.429 213.941 62.487 216 65.027 216 L 190.973 216 C 193.513 216 195.571 213.941 195.571 212.857 L 195.571 80.788 C 195.571 78.601 195.279 77.897 194.764 77.378 L 158.193 40.808 C 157.675 40.292 156.971 40 156.239 40 Z " fill="rgb(233,233,224)"/><path d=" M 157.857 40.475 L 157.857 77.714 L 195.097 77.714 L 157.857 40.475 Z " fill="rgb(217,215,202)"/><path d=" M 190.973 216 L 65.027 216 C 62.487 216 60.429 213.941 60.429 211.402 L 60.429 162.571 L 195.571 162.571 L 195.571 211.402 C 195.571 213.941 193.513 216 190.973 216 Z " fill="rgb(97,32,140)"/></g></g><path d=" M 120.454 194.459 L 126.606 194.459 L 126.606 194.459 Q 126.258 199.278 123.048 202.046 L 123.048 202.046 L 123.048 202.046 Q 119.839 204.815 114.589 204.815 L 114.589 204.815 L 114.589 204.815 Q 108.847 204.815 105.555 200.949 L 105.555 200.949 L 105.555 200.949 Q 102.264 197.084 102.264 190.336 L 102.264 190.336 L 102.264 188.511 L 102.264 188.511 Q 102.264 184.205 103.781 180.923 L 103.781 180.923 L 103.781 180.923 Q 105.299 177.642 108.119 175.889 L 108.119 175.889 L 108.119 175.889 Q 110.938 174.135 114.671 174.135 L 114.671 174.135 L 114.671 174.135 Q 119.839 174.135 122.997 176.904 L 122.997 176.904 L 122.997 176.904 Q 126.155 179.672 126.647 184.676 L 126.647 184.676 L 120.495 184.676 L 120.495 184.676 Q 120.27 181.785 118.885 180.482 L 118.885 180.482 L 118.885 180.482 Q 117.501 179.18 114.671 179.18 L 114.671 179.18 L 114.671 179.18 Q 111.595 179.18 110.067 181.385 L 110.067 181.385 L 110.067 181.385 Q 108.539 183.589 108.498 188.224 L 108.498 188.224 L 108.498 190.48 L 108.498 190.48 Q 108.498 195.32 109.964 197.555 L 109.964 197.555 L 109.964 197.555 Q 111.431 199.791 114.589 199.791 L 114.589 199.791 L 114.589 199.791 Q 117.439 199.791 118.844 198.488 L 118.844 198.488 L 118.844 198.488 Q 120.249 197.186 120.454 194.459 L 120.454 194.459 L 120.454 194.459 Z  M 140.183 204.405 L 141.659 195.997 L 137.701 195.997 L 136.225 204.405 L 132.472 204.405 L 133.948 195.997 L 129.293 195.997 L 129.293 192.469 L 134.563 192.469 L 135.589 186.645 L 130.831 186.645 L 130.831 183.077 L 136.225 183.077 L 137.722 174.545 L 141.454 174.545 L 139.957 183.077 L 143.936 183.077 L 145.433 174.545 L 149.186 174.545 L 147.688 183.077 L 152.18 183.077 L 152.18 186.645 L 147.053 186.645 L 146.027 192.469 L 150.621 192.469 L 150.621 195.997 L 145.412 195.997 L 143.936 204.405 L 140.183 204.405 L 140.183 204.405 Z  M 139.321 186.645 L 138.316 192.469 L 142.274 192.469 L 143.3 186.645 L 139.321 186.645 L 139.321 186.645 Z " fill-rule="evenodd" fill="rgb(255,255,255)"/><path d=" M 110.44 104.96 L 110.44 104.96 L 110.44 104.96 Q 105.82 104.96 103.36 107.78 L 103.36 107.78 L 103.36 107.78 Q 100.9 110.6 100.9 115.76 L 100.9 115.76 L 100.9 115.76 Q 100.9 120.98 103.63 123.8 L 103.63 123.8 L 103.63 123.8 Q 106.36 126.62 110.98 126.62 L 110.98 126.62 L 110.98 126.62 Q 113.44 126.62 115.15 125.96 L 115.15 125.96 L 115.15 125.96 Q 116.86 125.3 118.42 124.46 L 118.42 124.46 L 118.42 124.46 Q 119.44 125.3 120.01 126.47 L 120.01 126.47 L 120.01 126.47 Q 120.58 127.64 120.58 129.2 L 120.58 129.2 L 120.58 129.2 Q 120.58 131.66 117.85 133.37 L 117.85 133.37 L 117.85 133.37 Q 115.12 135.08 109.54 135.08 L 109.54 135.08 L 109.54 135.08 Q 105.52 135.08 101.98 133.94 L 101.98 133.94 L 101.98 133.94 Q 98.44 132.8 95.8 130.43 L 95.8 130.43 L 95.8 130.43 Q 93.16 128.06 91.63 124.43 L 91.63 124.43 L 91.63 124.43 Q 90.1 120.8 90.1 115.76 L 90.1 115.76 L 90.1 115.76 Q 90.1 111.08 91.57 107.51 L 91.57 107.51 L 91.57 107.51 Q 93.04 103.94 95.59 101.48 L 95.59 101.48 L 95.59 101.48 Q 98.14 99.02 101.56 97.76 L 101.56 97.76 L 101.56 97.76 Q 104.98 96.5 108.88 96.5 L 108.88 96.5 L 108.88 96.5 Q 114.4 96.5 117.43 98.3 L 117.43 98.3 L 117.43 98.3 Q 120.46 100.1 120.46 102.92 L 120.46 102.92 L 120.46 102.92 Q 120.46 104.48 119.68 105.62 L 119.68 105.62 L 119.68 105.62 Q 118.9 106.76 117.88 107.42 L 117.88 107.42 L 117.88 107.42 Q 116.32 106.4 114.55 105.68 L 114.55 105.68 L 114.55 105.68 Q 112.78 104.96 110.44 104.96 Z  M 152.98 126.26 L 151.3 133.94 L 151.3 133.94 Q 150.46 134.06 149.77 134.09 L 149.77 134.09 L 149.77 134.09 Q 149.08 134.12 148.42 134.12 L 148.42 134.12 L 148.42 134.12 Q 145.9 134.12 144.7 133.16 L 144.7 133.16 L 144.7 133.16 Q 143.5 132.2 143.5 130.04 L 143.5 130.04 L 143.5 130.04 Q 143.5 128.66 143.86 126.92 L 143.86 126.92 L 143.98 126.26 L 138.58 126.26 L 136.9 133.94 L 136.9 133.94 Q 136.06 134.06 135.37 134.09 L 135.37 134.09 L 135.37 134.09 Q 134.68 134.12 134.02 134.12 L 134.02 134.12 L 134.02 134.12 Q 131.5 134.12 130.3 133.16 L 130.3 133.16 L 130.3 133.16 Q 129.1 132.2 129.1 130.04 L 129.1 130.04 L 129.1 130.04 Q 129.1 128.66 129.46 126.92 L 129.46 126.92 L 129.58 126.26 L 125.08 126.26 L 125.08 126.26 Q 124.78 125.6 124.42 124.61 L 124.42 124.61 L 124.42 124.61 Q 124.06 123.62 124.06 122.6 L 124.06 122.6 L 124.06 122.6 Q 124.06 120.5 125.05 119.57 L 125.05 119.57 L 125.05 119.57 Q 126.04 118.64 127.48 118.64 L 127.48 118.64 L 131.26 118.64 L 132.58 112.58 L 126.7 112.58 L 126.7 112.58 Q 126.4 111.92 126.04 110.93 L 126.04 110.93 L 126.04 110.93 Q 125.68 109.94 125.68 108.92 L 125.68 108.92 L 125.68 108.92 Q 125.68 106.82 126.67 105.89 L 126.67 105.89 L 126.67 105.89 Q 127.66 104.96 129.1 104.96 L 129.1 104.96 L 134.26 104.96 L 136 97.22 L 136 97.22 Q 136.84 97.1 137.56 97.1 L 137.56 97.1 L 137.56 97.1 Q 138.28 97.1 138.94 97.1 L 138.94 97.1 L 138.94 97.1 Q 141.46 97.1 142.69 98.03 L 142.69 98.03 L 142.69 98.03 Q 143.92 98.96 143.92 101.12 L 143.92 101.12 L 143.92 101.12 Q 143.92 101.78 143.8 102.62 L 143.8 102.62 L 143.8 102.62 Q 143.68 103.46 143.5 104.3 L 143.5 104.3 L 143.32 104.96 L 148.66 104.96 L 150.4 97.22 L 150.4 97.22 Q 151.24 97.1 151.96 97.1 L 151.96 97.1 L 151.96 97.1 Q 152.68 97.1 153.34 97.1 L 153.34 97.1 L 153.34 97.1 Q 155.86 97.1 157.09 98.03 L 157.09 98.03 L 157.09 98.03 Q 158.32 98.96 158.32 101.12 L 158.32 101.12 L 158.32 101.12 Q 158.32 101.78 158.2 102.62 L 158.2 102.62 L 158.2 102.62 Q 158.08 103.46 157.9 104.3 L 157.9 104.3 L 157.72 104.96 L 162.22 104.96 L 162.22 104.96 Q 162.64 105.56 162.97 106.58 L 162.97 106.58 L 162.97 106.58 Q 163.3 107.6 163.3 108.68 L 163.3 108.68 L 163.3 108.68 Q 163.3 110.78 162.31 111.68 L 162.31 111.68 L 162.31 111.68 Q 161.32 112.58 159.94 112.58 L 159.94 112.58 L 156.04 112.58 L 154.72 118.64 L 160.6 118.64 L 160.6 118.64 Q 161.02 119.24 161.35 120.26 L 161.35 120.26 L 161.35 120.26 Q 161.68 121.28 161.68 122.36 L 161.68 122.36 L 161.68 122.36 Q 161.68 124.46 160.69 125.36 L 160.69 125.36 L 160.69 125.36 Q 159.7 126.26 158.32 126.26 L 158.32 126.26 L 152.98 126.26 L 152.98 126.26 Z  M 141.64 112.58 L 140.32 118.64 L 145.66 118.64 L 146.98 112.58 L 141.64 112.58 L 141.64 112.58 Z " fill-rule="evenodd" fill="rgb(97,32,140)"/></g></svg>