<?xml version="1.0" standalone="no"?><!-- Generator: Gravit.io --><svg xmlns="http://www.w3.org/2000/svg" xmlns:xlink="http://www.w3.org/1999/xlink" style="isolation:isolate" viewBox="0 0 256 256" width="256" height="256"><defs><clipPath id="_clipPath_9rHa4C3LkgLToHBz4So6TnGZJFVUx7w0"><rect width="256" height="256"/></clipPath></defs><g clip-path="url(#_clipPath_9rHa4C3LkgLToHBz4So6TnGZJFVUx7w0)"><rect width="256" height="256" style="fill:rgb(0,0,0)" fill-opacity="0"/><g><g><path d=" M 156.239 40 L 65.027 40 C 62.487 40 60.429 42.059 60.429 46.053 L 60.429 212.857 C 60.429 213.941 62.487 216 65.027 216 L 190.973 216 C 193.513 216 195.571 213.941 195.571 212.857 L 195.571 80.788 C 195.571 78.601 195.279 77.897 194.764 77.378 L 158.193 40.808 C 157.675 40.292 156.971 40 156.239 40 Z " fill="rgb(233,233,224)"/><path d=" M 157.857 40.475 L 157.857 77.714 L 195.097 77.714 L 157.857 40.475 Z " fill="rgb(217,215,202)"/><path d=" M 190.973 216 L 65.027 216 C 62.487 216 60.429 213.941 60.429 211.402 L 60.429 162.571 L 195.571 162.571 L 195.571 211.402 C 195.571 213.941 193.513 216 190.973 216 Z " fill="rgb(151,119,168)"/><g><path d=" M 101.286 99.714 L 101.286 87.143 C 101.286 85.411 102.694 84 104.429 84 C 106.167 84 107.571 82.592 107.571 80.857 C 107.571 79.122 106.167 77.714 104.429 77.714 C 99.23 77.714 95 81.945 95 87.143 L 95 99.714 C 95 103.181 92.181 106 88.714 106 C 86.976 106 85.571 107.408 85.571 109.143 C 85.571 110.878 86.976 112.286 88.714 112.286 C 92.181 112.286 95 115.105 95 118.571 L 95 131.143 C 95 136.341 99.23 140.571 104.429 140.571 C 106.167 140.571 107.571 139.163 107.571 137.429 C 107.571 135.694 106.167 134.286 104.429 134.286 C 102.694 134.286 101.286 132.875 101.286 131.143 L 101.286 118.571 C 101.286 114.8 99.582 111.45 96.942 109.143 C 99.582 106.836 101.286 103.486 101.286 99.714 Z " fill="rgb(151,119,168)"/><circle vector-effect="non-scaling-stroke" cx="126.42857142857144" cy="98.14285714285722" r="4.714285714285715" fill="rgb(151,119,168)"/><path d=" M 164.143 106 C 160.676 106 157.857 103.181 157.857 99.714 L 157.857 87.143 C 157.857 81.945 153.627 77.714 148.429 77.714 C 146.691 77.714 145.286 79.122 145.286 80.857 C 145.286 82.592 146.691 84 148.429 84 C 150.163 84 151.571 85.411 151.571 87.143 L 151.571 99.714 C 151.571 103.486 153.275 106.836 155.915 109.143 C 153.275 111.45 151.571 114.8 151.571 118.571 L 151.571 131.143 C 151.571 132.875 150.163 134.286 148.429 134.286 C 146.691 134.286 145.286 135.694 145.286 137.429 C 145.286 139.163 146.691 140.571 148.429 140.571 C 153.627 140.571 157.857 136.341 157.857 131.143 L 157.857 118.571 C 157.857 115.105 160.676 112.286 164.143 112.286 C 165.881 112.286 167.286 110.878 167.286 109.143 C 167.286 107.408 165.881 106 164.143 106 Z " fill="rgb(151,119,168)"/><path d=" M 126.429 115.429 C 124.691 115.429 123.286 116.837 123.286 118.571 L 123.286 128 C 123.286 129.735 124.691 131.143 126.429 131.143 C 128.167 131.143 129.571 129.735 129.571 128 L 129.571 118.571 C 129.571 116.837 128.167 115.429 126.429 115.429 Z " fill="rgb(151,119,168)"/></g></g></g><path d=" M 87.704 194.559 L 87.704 173.887 L 93.856 173.887 L 93.856 194.559 L 93.856 194.559 Q 93.856 197.409 92.595 199.593 L 92.595 199.593 L 92.595 199.593 Q 91.334 201.777 89.037 202.967 L 89.037 202.967 L 89.037 202.967 Q 86.74 204.156 83.849 204.156 L 83.849 204.156 L 83.849 204.156 Q 79.111 204.156 76.466 201.747 L 76.466 201.747 L 76.466 201.747 Q 73.82 199.337 73.82 194.928 L 73.82 194.928 L 80.014 194.928 L 80.014 194.928 Q 80.014 197.122 80.937 198.168 L 80.937 198.168 L 80.937 198.168 Q 81.859 199.214 83.849 199.214 L 83.849 199.214 L 83.849 199.214 Q 85.612 199.214 86.658 198.004 L 86.658 198.004 L 86.658 198.004 Q 87.704 196.794 87.704 194.559 L 87.704 194.559 L 87.704 194.559 Z  M 114.61 195.912 L 114.61 195.912 L 114.61 195.912 Q 114.61 194.169 113.38 193.236 L 113.38 193.236 L 113.38 193.236 Q 112.149 192.303 108.95 191.267 L 108.95 191.267 L 108.95 191.267 Q 105.751 190.231 103.885 189.227 L 103.885 189.227 L 103.885 189.227 Q 98.799 186.479 98.799 181.823 L 98.799 181.823 L 98.799 181.823 Q 98.799 179.403 100.163 177.506 L 100.163 177.506 L 100.163 177.506 Q 101.526 175.609 104.08 174.543 L 104.08 174.543 L 104.08 174.543 Q 106.633 173.477 109.812 173.477 L 109.812 173.477 L 109.812 173.477 Q 113.011 173.477 115.513 174.635 L 115.513 174.635 L 115.513 174.635 Q 118.015 175.794 119.399 177.906 L 119.399 177.906 L 119.399 177.906 Q 120.783 180.019 120.783 182.705 L 120.783 182.705 L 114.631 182.705 L 114.631 182.705 Q 114.631 180.654 113.339 179.516 L 113.339 179.516 L 113.339 179.516 Q 112.047 178.378 109.709 178.378 L 109.709 178.378 L 109.709 178.378 Q 107.453 178.378 106.202 179.332 L 106.202 179.332 L 106.202 179.332 Q 104.951 180.285 104.951 181.844 L 104.951 181.844 L 104.951 181.844 Q 104.951 183.3 106.417 184.284 L 106.417 184.284 L 106.417 184.284 Q 107.884 185.269 110.734 186.13 L 110.734 186.13 L 110.734 186.13 Q 115.984 187.709 118.384 190.047 L 118.384 190.047 L 118.384 190.047 Q 120.783 192.385 120.783 195.871 L 120.783 195.871 L 120.783 195.871 Q 120.783 199.747 117.851 201.952 L 117.851 201.952 L 117.851 201.952 Q 114.918 204.156 109.955 204.156 L 109.955 204.156 L 109.955 204.156 Q 106.51 204.156 103.68 202.895 L 103.68 202.895 L 103.68 202.895 Q 100.85 201.634 99.363 199.439 L 99.363 199.439 L 99.363 199.439 Q 97.876 197.245 97.876 194.354 L 97.876 194.354 L 104.049 194.354 L 104.049 194.354 Q 104.049 199.296 109.955 199.296 L 109.955 199.296 L 109.955 199.296 Q 112.149 199.296 113.38 198.404 L 113.38 198.404 L 113.38 198.404 Q 114.61 197.512 114.61 195.912 Z  M 149.474 188.16 L 149.474 189.493 L 149.474 189.493 Q 149.474 193.902 147.915 197.225 L 147.915 197.225 L 147.915 197.225 Q 146.356 200.547 143.455 202.352 L 143.455 202.352 L 143.455 202.352 Q 140.553 204.156 136.8 204.156 L 136.8 204.156 L 136.8 204.156 Q 133.088 204.156 130.176 202.372 L 130.176 202.372 L 130.176 202.372 Q 127.264 200.588 125.664 197.276 L 125.664 197.276 L 125.664 197.276 Q 124.064 193.964 124.044 189.657 L 124.044 189.657 L 124.044 188.181 L 124.044 188.181 Q 124.044 183.771 125.633 180.418 L 125.633 180.418 L 125.633 180.418 Q 127.223 177.065 130.125 175.271 L 130.125 175.271 L 130.125 175.271 Q 133.026 173.477 136.759 173.477 L 136.759 173.477 L 136.759 173.477 Q 140.491 173.477 143.393 175.271 L 143.393 175.271 L 143.393 175.271 Q 146.295 177.065 147.884 180.418 L 147.884 180.418 L 147.884 180.418 Q 149.474 183.771 149.474 188.16 L 149.474 188.16 L 149.474 188.16 Z  M 143.239 189.596 L 143.239 188.14 L 143.239 188.14 Q 143.239 183.443 141.558 181.003 L 141.558 181.003 L 141.558 181.003 Q 139.876 178.563 136.759 178.563 L 136.759 178.563 L 136.759 178.563 Q 133.662 178.563 131.98 180.972 L 131.98 180.972 L 131.98 180.972 Q 130.299 183.382 130.278 188.037 L 130.278 188.037 L 130.278 189.493 L 130.278 189.493 Q 130.278 194.066 131.96 196.589 L 131.96 196.589 L 131.96 196.589 Q 133.642 199.111 136.8 199.111 L 136.8 199.111 L 136.8 199.111 Q 139.896 199.111 141.558 196.681 L 141.558 196.681 L 141.558 196.681 Q 143.219 194.251 143.239 189.596 L 143.239 189.596 L 143.239 189.596 Z  M 178.226 173.887 L 178.226 203.746 L 172.073 203.746 L 160.097 184.1 L 160.097 203.746 L 153.944 203.746 L 153.944 173.887 L 160.097 173.887 L 172.094 193.574 L 172.094 173.887 L 178.226 173.887 L 178.226 173.887 Z " fill-rule="evenodd" fill="rgb(255,255,255)"/></g></svg>