<?xml version="1.0" standalone="no"?><!-- Generator: Gravit.io --><svg xmlns="http://www.w3.org/2000/svg" xmlns:xlink="http://www.w3.org/1999/xlink" style="isolation:isolate" viewBox="0 0 256 256" width="256" height="256"><defs><clipPath id="_clipPath_rSDCv1ZLteIn99d6mz6ZlH7jmbO0kenH"><rect width="256" height="256"/></clipPath></defs><g clip-path="url(#_clipPath_rSDCv1ZLteIn99d6mz6ZlH7jmbO0kenH)"><rect width="256" height="256" style="fill:rgb(0,0,0)" fill-opacity="0"/><g><g><path d=" M 156.239 40 L 65.027 40 C 62.487 40 60.429 42.059 60.429 46.053 L 60.429 212.857 C 60.429 213.941 62.487 216 65.027 216 L 190.973 216 C 193.513 216 195.571 213.941 195.571 212.857 L 195.571 80.788 C 195.571 78.601 195.279 77.897 194.764 77.378 L 158.193 40.808 C 157.675 40.292 156.971 40 156.239 40 Z " fill="rgb(233,233,224)"/><path d=" M 157.857 40.475 L 157.857 77.714 L 195.097 77.714 L 157.857 40.475 Z " fill="rgb(217,215,202)"/><path d=" M 190.973 216 L 65.027 216 C 62.487 216 60.429 213.941 60.429 211.402 L 60.429 162.571 L 195.571 162.571 L 195.571 211.402 C 195.571 213.941 193.513 216 190.973 216 Z " fill="rgb(125,101,153)"/><path d=" M 152.106 87.099 C 150.324 84.597 148.02 82.249 144.852 79.71 C 132.551 69.87 129.901 59.982 129.571 58.533 L 129.571 55.714 C 129.571 53.976 128.167 52.571 126.429 52.571 C 124.691 52.571 123.286 53.976 123.286 55.714 L 123.286 58.857 L 123.286 85.128 L 123.286 113.581 L 111.638 113.581 C 99.438 113.581 91.857 119.744 91.857 129.663 C 91.857 140.556 98.897 147.596 109.79 147.596 C 120.699 147.596 129.571 138.723 129.571 127.815 L 129.571 91.757 L 130.508 92.52 C 131.577 93.576 133.214 94.783 135.288 96.307 C 142.573 101.679 154.774 110.661 151.707 120.8 C 151.615 121.108 151.571 121.413 151.571 121.714 C 151.571 123.066 152.445 124.31 153.803 124.722 C 154.108 124.813 154.413 124.857 154.714 124.857 C 156.066 124.857 157.31 123.983 157.722 122.626 C 162.835 105.733 156.396 93.114 152.106 87.099 Z  M 123.286 127.815 C 123.286 135.257 117.233 141.31 109.79 141.31 C 102.389 141.31 98.143 137.064 98.143 129.663 C 98.143 121.567 105.481 119.866 111.638 119.866 L 123.286 119.866 L 123.286 127.815 Z  M 139.016 91.254 C 137.221 89.927 135.669 88.787 134.707 87.856 L 129.571 83.645 L 129.571 72.73 C 132.171 76.419 135.816 80.533 140.923 84.619 C 143.62 86.781 145.55 88.73 146.986 90.748 C 149.236 93.9 151.483 98.099 152.605 103.25 C 148.435 98.19 142.913 94.123 139.016 91.254 Z " fill="rgb(200,189,184)"/></g></g><path d=" M 85.666 173.887 L 93.705 173.887 L 101.375 195.543 L 109.004 173.887 L 117.084 173.887 L 117.084 203.746 L 110.911 203.746 L 110.911 195.584 L 111.526 181.495 L 103.467 203.746 L 99.242 203.746 L 91.203 181.516 L 91.818 195.584 L 91.818 203.746 L 85.666 203.746 L 85.666 173.887 L 85.666 173.887 Z  M 134.003 193.226 L 128.609 193.226 L 128.609 203.746 L 122.457 203.746 L 122.457 173.887 L 134.105 173.887 L 134.105 173.887 Q 137.469 173.887 140.022 175.117 L 140.022 175.117 L 140.022 175.117 Q 142.575 176.348 143.949 178.614 L 143.949 178.614 L 143.949 178.614 Q 145.323 180.88 145.323 183.771 L 145.323 183.771 L 145.323 183.771 Q 145.323 188.16 142.319 190.693 L 142.319 190.693 L 142.319 190.693 Q 139.314 193.226 134.003 193.226 L 134.003 193.226 L 134.003 193.226 Z  M 128.609 178.87 L 128.609 188.242 L 134.105 188.242 L 134.105 188.242 Q 136.546 188.242 137.828 187.094 L 137.828 187.094 L 137.828 187.094 Q 139.109 185.945 139.109 183.813 L 139.109 183.813 L 139.109 183.813 Q 139.109 181.618 137.817 180.265 L 137.817 180.265 L 137.817 180.265 Q 136.525 178.911 134.249 178.87 L 134.249 178.87 L 128.609 178.87 L 128.609 178.87 Z  M 154.941 190.826 L 154.941 186.191 L 158.1 186.191 L 158.1 186.191 Q 160.355 186.191 161.442 185.063 L 161.442 185.063 L 161.442 185.063 Q 162.529 183.936 162.529 182.069 L 162.529 182.069 L 162.529 182.069 Q 162.529 180.265 161.453 179.26 L 161.453 179.26 L 161.453 179.26 Q 160.376 178.255 158.489 178.255 L 158.489 178.255 L 158.489 178.255 Q 156.787 178.255 155.639 179.188 L 155.639 179.188 L 155.639 179.188 Q 154.49 180.121 154.49 181.618 L 154.49 181.618 L 148.563 181.618 L 148.563 181.618 Q 148.563 179.28 149.825 177.424 L 149.825 177.424 L 149.825 177.424 Q 151.086 175.568 153.352 174.522 L 153.352 174.522 L 153.352 174.522 Q 155.618 173.477 158.346 173.477 L 158.346 173.477 L 158.346 173.477 Q 163.083 173.477 165.77 175.743 L 165.77 175.743 L 165.77 175.743 Q 168.456 178.009 168.456 181.987 L 168.456 181.987 L 168.456 181.987 Q 168.456 184.038 167.205 185.761 L 167.205 185.761 L 167.205 185.761 Q 165.954 187.483 163.924 188.406 L 163.924 188.406 L 163.924 188.406 Q 166.446 189.309 167.687 191.113 L 167.687 191.113 L 167.687 191.113 Q 168.928 192.918 168.928 195.379 L 168.928 195.379 L 168.928 195.379 Q 168.928 199.357 166.026 201.757 L 166.026 201.757 L 166.026 201.757 Q 163.124 204.156 158.346 204.156 L 158.346 204.156 L 158.346 204.156 Q 153.875 204.156 151.035 201.798 L 151.035 201.798 L 151.035 201.798 Q 148.194 199.439 148.194 195.563 L 148.194 195.563 L 154.121 195.563 L 154.121 195.563 Q 154.121 197.245 155.382 198.312 L 155.382 198.312 L 155.382 198.312 Q 156.644 199.378 158.489 199.378 L 158.489 199.378 L 158.489 199.378 Q 160.602 199.378 161.801 198.26 L 161.801 198.26 L 161.801 198.26 Q 163.001 197.143 163.001 195.297 L 163.001 195.297 L 163.001 195.297 Q 163.001 190.826 158.079 190.826 L 158.079 190.826 L 154.941 190.826 L 154.941 190.826 Z " fill-rule="evenodd" fill="rgb(255,255,255)"/></g></svg>