<?xml version="1.0" standalone="no"?><!-- Generator: Gravit.io --><svg xmlns="http://www.w3.org/2000/svg" xmlns:xlink="http://www.w3.org/1999/xlink" style="isolation:isolate" viewBox="0 0 256 256" width="256" height="256"><defs><clipPath id="_clipPath_lMyuGubRIotblXMnQ7jMCoNnqqKJSGxl"><rect width="256" height="256"/></clipPath></defs><g clip-path="url(#_clipPath_lMyuGubRIotblXMnQ7jMCoNnqqKJSGxl)"><rect width="256" height="256" style="fill:rgb(0,0,0)" fill-opacity="0"/><g><g><path d=" M 156.239 40 L 65.027 40 C 62.487 40 60.429 42.059 60.429 46.053 L 60.429 212.857 C 60.429 213.941 62.487 216 65.027 216 L 190.973 216 C 193.513 216 195.571 213.941 195.571 212.857 L 195.571 80.788 C 195.571 78.601 195.279 77.897 194.764 77.378 L 158.193 40.808 C 157.675 40.292 156.971 40 156.239 40 Z " fill="rgb(233,233,224)"/><path d=" M 157.857 40.475 L 157.857 77.714 L 195.097 77.714 L 157.857 40.475 Z " fill="rgb(217,215,202)"/><path d=" M 190.973 216 L 65.027 216 C 62.487 216 60.429 213.941 60.429 211.402 L 60.429 162.571 L 195.571 162.571 L 195.571 211.402 C 195.571 213.941 193.513 216 190.973 216 Z " fill="rgb(246,113,46)"/><path d=" M 164.143 134.286 L 88.714 134.286 L 88.714 84 L 164.143 84 L 164.143 134.286 Z  M 95 128 L 157.857 128 L 157.857 90.286 L 95 90.286 L 95 128 Z " fill="rgb(200,189,184)"/><path d=" M 104.425 150 C 103.875 150 103.316 149.855 102.81 149.551 C 101.32 148.658 100.839 146.728 101.732 145.239 L 111.161 129.524 C 112.053 128.035 113.983 127.554 115.473 128.446 C 116.962 129.339 117.443 131.269 116.551 132.758 L 107.122 148.473 C 106.534 149.456 105.494 150 104.425 150 Z " fill="rgb(200,189,184)"/><path d=" M 148.432 150 C 147.363 150 146.323 149.456 145.735 148.476 L 136.307 132.761 C 135.414 131.272 135.895 129.342 137.385 128.449 C 138.874 127.56 140.804 128.038 141.697 129.527 L 151.125 145.242 C 152.018 146.731 151.537 148.661 150.047 149.554 C 149.541 149.855 148.982 150 148.432 150 Z " fill="rgb(200,189,184)"/><path d=" M 126.429 90.286 C 124.694 90.286 123.286 88.881 123.286 87.143 L 123.286 77.714 C 123.286 75.976 124.694 74.571 126.429 74.571 C 128.163 74.571 129.571 75.976 129.571 77.714 L 129.571 87.143 C 129.571 88.881 128.163 90.286 126.429 90.286 Z " fill="rgb(200,189,184)"/><rect x="95" y="90.286" width="62.857" height="37.714" transform="matrix(1,0,0,1,0,0)" fill="rgb(211,204,201)"/></g></g><path d=" M 87.712 193.444 L 82.318 193.444 L 82.318 203.965 L 76.166 203.965 L 76.166 174.105 L 87.814 174.105 L 87.814 174.105 Q 91.178 174.105 93.731 175.336 L 93.731 175.336 L 93.731 175.336 Q 96.284 176.566 97.658 178.833 L 97.658 178.833 L 97.658 178.833 Q 99.032 181.099 99.032 183.99 L 99.032 183.99 L 99.032 183.99 Q 99.032 188.379 96.028 190.912 L 96.028 190.912 L 96.028 190.912 Q 93.023 193.444 87.712 193.444 L 87.712 193.444 L 87.712 193.444 Z  M 82.318 179.089 L 82.318 188.461 L 87.814 188.461 L 87.814 188.461 Q 90.255 188.461 91.537 187.313 L 91.537 187.313 L 91.537 187.313 Q 92.818 186.164 92.818 184.031 L 92.818 184.031 L 92.818 184.031 Q 92.818 181.837 91.526 180.483 L 91.526 180.483 L 91.526 180.483 Q 90.234 179.13 87.958 179.089 L 87.958 179.089 L 82.318 179.089 L 82.318 179.089 Z  M 114.803 193.444 L 109.409 193.444 L 109.409 203.965 L 103.257 203.965 L 103.257 174.105 L 114.905 174.105 L 114.905 174.105 Q 118.269 174.105 120.822 175.336 L 120.822 175.336 L 120.822 175.336 Q 123.375 176.566 124.749 178.833 L 124.749 178.833 L 124.749 178.833 Q 126.123 181.099 126.123 183.99 L 126.123 183.99 L 126.123 183.99 Q 126.123 188.379 123.119 190.912 L 123.119 190.912 L 123.119 190.912 Q 120.114 193.444 114.803 193.444 L 114.803 193.444 L 114.803 193.444 Z  M 109.409 179.089 L 109.409 188.461 L 114.905 188.461 L 114.905 188.461 Q 117.346 188.461 118.627 187.313 L 118.627 187.313 L 118.627 187.313 Q 119.909 186.164 119.909 184.031 L 119.909 184.031 L 119.909 184.031 Q 119.909 181.837 118.617 180.483 L 118.617 180.483 L 118.617 180.483 Q 117.325 179.13 115.049 179.089 L 115.049 179.089 L 109.409 179.089 L 109.409 179.089 Z  M 152.824 174.105 L 152.824 179.089 L 143.678 179.089 L 143.678 203.965 L 137.525 203.965 L 137.525 179.089 L 128.502 179.089 L 128.502 174.105 L 152.824 174.105 L 152.824 174.105 Z  M 161.417 174.105 L 167.016 184.4 L 172.614 174.105 L 179.689 174.105 L 170.994 188.912 L 179.915 203.965 L 172.758 203.965 L 167.016 193.506 L 161.273 203.965 L 154.116 203.965 L 163.037 188.912 L 154.342 174.105 L 161.417 174.105 L 161.417 174.105 Z " fill-rule="evenodd" fill="rgb(255,255,255)"/></g></svg>