<?xml version="1.0" standalone="no"?><!-- Generator: Gravit.io --><svg xmlns="http://www.w3.org/2000/svg" xmlns:xlink="http://www.w3.org/1999/xlink" style="isolation:isolate" viewBox="0 0 256 256" width="256" height="256"><defs><clipPath id="_clipPath_noUtHHGzPYvyzCKWl55c2UQn5veEgJAP"><rect width="256" height="256"/></clipPath></defs><g clip-path="url(#_clipPath_noUtHHGzPYvyzCKWl55c2UQn5veEgJAP)"><rect width="256" height="256" style="fill:rgb(0,0,0)" fill-opacity="0"/><g><g><path d=" M 156.239 40 L 65.027 40 C 62.487 40 60.429 42.059 60.429 46.053 L 60.429 212.857 C 60.429 213.941 62.487 216 65.027 216 L 190.973 216 C 193.513 216 195.571 213.941 195.571 212.857 L 195.571 80.788 C 195.571 78.601 195.279 77.897 194.764 77.378 L 158.193 40.808 C 157.675 40.292 156.971 40 156.239 40 Z " fill="rgb(233,233,224)"/><path d=" M 190.973 216 L 65.027 216 C 62.487 216 60.429 213.941 60.429 211.402 L 60.429 162.571 L 195.571 162.571 L 195.571 211.402 C 195.571 213.941 193.513 216 190.973 216 Z " fill="rgb(255,83,100)"/><path d=" M 117 128 C 116.478 128 115.96 127.871 115.488 127.613 C 114.483 127.06 113.857 126.004 113.857 124.857 L 113.857 80.857 C 113.857 79.71 114.483 78.654 115.488 78.101 C 116.497 77.551 117.72 77.592 118.691 78.205 L 153.262 100.205 C 154.164 100.783 154.714 101.782 154.714 102.857 C 154.714 103.932 154.164 104.931 153.259 105.51 L 118.688 127.51 C 118.175 127.833 117.588 128 117 128 Z  M 120.143 86.58 L 120.143 119.131 L 145.716 102.857 L 120.143 86.58 Z " fill="rgb(200,189,184)"/><path d=" M 129.571 150 C 103.577 150 82.429 128.852 82.429 102.857 C 82.429 76.863 103.577 55.714 129.571 55.714 C 155.566 55.714 176.714 76.863 176.714 102.857 C 176.714 128.852 155.566 150 129.571 150 Z  M 129.571 62 C 107.043 62 88.714 80.329 88.714 102.857 C 88.714 125.385 107.043 143.714 129.571 143.714 C 152.099 143.714 170.429 125.385 170.429 102.857 C 170.429 80.329 152.099 62 129.571 62 Z " fill="rgb(200,189,184)"/><path d=" M 157.857 40.475 L 157.857 77.714 L 195.097 77.714 L 157.857 40.475 Z " fill="rgb(217,215,202)"/></g></g><path d=" M 85.666 173.887 L 93.705 173.887 L 101.375 195.543 L 109.004 173.887 L 117.084 173.887 L 117.084 203.746 L 110.911 203.746 L 110.911 195.584 L 111.526 181.495 L 103.467 203.746 L 99.242 203.746 L 91.203 181.516 L 91.818 195.584 L 91.818 203.746 L 85.666 203.746 L 85.666 173.887 L 85.666 173.887 Z  M 134.003 193.226 L 128.609 193.226 L 128.609 203.746 L 122.457 203.746 L 122.457 173.887 L 134.105 173.887 L 134.105 173.887 Q 137.469 173.887 140.022 175.117 L 140.022 175.117 L 140.022 175.117 Q 142.575 176.348 143.949 178.614 L 143.949 178.614 L 143.949 178.614 Q 145.323 180.88 145.323 183.771 L 145.323 183.771 L 145.323 183.771 Q 145.323 188.16 142.319 190.693 L 142.319 190.693 L 142.319 190.693 Q 139.314 193.226 134.003 193.226 L 134.003 193.226 L 134.003 193.226 Z  M 128.609 178.87 L 128.609 188.242 L 134.105 188.242 L 134.105 188.242 Q 136.546 188.242 137.828 187.094 L 137.828 187.094 L 137.828 187.094 Q 139.109 185.945 139.109 183.813 L 139.109 183.813 L 139.109 183.813 Q 139.109 181.618 137.817 180.265 L 137.817 180.265 L 137.817 180.265 Q 136.525 178.911 134.249 178.87 L 134.249 178.87 L 128.609 178.87 L 128.609 178.87 Z  M 166.446 173.887 L 166.446 192.508 L 169.83 192.508 L 169.83 197.286 L 166.446 197.286 L 166.446 203.746 L 160.52 203.746 L 160.52 197.286 L 148.276 197.286 L 148.01 193.554 L 160.458 173.887 L 166.446 173.887 L 166.446 173.887 Z  M 160.13 182.644 L 153.916 192.508 L 160.52 192.508 L 160.52 181.967 L 160.13 182.644 L 160.13 182.644 Z " fill-rule="evenodd" fill="rgb(255,255,255)"/></g></svg>