<?xml version="1.0" standalone="no"?><!-- Generator: Gravit.io --><svg xmlns="http://www.w3.org/2000/svg" xmlns:xlink="http://www.w3.org/1999/xlink" style="isolation:isolate" viewBox="0 0 256 256" width="256" height="256"><defs><clipPath id="_clipPath_MipeIDFvj6U3h5wRDZn1ZwVQ0JfjCZwd"><rect width="256" height="256"/></clipPath></defs><g clip-path="url(#_clipPath_MipeIDFvj6U3h5wRDZn1ZwVQ0JfjCZwd)"><rect width="256" height="256" style="fill:rgb(0,0,0)" fill-opacity="0"/><g><g><path d=" M 156.239 40 L 65.027 40 C 62.487 40 60.429 42.059 60.429 46.053 L 60.429 212.857 C 60.429 213.941 62.487 216 65.027 216 L 190.973 216 C 193.513 216 195.571 213.941 195.571 212.857 L 195.571 80.788 C 195.571 78.601 195.279 77.897 194.764 77.378 L 158.193 40.808 C 157.675 40.292 156.971 40 156.239 40 Z " fill="rgb(233,233,224)"/><path d=" M 190.973 216 L 65.027 216 C 62.487 216 60.429 213.941 60.429 211.402 L 60.429 162.571 L 195.571 162.571 L 195.571 211.402 C 195.571 213.941 193.513 216 190.973 216 Z " fill="rgb(88,137,196)"/><path d=" M 162.238 75.084 C 160.783 74.138 158.838 74.546 157.889 75.998 C 153.385 82.9 145.383 92.228 141.577 96.034 L 132.815 104.796 L 123.927 95.908 L 132.683 87.143 C 138.249 81.577 152.392 70.039 158.19 67.965 C 158.316 67.946 158.476 67.918 158.542 67.902 C 160.18 67.535 161.141 65.963 160.852 64.31 C 160.56 62.657 158.916 61.529 157.26 61.752 L 156.371 61.947 C 148.705 64.502 132.934 78 128.236 82.702 L 105.654 105.283 C 105.356 105.271 105.06 105.239 104.759 105.239 C 95.421 105.239 87.589 111.918 85.955 121.004 L 85.615 121.233 L 85.553 122.918 C 85.446 125.879 84.603 135.653 78.189 137.205 C 76.564 137.611 75.492 139.17 75.697 140.826 L 76.206 143.714 L 98.143 143.714 L 98.206 143.714 L 98.206 143.714 L 104.762 143.62 C 115.344 143.62 123.955 135.009 123.955 124.427 C 123.955 123.82 123.921 123.223 123.864 122.629 L 146.018 100.478 C 150.119 96.377 158.354 86.781 163.15 79.433 C 164.099 77.978 163.69 76.033 162.238 75.084 Z  M 104.762 137.334 L 93.011 137.334 L 93.058 137.429 L 87.837 137.429 C 90.625 133.214 91.486 127.884 91.747 124.716 L 92.005 123.132 C 92.674 116.513 98.159 111.522 104.765 111.522 C 105.145 111.522 105.503 111.601 105.877 111.635 L 106.402 111.701 C 109.687 112.122 112.55 113.76 114.574 116.136 C 114.756 116.353 114.945 116.56 115.111 116.789 C 115.369 117.135 115.598 117.503 115.821 117.874 C 115.979 118.141 116.126 118.414 116.268 118.691 C 116.466 119.087 116.657 119.489 116.815 119.907 C 116.909 120.159 116.978 120.423 117.057 120.683 C 117.198 121.145 117.343 121.607 117.434 122.095 L 117.449 122.176 C 117.578 122.912 117.676 123.657 117.676 124.427 C 117.669 131.542 111.88 137.334 104.762 137.334 Z  M 120.193 113.062 C 120.171 113.034 120.152 113.009 120.13 112.98 C 118.229 110.431 115.715 108.376 112.801 107.025 L 119.473 100.352 L 128.361 109.24 L 121.853 115.746 C 121.378 114.803 120.819 113.907 120.193 113.062 Z " fill="rgb(200,189,184)"/><path d=" M 157.857 40.475 L 157.857 77.714 L 195.097 77.714 L 157.857 40.475 Z " fill="rgb(217,215,202)"/></g></g><path d=" M 100.318 203.746 L 94.72 192.815 L 89.818 192.815 L 89.818 203.746 L 83.666 203.746 L 83.666 173.887 L 94.761 173.887 L 94.761 173.887 Q 100.052 173.887 102.923 176.245 L 102.923 176.245 L 102.923 176.245 Q 105.794 178.604 105.794 182.91 L 105.794 182.91 L 105.794 182.91 Q 105.794 185.966 104.471 188.006 L 104.471 188.006 L 104.471 188.006 Q 103.148 190.047 100.462 191.257 L 100.462 191.257 L 106.922 203.459 L 106.922 203.746 L 100.318 203.746 L 100.318 203.746 Z  M 89.818 178.87 L 89.818 187.832 L 94.781 187.832 L 94.781 187.832 Q 97.099 187.832 98.37 186.653 L 98.37 186.653 L 98.37 186.653 Q 99.642 185.474 99.642 183.402 L 99.642 183.402 L 99.642 183.402 Q 99.642 181.29 98.442 180.08 L 98.442 180.08 L 98.442 180.08 Q 97.242 178.87 94.761 178.87 L 94.761 178.87 L 89.818 178.87 L 89.818 178.87 Z  M 129.398 203.746 L 127.327 197.594 L 116.54 197.594 L 114.489 203.746 L 107.947 203.746 L 119.063 173.887 L 124.764 173.887 L 135.94 203.746 L 129.398 203.746 L 129.398 203.746 Z  M 121.913 181.434 L 118.201 192.61 L 125.666 192.61 L 121.913 181.434 L 121.913 181.434 Z  M 157.084 173.887 L 161.985 195.133 L 166.005 173.887 L 172.137 173.887 L 165.513 203.746 L 159.319 203.746 L 154.459 183.771 L 149.599 203.746 L 143.405 203.746 L 136.781 173.887 L 142.913 173.887 L 146.953 195.092 L 151.875 173.887 L 157.084 173.887 L 157.084 173.887 Z " fill-rule="evenodd" fill="rgb(255,255,255)"/></g></svg>