<?xml version="1.0" standalone="no"?><!-- Generator: Gravit.io --><svg xmlns="http://www.w3.org/2000/svg" xmlns:xlink="http://www.w3.org/1999/xlink" style="isolation:isolate" viewBox="0 0 256 256" width="256" height="256"><defs><clipPath id="_clipPath_EoUQMOFyg3AuOaNPUjcykHXumrSwFkTq"><rect width="256" height="256"/></clipPath></defs><g clip-path="url(#_clipPath_EoUQMOFyg3AuOaNPUjcykHXumrSwFkTq)"><rect width="256" height="256" style="fill:rgb(0,0,0)" fill-opacity="0"/><g><g><path d=" M 156.239 40 L 65.027 40 C 62.487 40 60.429 42.059 60.429 46.053 L 60.429 212.857 C 60.429 213.941 62.487 216 65.027 216 L 190.973 216 C 193.513 216 195.571 213.941 195.571 212.857 L 195.571 80.788 C 195.571 78.601 195.279 77.897 194.764 77.378 L 158.193 40.808 C 157.675 40.292 156.971 40 156.239 40 Z " fill="rgb(233,233,224)"/><path d=" M 157.857 40.475 L 157.857 77.714 L 195.097 77.714 L 157.857 40.475 Z " fill="rgb(217,215,202)"/><path d=" M 190.973 216 L 65.027 216 C 62.487 216 60.429 213.941 60.429 211.402 L 60.429 162.571 L 195.571 162.571 L 195.571 211.402 C 195.571 213.941 193.513 216 190.973 216 Z " fill="rgb(242,156,31)"/><path d=" M 88.714 115.429 C 87.91 115.429 87.105 115.121 86.492 114.508 C 85.263 113.279 85.263 111.293 86.492 110.064 L 105.349 91.207 C 106.578 89.978 108.565 89.978 109.793 91.207 C 111.022 92.435 111.022 94.422 109.793 95.651 L 90.936 114.508 C 90.323 115.121 89.519 115.429 88.714 115.429 Z " fill="rgb(242,156,31)"/><path d=" M 107.571 134.286 C 106.767 134.286 105.962 133.978 105.349 133.365 L 86.492 114.508 C 85.263 113.279 85.263 111.293 86.492 110.064 C 87.721 108.835 89.707 108.835 90.936 110.064 L 109.793 128.921 C 111.022 130.15 111.022 132.136 109.793 133.365 C 109.181 133.978 108.376 134.286 107.571 134.286 Z " fill="rgb(242,156,31)"/><path d=" M 145.286 134.286 C 144.481 134.286 143.677 133.978 143.064 133.365 C 141.835 132.136 141.835 130.15 143.064 128.921 L 161.921 110.064 C 163.15 108.835 165.136 108.835 166.365 110.064 C 167.594 111.293 167.594 113.279 166.365 114.508 L 147.508 133.365 C 146.895 133.978 146.09 134.286 145.286 134.286 Z " fill="rgb(242,156,31)"/><path d=" M 164.143 115.429 C 163.338 115.429 162.534 115.121 161.921 114.508 L 143.064 95.651 C 141.835 94.422 141.835 92.435 143.064 91.207 C 144.293 89.978 146.279 89.978 147.508 91.207 L 166.365 110.064 C 167.594 111.293 167.594 113.279 166.365 114.508 C 165.752 115.121 164.947 115.429 164.143 115.429 Z " fill="rgb(242,156,31)"/><path d=" M 117 140.571 C 116.654 140.571 116.299 140.512 115.953 140.389 C 114.316 139.811 113.458 138.016 114.036 136.379 L 132.893 82.95 C 133.475 81.313 135.26 80.452 136.904 81.033 C 138.541 81.611 139.399 83.406 138.821 85.043 L 119.964 138.472 C 119.508 139.767 118.295 140.571 117 140.571 Z " fill="rgb(242,156,31)"/></g></g><path d=" M 91.252 173.887 L 96.851 184.182 L 102.449 173.887 L 109.524 173.887 L 100.829 188.693 L 109.75 203.746 L 102.593 203.746 L 96.851 193.287 L 91.108 203.746 L 83.951 203.746 L 92.872 188.693 L 84.177 173.887 L 91.252 173.887 L 91.252 173.887 Z  M 112.847 173.887 L 120.886 173.887 L 128.556 195.543 L 136.185 173.887 L 144.265 173.887 L 144.265 203.746 L 138.092 203.746 L 138.092 195.584 L 138.707 181.495 L 130.647 203.746 L 126.423 203.746 L 118.384 181.516 L 118.999 195.584 L 118.999 203.746 L 112.847 203.746 L 112.847 173.887 L 112.847 173.887 Z  M 155.79 173.887 L 155.79 198.804 L 168.854 198.804 L 168.854 203.746 L 149.638 203.746 L 149.638 173.887 L 155.79 173.887 L 155.79 173.887 Z " fill-rule="evenodd" fill="rgb(255,255,255)"/></g></svg>
