<?xml version="1.0" standalone="no"?><!-- Generator: Gravit.io --><svg xmlns="http://www.w3.org/2000/svg" xmlns:xlink="http://www.w3.org/1999/xlink" style="isolation:isolate" viewBox="0 0 256 256" width="256" height="256"><defs><clipPath id="_clipPath_3wrRNQhSBwb8cTCoRcXedTcqzIEQBo0H"><rect width="256" height="256"/></clipPath></defs><g clip-path="url(#_clipPath_3wrRNQhSBwb8cTCoRcXedTcqzIEQBo0H)"><rect width="256" height="256" style="fill:rgb(0,0,0)" fill-opacity="0"/><g><g><g><path d=" M 156.239 40 L 65.027 40 C 62.487 40 60.429 42.059 60.429 46.053 L 60.429 212.857 C 60.429 213.941 62.487 216 65.027 216 L 190.973 216 C 193.513 216 195.571 213.941 195.571 212.857 L 195.571 80.788 C 195.571 78.601 195.279 77.897 194.764 77.378 L 158.193 40.808 C 157.675 40.292 156.971 40 156.239 40 Z " fill="rgb(233,233,224)"/><path d=" M 157.857 40.475 L 157.857 77.714 L 195.097 77.714 L 157.857 40.475 Z " fill="rgb(217,215,202)"/><path d=" M 190.973 216 L 65.027 216 C 62.487 216 60.429 213.941 60.429 211.402 L 60.429 162.571 L 195.571 162.571 L 195.571 211.402 C 195.571 213.941 193.513 216 190.973 216 Z " fill="rgb(30,65,111)"/></g></g><path d=" M 86.318 173.887 L 86.318 198.804 L 99.382 198.804 L 99.382 203.746 L 80.166 203.746 L 80.166 173.887 L 86.318 173.887 L 86.318 173.887 Z  M 120.874 185.986 L 120.874 190.806 L 109.062 190.806 L 109.062 198.804 L 122.925 198.804 L 122.925 203.746 L 102.909 203.746 L 102.909 173.887 L 122.884 173.887 L 122.884 178.87 L 109.062 178.87 L 109.062 185.986 L 120.874 185.986 L 120.874 185.986 Z  M 142.018 195.912 L 142.018 195.912 L 142.018 195.912 Q 142.018 194.169 140.787 193.236 L 140.787 193.236 L 140.787 193.236 Q 139.557 192.303 136.357 191.267 L 136.357 191.267 L 136.357 191.267 Q 133.158 190.231 131.292 189.227 L 131.292 189.227 L 131.292 189.227 Q 126.206 186.479 126.206 181.823 L 126.206 181.823 L 126.206 181.823 Q 126.206 179.403 127.57 177.506 L 127.57 177.506 L 127.57 177.506 Q 128.934 175.609 131.487 174.543 L 131.487 174.543 L 131.487 174.543 Q 134.04 173.477 137.219 173.477 L 137.219 173.477 L 137.219 173.477 Q 140.418 173.477 142.92 174.635 L 142.92 174.635 L 142.92 174.635 Q 145.422 175.794 146.806 177.906 L 146.806 177.906 L 146.806 177.906 Q 148.19 180.019 148.19 182.705 L 148.19 182.705 L 142.038 182.705 L 142.038 182.705 Q 142.038 180.654 140.746 179.516 L 140.746 179.516 L 140.746 179.516 Q 139.454 178.378 137.116 178.378 L 137.116 178.378 L 137.116 178.378 Q 134.86 178.378 133.609 179.332 L 133.609 179.332 L 133.609 179.332 Q 132.358 180.285 132.358 181.844 L 132.358 181.844 L 132.358 181.844 Q 132.358 183.3 133.825 184.284 L 133.825 184.284 L 133.825 184.284 Q 135.291 185.269 138.142 186.13 L 138.142 186.13 L 138.142 186.13 Q 143.392 187.709 145.791 190.047 L 145.791 190.047 L 145.791 190.047 Q 148.19 192.385 148.19 195.871 L 148.19 195.871 L 148.19 195.871 Q 148.19 199.747 145.258 201.952 L 145.258 201.952 L 145.258 201.952 Q 142.325 204.156 137.362 204.156 L 137.362 204.156 L 137.362 204.156 Q 133.917 204.156 131.087 202.895 L 131.087 202.895 L 131.087 202.895 Q 128.257 201.634 126.77 199.439 L 126.77 199.439 L 126.77 199.439 Q 125.283 197.245 125.283 194.354 L 125.283 194.354 L 131.456 194.354 L 131.456 194.354 Q 131.456 199.296 137.362 199.296 L 137.362 199.296 L 137.362 199.296 Q 139.557 199.296 140.787 198.404 L 140.787 198.404 L 140.787 198.404 Q 142.018 197.512 142.018 195.912 Z  M 167.837 195.912 L 167.837 195.912 L 167.837 195.912 Q 167.837 194.169 166.606 193.236 L 166.606 193.236 L 166.606 193.236 Q 165.376 192.303 162.177 191.267 L 162.177 191.267 L 162.177 191.267 Q 158.978 190.231 157.111 189.227 L 157.111 189.227 L 157.111 189.227 Q 152.025 186.479 152.025 181.823 L 152.025 181.823 L 152.025 181.823 Q 152.025 179.403 153.389 177.506 L 153.389 177.506 L 153.389 177.506 Q 154.753 175.609 157.306 174.543 L 157.306 174.543 L 157.306 174.543 Q 159.859 173.477 163.038 173.477 L 163.038 173.477 L 163.038 173.477 Q 166.237 173.477 168.739 174.635 L 168.739 174.635 L 168.739 174.635 Q 171.241 175.794 172.625 177.906 L 172.625 177.906 L 172.625 177.906 Q 174.01 180.019 174.01 182.705 L 174.01 182.705 L 167.857 182.705 L 167.857 182.705 Q 167.857 180.654 166.565 179.516 L 166.565 179.516 L 166.565 179.516 Q 165.273 178.378 162.936 178.378 L 162.936 178.378 L 162.936 178.378 Q 160.68 178.378 159.429 179.332 L 159.429 179.332 L 159.429 179.332 Q 158.178 180.285 158.178 181.844 L 158.178 181.844 L 158.178 181.844 Q 158.178 183.3 159.644 184.284 L 159.644 184.284 L 159.644 184.284 Q 161.11 185.269 163.961 186.13 L 163.961 186.13 L 163.961 186.13 Q 169.211 187.709 171.61 190.047 L 171.61 190.047 L 171.61 190.047 Q 174.01 192.385 174.01 195.871 L 174.01 195.871 L 174.01 195.871 Q 174.01 199.747 171.077 201.952 L 171.077 201.952 L 171.077 201.952 Q 168.145 204.156 163.182 204.156 L 163.182 204.156 L 163.182 204.156 Q 159.736 204.156 156.906 202.895 L 156.906 202.895 L 156.906 202.895 Q 154.076 201.634 152.589 199.439 L 152.589 199.439 L 152.589 199.439 Q 151.103 197.245 151.103 194.354 L 151.103 194.354 L 157.275 194.354 L 157.275 194.354 Q 157.275 199.296 163.182 199.296 L 163.182 199.296 L 163.182 199.296 Q 165.376 199.296 166.606 198.404 L 166.606 198.404 L 166.606 198.404 Q 167.837 197.512 167.837 195.912 Z " fill-rule="evenodd" fill="rgb(255,255,255)"/></g><path d=" M 87.666 133.807 L 86.518 137.129 L 86.518 137.129 Q 79.135 135.058 79.135 127.593 L 79.135 127.593 L 79.135 123.512 L 79.135 123.512 Q 79.135 119.185 75.484 119.185 L 75.484 119.185 L 75.484 114.939 L 75.484 114.939 Q 79.053 114.939 79.135 110.858 L 79.135 110.858 L 79.135 106.511 L 79.135 106.511 Q 79.135 102.717 80.98 100.379 L 80.98 100.379 L 80.98 100.379 Q 82.826 98.041 86.518 96.995 L 86.518 96.995 L 87.666 100.297 L 87.666 100.297 Q 86.107 100.871 85.308 102.296 L 85.308 102.296 L 85.308 102.296 Q 84.508 103.722 84.467 106.244 L 84.467 106.244 L 84.467 110.551 L 84.467 110.551 Q 84.467 115.186 80.796 117.052 L 80.796 117.052 L 80.796 117.052 Q 84.467 118.938 84.467 123.594 L 84.467 123.594 L 84.467 127.941 L 84.467 127.941 Q 84.569 132.74 87.666 133.807 L 87.666 133.807 L 87.666 133.807 Z  M 96.895 98.246 L 96.895 129.746 L 90.947 129.746 L 90.947 98.246 L 96.895 98.246 L 96.895 98.246 Z  M 111.988 130.156 L 111.988 130.156 L 111.988 130.156 Q 107.107 130.156 104.042 127.162 L 104.042 127.162 L 104.042 127.162 Q 100.976 124.168 100.976 119.185 L 100.976 119.185 L 100.976 118.61 L 100.976 118.61 Q 100.976 115.268 102.268 112.632 L 102.268 112.632 L 102.268 112.632 Q 103.56 109.997 105.928 108.572 L 105.928 108.572 L 105.928 108.572 Q 108.297 107.146 111.332 107.146 L 111.332 107.146 L 111.332 107.146 Q 115.885 107.146 118.5 110.018 L 118.5 110.018 L 118.5 110.018 Q 121.114 112.889 121.114 118.159 L 121.114 118.159 L 121.114 120.579 L 106.984 120.579 L 106.984 120.579 Q 107.271 122.753 108.717 124.065 L 108.717 124.065 L 108.717 124.065 Q 110.163 125.378 112.378 125.378 L 112.378 125.378 L 112.378 125.378 Q 115.803 125.378 117.73 122.896 L 117.73 122.896 L 120.643 126.157 L 120.643 126.157 Q 119.31 128.044 117.033 129.1 L 117.033 129.1 L 117.033 129.1 Q 114.757 130.156 111.988 130.156 Z  M 111.312 111.945 L 111.312 111.945 L 111.312 111.945 Q 109.548 111.945 108.451 113.135 L 108.451 113.135 L 108.451 113.135 Q 107.354 114.324 107.046 116.539 L 107.046 116.539 L 115.29 116.539 L 115.29 116.067 L 115.29 116.067 Q 115.249 114.099 114.224 113.022 L 114.224 113.022 L 114.224 113.022 Q 113.198 111.945 111.312 111.945 Z  M 136.495 123.614 L 136.495 123.614 L 136.495 123.614 Q 136.495 122.527 135.418 121.902 L 135.418 121.902 L 135.418 121.902 Q 134.342 121.276 131.963 120.784 L 131.963 120.784 L 131.963 120.784 Q 124.047 119.123 124.047 114.058 L 124.047 114.058 L 124.047 114.058 Q 124.047 111.104 126.498 109.125 L 126.498 109.125 L 126.498 109.125 Q 128.948 107.146 132.906 107.146 L 132.906 107.146 L 132.906 107.146 Q 137.131 107.146 139.664 109.136 L 139.664 109.136 L 139.664 109.136 Q 142.196 111.125 142.196 114.304 L 142.196 114.304 L 136.27 114.304 L 136.27 114.304 Q 136.27 113.032 135.449 112.202 L 135.449 112.202 L 135.449 112.202 Q 134.629 111.371 132.886 111.371 L 132.886 111.371 L 132.886 111.371 Q 131.389 111.371 130.568 112.048 L 130.568 112.048 L 130.568 112.048 Q 129.748 112.725 129.748 113.771 L 129.748 113.771 L 129.748 113.771 Q 129.748 114.755 130.681 115.36 L 130.681 115.36 L 130.681 115.36 Q 131.614 115.965 133.829 116.406 L 133.829 116.406 L 133.829 116.406 Q 136.044 116.847 137.562 117.4 L 137.562 117.4 L 137.562 117.4 Q 142.258 119.123 142.258 123.368 L 142.258 123.368 L 142.258 123.368 Q 142.258 126.403 139.653 128.28 L 139.653 128.28 L 139.653 128.28 Q 137.049 130.156 132.927 130.156 L 132.927 130.156 L 132.927 130.156 Q 130.138 130.156 127.974 129.162 L 127.974 129.162 L 127.974 129.162 Q 125.811 128.167 124.58 126.434 L 124.58 126.434 L 124.58 126.434 Q 123.35 124.701 123.35 122.691 L 123.35 122.691 L 128.969 122.691 L 128.969 122.691 Q 129.051 124.271 130.138 125.111 L 130.138 125.111 L 130.138 125.111 Q 131.225 125.952 133.05 125.952 L 133.05 125.952 L 133.05 125.952 Q 134.752 125.952 135.624 125.306 L 135.624 125.306 L 135.624 125.306 Q 136.495 124.66 136.495 123.614 Z  M 158.09 123.614 L 158.09 123.614 L 158.09 123.614 Q 158.09 122.527 157.013 121.902 L 157.013 121.902 L 157.013 121.902 Q 155.937 121.276 153.558 120.784 L 153.558 120.784 L 153.558 120.784 Q 145.642 119.123 145.642 114.058 L 145.642 114.058 L 145.642 114.058 Q 145.642 111.104 148.092 109.125 L 148.092 109.125 L 148.092 109.125 Q 150.543 107.146 154.501 107.146 L 154.501 107.146 L 154.501 107.146 Q 158.726 107.146 161.258 109.136 L 161.258 109.136 L 161.258 109.136 Q 163.791 111.125 163.791 114.304 L 163.791 114.304 L 157.864 114.304 L 157.864 114.304 Q 157.864 113.032 157.044 112.202 L 157.044 112.202 L 157.044 112.202 Q 156.224 111.371 154.48 111.371 L 154.48 111.371 L 154.48 111.371 Q 152.983 111.371 152.163 112.048 L 152.163 112.048 L 152.163 112.048 Q 151.343 112.725 151.343 113.771 L 151.343 113.771 L 151.343 113.771 Q 151.343 114.755 152.276 115.36 L 152.276 115.36 L 152.276 115.36 Q 153.209 115.965 155.424 116.406 L 155.424 116.406 L 155.424 116.406 Q 157.639 116.847 159.156 117.4 L 159.156 117.4 L 159.156 117.4 Q 163.853 119.123 163.853 123.368 L 163.853 123.368 L 163.853 123.368 Q 163.853 126.403 161.248 128.28 L 161.248 128.28 L 161.248 128.28 Q 158.644 130.156 154.521 130.156 L 154.521 130.156 L 154.521 130.156 Q 151.732 130.156 149.569 129.162 L 149.569 129.162 L 149.569 129.162 Q 147.405 128.167 146.175 126.434 L 146.175 126.434 L 146.175 126.434 Q 144.944 124.701 144.944 122.691 L 144.944 122.691 L 150.563 122.691 L 150.563 122.691 Q 150.646 124.271 151.732 125.111 L 151.732 125.111 L 151.732 125.111 Q 152.819 125.952 154.645 125.952 L 154.645 125.952 L 154.645 125.952 Q 156.347 125.952 157.218 125.306 L 157.218 125.306 L 157.218 125.306 Q 158.09 124.66 158.09 123.614 Z  M 167.236 137.129 L 166.088 133.807 L 166.088 133.807 Q 169.205 132.699 169.287 127.859 L 169.287 127.859 L 169.287 123.512 L 169.287 123.512 Q 169.287 118.877 173.04 117.072 L 173.04 117.072 L 173.04 117.072 Q 169.287 115.268 169.287 110.53 L 169.287 110.53 L 169.287 106.244 L 169.287 106.244 Q 169.205 101.466 166.088 100.297 L 166.088 100.297 L 167.236 96.995 L 167.236 96.995 Q 170.907 98.021 172.753 100.348 L 172.753 100.348 L 172.753 100.348 Q 174.599 102.676 174.619 106.449 L 174.619 106.449 L 174.619 110.858 L 174.619 110.858 Q 174.701 114.939 178.27 114.939 L 178.27 114.939 L 178.27 119.185 L 178.27 119.185 Q 174.619 119.185 174.619 123.471 L 174.619 123.471 L 174.619 127.921 L 174.619 127.921 Q 174.455 135.099 167.236 137.129 L 167.236 137.129 L 167.236 137.129 Z " fill-rule="evenodd" fill="rgb(30,65,111)"/></g></svg>