<?xml version="1.0" standalone="no"?><!-- Generator: Gravit.io --><svg xmlns="http://www.w3.org/2000/svg" xmlns:xlink="http://www.w3.org/1999/xlink" style="isolation:isolate" viewBox="0 0 256 256" width="256" height="256"><defs><clipPath id="_clipPath_FLHZ43wzdKFmTHD21bIUvTuw3Pzi3Qlw"><rect width="256" height="256"/></clipPath></defs><g clip-path="url(#_clipPath_FLHZ43wzdKFmTHD21bIUvTuw3Pzi3Qlw)"><rect width="256" height="256" style="fill:rgb(0,0,0)" fill-opacity="0"/><g><g><path d=" M 156.239 40 L 65.027 40 C 62.487 40 60.429 42.059 60.429 46.053 L 60.429 212.857 C 60.429 213.941 62.487 216 65.027 216 L 190.973 216 C 193.513 216 195.571 213.941 195.571 212.857 L 195.571 80.788 C 195.571 78.601 195.279 77.897 194.764 77.378 L 158.193 40.808 C 157.675 40.292 156.971 40 156.239 40 Z " fill="rgb(233,233,224)"/><path d=" M 157.857 40.475 L 157.857 77.714 L 195.097 77.714 L 157.857 40.475 Z " fill="rgb(217,215,202)"/><path d=" M 190.973 216 L 65.027 216 C 62.487 216 60.429 213.941 60.429 211.402 L 60.429 162.571 L 195.571 162.571 L 195.571 211.402 C 195.571 213.941 193.513 216 190.973 216 Z " fill="rgb(215,94,114)"/><path d=" M 114.595 203.746 L 112.523 197.594 L 101.736 197.594 L 99.686 203.746 L 93.144 203.746 L 104.259 173.887 L 109.96 173.887 L 121.137 203.746 L 114.595 203.746 L 114.595 203.746 Z  M 107.109 181.434 L 103.397 192.61 L 110.862 192.61 L 107.109 181.434 L 107.109 181.434 Z  M 128.232 173.887 L 134.959 196.343 L 141.727 173.887 L 148.576 173.887 L 138.179 203.746 L 131.76 203.746 L 121.403 173.887 L 128.232 173.887 L 128.232 173.887 Z  M 157.928 173.887 L 157.928 203.746 L 151.775 203.746 L 151.775 173.887 L 157.928 173.887 L 157.928 173.887 Z " fill-rule="evenodd" fill="rgb(255,255,255)"/><path d=" M 113.857 128 L 113.857 105.855 L 113.857 84 L 148.429 106 L 113.857 128 Z " fill="rgb(200,189,184)"/></g></g></g></svg>