<?xml version="1.0" standalone="no"?><!-- Generator: Gravit.io --><svg xmlns="http://www.w3.org/2000/svg" xmlns:xlink="http://www.w3.org/1999/xlink" style="isolation:isolate" viewBox="0 0 256 256" width="256" height="256"><defs><clipPath id="_clipPath_Xu6Svd8MOCya3GRcaHMcl15tZ7rN2nye"><rect width="256" height="256"/></clipPath></defs><g clip-path="url(#_clipPath_Xu6Svd8MOCya3GRcaHMcl15tZ7rN2nye)"><rect width="256" height="256" style="fill:rgb(0,0,0)" fill-opacity="0"/><g><g><path d=" M 156.239 40 L 65.027 40 C 62.487 40 60.429 42.059 60.429 46.053 L 60.429 212.857 C 60.429 213.941 62.487 216 65.027 216 L 190.973 216 C 193.513 216 195.571 213.941 195.571 212.857 L 195.571 80.788 C 195.571 78.601 195.279 77.897 194.764 77.378 L 158.193 40.808 C 157.675 40.292 156.971 40 156.239 40 Z " fill="rgb(233,233,224)"/><path d=" M 190.973 216 L 65.027 216 C 62.487 216 60.429 213.941 60.429 211.402 L 60.429 162.571 L 195.571 162.571 L 195.571 211.402 C 195.571 213.941 193.513 216 190.973 216 Z " fill="rgb(101,156,53)"/><path d=" M 157.857 40.475 L 157.857 77.714 L 195.097 77.714 L 157.857 40.475 Z " fill="rgb(217,215,202)"/><circle vector-effect="non-scaling-stroke" cx="99.4974285714286" cy="85.35457142857143" r="14.35971428571429" fill="rgb(243,213,91)"/><path d=" M 60.429 162.571 L 95 162.571 L 195.571 162.571 L 195.571 128 L 164.143 98.143 L 131.143 134.286 L 113.911 117.053 L 60.429 162.571 Z " fill="rgb(136,192,87)"/></g></g><path d=" M 98.212 193.226 L 92.818 193.226 L 92.818 203.746 L 86.666 203.746 L 86.666 173.887 L 98.314 173.887 L 98.314 173.887 Q 101.678 173.887 104.231 175.117 L 104.231 175.117 L 104.231 175.117 Q 106.784 176.348 108.158 178.614 L 108.158 178.614 L 108.158 178.614 Q 109.532 180.88 109.532 183.771 L 109.532 183.771 L 109.532 183.771 Q 109.532 188.16 106.528 190.693 L 106.528 190.693 L 106.528 190.693 Q 103.523 193.226 98.212 193.226 L 98.212 193.226 L 98.212 193.226 Z  M 92.818 178.87 L 92.818 188.242 L 98.314 188.242 L 98.314 188.242 Q 100.755 188.242 102.037 187.094 L 102.037 187.094 L 102.037 187.094 Q 103.318 185.945 103.318 183.813 L 103.318 183.813 L 103.318 183.813 Q 103.318 181.618 102.026 180.265 L 102.026 180.265 L 102.026 180.265 Q 100.734 178.911 98.458 178.87 L 98.458 178.87 L 92.818 178.87 L 92.818 178.87 Z  M 138.038 173.887 L 138.038 203.746 L 131.886 203.746 L 119.909 184.1 L 119.909 203.746 L 113.757 203.746 L 113.757 173.887 L 119.909 173.887 L 131.906 193.574 L 131.906 173.887 L 138.038 173.887 L 138.038 173.887 Z  M 167.036 188.058 L 167.036 199.973 L 167.036 199.973 Q 165.375 201.962 162.34 203.059 L 162.34 203.059 L 162.34 203.059 Q 159.305 204.156 155.613 204.156 L 155.613 204.156 L 155.613 204.156 Q 151.737 204.156 148.815 202.464 L 148.815 202.464 L 148.815 202.464 Q 145.893 200.772 144.303 197.553 L 144.303 197.553 L 144.303 197.553 Q 142.714 194.333 142.673 189.985 L 142.673 189.985 L 142.673 187.955 L 142.673 187.955 Q 142.673 183.484 144.18 180.213 L 144.18 180.213 L 144.18 180.213 Q 145.688 176.942 148.528 175.209 L 148.528 175.209 L 148.528 175.209 Q 151.368 173.477 155.183 173.477 L 155.183 173.477 L 155.183 173.477 Q 160.494 173.477 163.488 176.009 L 163.488 176.009 L 163.488 176.009 Q 166.482 178.542 167.036 183.382 L 167.036 183.382 L 161.048 183.382 L 161.048 183.382 Q 160.638 180.818 159.233 179.629 L 159.233 179.629 L 159.233 179.629 Q 157.828 178.439 155.367 178.439 L 155.367 178.439 L 155.367 178.439 Q 152.229 178.439 150.589 180.798 L 150.589 180.798 L 150.589 180.798 Q 148.948 183.156 148.928 187.812 L 148.928 187.812 L 148.928 189.719 L 148.928 189.719 Q 148.928 194.415 150.712 196.814 L 150.712 196.814 L 150.712 196.814 Q 152.496 199.214 155.941 199.214 L 155.941 199.214 L 155.941 199.214 Q 159.407 199.214 160.884 197.737 L 160.884 197.737 L 160.884 192.59 L 155.285 192.59 L 155.285 188.058 L 167.036 188.058 L 167.036 188.058 Z " fill-rule="evenodd" fill="rgb(255,255,255)"/></g></svg>