<?xml version="1.0" standalone="no"?><!-- Generator: Gravit.io --><svg xmlns="http://www.w3.org/2000/svg" xmlns:xlink="http://www.w3.org/1999/xlink" style="isolation:isolate" viewBox="0 0 256 256" width="256" height="256"><defs><clipPath id="_clipPath_vwHEqKI3FqYqYkvRHBJcExhN57Dukdq9"><rect width="256" height="256"/></clipPath></defs><g clip-path="url(#_clipPath_vwHEqKI3FqYqYkvRHBJcExhN57Dukdq9)"><rect width="256" height="256" style="fill:rgb(0,0,0)" fill-opacity="0"/><g><g><path d=" M 156.239 40 L 65.027 40 C 62.487 40 60.429 42.059 60.429 46.053 L 60.429 212.857 C 60.429 213.941 62.487 216 65.027 216 L 190.973 216 C 193.513 216 195.571 213.941 195.571 212.857 L 195.571 80.788 C 195.571 78.601 195.279 77.897 194.764 77.378 L 158.193 40.808 C 157.675 40.292 156.971 40 156.239 40 Z " fill="rgb(233,233,224)"/><path d=" M 157.857 40.475 L 157.857 77.714 L 195.097 77.714 L 157.857 40.475 Z " fill="rgb(217,215,202)"/><path d=" M 190.973 216 L 65.027 216 C 62.487 216 60.429 213.941 60.429 211.402 L 60.429 162.571 L 195.571 162.571 L 195.571 211.402 C 195.571 213.941 193.513 216 190.973 216 Z " fill="rgb(145,205,160)"/><path d=" M 113.857 90.286 L 113.857 77.714 L 76.143 77.714 L 76.143 90.286 L 76.143 96.571 L 76.143 102.857 L 76.143 109.143 L 76.143 115.429 L 76.143 121.714 L 76.143 128 L 76.143 134.286 L 76.143 146.857 L 107.571 146.857 L 113.857 146.857 L 179.857 146.857 L 179.857 134.286 L 179.857 128 L 179.857 121.714 L 179.857 115.429 L 179.857 109.143 L 179.857 102.857 L 179.857 90.286 L 113.857 90.286 Z  M 82.429 84 L 107.571 84 L 107.571 90.286 L 82.429 90.286 L 82.429 84 Z  M 82.429 96.571 L 107.571 96.571 L 107.571 102.857 L 82.429 102.857 L 82.429 96.571 Z  M 82.429 109.143 L 107.571 109.143 L 107.571 115.429 L 82.429 115.429 L 82.429 109.143 Z  M 82.429 121.714 L 107.571 121.714 L 107.571 128 L 82.429 128 L 82.429 121.714 Z  M 107.571 140.571 L 82.429 140.571 L 82.429 134.286 L 107.571 134.286 L 107.571 140.571 Z  M 173.571 140.571 L 113.857 140.571 L 113.857 134.286 L 173.571 134.286 L 173.571 140.571 Z  M 173.571 128 L 113.857 128 L 113.857 121.714 L 173.571 121.714 L 173.571 128 Z  M 173.571 115.429 L 113.857 115.429 L 113.857 109.143 L 173.571 109.143 L 173.571 115.429 Z  M 113.857 102.857 L 113.857 96.571 L 173.571 96.571 L 173.571 102.857 L 113.857 102.857 Z " fill="rgb(200,189,184)"/></g></g><path d=" M 83.752 174.105 L 89.351 184.4 L 94.949 174.105 L 102.024 174.105 L 93.329 188.912 L 102.25 203.965 L 95.093 203.965 L 89.351 193.506 L 83.608 203.965 L 76.451 203.965 L 85.372 188.912 L 76.677 174.105 L 83.752 174.105 L 83.752 174.105 Z  M 111.499 174.105 L 111.499 199.022 L 124.562 199.022 L 124.562 203.965 L 105.347 203.965 L 105.347 174.105 L 111.499 174.105 L 111.499 174.105 Z  M 143.573 196.131 L 143.573 196.131 L 143.573 196.131 Q 143.573 194.388 142.343 193.455 L 142.343 193.455 L 142.343 193.455 Q 141.112 192.521 137.913 191.486 L 137.913 191.486 L 137.913 191.486 Q 134.714 190.45 132.848 189.445 L 132.848 189.445 L 132.848 189.445 Q 127.762 186.697 127.762 182.042 L 127.762 182.042 L 127.762 182.042 Q 127.762 179.622 129.125 177.725 L 129.125 177.725 L 129.125 177.725 Q 130.489 175.828 133.042 174.762 L 133.042 174.762 L 133.042 174.762 Q 135.596 173.695 138.774 173.695 L 138.774 173.695 L 138.774 173.695 Q 141.974 173.695 144.476 174.854 L 144.476 174.854 L 144.476 174.854 Q 146.978 176.013 148.362 178.125 L 148.362 178.125 L 148.362 178.125 Q 149.746 180.237 149.746 182.924 L 149.746 182.924 L 143.594 182.924 L 143.594 182.924 Q 143.594 180.873 142.302 179.735 L 142.302 179.735 L 142.302 179.735 Q 141.01 178.597 138.672 178.597 L 138.672 178.597 L 138.672 178.597 Q 136.416 178.597 135.165 179.55 L 135.165 179.55 L 135.165 179.55 Q 133.914 180.504 133.914 182.063 L 133.914 182.063 L 133.914 182.063 Q 133.914 183.519 135.38 184.503 L 135.38 184.503 L 135.38 184.503 Q 136.847 185.487 139.697 186.349 L 139.697 186.349 L 139.697 186.349 Q 144.947 187.928 147.347 190.266 L 147.347 190.266 L 147.347 190.266 Q 149.746 192.604 149.746 196.09 L 149.746 196.09 L 149.746 196.09 Q 149.746 199.966 146.813 202.17 L 146.813 202.17 L 146.813 202.17 Q 143.881 204.375 138.918 204.375 L 138.918 204.375 L 138.918 204.375 Q 135.473 204.375 132.643 203.114 L 132.643 203.114 L 132.643 203.114 Q 129.812 201.853 128.326 199.658 L 128.326 199.658 L 128.326 199.658 Q 126.839 197.464 126.839 194.572 L 126.839 194.572 L 133.012 194.572 L 133.012 194.572 Q 133.012 199.515 138.918 199.515 L 138.918 199.515 L 138.918 199.515 Q 141.112 199.515 142.343 198.623 L 142.343 198.623 L 142.343 198.623 Q 143.573 197.73 143.573 196.131 Z  M 158.995 174.105 L 164.594 184.4 L 170.192 174.105 L 177.268 174.105 L 168.572 188.912 L 177.493 203.965 L 170.336 203.965 L 164.594 193.506 L 158.852 203.965 L 151.694 203.965 L 160.615 188.912 L 151.92 174.105 L 158.995 174.105 L 158.995 174.105 Z " fill-rule="evenodd" fill="rgb(255,255,255)"/></g></svg>