<?xml version="1.0" standalone="no"?><!-- Generator: Gravit.io --><svg xmlns="http://www.w3.org/2000/svg" xmlns:xlink="http://www.w3.org/1999/xlink" style="isolation:isolate" viewBox="0 0 256 256" width="256" height="256"><defs><clipPath id="_clipPath_E4H1tqw7zfkQ6YEFiYQ7OyQWoazHlr0a"><rect width="256" height="256"/></clipPath></defs><g clip-path="url(#_clipPath_E4H1tqw7zfkQ6YEFiYQ7OyQWoazHlr0a)"><rect width="256" height="256" style="fill:rgb(0,0,0)" fill-opacity="0"/><g><g><path d=" M 156.239 40 L 65.027 40 C 62.487 40 60.429 42.059 60.429 46.053 L 60.429 212.857 C 60.429 213.941 62.487 216 65.027 216 L 190.973 216 C 193.513 216 195.571 213.941 195.571 212.857 L 195.571 80.788 C 195.571 78.601 195.279 77.897 194.764 77.378 L 158.193 40.808 C 157.675 40.292 156.971 40 156.239 40 Z " fill="rgb(233,233,224)"/><path d=" M 157.857 40.475 L 157.857 77.714 L 195.097 77.714 L 157.857 40.475 Z " fill="rgb(217,215,202)"/><path d=" M 190.973 216 L 65.027 216 C 62.487 216 60.429 213.941 60.429 211.402 L 60.429 162.571 L 195.571 162.571 L 195.571 211.402 C 195.571 213.941 193.513 216 190.973 216 Z " fill="rgb(238,175,75)"/><g><path d=" M 101.286 99.714 L 101.286 87.143 C 101.286 85.411 102.694 84 104.429 84 C 106.167 84 107.571 82.592 107.571 80.857 C 107.571 79.122 106.167 77.714 104.429 77.714 C 99.23 77.714 95 81.945 95 87.143 L 95 99.714 C 95 103.181 92.181 106 88.714 106 C 86.976 106 85.571 107.408 85.571 109.143 C 85.571 110.878 86.976 112.286 88.714 112.286 C 92.181 112.286 95 115.105 95 118.571 L 95 131.143 C 95 136.341 99.23 140.571 104.429 140.571 C 106.167 140.571 107.571 139.163 107.571 137.429 C 107.571 135.694 106.167 134.286 104.429 134.286 C 102.694 134.286 101.286 132.875 101.286 131.143 L 101.286 118.571 C 101.286 114.8 99.582 111.45 96.942 109.143 C 99.582 106.836 101.286 103.486 101.286 99.714 Z " fill="rgb(238,175,75)"/><circle vector-effect="non-scaling-stroke" cx="126.42857142857144" cy="98.14285714285722" r="4.714285714285715" fill="rgb(238,175,75)"/><path d=" M 164.143 106 C 160.676 106 157.857 103.181 157.857 99.714 L 157.857 87.143 C 157.857 81.945 153.627 77.714 148.429 77.714 C 146.691 77.714 145.286 79.122 145.286 80.857 C 145.286 82.592 146.691 84 148.429 84 C 150.163 84 151.571 85.411 151.571 87.143 L 151.571 99.714 C 151.571 103.486 153.275 106.836 155.915 109.143 C 153.275 111.45 151.571 114.8 151.571 118.571 L 151.571 131.143 C 151.571 132.875 150.163 134.286 148.429 134.286 C 146.691 134.286 145.286 135.694 145.286 137.429 C 145.286 139.163 146.691 140.571 148.429 140.571 C 153.627 140.571 157.857 136.341 157.857 131.143 L 157.857 118.571 C 157.857 115.105 160.676 112.286 164.143 112.286 C 165.881 112.286 167.286 110.878 167.286 109.143 C 167.286 107.408 165.881 106 164.143 106 Z " fill="rgb(238,175,75)"/><path d=" M 126.429 115.429 C 124.691 115.429 123.286 116.837 123.286 118.571 L 123.286 128 C 123.286 129.735 124.691 131.143 126.429 131.143 C 128.167 131.143 129.571 129.735 129.571 128 L 129.571 118.571 C 129.571 116.837 128.167 115.429 126.429 115.429 Z " fill="rgb(238,175,75)"/></g></g></g><path d=" M 116.704 194.559 L 116.704 173.887 L 122.856 173.887 L 122.856 194.559 L 122.856 194.559 Q 122.856 197.409 121.595 199.593 L 121.595 199.593 L 121.595 199.593 Q 120.334 201.777 118.037 202.967 L 118.037 202.967 L 118.037 202.967 Q 115.74 204.156 112.849 204.156 L 112.849 204.156 L 112.849 204.156 Q 108.111 204.156 105.466 201.747 L 105.466 201.747 L 105.466 201.747 Q 102.82 199.337 102.82 194.928 L 102.82 194.928 L 109.014 194.928 L 109.014 194.928 Q 109.014 197.122 109.937 198.168 L 109.937 198.168 L 109.937 198.168 Q 110.859 199.214 112.849 199.214 L 112.849 199.214 L 112.849 199.214 Q 114.612 199.214 115.658 198.004 L 115.658 198.004 L 115.658 198.004 Q 116.704 196.794 116.704 194.559 L 116.704 194.559 L 116.704 194.559 Z  M 143.61 195.912 L 143.61 195.912 L 143.61 195.912 Q 143.61 194.169 142.38 193.236 L 142.38 193.236 L 142.38 193.236 Q 141.149 192.303 137.95 191.267 L 137.95 191.267 L 137.95 191.267 Q 134.751 190.231 132.885 189.227 L 132.885 189.227 L 132.885 189.227 Q 127.799 186.479 127.799 181.823 L 127.799 181.823 L 127.799 181.823 Q 127.799 179.403 129.163 177.506 L 129.163 177.506 L 129.163 177.506 Q 130.526 175.609 133.08 174.543 L 133.08 174.543 L 133.08 174.543 Q 135.633 173.477 138.812 173.477 L 138.812 173.477 L 138.812 173.477 Q 142.011 173.477 144.513 174.635 L 144.513 174.635 L 144.513 174.635 Q 147.015 175.794 148.399 177.906 L 148.399 177.906 L 148.399 177.906 Q 149.783 180.019 149.783 182.705 L 149.783 182.705 L 143.631 182.705 L 143.631 182.705 Q 143.631 180.654 142.339 179.516 L 142.339 179.516 L 142.339 179.516 Q 141.047 178.378 138.709 178.378 L 138.709 178.378 L 138.709 178.378 Q 136.453 178.378 135.202 179.332 L 135.202 179.332 L 135.202 179.332 Q 133.951 180.285 133.951 181.844 L 133.951 181.844 L 133.951 181.844 Q 133.951 183.3 135.417 184.284 L 135.417 184.284 L 135.417 184.284 Q 136.884 185.269 139.734 186.13 L 139.734 186.13 L 139.734 186.13 Q 144.984 187.709 147.384 190.047 L 147.384 190.047 L 147.384 190.047 Q 149.783 192.385 149.783 195.871 L 149.783 195.871 L 149.783 195.871 Q 149.783 199.747 146.851 201.952 L 146.851 201.952 L 146.851 201.952 Q 143.918 204.156 138.955 204.156 L 138.955 204.156 L 138.955 204.156 Q 135.51 204.156 132.68 202.895 L 132.68 202.895 L 132.68 202.895 Q 129.85 201.634 128.363 199.439 L 128.363 199.439 L 128.363 199.439 Q 126.876 197.245 126.876 194.354 L 126.876 194.354 L 133.049 194.354 L 133.049 194.354 Q 133.049 199.296 138.955 199.296 L 138.955 199.296 L 138.955 199.296 Q 141.149 199.296 142.38 198.404 L 142.38 198.404 L 142.38 198.404 Q 143.61 197.512 143.61 195.912 Z " fill-rule="evenodd" fill="rgb(255,255,255)"/></g></svg>