<?xml version="1.0" standalone="no"?><!-- Generator: Gravit.io --><svg xmlns="http://www.w3.org/2000/svg" xmlns:xlink="http://www.w3.org/1999/xlink" style="isolation:isolate" viewBox="0 0 256 256" width="256" height="256"><defs><clipPath id="_clipPath_GcvNcjzlqMQRv3qvkP0mgSat3iemD2zV"><rect width="256" height="256"/></clipPath></defs><g clip-path="url(#_clipPath_GcvNcjzlqMQRv3qvkP0mgSat3iemD2zV)"><rect width="256" height="256" style="fill:rgb(0,0,0)" fill-opacity="0"/><g><g><path d=" M 156.239 40 L 65.027 40 C 62.487 40 60.429 42.059 60.429 46.053 L 60.429 212.857 C 60.429 213.941 62.487 216 65.027 216 L 190.973 216 C 193.513 216 195.571 213.941 195.571 212.857 L 195.571 80.788 C 195.571 78.601 195.279 77.897 194.764 77.378 L 158.193 40.808 C 157.675 40.292 156.971 40 156.239 40 Z " fill="rgb(233,233,224)"/><path d=" M 157.857 40.475 L 157.857 77.714 L 195.097 77.714 L 157.857 40.475 Z " fill="rgb(217,215,202)"/><path d=" M 190.973 216 L 65.027 216 C 62.487 216 60.429 213.941 60.429 211.402 L 60.429 162.571 L 195.571 162.571 L 195.571 211.402 C 195.571 213.941 193.513 216 190.973 216 Z " fill="rgb(246,113,46)"/><path d=" M 164.143 134.286 L 88.714 134.286 L 88.714 84 L 164.143 84 L 164.143 134.286 Z  M 95 128 L 157.857 128 L 157.857 90.286 L 95 90.286 L 95 128 Z " fill="rgb(200,189,184)"/><path d=" M 104.425 150 C 103.875 150 103.316 149.855 102.81 149.551 C 101.32 148.658 100.839 146.728 101.732 145.239 L 111.161 129.524 C 112.053 128.035 113.983 127.554 115.473 128.446 C 116.962 129.339 117.443 131.269 116.551 132.758 L 107.122 148.473 C 106.534 149.456 105.494 150 104.425 150 Z " fill="rgb(200,189,184)"/><path d=" M 148.432 150 C 147.363 150 146.323 149.456 145.735 148.476 L 136.307 132.761 C 135.414 131.272 135.895 129.342 137.385 128.449 C 138.874 127.56 140.804 128.038 141.697 129.527 L 151.125 145.242 C 152.018 146.731 151.537 148.661 150.047 149.554 C 149.541 149.855 148.982 150 148.432 150 Z " fill="rgb(200,189,184)"/><path d=" M 126.429 90.286 C 124.694 90.286 123.286 88.881 123.286 87.143 L 123.286 77.714 C 123.286 75.976 124.694 74.571 126.429 74.571 C 128.163 74.571 129.571 75.976 129.571 77.714 L 129.571 87.143 C 129.571 88.881 128.163 90.286 126.429 90.286 Z " fill="rgb(200,189,184)"/><rect x="95" y="90.286" width="62.857" height="37.714" transform="matrix(1,0,0,1,0,0)" fill="rgb(211,204,201)"/></g></g><path d=" M 112.193 190.16 L 112.193 191.493 L 112.193 191.493 Q 112.193 195.902 110.635 199.225 L 110.635 199.225 L 110.635 199.225 Q 109.076 202.547 106.174 204.352 L 106.174 204.352 L 106.174 204.352 Q 103.272 206.156 99.52 206.156 L 99.52 206.156 L 99.52 206.156 Q 95.808 206.156 92.896 204.372 L 92.896 204.372 L 92.896 204.372 Q 89.983 202.588 88.384 199.276 L 88.384 199.276 L 88.384 199.276 Q 86.784 195.964 86.764 191.657 L 86.764 191.657 L 86.764 190.181 L 86.764 190.181 Q 86.764 185.771 88.353 182.418 L 88.353 182.418 L 88.353 182.418 Q 89.942 179.065 92.844 177.271 L 92.844 177.271 L 92.844 177.271 Q 95.746 175.477 99.479 175.477 L 99.479 175.477 L 99.479 175.477 Q 103.211 175.477 106.113 177.271 L 106.113 177.271 L 106.113 177.271 Q 109.015 179.065 110.604 182.418 L 110.604 182.418 L 110.604 182.418 Q 112.193 185.771 112.193 190.16 L 112.193 190.16 L 112.193 190.16 Z  M 105.959 191.596 L 105.959 190.14 L 105.959 190.14 Q 105.959 185.443 104.277 183.003 L 104.277 183.003 L 104.277 183.003 Q 102.596 180.563 99.479 180.563 L 99.479 180.563 L 99.479 180.563 Q 96.382 180.563 94.7 182.972 L 94.7 182.972 L 94.7 182.972 Q 93.019 185.382 92.998 190.037 L 92.998 190.037 L 92.998 191.493 L 92.998 191.493 Q 92.998 196.066 94.68 198.589 L 94.68 198.589 L 94.68 198.589 Q 96.361 201.111 99.52 201.111 L 99.52 201.111 L 99.52 201.111 Q 102.616 201.111 104.277 198.681 L 104.277 198.681 L 104.277 198.681 Q 105.938 196.251 105.959 191.596 L 105.959 191.596 L 105.959 191.596 Z  M 125.913 205.746 L 116.664 205.746 L 116.664 175.887 L 125.852 175.887 L 125.852 175.887 Q 129.789 175.887 132.896 177.661 L 132.896 177.661 L 132.896 177.661 Q 136.003 179.435 137.746 182.706 L 137.746 182.706 L 137.746 182.706 Q 139.489 185.977 139.489 190.14 L 139.489 190.14 L 139.489 191.514 L 139.489 191.514 Q 139.489 195.677 137.777 198.917 L 137.777 198.917 L 137.777 198.917 Q 136.064 202.157 132.947 203.941 L 132.947 203.941 L 132.947 203.941 Q 129.83 205.726 125.913 205.746 L 125.913 205.746 L 125.913 205.746 Z  M 125.852 180.87 L 122.816 180.87 L 122.816 200.804 L 125.79 200.804 L 125.79 200.804 Q 129.399 200.804 131.307 198.445 L 131.307 198.445 L 131.307 198.445 Q 133.214 196.087 133.255 191.698 L 133.255 191.698 L 133.255 190.119 L 133.255 190.119 Q 133.255 185.566 131.368 183.218 L 131.368 183.218 L 131.368 183.218 Q 129.481 180.87 125.852 180.87 L 125.852 180.87 L 125.852 180.87 Z  M 155.506 195.226 L 150.112 195.226 L 150.112 205.746 L 143.96 205.746 L 143.96 175.887 L 155.608 175.887 L 155.608 175.887 Q 158.972 175.887 161.525 177.117 L 161.525 177.117 L 161.525 177.117 Q 164.078 178.348 165.452 180.614 L 165.452 180.614 L 165.452 180.614 Q 166.826 182.88 166.826 185.771 L 166.826 185.771 L 166.826 185.771 Q 166.826 190.16 163.822 192.693 L 163.822 192.693 L 163.822 192.693 Q 160.817 195.226 155.506 195.226 L 155.506 195.226 L 155.506 195.226 Z  M 150.112 180.87 L 150.112 190.242 L 155.608 190.242 L 155.608 190.242 Q 158.049 190.242 159.331 189.094 L 159.331 189.094 L 159.331 189.094 Q 160.612 187.945 160.612 185.813 L 160.612 185.813 L 160.612 185.813 Q 160.612 183.618 159.32 182.265 L 159.32 182.265 L 159.32 182.265 Q 158.028 180.911 155.752 180.87 L 155.752 180.87 L 150.112 180.87 L 150.112 180.87 Z " fill-rule="evenodd" fill="rgb(255,255,255)"/></g></svg>