<?xml version="1.0" standalone="no"?><!-- Generator: Gravit.io --><svg xmlns="http://www.w3.org/2000/svg" xmlns:xlink="http://www.w3.org/1999/xlink" style="isolation:isolate" viewBox="0 0 256 256" width="256" height="256"><defs><clipPath id="_clipPath_fxEjjACohtE6hFscKN8eThiP8DR0OUr7"><rect width="256" height="256"/></clipPath></defs><g clip-path="url(#_clipPath_fxEjjACohtE6hFscKN8eThiP8DR0OUr7)"><rect width="256" height="256" style="fill:rgb(0,0,0)" fill-opacity="0"/><g><g><path d=" M 156.239 40 L 65.027 40 C 62.487 40 60.429 42.059 60.429 46.053 L 60.429 212.857 C 60.429 213.941 62.487 216 65.027 216 L 190.973 216 C 193.513 216 195.571 213.941 195.571 212.857 L 195.571 80.788 C 195.571 78.601 195.279 77.897 194.764 77.378 L 158.193 40.808 C 157.675 40.292 156.971 40 156.239 40 Z " fill="rgb(233,233,224)"/><path d=" M 157.857 40.475 L 157.857 77.714 L 195.097 77.714 L 157.857 40.475 Z " fill="rgb(217,215,202)"/><path d=" M 98.143 80.857 L 79.286 80.857 C 77.551 80.857 76.143 79.449 76.143 77.714 C 76.143 75.979 77.551 74.571 79.286 74.571 L 98.143 74.571 C 99.878 74.571 101.286 75.979 101.286 77.714 C 101.286 79.449 99.878 80.857 98.143 80.857 Z " fill="rgb(134,151,203)"/><path d=" M 107.571 96.571 L 79.286 96.571 C 77.551 96.571 76.143 95.163 76.143 93.429 C 76.143 91.694 77.551 90.286 79.286 90.286 L 107.571 90.286 C 109.306 90.286 110.714 91.694 110.714 93.429 C 110.714 95.163 109.306 96.571 107.571 96.571 Z " fill="rgb(134,151,203)"/><path d=" M 120.143 96.571 C 119.326 96.571 118.509 96.226 117.911 95.66 C 117.346 95.063 117 94.246 117 93.429 C 117 92.611 117.346 91.794 117.911 91.197 C 119.074 90.034 121.211 90.034 122.374 91.197 C 122.94 91.794 123.286 92.611 123.286 93.429 C 123.286 94.246 122.94 95.063 122.374 95.66 C 121.777 96.226 120.96 96.571 120.143 96.571 Z " fill="rgb(134,151,203)"/><path d=" M 157.857 96.571 L 132.714 96.571 C 130.979 96.571 129.571 95.163 129.571 93.429 C 129.571 91.694 130.979 90.286 132.714 90.286 L 157.857 90.286 C 159.592 90.286 161 91.694 161 93.429 C 161 95.163 159.592 96.571 157.857 96.571 Z " fill="rgb(134,151,203)"/><path d=" M 79.286 143.714 C 78.469 143.714 77.651 143.369 77.054 142.803 C 76.489 142.206 76.143 141.389 76.143 140.571 C 76.143 139.754 76.489 138.937 77.054 138.34 C 78.217 137.177 80.354 137.177 81.517 138.34 C 82.083 138.937 82.429 139.723 82.429 140.571 C 82.429 141.389 82.083 142.206 81.517 142.803 C 80.92 143.369 80.103 143.714 79.286 143.714 Z " fill="rgb(134,151,203)"/><path d=" M 117 143.714 L 91.857 143.714 C 90.122 143.714 88.714 142.306 88.714 140.571 C 88.714 138.837 90.122 137.429 91.857 137.429 L 117 137.429 C 118.735 137.429 120.143 138.837 120.143 140.571 C 120.143 142.306 118.735 143.714 117 143.714 Z " fill="rgb(134,151,203)"/><path d=" M 176.714 96.571 L 170.429 96.571 C 168.694 96.571 167.286 95.163 167.286 93.429 C 167.286 91.694 168.694 90.286 170.429 90.286 L 176.714 90.286 C 178.449 90.286 179.857 91.694 179.857 93.429 C 179.857 95.163 178.449 96.571 176.714 96.571 Z " fill="rgb(134,151,203)"/><path d=" M 148.429 112.286 L 79.286 112.286 C 77.551 112.286 76.143 110.878 76.143 109.143 C 76.143 107.408 77.551 106 79.286 106 L 148.429 106 C 150.163 106 151.571 107.408 151.571 109.143 C 151.571 110.878 150.163 112.286 148.429 112.286 Z " fill="rgb(134,151,203)"/><path d=" M 176.714 112.286 L 157.857 112.286 C 156.122 112.286 154.714 110.878 154.714 109.143 C 154.714 107.408 156.122 106 157.857 106 L 176.714 106 C 178.449 106 179.857 107.408 179.857 109.143 C 179.857 110.878 178.449 112.286 176.714 112.286 Z " fill="rgb(134,151,203)"/><path d=" M 91.857 128 L 79.286 128 C 77.551 128 76.143 126.592 76.143 124.857 C 76.143 123.122 77.551 121.714 79.286 121.714 L 91.857 121.714 C 93.592 121.714 95 123.122 95 124.857 C 95 126.592 93.592 128 91.857 128 Z " fill="rgb(134,151,203)"/><path d=" M 135.857 128 L 104.429 128 C 102.694 128 101.286 126.592 101.286 124.857 C 101.286 123.122 102.694 121.714 104.429 121.714 L 135.857 121.714 C 137.592 121.714 139 123.122 139 124.857 C 139 126.592 137.592 128 135.857 128 Z " fill="rgb(134,151,203)"/><path d=" M 176.714 128 L 148.429 128 C 146.694 128 145.286 126.592 145.286 124.857 C 145.286 123.122 146.694 121.714 148.429 121.714 L 176.714 121.714 C 178.449 121.714 179.857 123.122 179.857 124.857 C 179.857 126.592 178.449 128 176.714 128 Z " fill="rgb(134,151,203)"/><path d=" M 190.973 216 L 65.027 216 C 62.487 216 60.429 213.941 60.429 211.402 L 60.429 162.571 L 195.571 162.571 L 195.571 211.402 C 195.571 213.941 193.513 216 190.973 216 Z " fill="rgb(0,150,230)"/></g></g><path d=" M 85.415 203.965 L 76.166 203.965 L 76.166 174.105 L 85.354 174.105 L 85.354 174.105 Q 89.291 174.105 92.398 175.879 L 92.398 175.879 L 92.398 175.879 Q 95.505 177.653 97.248 180.924 L 97.248 180.924 L 97.248 180.924 Q 98.991 184.195 98.991 188.358 L 98.991 188.358 L 98.991 189.732 L 98.991 189.732 Q 98.991 193.896 97.279 197.136 L 97.279 197.136 L 97.279 197.136 Q 95.566 200.376 92.449 202.16 L 92.449 202.16 L 92.449 202.16 Q 89.332 203.944 85.415 203.965 L 85.415 203.965 L 85.415 203.965 Z  M 85.354 179.089 L 82.318 179.089 L 82.318 199.022 L 85.292 199.022 L 85.292 199.022 Q 88.901 199.022 90.809 196.664 L 90.809 196.664 L 90.809 196.664 Q 92.716 194.306 92.757 189.917 L 92.757 189.917 L 92.757 188.338 L 92.757 188.338 Q 92.757 183.785 90.87 181.437 L 90.87 181.437 L 90.87 181.437 Q 88.983 179.089 85.354 179.089 L 85.354 179.089 L 85.354 179.089 Z  M 127.989 188.379 L 127.989 189.712 L 127.989 189.712 Q 127.989 194.121 126.431 197.443 L 126.431 197.443 L 126.431 197.443 Q 124.872 200.766 121.97 202.57 L 121.97 202.57 L 121.97 202.57 Q 119.068 204.375 115.315 204.375 L 115.315 204.375 L 115.315 204.375 Q 111.604 204.375 108.691 202.591 L 108.691 202.591 L 108.691 202.591 Q 105.779 200.807 104.18 197.495 L 104.18 197.495 L 104.18 197.495 Q 102.58 194.183 102.56 189.876 L 102.56 189.876 L 102.56 188.399 L 102.56 188.399 Q 102.56 183.99 104.149 180.637 L 104.149 180.637 L 104.149 180.637 Q 105.738 177.284 108.64 175.49 L 108.64 175.49 L 108.64 175.49 Q 111.542 173.695 115.274 173.695 L 115.274 173.695 L 115.274 173.695 Q 119.007 173.695 121.909 175.49 L 121.909 175.49 L 121.909 175.49 Q 124.811 177.284 126.4 180.637 L 126.4 180.637 L 126.4 180.637 Q 127.989 183.99 127.989 188.379 L 127.989 188.379 L 127.989 188.379 Z  M 121.755 189.814 L 121.755 188.358 L 121.755 188.358 Q 121.755 183.662 120.073 181.222 L 120.073 181.222 L 120.073 181.222 Q 118.392 178.781 115.274 178.781 L 115.274 178.781 L 115.274 178.781 Q 112.178 178.781 110.496 181.191 L 110.496 181.191 L 110.496 181.191 Q 108.814 183.601 108.794 188.256 L 108.794 188.256 L 108.794 189.712 L 108.794 189.712 Q 108.794 194.285 110.476 196.808 L 110.476 196.808 L 110.476 196.808 Q 112.157 199.33 115.315 199.33 L 115.315 199.33 L 115.315 199.33 Q 118.412 199.33 120.073 196.9 L 120.073 196.9 L 120.073 196.9 Q 121.734 194.47 121.755 189.814 L 121.755 189.814 L 121.755 189.814 Z  M 149.748 194.019 L 155.9 194.019 L 155.9 194.019 Q 155.552 198.838 152.342 201.606 L 152.342 201.606 L 152.342 201.606 Q 149.133 204.375 143.883 204.375 L 143.883 204.375 L 143.883 204.375 Q 138.141 204.375 134.849 200.509 L 134.849 200.509 L 134.849 200.509 Q 131.558 196.644 131.558 189.896 L 131.558 189.896 L 131.558 188.071 L 131.558 188.071 Q 131.558 183.765 133.075 180.483 L 133.075 180.483 L 133.075 180.483 Q 134.593 177.202 137.413 175.449 L 137.413 175.449 L 137.413 175.449 Q 140.232 173.695 143.965 173.695 L 143.965 173.695 L 143.965 173.695 Q 149.133 173.695 152.291 176.464 L 152.291 176.464 L 152.291 176.464 Q 155.449 179.232 155.941 184.236 L 155.941 184.236 L 149.789 184.236 L 149.789 184.236 Q 149.563 181.345 148.179 180.042 L 148.179 180.042 L 148.179 180.042 Q 146.795 178.74 143.965 178.74 L 143.965 178.74 L 143.965 178.74 Q 140.889 178.74 139.361 180.945 L 139.361 180.945 L 139.361 180.945 Q 137.833 183.149 137.792 187.784 L 137.792 187.784 L 137.792 190.04 L 137.792 190.04 Q 137.792 194.88 139.258 197.115 L 139.258 197.115 L 139.258 197.115 Q 140.725 199.351 143.883 199.351 L 143.883 199.351 L 143.883 199.351 Q 146.733 199.351 148.138 198.048 L 148.138 198.048 L 148.138 198.048 Q 149.543 196.746 149.748 194.019 L 149.748 194.019 L 149.748 194.019 Z  M 165.026 174.105 L 170.625 184.4 L 176.224 174.105 L 183.299 174.105 L 174.604 188.912 L 183.524 203.965 L 176.367 203.965 L 170.625 193.506 L 164.883 203.965 L 157.726 203.965 L 166.646 188.912 L 157.951 174.105 L 165.026 174.105 L 165.026 174.105 Z " fill-rule="evenodd" fill="rgb(255,255,255)"/></g></svg>