<?xml version="1.0" standalone="no"?><!-- Generator: Gravit.io --><svg xmlns="http://www.w3.org/2000/svg" xmlns:xlink="http://www.w3.org/1999/xlink" style="isolation:isolate" viewBox="0 0 256 256" width="256" height="256"><defs><clipPath id="_clipPath_qJ4JQ2vHPl9yNMOIFjFdX7hbAxrDctK3"><rect width="256" height="256"/></clipPath></defs><g clip-path="url(#_clipPath_qJ4JQ2vHPl9yNMOIFjFdX7hbAxrDctK3)"><rect width="256" height="256" style="fill:rgb(0,0,0)" fill-opacity="0"/><g><g><path d=" M 156.239 40 L 65.027 40 C 62.487 40 60.429 42.059 60.429 46.053 L 60.429 212.857 C 60.429 213.941 62.487 216 65.027 216 L 190.973 216 C 193.513 216 195.571 213.941 195.571 212.857 L 195.571 80.788 C 195.571 78.601 195.279 77.897 194.764 77.378 L 158.193 40.808 C 157.675 40.292 156.971 40 156.239 40 Z " fill="rgb(233,233,224)"/><path d=" M 157.857 40.475 L 157.857 77.714 L 195.097 77.714 L 157.857 40.475 Z " fill="rgb(217,215,202)"/><circle vector-effect="non-scaling-stroke" cx="99.49742857142849" cy="85.35457142857132" r="14.35971428571429" fill="rgb(243,213,91)"/><path d=" M 60.429 162.571 L 95 162.571 L 195.571 162.571 L 195.571 128 L 164.143 98.143 L 131.143 134.286 L 113.911 117.053 L 60.429 162.571 Z " fill="rgb(38,114,185)"/><path d=" M 190.973 216 L 65.027 216 C 62.487 216 60.429 213.941 60.429 211.402 L 60.429 162.571 L 195.571 162.571 L 195.571 211.402 C 195.571 213.941 193.513 216 190.973 216 Z " fill="rgb(24,94,159)"/></g></g><path d=" M 121.291 188.058 L 121.291 199.973 L 121.291 199.973 Q 119.63 201.962 116.595 203.059 L 116.595 203.059 L 116.595 203.059 Q 113.56 204.156 109.868 204.156 L 109.868 204.156 L 109.868 204.156 Q 105.992 204.156 103.07 202.464 L 103.07 202.464 L 103.07 202.464 Q 100.147 200.772 98.558 197.553 L 98.558 197.553 L 98.558 197.553 Q 96.969 194.333 96.928 189.985 L 96.928 189.985 L 96.928 187.955 L 96.928 187.955 Q 96.928 183.484 98.435 180.213 L 98.435 180.213 L 98.435 180.213 Q 99.942 176.942 102.783 175.209 L 102.783 175.209 L 102.783 175.209 Q 105.623 173.477 109.438 173.477 L 109.438 173.477 L 109.438 173.477 Q 114.749 173.477 117.743 176.009 L 117.743 176.009 L 117.743 176.009 Q 120.737 178.542 121.291 183.382 L 121.291 183.382 L 115.303 183.382 L 115.303 183.382 Q 114.893 180.818 113.488 179.629 L 113.488 179.629 L 113.488 179.629 Q 112.083 178.439 109.622 178.439 L 109.622 178.439 L 109.622 178.439 Q 106.484 178.439 104.844 180.798 L 104.844 180.798 L 104.844 180.798 Q 103.203 183.156 103.183 187.812 L 103.183 187.812 L 103.183 189.719 L 103.183 189.719 Q 103.183 194.415 104.967 196.814 L 104.967 196.814 L 104.967 196.814 Q 106.751 199.214 110.196 199.214 L 110.196 199.214 L 110.196 199.214 Q 113.662 199.214 115.139 197.737 L 115.139 197.737 L 115.139 192.59 L 109.54 192.59 L 109.54 188.058 L 121.291 188.058 L 121.291 188.058 Z  M 132.816 173.887 L 132.816 203.746 L 126.664 203.746 L 126.664 173.887 L 132.816 173.887 L 132.816 173.887 Z  M 156.482 186.581 L 156.482 191.544 L 144.67 191.544 L 144.67 203.746 L 138.518 203.746 L 138.518 173.887 L 157.959 173.887 L 157.959 178.87 L 144.67 178.87 L 144.67 186.581 L 156.482 186.581 L 156.482 186.581 Z " fill-rule="evenodd" fill="rgb(255,255,255)"/></g></svg>