<?xml version="1.0" standalone="no"?><!-- Generator: Gravit.io --><svg xmlns="http://www.w3.org/2000/svg" xmlns:xlink="http://www.w3.org/1999/xlink" style="isolation:isolate" viewBox="0 0 256 256" width="256" height="256"><defs><clipPath id="_clipPath_T4lYH0jQ4ugwp6GLbfIkOPUBVBRKI4bF"><rect width="256" height="256"/></clipPath></defs><g clip-path="url(#_clipPath_T4lYH0jQ4ugwp6GLbfIkOPUBVBRKI4bF)"><rect width="256" height="256" style="fill:rgb(0,0,0)" fill-opacity="0"/><g><g><path d=" M 156.239 40 L 65.027 40 C 62.487 40 60.429 42.059 60.429 46.053 L 60.429 212.857 C 60.429 213.941 62.487 216 65.027 216 L 190.973 216 C 193.513 216 195.571 213.941 195.571 212.857 L 195.571 80.788 C 195.571 78.601 195.279 77.897 194.764 77.378 L 158.193 40.808 C 157.675 40.292 156.971 40 156.239 40 Z " fill="rgb(233,233,224)"/><path d=" M 157.857 40.475 L 157.857 77.714 L 195.097 77.714 L 157.857 40.475 Z " fill="rgb(217,215,202)"/><path d=" M 101.33 144.733 L 101.33 144.733 C 100.236 144.733 99.186 144.377 98.291 143.708 C 95.019 141.253 94.579 138.522 94.786 136.662 C 95.358 131.545 101.685 126.19 113.596 120.734 C 118.323 110.375 122.821 97.612 125.501 86.948 C 122.365 80.122 119.316 71.265 121.538 66.07 C 122.318 64.25 123.289 62.855 125.102 62.251 C 125.819 62.013 127.629 61.711 128.295 61.711 C 129.879 61.711 131.272 63.751 132.259 65.008 C 133.186 66.189 135.288 68.694 131.086 86.385 C 135.323 95.135 141.326 104.048 147.077 110.152 C 151.197 109.407 154.743 109.027 157.631 109.027 C 162.553 109.027 165.535 110.174 166.751 112.537 C 167.757 114.492 167.345 116.777 165.526 119.326 C 163.775 121.774 161.361 123.069 158.549 123.069 C 154.727 123.069 150.277 120.655 145.314 115.887 C 136.398 117.751 125.985 121.076 117.569 124.757 C 114.941 130.332 112.424 134.823 110.079 138.117 C 106.858 142.627 104.08 144.733 101.33 144.733 Z  M 109.696 128.622 C 102.98 132.397 100.242 135.499 100.044 137.246 C 100.013 137.535 99.928 138.296 101.399 139.421 C 101.867 139.273 104.601 138.026 109.696 128.622 Z  M 152.555 114.662 C 155.117 116.632 155.742 117.629 157.417 117.629 C 158.153 117.629 160.249 117.597 161.22 116.243 C 161.688 115.586 161.871 115.165 161.943 114.938 C 161.556 114.734 161.044 114.319 158.25 114.319 C 156.663 114.322 154.667 114.391 152.555 114.662 Z  M 129.078 93.975 C 126.831 101.751 123.864 110.145 120.674 117.748 C 127.243 115.199 134.383 112.974 141.09 111.399 C 136.847 106.471 132.607 100.318 129.078 93.975 Z  M 127.17 67.381 C 126.862 67.484 122.99 72.903 127.472 77.488 C 130.455 70.841 127.305 67.337 127.17 67.381 Z " fill="rgb(204,75,76)"/><path d=" M 190.973 216 L 65.027 216 C 62.487 216 60.429 213.941 60.429 211.402 L 60.429 162.571 L 195.571 162.571 L 195.571 211.402 C 195.571 213.941 193.513 216 190.973 216 Z " fill="rgb(204,75,76)"/></g></g><path d=" M 102.212 193.226 L 96.818 193.226 L 96.818 203.746 L 90.666 203.746 L 90.666 173.887 L 102.314 173.887 L 102.314 173.887 Q 105.678 173.887 108.231 175.117 L 108.231 175.117 L 108.231 175.117 Q 110.784 176.348 112.158 178.614 L 112.158 178.614 L 112.158 178.614 Q 113.532 180.88 113.532 183.771 L 113.532 183.771 L 113.532 183.771 Q 113.532 188.16 110.528 190.693 L 110.528 190.693 L 110.528 190.693 Q 107.523 193.226 102.212 193.226 L 102.212 193.226 L 102.212 193.226 Z  M 96.818 178.87 L 96.818 188.242 L 102.314 188.242 L 102.314 188.242 Q 104.755 188.242 106.037 187.094 L 106.037 187.094 L 106.037 187.094 Q 107.318 185.945 107.318 183.813 L 107.318 183.813 L 107.318 183.813 Q 107.318 181.618 106.026 180.265 L 106.026 180.265 L 106.026 180.265 Q 104.734 178.911 102.458 178.87 L 102.458 178.87 L 96.818 178.87 L 96.818 178.87 Z  M 127.006 203.746 L 117.757 203.746 L 117.757 173.887 L 126.944 173.887 L 126.944 173.887 Q 130.882 173.887 133.989 175.661 L 133.989 175.661 L 133.989 175.661 Q 137.096 177.435 138.839 180.706 L 138.839 180.706 L 138.839 180.706 Q 140.582 183.977 140.582 188.14 L 140.582 188.14 L 140.582 189.514 L 140.582 189.514 Q 140.582 193.677 138.87 196.917 L 138.87 196.917 L 138.87 196.917 Q 137.157 200.157 134.04 201.941 L 134.04 201.941 L 134.04 201.941 Q 130.923 203.726 127.006 203.746 L 127.006 203.746 L 127.006 203.746 Z  M 126.944 178.87 L 123.909 178.87 L 123.909 198.804 L 126.883 198.804 L 126.883 198.804 Q 130.492 198.804 132.399 196.445 L 132.399 196.445 L 132.399 196.445 Q 134.307 194.087 134.348 189.698 L 134.348 189.698 L 134.348 188.119 L 134.348 188.119 Q 134.348 183.566 132.461 181.218 L 132.461 181.218 L 132.461 181.218 Q 130.574 178.87 126.944 178.87 L 126.944 178.87 L 126.944 178.87 Z  M 163.018 186.581 L 163.018 191.544 L 151.205 191.544 L 151.205 203.746 L 145.053 203.746 L 145.053 173.887 L 164.494 173.887 L 164.494 178.87 L 151.205 178.87 L 151.205 186.581 L 163.018 186.581 L 163.018 186.581 Z " fill-rule="evenodd" fill="rgb(255,255,255)"/></g></svg>