<?xml version="1.0" standalone="no"?><!-- Generator: Gravit.io --><svg xmlns="http://www.w3.org/2000/svg" xmlns:xlink="http://www.w3.org/1999/xlink" style="isolation:isolate" viewBox="0 0 256 256" width="256" height="256"><defs><clipPath id="_clipPath_3S2N93pd32mzHHCF1p3qXXbnz5ExHLEh"><rect width="256" height="256"/></clipPath></defs><g clip-path="url(#_clipPath_3S2N93pd32mzHHCF1p3qXXbnz5ExHLEh)"><rect width="256" height="256" style="fill:rgb(0,0,0)" fill-opacity="0"/><g><g><path d=" M 156.239 40 L 65.027 40 C 62.487 40 60.429 42.059 60.429 46.053 L 60.429 212.857 C 60.429 213.941 62.487 216 65.027 216 L 190.973 216 C 193.513 216 195.571 213.941 195.571 212.857 L 195.571 80.788 C 195.571 78.601 195.279 77.897 194.764 77.378 L 158.193 40.808 C 157.675 40.292 156.971 40 156.239 40 Z " fill="rgb(233,233,224)"/><path d=" M 157.857 40.475 L 157.857 77.714 L 195.097 77.714 L 157.857 40.475 Z " fill="rgb(217,215,202)"/><path d=" M 190.973 216 L 65.027 216 C 62.487 216 60.429 213.941 60.429 211.402 L 60.429 162.571 L 195.571 162.571 L 195.571 211.402 C 195.571 213.941 193.513 216 190.973 216 Z " fill="rgb(145,205,160)"/><path d=" M 113.857 90.286 L 113.857 77.714 L 76.143 77.714 L 76.143 90.286 L 76.143 96.571 L 76.143 102.857 L 76.143 109.143 L 76.143 115.429 L 76.143 121.714 L 76.143 128 L 76.143 134.286 L 76.143 146.857 L 107.571 146.857 L 113.857 146.857 L 179.857 146.857 L 179.857 134.286 L 179.857 128 L 179.857 121.714 L 179.857 115.429 L 179.857 109.143 L 179.857 102.857 L 179.857 90.286 L 113.857 90.286 Z  M 82.429 84 L 107.571 84 L 107.571 90.286 L 82.429 90.286 L 82.429 84 Z  M 82.429 96.571 L 107.571 96.571 L 107.571 102.857 L 82.429 102.857 L 82.429 96.571 Z  M 82.429 109.143 L 107.571 109.143 L 107.571 115.429 L 82.429 115.429 L 82.429 109.143 Z  M 82.429 121.714 L 107.571 121.714 L 107.571 128 L 82.429 128 L 82.429 121.714 Z  M 107.571 140.571 L 82.429 140.571 L 82.429 134.286 L 107.571 134.286 L 107.571 140.571 Z  M 173.571 140.571 L 113.857 140.571 L 113.857 134.286 L 173.571 134.286 L 173.571 140.571 Z  M 173.571 128 L 113.857 128 L 113.857 121.714 L 173.571 121.714 L 173.571 128 Z  M 173.571 115.429 L 113.857 115.429 L 113.857 109.143 L 173.571 109.143 L 173.571 115.429 Z  M 113.857 102.857 L 113.857 96.571 L 173.571 96.571 L 173.571 102.857 L 113.857 102.857 Z " fill="rgb(200,189,184)"/></g></g><path d=" M 112.693 190.16 L 112.693 191.493 L 112.693 191.493 Q 112.693 195.902 111.135 199.225 L 111.135 199.225 L 111.135 199.225 Q 109.576 202.547 106.674 204.352 L 106.674 204.352 L 106.674 204.352 Q 103.772 206.156 100.02 206.156 L 100.02 206.156 L 100.02 206.156 Q 96.308 206.156 93.396 204.372 L 93.396 204.372 L 93.396 204.372 Q 90.483 202.588 88.884 199.276 L 88.884 199.276 L 88.884 199.276 Q 87.284 195.964 87.264 191.657 L 87.264 191.657 L 87.264 190.181 L 87.264 190.181 Q 87.264 185.771 88.853 182.418 L 88.853 182.418 L 88.853 182.418 Q 90.442 179.065 93.344 177.271 L 93.344 177.271 L 93.344 177.271 Q 96.246 175.477 99.979 175.477 L 99.979 175.477 L 99.979 175.477 Q 103.711 175.477 106.613 177.271 L 106.613 177.271 L 106.613 177.271 Q 109.515 179.065 111.104 182.418 L 111.104 182.418 L 111.104 182.418 Q 112.693 185.771 112.693 190.16 L 112.693 190.16 L 112.693 190.16 Z  M 106.459 191.596 L 106.459 190.14 L 106.459 190.14 Q 106.459 185.443 104.777 183.003 L 104.777 183.003 L 104.777 183.003 Q 103.096 180.563 99.979 180.563 L 99.979 180.563 L 99.979 180.563 Q 96.882 180.563 95.2 182.972 L 95.2 182.972 L 95.2 182.972 Q 93.519 185.382 93.498 190.037 L 93.498 190.037 L 93.498 191.493 L 93.498 191.493 Q 93.498 196.066 95.18 198.589 L 95.18 198.589 L 95.18 198.589 Q 96.861 201.111 100.02 201.111 L 100.02 201.111 L 100.02 201.111 Q 103.116 201.111 104.777 198.681 L 104.777 198.681 L 104.777 198.681 Q 106.438 196.251 106.459 191.596 L 106.459 191.596 L 106.459 191.596 Z  M 126.413 205.746 L 117.164 205.746 L 117.164 175.887 L 126.352 175.887 L 126.352 175.887 Q 130.289 175.887 133.396 177.661 L 133.396 177.661 L 133.396 177.661 Q 136.503 179.435 138.246 182.706 L 138.246 182.706 L 138.246 182.706 Q 139.989 185.977 139.989 190.14 L 139.989 190.14 L 139.989 191.514 L 139.989 191.514 Q 139.989 195.677 138.277 198.917 L 138.277 198.917 L 138.277 198.917 Q 136.564 202.157 133.447 203.941 L 133.447 203.941 L 133.447 203.941 Q 130.33 205.726 126.413 205.746 L 126.413 205.746 L 126.413 205.746 Z  M 126.352 180.87 L 123.316 180.87 L 123.316 200.804 L 126.29 200.804 L 126.29 200.804 Q 129.899 200.804 131.807 198.445 L 131.807 198.445 L 131.807 198.445 Q 133.714 196.087 133.755 191.698 L 133.755 191.698 L 133.755 190.119 L 133.755 190.119 Q 133.755 185.566 131.868 183.218 L 131.868 183.218 L 131.868 183.218 Q 129.981 180.87 126.352 180.87 L 126.352 180.87 L 126.352 180.87 Z  M 159.943 197.912 L 159.943 197.912 L 159.943 197.912 Q 159.943 196.169 158.713 195.236 L 158.713 195.236 L 158.713 195.236 Q 157.482 194.303 154.283 193.267 L 154.283 193.267 L 154.283 193.267 Q 151.084 192.231 149.218 191.227 L 149.218 191.227 L 149.218 191.227 Q 144.132 188.479 144.132 183.823 L 144.132 183.823 L 144.132 183.823 Q 144.132 181.403 145.496 179.506 L 145.496 179.506 L 145.496 179.506 Q 146.859 177.609 149.413 176.543 L 149.413 176.543 L 149.413 176.543 Q 151.966 175.477 155.145 175.477 L 155.145 175.477 L 155.145 175.477 Q 158.344 175.477 160.846 176.635 L 160.846 176.635 L 160.846 176.635 Q 163.348 177.794 164.732 179.906 L 164.732 179.906 L 164.732 179.906 Q 166.116 182.019 166.116 184.705 L 166.116 184.705 L 159.964 184.705 L 159.964 184.705 Q 159.964 182.654 158.672 181.516 L 158.672 181.516 L 158.672 181.516 Q 157.38 180.378 155.042 180.378 L 155.042 180.378 L 155.042 180.378 Q 152.786 180.378 151.535 181.332 L 151.535 181.332 L 151.535 181.332 Q 150.284 182.285 150.284 183.844 L 150.284 183.844 L 150.284 183.844 Q 150.284 185.3 151.75 186.284 L 151.75 186.284 L 151.75 186.284 Q 153.217 187.269 156.067 188.13 L 156.067 188.13 L 156.067 188.13 Q 161.317 189.709 163.717 192.047 L 163.717 192.047 L 163.717 192.047 Q 166.116 194.385 166.116 197.871 L 166.116 197.871 L 166.116 197.871 Q 166.116 201.747 163.184 203.952 L 163.184 203.952 L 163.184 203.952 Q 160.251 206.156 155.288 206.156 L 155.288 206.156 L 155.288 206.156 Q 151.843 206.156 149.013 204.895 L 149.013 204.895 L 149.013 204.895 Q 146.183 203.634 144.696 201.439 L 144.696 201.439 L 144.696 201.439 Q 143.209 199.245 143.209 196.354 L 143.209 196.354 L 149.382 196.354 L 149.382 196.354 Q 149.382 201.296 155.288 201.296 L 155.288 201.296 L 155.288 201.296 Q 157.482 201.296 158.713 200.404 L 158.713 200.404 L 158.713 200.404 Q 159.943 199.512 159.943 197.912 Z " fill-rule="evenodd" fill="rgb(255,255,255)"/></g></svg>