<?xml version="1.0" standalone="no"?><!-- Generator: Gravit.io --><svg xmlns="http://www.w3.org/2000/svg" xmlns:xlink="http://www.w3.org/1999/xlink" style="isolation:isolate" viewBox="0 0 256 256" width="256" height="256"><defs><clipPath id="_clipPath_GVDICnlajH4CYfJQXEDowdcqTjvuHKgn"><rect width="256" height="256"/></clipPath></defs><g clip-path="url(#_clipPath_GVDICnlajH4CYfJQXEDowdcqTjvuHKgn)"><rect width="256" height="256" style="fill:rgb(0,0,0)" fill-opacity="0"/><g><g><path d=" M 156.239 40 L 65.027 40 C 62.487 40 60.429 42.059 60.429 46.053 L 60.429 212.857 C 60.429 213.941 62.487 216 65.027 216 L 190.973 216 C 193.513 216 195.571 213.941 195.571 212.857 L 195.571 80.788 C 195.571 78.601 195.279 77.897 194.764 77.378 L 158.193 40.808 C 157.675 40.292 156.971 40 156.239 40 Z " fill="rgb(233,233,224)"/><path d=" M 157.857 40.475 L 157.857 77.714 L 195.097 77.714 L 157.857 40.475 Z " fill="rgb(217,215,202)"/><path d=" M 190.973 216 L 65.027 216 C 62.487 216 60.429 213.941 60.429 211.402 L 60.429 162.571 L 195.571 162.571 L 195.571 211.402 C 195.571 213.941 193.513 216 190.973 216 Z " fill="rgb(243,111,160)"/><path d=" M 113.857 90.286 L 113.857 77.714 L 76.143 77.714 L 76.143 90.286 L 76.143 96.571 L 76.143 102.857 L 76.143 109.143 L 76.143 115.429 L 76.143 121.714 L 76.143 128 L 76.143 134.286 L 76.143 146.857 L 107.571 146.857 L 113.857 146.857 L 179.857 146.857 L 179.857 134.286 L 179.857 128 L 179.857 121.714 L 179.857 115.429 L 179.857 109.143 L 179.857 102.857 L 179.857 90.286 L 113.857 90.286 Z  M 82.429 84 L 107.571 84 L 107.571 90.286 L 82.429 90.286 L 82.429 84 Z  M 82.429 96.571 L 107.571 96.571 L 107.571 102.857 L 82.429 102.857 L 82.429 96.571 Z  M 82.429 109.143 L 107.571 109.143 L 107.571 115.429 L 82.429 115.429 L 82.429 109.143 Z  M 82.429 121.714 L 107.571 121.714 L 107.571 128 L 82.429 128 L 82.429 121.714 Z  M 107.571 140.571 L 82.429 140.571 L 82.429 134.286 L 107.571 134.286 L 107.571 140.571 Z  M 173.571 140.571 L 113.857 140.571 L 113.857 134.286 L 173.571 134.286 L 173.571 140.571 Z  M 173.571 128 L 113.857 128 L 113.857 121.714 L 173.571 121.714 L 173.571 128 Z  M 173.571 115.429 L 113.857 115.429 L 113.857 109.143 L 173.571 109.143 L 173.571 115.429 Z  M 113.857 102.857 L 113.857 96.571 L 173.571 96.571 L 173.571 102.857 L 113.857 102.857 Z " fill="rgb(200,189,184)"/></g></g><path d=" M 106.454 193.8 L 112.606 193.8 L 112.606 193.8 Q 112.258 198.619 109.048 201.388 L 109.048 201.388 L 109.048 201.388 Q 105.839 204.156 100.589 204.156 L 100.589 204.156 L 100.589 204.156 Q 94.847 204.156 91.555 200.291 L 91.555 200.291 L 91.555 200.291 Q 88.264 196.425 88.264 189.678 L 88.264 189.678 L 88.264 187.853 L 88.264 187.853 Q 88.264 183.546 89.781 180.265 L 89.781 180.265 L 89.781 180.265 Q 91.299 176.983 94.119 175.23 L 94.119 175.23 L 94.119 175.23 Q 96.938 173.477 100.671 173.477 L 100.671 173.477 L 100.671 173.477 Q 105.839 173.477 108.997 176.245 L 108.997 176.245 L 108.997 176.245 Q 112.155 179.014 112.647 184.018 L 112.647 184.018 L 106.495 184.018 L 106.495 184.018 Q 106.27 181.126 104.885 179.824 L 104.885 179.824 L 104.885 179.824 Q 103.501 178.521 100.671 178.521 L 100.671 178.521 L 100.671 178.521 Q 97.595 178.521 96.067 180.726 L 96.067 180.726 L 96.067 180.726 Q 94.539 182.931 94.498 187.565 L 94.498 187.565 L 94.498 189.821 L 94.498 189.821 Q 94.498 194.661 95.964 196.896 L 95.964 196.896 L 95.964 196.896 Q 97.431 199.132 100.589 199.132 L 100.589 199.132 L 100.589 199.132 Q 103.439 199.132 104.844 197.83 L 104.844 197.83 L 104.844 197.83 Q 106.249 196.527 106.454 193.8 L 106.454 193.8 L 106.454 193.8 Z  M 132.13 195.912 L 132.13 195.912 L 132.13 195.912 Q 132.13 194.169 130.899 193.236 L 130.899 193.236 L 130.899 193.236 Q 129.669 192.303 126.47 191.267 L 126.47 191.267 L 126.47 191.267 Q 123.271 190.231 121.404 189.227 L 121.404 189.227 L 121.404 189.227 Q 116.318 186.479 116.318 181.823 L 116.318 181.823 L 116.318 181.823 Q 116.318 179.403 117.682 177.506 L 117.682 177.506 L 117.682 177.506 Q 119.046 175.609 121.599 174.543 L 121.599 174.543 L 121.599 174.543 Q 124.152 173.477 127.331 173.477 L 127.331 173.477 L 127.331 173.477 Q 130.53 173.477 133.032 174.635 L 133.032 174.635 L 133.032 174.635 Q 135.534 175.794 136.918 177.906 L 136.918 177.906 L 136.918 177.906 Q 138.303 180.019 138.303 182.705 L 138.303 182.705 L 132.15 182.705 L 132.15 182.705 Q 132.15 180.654 130.858 179.516 L 130.858 179.516 L 130.858 179.516 Q 129.566 178.378 127.229 178.378 L 127.229 178.378 L 127.229 178.378 Q 124.973 178.378 123.722 179.332 L 123.722 179.332 L 123.722 179.332 Q 122.471 180.285 122.471 181.844 L 122.471 181.844 L 122.471 181.844 Q 122.471 183.3 123.937 184.284 L 123.937 184.284 L 123.937 184.284 Q 125.403 185.269 128.254 186.13 L 128.254 186.13 L 128.254 186.13 Q 133.504 187.709 135.903 190.047 L 135.903 190.047 L 135.903 190.047 Q 138.303 192.385 138.303 195.871 L 138.303 195.871 L 138.303 195.871 Q 138.303 199.747 135.37 201.952 L 135.37 201.952 L 135.37 201.952 Q 132.438 204.156 127.475 204.156 L 127.475 204.156 L 127.475 204.156 Q 124.029 204.156 121.199 202.895 L 121.199 202.895 L 121.199 202.895 Q 118.369 201.634 116.882 199.439 L 116.882 199.439 L 116.882 199.439 Q 115.396 197.245 115.396 194.354 L 115.396 194.354 L 121.568 194.354 L 121.568 194.354 Q 121.568 199.296 127.475 199.296 L 127.475 199.296 L 127.475 199.296 Q 129.669 199.296 130.899 198.404 L 130.899 198.404 L 130.899 198.404 Q 132.13 197.512 132.13 195.912 Z  M 146.772 173.887 L 153.499 196.343 L 160.267 173.887 L 167.116 173.887 L 156.719 203.746 L 150.3 203.746 L 139.943 173.887 L 146.772 173.887 L 146.772 173.887 Z " fill-rule="evenodd" fill="rgb(255,255,255)"/></g></svg>