<?xml version="1.0" standalone="no"?><!-- Generator: Gravit.io --><svg xmlns="http://www.w3.org/2000/svg" xmlns:xlink="http://www.w3.org/1999/xlink" style="isolation:isolate" viewBox="0 0 256 256" width="256" height="256"><defs><clipPath id="_clipPath_g24Gte2OrG30DAPUumNJM7BCqXYtetjX"><rect width="256" height="256"/></clipPath></defs><g clip-path="url(#_clipPath_g24Gte2OrG30DAPUumNJM7BCqXYtetjX)"><rect width="256" height="256" style="fill:rgb(0,0,0)" fill-opacity="0"/><g><g><path d=" M 156.239 40 L 65.027 40 C 62.487 40 60.429 42.059 60.429 46.053 L 60.429 212.857 C 60.429 213.941 62.487 216 65.027 216 L 190.973 216 C 193.513 216 195.571 213.941 195.571 212.857 L 195.571 80.788 C 195.571 78.601 195.279 77.897 194.764 77.378 L 158.193 40.808 C 157.675 40.292 156.971 40 156.239 40 Z " fill="rgb(233,233,224)"/><path d=" M 157.857 40.475 L 157.857 77.714 L 195.097 77.714 L 157.857 40.475 Z " fill="rgb(217,215,202)"/><path d=" M 190.973 216 L 65.027 216 C 62.487 216 60.429 213.941 60.429 211.402 L 60.429 162.571 L 195.571 162.571 L 195.571 211.402 C 195.571 213.941 193.513 216 190.973 216 Z " fill="rgb(116,206,221)"/><g><path d=" M 112.936 91.207 C 111.707 89.978 109.721 89.978 108.492 91.207 L 89.635 110.064 C 88.406 111.293 88.406 113.279 89.635 114.508 L 108.492 133.365 C 109.105 133.978 109.91 134.286 110.714 134.286 C 111.519 134.286 112.323 133.978 112.936 133.365 C 114.165 132.136 114.165 130.15 112.936 128.921 L 96.301 112.286 L 112.936 95.651 C 114.165 94.422 114.165 92.435 112.936 91.207 Z " fill="rgb(116,206,221)"/><path d=" M 169.508 110.064 L 161.722 102.278 L 150.651 91.207 C 149.422 89.978 147.435 89.978 146.207 91.207 C 144.978 92.435 144.978 94.422 146.207 95.651 L 162.842 112.286 L 146.207 128.921 C 144.978 130.15 144.978 132.136 146.207 133.365 C 146.819 133.978 147.624 134.286 148.429 134.286 C 149.233 134.286 150.038 133.978 150.651 133.365 L 169.508 114.508 C 170.737 113.279 170.737 111.293 169.508 110.064 Z " fill="rgb(116,206,221)"/></g></g></g><path d=" M 124.291 189.058 L 124.291 200.973 L 124.291 200.973 Q 122.63 202.962 119.595 204.059 L 119.595 204.059 L 119.595 204.059 Q 116.56 205.156 112.868 205.156 L 112.868 205.156 L 112.868 205.156 Q 108.992 205.156 106.07 203.464 L 106.07 203.464 L 106.07 203.464 Q 103.147 201.772 101.558 198.553 L 101.558 198.553 L 101.558 198.553 Q 99.969 195.333 99.928 190.985 L 99.928 190.985 L 99.928 188.955 L 99.928 188.955 Q 99.928 184.484 101.435 181.213 L 101.435 181.213 L 101.435 181.213 Q 102.942 177.942 105.783 176.209 L 105.783 176.209 L 105.783 176.209 Q 108.623 174.477 112.438 174.477 L 112.438 174.477 L 112.438 174.477 Q 117.749 174.477 120.743 177.009 L 120.743 177.009 L 120.743 177.009 Q 123.737 179.542 124.291 184.382 L 124.291 184.382 L 118.303 184.382 L 118.303 184.382 Q 117.893 181.818 116.488 180.629 L 116.488 180.629 L 116.488 180.629 Q 115.083 179.439 112.622 179.439 L 112.622 179.439 L 112.622 179.439 Q 109.484 179.439 107.844 181.798 L 107.844 181.798 L 107.844 181.798 Q 106.203 184.156 106.183 188.812 L 106.183 188.812 L 106.183 190.719 L 106.183 190.719 Q 106.183 195.415 107.967 197.814 L 107.967 197.814 L 107.967 197.814 Q 109.751 200.214 113.196 200.214 L 113.196 200.214 L 113.196 200.214 Q 116.662 200.214 118.139 198.737 L 118.139 198.737 L 118.139 193.59 L 112.54 193.59 L 112.54 189.058 L 124.291 189.058 L 124.291 189.058 Z  M 153.802 189.16 L 153.802 190.493 L 153.802 190.493 Q 153.802 194.902 152.243 198.225 L 152.243 198.225 L 152.243 198.225 Q 150.685 201.547 147.783 203.352 L 147.783 203.352 L 147.783 203.352 Q 144.881 205.156 141.128 205.156 L 141.128 205.156 L 141.128 205.156 Q 137.416 205.156 134.504 203.372 L 134.504 203.372 L 134.504 203.372 Q 131.592 201.588 129.992 198.276 L 129.992 198.276 L 129.992 198.276 Q 128.393 194.964 128.372 190.657 L 128.372 190.657 L 128.372 189.181 L 128.372 189.181 Q 128.372 184.771 129.961 181.418 L 129.961 181.418 L 129.961 181.418 Q 131.551 178.065 134.453 176.271 L 134.453 176.271 L 134.453 176.271 Q 137.354 174.477 141.087 174.477 L 141.087 174.477 L 141.087 174.477 Q 144.819 174.477 147.721 176.271 L 147.721 176.271 L 147.721 176.271 Q 150.623 178.065 152.212 181.418 L 152.212 181.418 L 152.212 181.418 Q 153.802 184.771 153.802 189.16 L 153.802 189.16 L 153.802 189.16 Z  M 147.567 190.596 L 147.567 189.14 L 147.567 189.14 Q 147.567 184.443 145.886 182.003 L 145.886 182.003 L 145.886 182.003 Q 144.204 179.563 141.087 179.563 L 141.087 179.563 L 141.087 179.563 Q 137.99 179.563 136.309 181.972 L 136.309 181.972 L 136.309 181.972 Q 134.627 184.382 134.606 189.037 L 134.606 189.037 L 134.606 190.493 L 134.606 190.493 Q 134.606 195.066 136.288 197.589 L 136.288 197.589 L 136.288 197.589 Q 137.97 200.111 141.128 200.111 L 141.128 200.111 L 141.128 200.111 Q 144.225 200.111 145.886 197.681 L 145.886 197.681 L 145.886 197.681 Q 147.547 195.251 147.567 190.596 L 147.567 190.596 L 147.567 190.596 Z " fill-rule="evenodd" fill="rgb(255,255,255)"/></g></svg>
