<?xml version="1.0" standalone="no"?><!-- Generator: Gravit.io --><svg xmlns="http://www.w3.org/2000/svg" xmlns:xlink="http://www.w3.org/1999/xlink" style="isolation:isolate" viewBox="0 0 256 256" width="256" height="256"><defs><clipPath id="_clipPath_asVcXb5ArovgRsAnstkkJMmj7NXPC138"><rect width="256" height="256"/></clipPath></defs><g clip-path="url(#_clipPath_asVcXb5ArovgRsAnstkkJMmj7NXPC138)"><rect width="256" height="256" style="fill:rgb(0,0,0)" fill-opacity="0"/><g><g><path d=" M 156.239 40 L 65.027 40 C 62.487 40 60.429 42.059 60.429 46.053 L 60.429 212.857 C 60.429 213.941 62.487 216 65.027 216 L 190.973 216 C 193.513 216 195.571 213.941 195.571 212.857 L 195.571 80.788 C 195.571 78.601 195.279 77.897 194.764 77.378 L 158.193 40.808 C 157.675 40.292 156.971 40 156.239 40 Z " fill="rgb(233,233,224)"/><path d=" M 157.857 40.475 L 157.857 77.714 L 195.097 77.714 L 157.857 40.475 Z " fill="rgb(217,215,202)"/><path d=" M 190.973 216 L 65.027 216 C 62.487 216 60.429 213.941 60.429 211.402 L 60.429 162.571 L 195.571 162.571 L 195.571 211.402 C 195.571 213.941 193.513 216 190.973 216 Z " fill="rgb(215,94,114)"/><path d=" M 82.666 173.887 L 90.705 173.887 L 98.375 195.543 L 106.004 173.887 L 114.084 173.887 L 114.084 203.746 L 107.911 203.746 L 107.911 195.584 L 108.526 181.495 L 100.467 203.746 L 96.242 203.746 L 88.203 181.516 L 88.818 195.584 L 88.818 203.746 L 82.666 203.746 L 82.666 173.887 L 82.666 173.887 Z  M 143.984 188.16 L 143.984 189.493 L 143.984 189.493 Q 143.984 193.902 142.426 197.225 L 142.426 197.225 L 142.426 197.225 Q 140.867 200.547 137.965 202.352 L 137.965 202.352 L 137.965 202.352 Q 135.063 204.156 131.311 204.156 L 131.311 204.156 L 131.311 204.156 Q 127.599 204.156 124.687 202.372 L 124.687 202.372 L 124.687 202.372 Q 121.774 200.588 120.175 197.276 L 120.175 197.276 L 120.175 197.276 Q 118.575 193.964 118.555 189.657 L 118.555 189.657 L 118.555 188.181 L 118.555 188.181 Q 118.555 183.771 120.144 180.418 L 120.144 180.418 L 120.144 180.418 Q 121.733 177.065 124.635 175.271 L 124.635 175.271 L 124.635 175.271 Q 127.537 173.477 131.27 173.477 L 131.27 173.477 L 131.27 173.477 Q 135.002 173.477 137.904 175.271 L 137.904 175.271 L 137.904 175.271 Q 140.806 177.065 142.395 180.418 L 142.395 180.418 L 142.395 180.418 Q 143.984 183.771 143.984 188.16 L 143.984 188.16 L 143.984 188.16 Z  M 137.75 189.596 L 137.75 188.14 L 137.75 188.14 Q 137.75 183.443 136.068 181.003 L 136.068 181.003 L 136.068 181.003 Q 134.387 178.562 131.27 178.562 L 131.27 178.562 L 131.27 178.562 Q 128.173 178.562 126.491 180.972 L 126.491 180.972 L 126.491 180.972 Q 124.81 183.382 124.789 188.037 L 124.789 188.037 L 124.789 189.493 L 124.789 189.493 Q 124.789 194.066 126.471 196.589 L 126.471 196.589 L 126.471 196.589 Q 128.152 199.111 131.311 199.111 L 131.311 199.111 L 131.311 199.111 Q 134.407 199.111 136.068 196.681 L 136.068 196.681 L 136.068 196.681 Q 137.729 194.251 137.75 189.596 L 137.75 189.596 L 137.75 189.596 Z  M 152.762 173.887 L 159.488 196.343 L 166.256 173.887 L 173.105 173.887 L 162.708 203.746 L 156.289 203.746 L 145.933 173.887 L 152.762 173.887 L 152.762 173.887 Z " fill-rule="evenodd" fill="rgb(255,255,255)"/><path d=" M 113.857 128 L 113.857 105.855 L 113.857 84 L 148.429 106 L 113.857 128 Z " fill="rgb(200,189,184)"/></g></g></g></svg>