<?xml version="1.0" standalone="no"?><!-- Generator: Gravit.io --><svg xmlns="http://www.w3.org/2000/svg" xmlns:xlink="http://www.w3.org/1999/xlink" style="isolation:isolate" viewBox="0 0 256 256" width="256" height="256"><defs><clipPath id="_clipPath_du1xcV6ZdOlXsL4g70pQmHhN6rSf9K41"><rect width="256" height="256"/></clipPath></defs><g clip-path="url(#_clipPath_du1xcV6ZdOlXsL4g70pQmHhN6rSf9K41)"><rect width="256" height="256" style="fill:rgb(0,0,0)" fill-opacity="0"/><g><g><path d=" M 156.239 40 L 65.027 40 C 62.487 40 60.429 42.059 60.429 46.053 L 60.429 212.857 C 60.429 213.941 62.487 216 65.027 216 L 190.973 216 C 193.513 216 195.571 213.941 195.571 212.857 L 195.571 80.788 C 195.571 78.601 195.279 77.897 194.764 77.378 L 158.193 40.808 C 157.675 40.292 156.971 40 156.239 40 Z " fill="rgb(233,233,224)"/><path d=" M 157.857 40.475 L 157.857 77.714 L 195.097 77.714 L 157.857 40.475 Z " fill="rgb(217,215,202)"/><path d=" M 190.973 216 L 65.027 216 C 62.487 216 60.429 213.941 60.429 211.402 L 60.429 162.571 L 195.571 162.571 L 195.571 211.402 C 195.571 213.941 193.513 216 190.973 216 Z " fill="rgb(125,101,153)"/><path d=" M 152.106 87.099 C 150.324 84.597 148.02 82.249 144.852 79.71 C 132.551 69.87 129.901 59.982 129.571 58.533 L 129.571 55.714 C 129.571 53.976 128.167 52.571 126.429 52.571 C 124.691 52.571 123.286 53.976 123.286 55.714 L 123.286 58.857 L 123.286 85.128 L 123.286 113.581 L 111.638 113.581 C 99.438 113.581 91.857 119.744 91.857 129.663 C 91.857 140.556 98.897 147.596 109.79 147.596 C 120.699 147.596 129.571 138.723 129.571 127.815 L 129.571 91.757 L 130.508 92.52 C 131.577 93.576 133.214 94.783 135.288 96.307 C 142.573 101.679 154.774 110.661 151.707 120.8 C 151.615 121.108 151.571 121.413 151.571 121.714 C 151.571 123.066 152.445 124.31 153.803 124.722 C 154.108 124.813 154.413 124.857 154.714 124.857 C 156.066 124.857 157.31 123.983 157.722 122.626 C 162.835 105.733 156.396 93.114 152.106 87.099 Z  M 123.286 127.815 C 123.286 135.257 117.233 141.31 109.79 141.31 C 102.389 141.31 98.143 137.064 98.143 129.663 C 98.143 121.567 105.481 119.866 111.638 119.866 L 123.286 119.866 L 123.286 127.815 Z  M 139.016 91.254 C 137.221 89.927 135.669 88.787 134.707 87.856 L 129.571 83.645 L 129.571 72.73 C 132.171 76.419 135.816 80.533 140.923 84.619 C 143.62 86.781 145.55 88.73 146.986 90.748 C 149.236 93.9 151.483 98.099 152.605 103.25 C 148.435 98.19 142.913 94.123 139.016 91.254 Z " fill="rgb(200,189,184)"/></g></g><path d=" M 101.521 175.887 L 106.422 197.133 L 110.441 175.887 L 116.573 175.887 L 109.949 205.746 L 103.756 205.746 L 98.896 185.771 L 94.035 205.746 L 87.842 205.746 L 81.218 175.887 L 87.35 175.887 L 91.39 197.092 L 96.312 175.887 L 101.521 175.887 L 101.521 175.887 Z  M 138.824 205.746 L 136.753 199.594 L 125.966 199.594 L 123.915 205.746 L 117.373 205.746 L 128.488 175.887 L 134.189 175.887 L 145.366 205.746 L 138.824 205.746 L 138.824 205.746 Z  M 131.339 183.434 L 127.627 194.61 L 135.092 194.61 L 131.339 183.434 L 131.339 183.434 Z  M 152.462 175.887 L 159.188 198.343 L 165.956 175.887 L 172.806 175.887 L 162.408 205.746 L 155.989 205.746 L 145.633 175.887 L 152.462 175.887 L 152.462 175.887 Z " fill-rule="evenodd" fill="rgb(255,255,255)"/></g></svg>