<?xml version="1.0" standalone="no"?><!-- Generator: Gravit.io --><svg xmlns="http://www.w3.org/2000/svg" xmlns:xlink="http://www.w3.org/1999/xlink" style="isolation:isolate" viewBox="0 0 256 256" width="256" height="256"><defs><clipPath id="_clipPath_wrlz0YXlpzf35A8gC3cXMOtqgow8U4R1"><rect width="256" height="256"/></clipPath></defs><g clip-path="url(#_clipPath_wrlz0YXlpzf35A8gC3cXMOtqgow8U4R1)"><rect width="256" height="256" style="fill:rgb(0,0,0)" fill-opacity="0"/><g><g><path d=" M 156.239 40 L 65.027 40 C 62.487 40 60.429 42.059 60.429 46.053 L 60.429 212.857 C 60.429 213.941 62.487 216 65.027 216 L 190.973 216 C 193.513 216 195.571 213.941 195.571 212.857 L 195.571 80.788 C 195.571 78.601 195.279 77.897 194.764 77.378 L 158.193 40.808 C 157.675 40.292 156.971 40 156.239 40 Z " fill="rgb(233,233,224)"/><path d=" M 157.857 40.475 L 157.857 77.714 L 195.097 77.714 L 157.857 40.475 Z " fill="rgb(217,215,202)"/><path d=" M 190.973 216 L 65.027 216 C 62.487 216 60.429 213.941 60.429 211.402 L 60.429 162.571 L 195.571 162.571 L 195.571 211.402 C 195.571 213.941 193.513 216 190.973 216 Z " fill="rgb(55,85,134)"/></g></g><path d=" M 109.954 193.8 L 116.106 193.8 L 116.106 193.8 Q 115.758 198.619 112.548 201.388 L 112.548 201.388 L 112.548 201.388 Q 109.339 204.156 104.089 204.156 L 104.089 204.156 L 104.089 204.156 Q 98.347 204.156 95.055 200.291 L 95.055 200.291 L 95.055 200.291 Q 91.764 196.425 91.764 189.678 L 91.764 189.678 L 91.764 187.853 L 91.764 187.853 Q 91.764 183.546 93.281 180.265 L 93.281 180.265 L 93.281 180.265 Q 94.799 176.983 97.619 175.23 L 97.619 175.23 L 97.619 175.23 Q 100.438 173.477 104.171 173.477 L 104.171 173.477 L 104.171 173.477 Q 109.339 173.477 112.497 176.245 L 112.497 176.245 L 112.497 176.245 Q 115.655 179.014 116.147 184.018 L 116.147 184.018 L 109.995 184.018 L 109.995 184.018 Q 109.77 181.126 108.385 179.824 L 108.385 179.824 L 108.385 179.824 Q 107.001 178.521 104.171 178.521 L 104.171 178.521 L 104.171 178.521 Q 101.095 178.521 99.567 180.726 L 99.567 180.726 L 99.567 180.726 Q 98.039 182.931 97.998 187.565 L 97.998 187.565 L 97.998 189.821 L 97.998 189.821 Q 97.998 194.661 99.464 196.896 L 99.464 196.896 L 99.464 196.896 Q 100.931 199.132 104.089 199.132 L 104.089 199.132 L 104.089 199.132 Q 106.939 199.132 108.344 197.83 L 108.344 197.83 L 108.344 197.83 Q 109.749 196.527 109.954 193.8 L 109.954 193.8 L 109.954 193.8 Z  M 131.713 179.014 L 131.713 187.032 L 139.116 187.032 L 139.116 192.385 L 131.713 192.385 L 131.713 200.752 L 126.073 200.752 L 126.073 192.385 L 118.649 192.385 L 118.649 187.032 L 126.073 187.032 L 126.073 179.014 L 131.713 179.014 L 131.713 179.014 Z  M 154.641 179.014 L 154.641 187.032 L 162.044 187.032 L 162.044 192.385 L 154.641 192.385 L 154.641 200.752 L 149.001 200.752 L 149.001 192.385 L 141.577 192.385 L 141.577 187.032 L 149.001 187.032 L 149.001 179.014 L 154.641 179.014 L 154.641 179.014 Z " fill-rule="evenodd" fill="rgb(255,255,255)"/><path d=" M 99.44 104.96 L 99.44 104.96 L 99.44 104.96 Q 94.82 104.96 92.36 107.78 L 92.36 107.78 L 92.36 107.78 Q 89.9 110.6 89.9 115.76 L 89.9 115.76 L 89.9 115.76 Q 89.9 120.98 92.63 123.8 L 92.63 123.8 L 92.63 123.8 Q 95.36 126.62 99.98 126.62 L 99.98 126.62 L 99.98 126.62 Q 102.44 126.62 104.15 125.96 L 104.15 125.96 L 104.15 125.96 Q 105.86 125.3 107.42 124.46 L 107.42 124.46 L 107.42 124.46 Q 108.44 125.3 109.01 126.47 L 109.01 126.47 L 109.01 126.47 Q 109.58 127.64 109.58 129.2 L 109.58 129.2 L 109.58 129.2 Q 109.58 131.66 106.85 133.37 L 106.85 133.37 L 106.85 133.37 Q 104.12 135.08 98.54 135.08 L 98.54 135.08 L 98.54 135.08 Q 94.52 135.08 90.98 133.94 L 90.98 133.94 L 90.98 133.94 Q 87.44 132.8 84.8 130.43 L 84.8 130.43 L 84.8 130.43 Q 82.16 128.06 80.63 124.43 L 80.63 124.43 L 80.63 124.43 Q 79.1 120.8 79.1 115.76 L 79.1 115.76 L 79.1 115.76 Q 79.1 111.08 80.57 107.51 L 80.57 107.51 L 80.57 107.51 Q 82.04 103.94 84.59 101.48 L 84.59 101.48 L 84.59 101.48 Q 87.14 99.02 90.56 97.76 L 90.56 97.76 L 90.56 97.76 Q 93.98 96.5 97.88 96.5 L 97.88 96.5 L 97.88 96.5 Q 103.4 96.5 106.43 98.3 L 106.43 98.3 L 106.43 98.3 Q 109.46 100.1 109.46 102.92 L 109.46 102.92 L 109.46 102.92 Q 109.46 104.48 108.68 105.62 L 108.68 105.62 L 108.68 105.62 Q 107.9 106.76 106.88 107.42 L 106.88 107.42 L 106.88 107.42 Q 105.32 106.4 103.55 105.68 L 103.55 105.68 L 103.55 105.68 Q 101.78 104.96 99.44 104.96 Z  M 132.32 120.68 L 132.32 131 L 132.32 131 Q 131.84 131.24 130.55 131.39 L 130.55 131.39 L 130.55 131.39 Q 129.26 131.54 128.06 131.54 L 128.06 131.54 L 128.06 131.54 Q 125.6 131.54 124.34 130.73 L 124.34 130.73 L 124.34 130.73 Q 123.08 129.92 123.08 127.28 L 123.08 127.28 L 123.08 120.68 L 114.02 120.68 L 114.02 120.68 Q 113.6 120.02 113.33 118.94 L 113.33 118.94 L 113.33 118.94 Q 113.06 117.86 113.06 116.78 L 113.06 116.78 L 113.06 116.78 Q 113.06 114.62 114.02 113.63 L 114.02 113.63 L 114.02 113.63 Q 114.98 112.64 116.6 112.64 L 116.6 112.64 L 123.08 112.64 L 123.08 102.56 L 123.08 102.56 Q 123.68 102.38 124.91 102.17 L 124.91 102.17 L 124.91 102.17 Q 126.14 101.96 127.34 101.96 L 127.34 101.96 L 127.34 101.96 Q 129.74 101.96 131.03 102.8 L 131.03 102.8 L 131.03 102.8 Q 132.32 103.64 132.32 106.34 L 132.32 106.34 L 132.32 112.64 L 141.2 112.64 L 141.2 112.64 Q 141.5 113.36 141.83 114.41 L 141.83 114.41 L 141.83 114.41 Q 142.16 115.46 142.16 116.6 L 142.16 116.6 L 142.16 116.6 Q 142.16 118.7 141.2 119.69 L 141.2 119.69 L 141.2 119.69 Q 140.24 120.68 138.68 120.68 L 138.68 120.68 L 132.32 120.68 L 132.32 120.68 Z  M 165.02 120.68 L 165.02 131 L 165.02 131 Q 164.54 131.24 163.25 131.39 L 163.25 131.39 L 163.25 131.39 Q 161.96 131.54 160.76 131.54 L 160.76 131.54 L 160.76 131.54 Q 158.3 131.54 157.04 130.73 L 157.04 130.73 L 157.04 130.73 Q 155.78 129.92 155.78 127.28 L 155.78 127.28 L 155.78 120.68 L 146.72 120.68 L 146.72 120.68 Q 146.3 120.02 146.03 118.94 L 146.03 118.94 L 146.03 118.94 Q 145.76 117.86 145.76 116.78 L 145.76 116.78 L 145.76 116.78 Q 145.76 114.62 146.72 113.63 L 146.72 113.63 L 146.72 113.63 Q 147.68 112.64 149.3 112.64 L 149.3 112.64 L 155.78 112.64 L 155.78 102.56 L 155.78 102.56 Q 156.38 102.38 157.61 102.17 L 157.61 102.17 L 157.61 102.17 Q 158.84 101.96 160.04 101.96 L 160.04 101.96 L 160.04 101.96 Q 162.44 101.96 163.73 102.8 L 163.73 102.8 L 163.73 102.8 Q 165.02 103.64 165.02 106.34 L 165.02 106.34 L 165.02 112.64 L 173.9 112.64 L 173.9 112.64 Q 174.2 113.36 174.53 114.41 L 174.53 114.41 L 174.53 114.41 Q 174.86 115.46 174.86 116.6 L 174.86 116.6 L 174.86 116.6 Q 174.86 118.7 173.9 119.69 L 173.9 119.69 L 173.9 119.69 Q 172.94 120.68 171.38 120.68 L 171.38 120.68 L 165.02 120.68 L 165.02 120.68 Z " fill-rule="evenodd" fill="rgb(55,85,134)"/></g></svg>