<?xml version="1.0" standalone="no"?><!-- Generator: Gravit.io --><svg xmlns="http://www.w3.org/2000/svg" xmlns:xlink="http://www.w3.org/1999/xlink" style="isolation:isolate" viewBox="0 0 256 256" width="256" height="256"><defs><clipPath id="_clipPath_pX2EhZDKziZLF2vOxfDVJTvLoAu4tTxA"><rect width="256" height="256"/></clipPath></defs><g clip-path="url(#_clipPath_pX2EhZDKziZLF2vOxfDVJTvLoAu4tTxA)"><rect width="256" height="256" style="fill:rgb(0,0,0)" fill-opacity="0"/><g><g><path d=" M 156.239 40 L 65.027 40 C 62.487 40 60.429 42.059 60.429 46.053 L 60.429 212.857 C 60.429 213.941 62.487 216 65.027 216 L 190.973 216 C 193.513 216 195.571 213.941 195.571 212.857 L 195.571 80.788 C 195.571 78.601 195.279 77.897 194.764 77.378 L 158.193 40.808 C 157.675 40.292 156.971 40 156.239 40 Z " fill="rgb(233,233,224)"/><path d=" M 157.857 40.475 L 157.857 77.714 L 195.097 77.714 L 157.857 40.475 Z " fill="rgb(217,215,202)"/><path d=" M 190.973 216 L 65.027 216 C 62.487 216 60.429 213.941 60.429 211.402 L 60.429 162.571 L 195.571 162.571 L 195.571 211.402 C 195.571 213.941 193.513 216 190.973 216 Z " fill="rgb(229,126,37)"/><path d=" M 183 109.143 L 183 90.286 L 164.143 90.286 L 164.143 96.571 L 145.286 96.571 L 145.286 84 L 113.857 84 L 113.857 96.571 L 95 96.571 L 95 90.286 L 76.143 90.286 L 76.143 109.143 L 95 109.143 L 95 102.857 L 106.151 102.857 C 91.801 111.142 82.429 126.705 82.429 143.714 C 82.429 145.449 83.833 146.857 85.571 146.857 C 87.309 146.857 88.714 145.449 88.714 143.714 C 88.714 127.227 98.863 112.289 113.857 106.016 L 113.857 115.429 L 145.286 115.429 L 145.286 106.016 C 160.28 112.292 170.429 127.23 170.429 143.714 C 170.429 145.449 171.833 146.857 173.571 146.857 C 175.309 146.857 176.714 145.449 176.714 143.714 C 176.714 126.705 167.342 111.142 152.992 102.857 L 164.143 102.857 L 164.143 109.143 L 183 109.143 Z  M 88.714 102.857 L 82.429 102.857 L 82.429 96.571 L 88.714 96.571 L 88.714 102.857 Z  M 139 109.143 L 120.143 109.143 L 120.143 97.345 L 120.143 90.286 L 139 90.286 L 139 97.345 L 139 109.143 Z  M 170.429 96.571 L 176.714 96.571 L 176.714 102.857 L 170.429 102.857 L 170.429 96.571 Z " fill="rgb(200,189,184)"/></g></g><path d=" M 109.131 185.986 L 109.131 190.806 L 97.318 190.806 L 97.318 198.804 L 111.182 198.804 L 111.182 203.746 L 91.166 203.746 L 91.166 173.887 L 111.141 173.887 L 111.141 178.87 L 97.318 178.87 L 97.318 185.986 L 109.131 185.986 L 109.131 185.986 Z  M 126.337 193.226 L 120.943 193.226 L 120.943 203.746 L 114.791 203.746 L 114.791 173.887 L 126.439 173.887 L 126.439 173.887 Q 129.803 173.887 132.356 175.117 L 132.356 175.117 L 132.356 175.117 Q 134.909 176.348 136.283 178.614 L 136.283 178.614 L 136.283 178.614 Q 137.657 180.88 137.657 183.771 L 137.657 183.771 L 137.657 183.771 Q 137.657 188.16 134.653 190.693 L 134.653 190.693 L 134.653 190.693 Q 131.648 193.226 126.337 193.226 L 126.337 193.226 L 126.337 193.226 Z  M 120.943 178.87 L 120.943 188.242 L 126.439 188.242 L 126.439 188.242 Q 128.88 188.242 130.162 187.094 L 130.162 187.094 L 130.162 187.094 Q 131.443 185.945 131.443 183.813 L 131.443 183.813 L 131.443 183.813 Q 131.443 181.618 130.151 180.265 L 130.151 180.265 L 130.151 180.265 Q 128.859 178.911 126.583 178.87 L 126.583 178.87 L 120.943 178.87 L 120.943 178.87 Z  M 157.365 195.912 L 157.365 195.912 L 157.365 195.912 Q 157.365 194.169 156.135 193.236 L 156.135 193.236 L 156.135 193.236 Q 154.904 192.303 151.705 191.267 L 151.705 191.267 L 151.705 191.267 Q 148.506 190.231 146.64 189.227 L 146.64 189.227 L 146.64 189.227 Q 141.554 186.479 141.554 181.823 L 141.554 181.823 L 141.554 181.823 Q 141.554 179.403 142.917 177.506 L 142.917 177.506 L 142.917 177.506 Q 144.281 175.609 146.834 174.543 L 146.834 174.543 L 146.834 174.543 Q 149.388 173.477 152.566 173.477 L 152.566 173.477 L 152.566 173.477 Q 155.766 173.477 158.268 174.635 L 158.268 174.635 L 158.268 174.635 Q 160.77 175.794 162.154 177.906 L 162.154 177.906 L 162.154 177.906 Q 163.538 180.019 163.538 182.705 L 163.538 182.705 L 157.386 182.705 L 157.386 182.705 Q 157.386 180.654 156.094 179.516 L 156.094 179.516 L 156.094 179.516 Q 154.802 178.378 152.464 178.378 L 152.464 178.378 L 152.464 178.378 Q 150.208 178.378 148.957 179.332 L 148.957 179.332 L 148.957 179.332 Q 147.706 180.285 147.706 181.844 L 147.706 181.844 L 147.706 181.844 Q 147.706 183.3 149.172 184.284 L 149.172 184.284 L 149.172 184.284 Q 150.639 185.269 153.489 186.13 L 153.489 186.13 L 153.489 186.13 Q 158.739 187.709 161.139 190.047 L 161.139 190.047 L 161.139 190.047 Q 163.538 192.385 163.538 195.871 L 163.538 195.871 L 163.538 195.871 Q 163.538 199.747 160.605 201.952 L 160.605 201.952 L 160.605 201.952 Q 157.673 204.156 152.71 204.156 L 152.71 204.156 L 152.71 204.156 Q 149.265 204.156 146.435 202.895 L 146.435 202.895 L 146.435 202.895 Q 143.604 201.634 142.118 199.439 L 142.118 199.439 L 142.118 199.439 Q 140.631 197.245 140.631 194.354 L 140.631 194.354 L 146.804 194.354 L 146.804 194.354 Q 146.804 199.296 152.71 199.296 L 152.71 199.296 L 152.71 199.296 Q 154.904 199.296 156.135 198.404 L 156.135 198.404 L 156.135 198.404 Q 157.365 197.512 157.365 195.912 Z " fill-rule="evenodd" fill="rgb(255,255,255)"/></g></svg>