<?xml version="1.0" standalone="no"?><!-- Generator: Gravit.io --><svg xmlns="http://www.w3.org/2000/svg" xmlns:xlink="http://www.w3.org/1999/xlink" style="isolation:isolate" viewBox="0 0 256 256" width="256" height="256"><defs><clipPath id="_clipPath_g8ot4TI3cAvYvsG3hKIZXTg6Y32xAlLo"><rect width="256" height="256"/></clipPath></defs><g clip-path="url(#_clipPath_g8ot4TI3cAvYvsG3hKIZXTg6Y32xAlLo)"><rect width="256" height="256" style="fill:rgb(0,0,0)" fill-opacity="0"/><g><g><path d=" M 156.239 38 L 65.027 38 C 62.487 38 60.429 40.059 60.429 44.053 L 60.429 210.857 C 60.429 211.941 62.487 214 65.027 214 L 190.973 214 C 193.513 214 195.571 211.941 195.571 210.857 L 195.571 78.788 C 195.571 76.601 195.279 75.897 194.764 75.378 L 158.193 38.808 C 157.675 38.292 156.971 38 156.239 38 Z " fill="rgb(233,233,224)"/><path d=" M 190.973 214 L 65.027 214 C 62.487 214 60.429 211.941 60.429 209.402 L 60.429 160.571 L 195.571 160.571 L 195.571 209.402 C 195.571 211.941 193.513 214 190.973 214 Z " fill="rgb(62,71,83)"/><path d=" M 157.857 38.475 L 157.857 75.714 L 195.097 75.714 L 157.857 38.475 Z " fill="rgb(217,215,202)"/></g></g><path d=" M 114.643 173.887 L 114.643 178.87 L 105.496 178.87 L 105.496 203.746 L 99.344 203.746 L 99.344 178.87 L 90.32 178.87 L 90.32 173.887 L 114.643 173.887 L 114.643 173.887 Z  M 140.626 173.887 L 140.626 178.87 L 131.479 178.87 L 131.479 203.746 L 125.327 203.746 L 125.327 178.87 L 116.304 178.87 L 116.304 173.887 L 140.626 173.887 L 140.626 173.887 Z  M 162.098 186.581 L 162.098 191.544 L 150.285 191.544 L 150.285 203.746 L 144.133 203.746 L 144.133 173.887 L 163.574 173.887 L 163.574 178.87 L 150.285 178.87 L 150.285 186.581 L 162.098 186.581 L 162.098 186.581 Z " fill-rule="evenodd" fill="rgb(255,255,255)"/><path d=" M 119.3 138.07 L 115.626 127.158 L 96.495 127.158 L 92.857 138.07 L 81.255 138.07 L 100.968 85.112 L 111.08 85.112 L 130.903 138.07 L 119.3 138.07 L 119.3 138.07 Z  M 106.024 98.497 L 99.441 118.32 L 112.68 118.32 L 106.024 98.497 L 106.024 98.497 Z  M 168.585 138.07 L 157.964 138.07 L 157.964 138.07 Q 157.236 136.651 156.909 134.542 L 156.909 134.542 L 156.909 134.542 Q 153.09 138.797 146.979 138.797 L 146.979 138.797 L 146.979 138.797 Q 141.196 138.797 137.395 135.451 L 137.395 135.451 L 137.395 135.451 Q 133.594 132.105 133.594 127.013 L 133.594 127.013 L 133.594 127.013 Q 133.594 120.757 138.232 117.411 L 138.232 117.411 L 138.232 117.411 Q 142.869 114.064 151.635 114.028 L 151.635 114.028 L 156.473 114.028 L 156.473 111.773 L 156.473 111.773 Q 156.473 109.045 155.072 107.408 L 155.072 107.408 L 155.072 107.408 Q 153.672 105.771 150.653 105.771 L 150.653 105.771 L 150.653 105.771 Q 147.998 105.771 146.488 107.044 L 146.488 107.044 L 146.488 107.044 Q 144.979 108.317 144.979 110.536 L 144.979 110.536 L 134.467 110.536 L 134.467 110.536 Q 134.467 107.117 136.577 104.207 L 136.577 104.207 L 136.577 104.207 Q 138.687 101.298 142.542 99.643 L 142.542 99.643 L 142.542 99.643 Q 146.397 97.988 151.199 97.988 L 151.199 97.988 L 151.199 97.988 Q 158.473 97.988 162.747 101.643 L 162.747 101.643 L 162.747 101.643 Q 167.021 105.299 167.021 111.918 L 167.021 111.918 L 167.021 128.977 L 167.021 128.977 Q 167.057 134.578 168.585 137.452 L 168.585 137.452 L 168.585 138.07 L 168.585 138.07 Z  M 149.271 130.759 L 149.271 130.759 L 149.271 130.759 Q 151.599 130.759 153.563 129.723 L 153.563 129.723 L 153.563 129.723 Q 155.527 128.686 156.473 126.94 L 156.473 126.94 L 156.473 120.175 L 152.544 120.175 L 152.544 120.175 Q 144.652 120.175 144.142 125.631 L 144.142 125.631 L 144.106 126.249 L 144.106 126.249 Q 144.106 128.213 145.488 129.486 L 145.488 129.486 L 145.488 129.486 Q 146.87 130.759 149.271 130.759 Z " fill-rule="evenodd" fill="rgb(200,189,184)"/></g></svg>