<?xml version="1.0" standalone="no"?><!-- Generator: Gravit.io --><svg xmlns="http://www.w3.org/2000/svg" xmlns:xlink="http://www.w3.org/1999/xlink" style="isolation:isolate" viewBox="0 0 256 256" width="256" height="256"><defs><clipPath id="_clipPath_DIUxPpL1A4o6jIKxrY3KVZ5F1CHA2mKL"><rect width="256" height="256"/></clipPath></defs><g clip-path="url(#_clipPath_DIUxPpL1A4o6jIKxrY3KVZ5F1CHA2mKL)"><rect width="256" height="256" style="fill:rgb(0,0,0)" fill-opacity="0"/><g><g><path d=" M 156.239 40 L 65.027 40 C 62.487 40 60.429 42.059 60.429 46.053 L 60.429 212.857 C 60.429 213.941 62.487 216 65.027 216 L 190.973 216 C 193.513 216 195.571 213.941 195.571 212.857 L 195.571 80.788 C 195.571 78.601 195.279 77.897 194.764 77.378 L 158.193 40.808 C 157.675 40.292 156.971 40 156.239 40 Z " fill="rgb(233,233,224)"/><path d=" M 190.973 216 L 65.027 216 C 62.487 216 60.429 213.941 60.429 211.402 L 60.429 162.571 L 195.571 162.571 L 195.571 211.402 C 195.571 213.941 193.513 216 190.973 216 Z " fill="rgb(255,193,79)"/><path d=" M 128.095 203.746 L 126.023 197.594 L 115.236 197.594 L 113.186 203.746 L 106.644 203.746 L 117.759 173.887 L 123.46 173.887 L 134.637 203.746 L 128.095 203.746 L 128.095 203.746 Z  M 120.609 181.434 L 116.897 192.61 L 124.362 192.61 L 120.609 181.434 L 120.609 181.434 Z  M 143.968 173.887 L 143.968 203.746 L 137.815 203.746 L 137.815 173.887 L 143.968 173.887 L 143.968 173.887 Z " fill-rule="evenodd" fill="rgb(255,255,255)"/><path d=" M 157.857 74.571 L 157.857 76.02 C 148.205 79.063 140.562 86.649 137.422 96.26 C 135.263 94.516 132.557 93.429 129.571 93.429 C 123.729 93.429 118.851 97.451 117.446 102.857 L 107.571 102.857 L 107.571 96.571 L 88.714 96.571 L 88.714 115.429 L 107.571 115.429 L 107.571 109.143 L 116.752 109.143 C 115.696 117.512 110.513 124.788 102.958 128.512 C 100.858 124.493 96.697 121.714 91.857 121.714 C 84.924 121.714 79.286 127.353 79.286 134.286 C 79.286 141.219 84.924 146.857 91.857 146.857 C 98.602 146.857 104.077 141.508 104.372 134.836 C 112.716 131.218 118.977 124.191 121.733 115.749 C 123.889 117.487 126.592 118.571 129.571 118.571 C 135.414 118.571 140.292 114.549 141.697 109.143 L 151.571 109.143 L 151.571 115.429 L 170.429 115.429 L 170.429 96.571 L 151.571 96.571 L 151.571 102.857 L 142.36 102.857 C 143.551 93.369 150.041 85.527 158.772 82.372 C 160.632 87.001 165.142 90.286 170.429 90.286 C 177.362 90.286 183 84.647 183 77.714 L 183 74.571 L 157.857 74.571 Z  M 101.286 109.143 L 95 109.143 L 95 102.857 L 101.286 102.857 L 101.286 109.143 Z  M 91.857 140.571 C 88.391 140.571 85.571 137.752 85.571 134.286 C 85.571 130.819 88.391 128 91.857 128 C 95.324 128 98.143 130.819 98.143 134.286 C 98.143 137.752 95.324 140.571 91.857 140.571 Z  M 157.857 102.857 L 164.143 102.857 L 164.143 109.143 L 157.857 109.143 L 157.857 102.857 Z  M 129.571 112.286 C 126.105 112.286 123.286 109.467 123.286 106 C 123.286 102.533 126.105 99.714 129.571 99.714 C 133.038 99.714 135.857 102.533 135.857 106 C 135.857 109.467 133.038 112.286 129.571 112.286 Z  M 170.429 84 C 168.156 84 166.176 82.777 165.073 80.97 C 165.802 80.904 166.538 80.857 167.286 80.857 L 175.869 80.857 C 174.785 82.733 172.751 84 170.429 84 Z " fill="rgb(200,189,184)"/><path d=" M 157.857 40.475 L 157.857 77.714 L 195.097 77.714 L 157.857 40.475 Z " fill="rgb(217,215,202)"/></g></g></g></svg>