<?xml version="1.0" standalone="no"?><!-- Generator: Gravit.io --><svg xmlns="http://www.w3.org/2000/svg" xmlns:xlink="http://www.w3.org/1999/xlink" style="isolation:isolate" viewBox="0 0 256 256" width="256" height="256"><defs><clipPath id="_clipPath_eMGLtDmIvhgzWzMJn5Zi3pkjzRQYkoFv"><rect width="256" height="256"/></clipPath></defs><g clip-path="url(#_clipPath_eMGLtDmIvhgzWzMJn5Zi3pkjzRQYkoFv)"><rect width="256" height="256" style="fill:rgb(0,0,0)" fill-opacity="0"/><path d=" M 156.239 40 L 65.027 40 C 62.487 40 60.429 42.059 60.429 46.053 L 60.429 212.857 C 60.429 213.941 62.487 216 65.027 216 L 190.973 216 C 193.513 216 195.571 213.941 195.571 212.857 L 195.571 80.788 C 195.571 78.601 195.279 77.897 194.764 77.378 L 158.193 40.808 C 157.675 40.292 156.971 40 156.239 40 Z " fill="rgb(233,233,224)"/><path d=" M 157.857 40.475 L 157.857 77.714 L 195.097 77.714 L 157.857 40.475 Z " fill="rgb(217,215,202)"/><path d=" M 190.973 216 L 65.027 216 C 62.487 216 60.429 213.941 60.429 211.402 L 60.429 162.571 L 195.571 162.571 L 195.571 211.402 C 195.571 213.941 193.513 216 190.973 216 Z " fill="rgb(74,134,232)"/><path d=" M 157.767 134.37 L 157.767 104.603 Q 156.526 105.999 155.092 107.161 Q 144.705 115.146 138.581 120.262 Q 136.604 121.929 135.364 122.859 Q 134.124 123.789 132.012 124.739 Q 129.899 125.688 128.039 125.688 L 127.961 125.688 Q 126.101 125.688 123.988 124.739 Q 121.876 123.789 120.636 122.859 Q 119.396 121.929 117.419 120.262 Q 111.295 115.146 100.908 107.161 Q 99.474 105.999 98.233 104.603 L 98.233 134.37 Q 98.233 134.874 98.602 135.242 Q 98.97 135.61 99.474 135.61 L 156.526 135.61 Q 157.03 135.61 157.398 135.242 Q 157.767 134.874 157.767 134.37 Z  M 157.767 93.635 L 157.767 92.685 L 157.747 92.181 L 157.631 91.697 L 157.418 91.348 L 157.069 91.057 L 156.526 90.96 L 99.474 90.96 Q 98.97 90.96 98.602 91.329 Q 98.233 91.697 98.233 92.201 Q 98.233 98.712 103.931 103.208 Q 111.411 109.099 119.473 115.495 Q 119.706 115.688 120.83 116.638 Q 121.954 117.588 122.613 118.091 Q 123.271 118.595 124.337 119.312 Q 125.403 120.029 126.295 120.378 Q 127.186 120.727 127.961 120.727 L 128.039 120.727 Q 128.814 120.727 129.705 120.378 Q 130.597 120.029 131.663 119.312 Q 132.729 118.595 133.387 118.091 Q 134.046 117.588 135.17 116.638 Q 136.294 115.688 136.527 115.495 Q 144.589 109.099 152.069 103.208 Q 154.162 101.541 155.964 98.731 Q 157.767 95.921 157.767 93.635 Z  M 162.728 92.201 L 162.728 134.37 Q 162.728 136.928 160.906 138.75 Q 159.084 140.571 156.526 140.571 L 99.474 140.571 Q 96.916 140.571 95.094 138.75 Q 93.272 136.928 93.272 134.37 L 93.272 92.201 Q 93.272 89.643 95.094 87.821 Q 96.916 85.999 99.474 85.999 L 156.526 85.999 Q 159.084 85.999 160.906 87.821 Q 162.728 89.643 162.728 92.201 Z " fill="rgb(74,134,232)"/><path d=" M 105.631 185.881 L 105.631 190.701 L 93.818 190.701 L 93.818 198.699 L 107.682 198.699 L 107.682 203.641 L 87.666 203.641 L 87.666 173.782 L 107.641 173.782 L 107.641 178.765 L 93.818 178.765 L 93.818 185.881 L 105.631 185.881 L 105.631 185.881 Z  M 111.291 173.782 L 119.33 173.782 L 127 195.438 L 134.629 173.782 L 142.709 173.782 L 142.709 203.641 L 136.536 203.641 L 136.536 195.479 L 137.151 181.39 L 129.092 203.641 L 124.867 203.641 L 116.828 181.411 L 117.443 195.479 L 117.443 203.641 L 111.291 203.641 L 111.291 173.782 L 111.291 173.782 Z  M 154.234 173.782 L 154.234 198.699 L 167.298 198.699 L 167.298 203.641 L 148.082 203.641 L 148.082 173.782 L 154.234 173.782 L 154.234 173.782 Z " fill-rule="evenodd" fill="rgb(255,255,255)"/></g></svg>