<?xml version="1.0" standalone="no"?><!-- Generator: Gravit.io --><svg xmlns="http://www.w3.org/2000/svg" xmlns:xlink="http://www.w3.org/1999/xlink" style="isolation:isolate" viewBox="0 0 256 256" width="256" height="256"><defs><clipPath id="_clipPath_2IuqJwMePGGPEksxk56V3JdmHKDktmlJ"><rect width="256" height="256"/></clipPath></defs><g clip-path="url(#_clipPath_2IuqJwMePGGPEksxk56V3JdmHKDktmlJ)"><rect width="256" height="256" style="fill:rgb(0,0,0)" fill-opacity="0"/><g><g><path d=" M 156.239 40 L 65.027 40 C 62.487 40 60.429 42.059 60.429 46.053 L 60.429 212.857 C 60.429 213.941 62.487 216 65.027 216 L 190.973 216 C 193.513 216 195.571 213.941 195.571 212.857 L 195.571 80.788 C 195.571 78.601 195.279 77.897 194.764 77.378 L 158.193 40.808 C 157.675 40.292 156.971 40 156.239 40 Z " fill="rgb(233,233,224)"/><path d=" M 157.857 40.475 L 157.857 77.714 L 195.097 77.714 L 157.857 40.475 Z " fill="rgb(217,215,202)"/><path d=" M 190.973 216 L 65.027 216 C 62.487 216 60.429 213.941 60.429 211.402 L 60.429 162.571 L 195.571 162.571 L 195.571 211.402 C 195.571 213.941 193.513 216 190.973 216 Z " fill="rgb(206,60,59)"/><circle vector-effect="non-scaling-stroke" cx="120.14285714285714" cy="90.28571428571439" r="6.285714285714278" fill="rgb(200,189,184)"/><g><path d=" M 149.953 83.777 L 147.731 81.555 C 141.203 75.024 132.519 71.429 123.286 71.429 C 114.052 71.429 105.368 75.024 98.841 81.555 C 92.31 88.083 88.714 96.766 88.714 106 C 88.714 115.234 92.31 123.917 98.841 130.445 C 105.368 136.976 114.052 140.571 123.286 140.571 C 132.519 140.571 141.203 136.976 147.731 130.445 L 149.953 128.223 L 127.73 106 L 149.953 83.777 Z  M 140.942 128.101 C 135.945 132.111 129.782 134.286 123.286 134.286 C 115.73 134.286 108.627 131.344 103.285 126.001 C 97.942 120.658 95 113.555 95 106 C 95 98.445 97.942 91.342 103.285 85.999 C 108.627 80.656 115.73 77.714 123.286 77.714 C 129.782 77.714 135.945 79.889 140.942 83.899 L 118.842 106 L 140.942 128.101 Z " fill="rgb(200,189,184)"/><path d=" M 151.571 102.857 L 142.143 102.857 C 140.405 102.857 139 104.262 139 106 C 139 107.738 140.405 109.143 142.143 109.143 L 151.571 109.143 C 153.309 109.143 154.714 107.738 154.714 106 C 154.714 104.262 153.309 102.857 151.571 102.857 Z " fill="rgb(200,189,184)"/><path d=" M 170.429 102.857 L 164.143 102.857 C 162.405 102.857 161 104.262 161 106 C 161 107.738 162.405 109.143 164.143 109.143 L 170.429 109.143 C 172.167 109.143 173.571 107.738 173.571 106 C 173.571 104.262 172.167 102.857 170.429 102.857 Z " fill="rgb(200,189,184)"/></g></g></g><path d=" M 110.131 186.581 L 110.131 191.544 L 98.318 191.544 L 98.318 203.746 L 92.166 203.746 L 92.166 173.887 L 111.607 173.887 L 111.607 178.87 L 98.318 178.87 L 98.318 186.581 L 110.131 186.581 L 110.131 186.581 Z  M 121.328 173.887 L 121.328 198.804 L 134.392 198.804 L 134.392 203.746 L 115.176 203.746 L 115.176 173.887 L 121.328 173.887 L 121.328 173.887 Z  M 156.848 203.746 L 154.776 197.594 L 143.989 197.594 L 141.938 203.746 L 135.396 203.746 L 146.512 173.887 L 152.213 173.887 L 163.39 203.746 L 156.848 203.746 L 156.848 203.746 Z  M 149.362 181.434 L 145.65 192.61 L 153.115 192.61 L 149.362 181.434 L 149.362 181.434 Z " fill-rule="evenodd" fill="rgb(255,255,255)"/></g></svg>