<?xml version="1.0" standalone="no"?><!-- Generator: Gravit.io --><svg xmlns="http://www.w3.org/2000/svg" xmlns:xlink="http://www.w3.org/1999/xlink" style="isolation:isolate" viewBox="0 0 256 256" width="256" height="256"><defs><clipPath id="_clipPath_keYyWPD9oUxwuZntTigMo8VQ9JBqfiet"><rect width="256" height="256"/></clipPath></defs><g clip-path="url(#_clipPath_keYyWPD9oUxwuZntTigMo8VQ9JBqfiet)"><rect width="256" height="256" style="fill:rgb(0,0,0)" fill-opacity="0"/><g><g><path d=" M 156.239 40 L 65.027 40 C 62.487 40 60.429 42.059 60.429 46.053 L 60.429 212.857 C 60.429 213.941 62.487 216 65.027 216 L 190.973 216 C 193.513 216 195.571 213.941 195.571 212.857 L 195.571 80.788 C 195.571 78.601 195.279 77.897 194.764 77.378 L 158.193 40.808 C 157.675 40.292 156.971 40 156.239 40 Z " fill="rgb(233,233,224)"/><path d=" M 157.857 40.475 L 157.857 77.714 L 195.097 77.714 L 157.857 40.475 Z " fill="rgb(217,215,202)"/><path d=" M 190.973 216 L 65.027 216 C 62.487 216 60.429 213.941 60.429 211.402 L 60.429 162.571 L 195.571 162.571 L 195.571 211.402 C 195.571 213.941 193.513 216 190.973 216 Z " fill="rgb(229,126,37)"/><path d=" M 183 109.143 L 183 90.286 L 164.143 90.286 L 164.143 96.571 L 145.286 96.571 L 145.286 84 L 113.857 84 L 113.857 96.571 L 95 96.571 L 95 90.286 L 76.143 90.286 L 76.143 109.143 L 95 109.143 L 95 102.857 L 106.151 102.857 C 91.801 111.142 82.429 126.705 82.429 143.714 C 82.429 145.449 83.833 146.857 85.571 146.857 C 87.309 146.857 88.714 145.449 88.714 143.714 C 88.714 127.227 98.863 112.289 113.857 106.016 L 113.857 115.429 L 145.286 115.429 L 145.286 106.016 C 160.28 112.292 170.429 127.23 170.429 143.714 C 170.429 145.449 171.833 146.857 173.571 146.857 C 175.309 146.857 176.714 145.449 176.714 143.714 C 176.714 126.705 167.342 111.142 152.992 102.857 L 164.143 102.857 L 164.143 109.143 L 183 109.143 Z  M 88.714 102.857 L 82.429 102.857 L 82.429 96.571 L 88.714 96.571 L 88.714 102.857 Z  M 139 109.143 L 120.143 109.143 L 120.143 97.345 L 120.143 90.286 L 139 90.286 L 139 97.345 L 139 109.143 Z  M 170.429 96.571 L 176.714 96.571 L 176.714 102.857 L 170.429 102.857 L 170.429 96.571 Z " fill="rgb(200,189,184)"/></g></g><path d=" M 104.149 195.912 L 104.149 195.912 L 104.149 195.912 Q 104.149 194.169 102.919 193.236 L 102.919 193.236 L 102.919 193.236 Q 101.688 192.303 98.489 191.267 L 98.489 191.267 L 98.489 191.267 Q 95.29 190.231 93.424 189.227 L 93.424 189.227 L 93.424 189.227 Q 88.338 186.479 88.338 181.823 L 88.338 181.823 L 88.338 181.823 Q 88.338 179.403 89.702 177.506 L 89.702 177.506 L 89.702 177.506 Q 91.065 175.609 93.619 174.543 L 93.619 174.543 L 93.619 174.543 Q 96.172 173.477 99.351 173.477 L 99.351 173.477 L 99.351 173.477 Q 102.55 173.477 105.052 174.635 L 105.052 174.635 L 105.052 174.635 Q 107.554 175.794 108.938 177.906 L 108.938 177.906 L 108.938 177.906 Q 110.322 180.019 110.322 182.705 L 110.322 182.705 L 104.17 182.705 L 104.17 182.705 Q 104.17 180.654 102.878 179.516 L 102.878 179.516 L 102.878 179.516 Q 101.586 178.378 99.248 178.378 L 99.248 178.378 L 99.248 178.378 Q 96.992 178.378 95.741 179.332 L 95.741 179.332 L 95.741 179.332 Q 94.49 180.285 94.49 181.844 L 94.49 181.844 L 94.49 181.844 Q 94.49 183.3 95.957 184.284 L 95.957 184.284 L 95.957 184.284 Q 97.423 185.269 100.273 186.13 L 100.273 186.13 L 100.273 186.13 Q 105.523 187.709 107.923 190.047 L 107.923 190.047 L 107.923 190.047 Q 110.322 192.385 110.322 195.871 L 110.322 195.871 L 110.322 195.871 Q 110.322 199.747 107.39 201.952 L 107.39 201.952 L 107.39 201.952 Q 104.457 204.156 99.494 204.156 L 99.494 204.156 L 99.494 204.156 Q 96.049 204.156 93.219 202.895 L 93.219 202.895 L 93.219 202.895 Q 90.389 201.634 88.902 199.439 L 88.902 199.439 L 88.902 199.439 Q 87.415 197.245 87.415 194.354 L 87.415 194.354 L 93.588 194.354 L 93.588 194.354 Q 93.588 199.296 99.494 199.296 L 99.494 199.296 L 99.494 199.296 Q 101.688 199.296 102.919 198.404 L 102.919 198.404 L 102.919 198.404 Q 104.149 197.512 104.149 195.912 Z  M 118.792 173.887 L 125.519 196.343 L 132.286 173.887 L 139.136 173.887 L 128.738 203.746 L 122.319 203.746 L 111.963 173.887 L 118.792 173.887 L 118.792 173.887 Z  M 165.57 188.058 L 165.57 199.973 L 165.57 199.973 Q 163.909 201.962 160.874 203.059 L 160.874 203.059 L 160.874 203.059 Q 157.839 204.156 154.147 204.156 L 154.147 204.156 L 154.147 204.156 Q 150.271 204.156 147.349 202.464 L 147.349 202.464 L 147.349 202.464 Q 144.427 200.772 142.837 197.553 L 142.837 197.553 L 142.837 197.553 Q 141.248 194.333 141.207 189.985 L 141.207 189.985 L 141.207 187.955 L 141.207 187.955 Q 141.207 183.484 142.714 180.213 L 142.714 180.213 L 142.714 180.213 Q 144.222 176.942 147.062 175.209 L 147.062 175.209 L 147.062 175.209 Q 149.902 173.477 153.717 173.477 L 153.717 173.477 L 153.717 173.477 Q 159.028 173.477 162.022 176.009 L 162.022 176.009 L 162.022 176.009 Q 165.017 178.542 165.57 183.382 L 165.57 183.382 L 159.582 183.382 L 159.582 183.382 Q 159.172 180.818 157.767 179.629 L 157.767 179.629 L 157.767 179.629 Q 156.362 178.439 153.901 178.439 L 153.901 178.439 L 153.901 178.439 Q 150.764 178.439 149.123 180.798 L 149.123 180.798 L 149.123 180.798 Q 147.482 183.156 147.462 187.812 L 147.462 187.812 L 147.462 189.719 L 147.462 189.719 Q 147.462 194.415 149.246 196.814 L 149.246 196.814 L 149.246 196.814 Q 151.03 199.214 154.476 199.214 L 154.476 199.214 L 154.476 199.214 Q 157.941 199.214 159.418 197.737 L 159.418 197.737 L 159.418 192.59 L 153.819 192.59 L 153.819 188.058 L 165.57 188.058 L 165.57 188.058 Z " fill-rule="evenodd" fill="rgb(255,255,255)"/></g></svg>