<?xml version="1.0" standalone="no"?><!-- Generator: Gravit.io --><svg xmlns="http://www.w3.org/2000/svg" xmlns:xlink="http://www.w3.org/1999/xlink" style="isolation:isolate" viewBox="0 0 256 256" width="256" height="256"><defs><clipPath id="_clipPath_VbvJtGsXngEkjwHKSnY2rI1LAQin1v85"><rect width="256" height="256"/></clipPath></defs><g clip-path="url(#_clipPath_VbvJtGsXngEkjwHKSnY2rI1LAQin1v85)"><rect width="256" height="256" style="fill:rgb(0,0,0)" fill-opacity="0"/><g><g><path d=" M 156.239 40 L 65.027 40 C 62.487 40 60.429 42.059 60.429 46.053 L 60.429 212.857 C 60.429 213.941 62.487 216 65.027 216 L 190.973 216 C 193.513 216 195.571 213.941 195.571 212.857 L 195.571 80.788 C 195.571 78.601 195.279 77.897 194.764 77.378 L 158.193 40.808 C 157.675 40.292 156.971 40 156.239 40 Z " fill="rgb(233,233,224)"/><path d=" M 157.857 40.475 L 157.857 77.714 L 195.097 77.714 L 157.857 40.475 Z " fill="rgb(217,215,202)"/><path d=" M 190.973 216 L 65.027 216 C 62.487 216 60.429 213.941 60.429 211.402 L 60.429 162.571 L 195.571 162.571 L 195.571 211.402 C 195.571 213.941 193.513 216 190.973 216 Z " fill="rgb(93,93,93)"/></g></g><path d=" M 153.188 107.262 L 144.047 107.262 L 142.184 115.77 L 149.145 115.77 L 149.145 124.77 L 140.215 124.77 L 137.719 135.703 L 128.438 135.703 L 130.934 124.77 L 122.145 124.77 L 119.648 135.703 L 110.367 135.703 L 112.863 124.77 L 105.586 124.77 L 105.586 115.77 L 114.727 115.77 L 116.695 107.262 L 109.629 107.262 L 109.629 98.262 L 118.699 98.262 L 121.02 87.398 L 130.301 87.398 L 127.98 98.262 L 136.77 98.262 L 139.09 87.398 L 148.371 87.398 L 146.051 98.262 L 153.188 98.262 L 153.188 107.262 L 153.188 107.262 Z  M 134.766 107.262 L 125.977 107.262 L 124.043 115.77 L 132.902 115.77 L 134.766 107.262 L 134.766 107.262 Z " fill-rule="evenodd" fill="rgb(93,93,93)"/><path d=" M 119.149 195.912 L 119.149 195.912 L 119.149 195.912 Q 119.149 194.169 117.919 193.236 L 117.919 193.236 L 117.919 193.236 Q 116.688 192.303 113.489 191.267 L 113.489 191.267 L 113.489 191.267 Q 110.29 190.231 108.424 189.227 L 108.424 189.227 L 108.424 189.227 Q 103.338 186.479 103.338 181.823 L 103.338 181.823 L 103.338 181.823 Q 103.338 179.403 104.702 177.506 L 104.702 177.506 L 104.702 177.506 Q 106.065 175.609 108.619 174.543 L 108.619 174.543 L 108.619 174.543 Q 111.172 173.477 114.351 173.477 L 114.351 173.477 L 114.351 173.477 Q 117.55 173.477 120.052 174.635 L 120.052 174.635 L 120.052 174.635 Q 122.554 175.794 123.938 177.906 L 123.938 177.906 L 123.938 177.906 Q 125.322 180.019 125.322 182.705 L 125.322 182.705 L 119.17 182.705 L 119.17 182.705 Q 119.17 180.654 117.878 179.516 L 117.878 179.516 L 117.878 179.516 Q 116.586 178.378 114.248 178.378 L 114.248 178.378 L 114.248 178.378 Q 111.992 178.378 110.741 179.332 L 110.741 179.332 L 110.741 179.332 Q 109.49 180.285 109.49 181.844 L 109.49 181.844 L 109.49 181.844 Q 109.49 183.3 110.957 184.284 L 110.957 184.284 L 110.957 184.284 Q 112.423 185.269 115.273 186.13 L 115.273 186.13 L 115.273 186.13 Q 120.523 187.709 122.923 190.047 L 122.923 190.047 L 122.923 190.047 Q 125.322 192.385 125.322 195.871 L 125.322 195.871 L 125.322 195.871 Q 125.322 199.747 122.39 201.952 L 122.39 201.952 L 122.39 201.952 Q 119.457 204.156 114.494 204.156 L 114.494 204.156 L 114.494 204.156 Q 111.049 204.156 108.219 202.895 L 108.219 202.895 L 108.219 202.895 Q 105.389 201.634 103.902 199.439 L 103.902 199.439 L 103.902 199.439 Q 102.415 197.245 102.415 194.354 L 102.415 194.354 L 108.588 194.354 L 108.588 194.354 Q 108.588 199.296 114.494 199.296 L 114.494 199.296 L 114.494 199.296 Q 116.688 199.296 117.919 198.404 L 117.919 198.404 L 117.919 198.404 Q 119.149 197.512 119.149 195.912 Z  M 153.787 173.887 L 153.787 203.746 L 147.635 203.746 L 147.635 190.949 L 135.638 190.949 L 135.638 203.746 L 129.485 203.746 L 129.485 173.887 L 135.638 173.887 L 135.638 185.986 L 147.635 185.986 L 147.635 173.887 L 153.787 173.887 L 153.787 173.887 Z " fill-rule="evenodd" fill="rgb(255,255,255)"/></g></svg>