<?xml version="1.0" standalone="no"?><!-- Generator: Gravit.io --><svg xmlns="http://www.w3.org/2000/svg" xmlns:xlink="http://www.w3.org/1999/xlink" style="isolation:isolate" viewBox="0 0 256 256" width="256" height="256"><defs><clipPath id="_clipPath_tzb20NZdwmzJtcPrkSM8TiNbSfTIls7F"><rect width="256" height="256"/></clipPath></defs><g clip-path="url(#_clipPath_tzb20NZdwmzJtcPrkSM8TiNbSfTIls7F)"><rect width="256" height="256" style="fill:rgb(0,0,0)" fill-opacity="0"/><path d=" M 156.239 40 L 65.027 40 C 62.487 40 60.429 42.059 60.429 46.053 L 60.429 212.857 C 60.429 213.941 62.487 216 65.027 216 L 190.973 216 C 193.513 216 195.571 213.941 195.571 212.857 L 195.571 80.788 C 195.571 78.601 195.279 77.897 194.764 77.378 L 158.193 40.808 C 157.675 40.292 156.971 40 156.239 40 Z " fill="rgb(233,233,224)"/><path d=" M 157.857 40.475 L 157.857 77.714 L 195.097 77.714 L 157.857 40.475 Z " fill="rgb(217,215,202)"/><path d=" M 190.973 216 L 65.027 216 C 62.487 216 60.429 213.941 60.429 211.402 L 60.429 162.571 L 195.571 162.571 L 195.571 211.402 C 195.571 213.941 193.513 216 190.973 216 Z " fill="rgb(219,56,14)"/><g><g><g><path d=" M 117.928 131.339 C 117.928 131.339 115.03 133.103 119.944 133.607 C 125.866 134.363 129.016 134.237 135.568 132.977 C 135.568 132.977 137.332 134.111 139.726 134.993 C 124.984 141.293 106.336 134.615 117.928 131.339 L 117.928 131.339 Z  M 116.038 123.149 C 116.038 123.149 112.888 125.543 117.802 126.047 C 124.228 126.677 129.268 126.803 137.962 125.039 C 137.962 125.039 139.096 126.299 140.986 126.929 C 123.22 132.221 103.312 127.433 116.038 123.149 L 116.038 123.149 Z  M 150.814 137.513 C 150.814 137.513 152.956 139.277 148.42 140.663 C 139.978 143.183 113.014 143.939 105.453 140.663 C 102.807 139.529 107.848 137.891 109.485 137.639 C 111.124 137.261 112.006 137.261 112.006 137.261 C 109.108 135.245 92.727 141.419 103.689 143.183 C 133.804 148.097 158.627 141.041 150.814 137.513 L 150.814 137.513 Z  M 119.314 114.581 C 119.314 114.581 105.58 117.857 114.4 118.991 C 118.18 119.495 125.614 119.369 132.544 118.865 C 138.214 118.361 143.884 117.353 143.884 117.353 C 143.884 117.353 141.868 118.235 140.482 119.117 C 126.496 122.771 99.657 121.133 107.344 117.353 C 113.896 114.203 119.314 114.581 119.314 114.581 L 119.314 114.581 Z  M 143.884 128.315 C 157.997 121.007 151.445 113.951 146.908 114.833 C 145.774 115.085 145.27 115.337 145.27 115.337 C 145.27 115.337 145.648 114.581 146.53 114.329 C 155.477 111.179 162.533 123.779 143.632 128.693 C 143.632 128.693 143.758 128.567 143.884 128.315 L 143.884 128.315 Z  M 120.7 148.223 C 134.308 149.105 155.099 147.719 155.603 141.293 C 155.603 141.293 154.595 143.813 144.388 145.703 C 132.796 147.845 118.432 147.593 109.99 146.207 C 109.99 146.207 111.754 147.719 120.7 148.223 L 120.7 148.223 Z " fill="rgb(78,120,150)"/><path d=" M 135.316 73 C 135.316 73 143.128 80.938 127.882 92.908 C 115.66 102.611 125.11 108.155 127.882 114.455 C 120.7 108.029 115.534 102.359 119.062 97.066 C 124.228 89.254 138.466 85.474 135.316 73 L 135.316 73 L 135.316 73 L 135.316 73 Z  M 131.284 109.163 C 134.938 113.321 130.276 117.101 130.276 117.101 C 130.276 117.101 139.6 112.313 135.316 106.391 C 131.41 100.721 128.386 97.949 144.766 88.498 C 144.766 88.498 118.936 94.924 131.284 109.163 L 131.284 109.163 L 131.284 109.163 L 131.284 109.163 Z  M 133.804 176.826 L 129.394 176.826 L 124.102 159.564 L 127.882 159.564 L 131.158 170.148 L 131.914 173.298 C 133.552 168.762 134.812 164.1 135.316 159.564 L 139.096 159.564 C 138.088 165.234 136.324 171.408 133.804 176.826 L 133.804 176.826 L 133.804 176.826 L 133.804 176.826 Z  M 104.446 179.724 C 103.438 181.236 101.925 182.37 100.036 183 L 98.397 180.984 C 99.657 180.228 100.918 179.094 101.421 178.086 C 101.926 177.204 102.052 175.944 102.052 173.046 L 102.052 153.39 L 105.832 153.39 L 105.832 172.794 C 105.832 176.7 105.454 178.212 104.446 179.724 L 104.446 179.724 L 104.446 179.724 L 104.446 179.724 Z  M 121.96 176.826 L 121.96 164.478 C 121.96 161.328 120.196 159.186 115.786 159.186 C 113.266 159.186 111.124 159.816 109.234 160.572 L 109.864 162.84 C 111.25 162.336 113.014 161.832 114.904 161.832 C 116.101 161.832 116.983 162.084 117.566 162.588 C 118.148 163.092 118.432 163.848 118.432 164.856 L 118.432 166.494 L 117.172 166.494 C 111.124 166.494 108.352 168.762 108.352 172.416 C 108.352 175.44 110.242 177.204 113.644 177.204 C 115.786 177.204 117.424 176.196 118.936 174.936 L 119.188 176.826 L 121.96 176.826 L 121.96 176.826 L 121.96 176.826 L 121.96 176.826 Z  M 118.432 172.794 C 117.172 173.928 115.786 174.558 114.526 174.558 C 112.888 174.558 111.88 173.55 111.88 171.786 C 111.88 170.022 112.888 168.762 116.92 168.762 L 118.432 168.762 L 118.432 172.794 L 118.432 172.794 L 118.432 172.794 L 118.432 172.794 Z  M 154.217 176.826 L 154.217 164.478 C 154.217 161.328 152.453 159.186 148.042 159.186 C 145.522 159.186 143.38 159.816 141.49 160.572 L 141.994 162.84 C 143.506 162.336 145.27 161.832 147.16 161.832 C 149.555 161.832 150.689 162.84 150.689 164.856 L 150.689 166.494 L 149.429 166.494 C 143.38 166.494 140.608 168.762 140.608 172.416 C 140.608 175.44 142.372 177.204 145.774 177.204 C 148.042 177.204 149.681 176.196 151.193 174.936 L 151.445 176.826 L 154.217 176.826 L 154.217 176.826 L 154.217 176.826 L 154.217 176.826 Z  M 150.689 172.794 C 149.429 173.928 148.042 174.558 146.782 174.558 C 145.144 174.558 144.136 173.55 144.136 171.786 C 144.136 170.022 145.144 168.762 149.176 168.762 L 150.688 168.762 L 150.688 172.794 L 150.689 172.794 L 150.689 172.794 L 150.689 172.794 Z " fill="rgb(245,130,25)"/></g></g></g><rect x="98.397" y="162.571" width="57.205" height="20.429" transform="matrix(1,0,0,1,0,0)" fill="rgb(219,56,14)"/><rect x="99.397" y="151" width="57.205" height="11.571" transform="matrix(1,0,0,1,0,0)" fill="rgb(233,233,224)"/><rect x="-294" y="289" width="86" height="29" transform="matrix(1,0,0,1,0,0)" fill="rgb(235,235,235)"/><path d=" M 87.704 194.454 L 87.704 173.782 L 93.856 173.782 L 93.856 194.454 L 93.856 194.454 Q 93.856 197.304 92.595 199.488 L 92.595 199.488 L 92.595 199.488 Q 91.334 201.672 89.037 202.862 L 89.037 202.862 L 89.037 202.862 Q 86.74 204.051 83.849 204.051 L 83.849 204.051 L 83.849 204.051 Q 79.111 204.051 76.466 201.642 L 76.466 201.642 L 76.466 201.642 Q 73.82 199.232 73.82 194.823 L 73.82 194.823 L 80.014 194.823 L 80.014 194.823 Q 80.014 197.017 80.937 198.063 L 80.937 198.063 L 80.937 198.063 Q 81.859 199.109 83.849 199.109 L 83.849 199.109 L 83.849 199.109 Q 85.612 199.109 86.658 197.899 L 86.658 197.899 L 86.658 197.899 Q 87.704 196.689 87.704 194.454 L 87.704 194.454 L 87.704 194.454 Z  M 118.056 203.641 L 115.984 197.489 L 105.197 197.489 L 103.146 203.641 L 96.604 203.641 L 107.72 173.782 L 113.421 173.782 L 124.598 203.641 L 118.056 203.641 L 118.056 203.641 Z  M 110.57 181.329 L 106.858 192.505 L 114.323 192.505 L 110.57 181.329 L 110.57 181.329 Z  M 131.693 173.782 L 138.42 196.238 L 145.188 173.782 L 152.037 173.782 L 141.64 203.641 L 135.221 203.641 L 124.864 173.782 L 131.693 173.782 L 131.693 173.782 Z  M 173.775 203.641 L 171.704 197.489 L 160.917 197.489 L 158.866 203.641 L 152.324 203.641 L 163.439 173.782 L 169.141 173.782 L 180.317 203.641 L 173.775 203.641 L 173.775 203.641 Z  M 166.29 181.329 L 162.578 192.505 L 170.043 192.505 L 166.29 181.329 L 166.29 181.329 Z " fill-rule="evenodd" fill="rgb(255,255,255)"/></g></svg>