<?xml version="1.0" standalone="no"?><!-- Generator: Gravit.io --><svg xmlns="http://www.w3.org/2000/svg" xmlns:xlink="http://www.w3.org/1999/xlink" style="isolation:isolate" viewBox="0 0 256 256" width="256" height="256"><defs><clipPath id="_clipPath_TQmEGhsjtrLEyjf6zmhvf3bpAZU65XHf"><rect width="256" height="256"/></clipPath></defs><g clip-path="url(#_clipPath_TQmEGhsjtrLEyjf6zmhvf3bpAZU65XHf)"><rect width="256" height="256" style="fill:rgb(0,0,0)" fill-opacity="0"/><g><g><path d=" M 156.239 40 L 65.027 40 C 62.487 40 60.429 42.059 60.429 46.053 L 60.429 212.857 C 60.429 213.941 62.487 216 65.027 216 L 190.973 216 C 193.513 216 195.571 213.941 195.571 212.857 L 195.571 80.788 C 195.571 78.601 195.279 77.897 194.764 77.378 L 158.193 40.808 C 157.675 40.292 156.971 40 156.239 40 Z " fill="rgb(233,233,224)"/><path d=" M 157.857 40.475 L 157.857 77.714 L 195.097 77.714 L 157.857 40.475 Z " fill="rgb(217,215,202)"/><path d=" M 190.973 216 L 65.027 216 C 62.487 216 60.429 213.941 60.429 211.402 L 60.429 162.571 L 195.571 162.571 L 195.571 211.402 C 195.571 213.941 193.513 216 190.973 216 Z " fill="rgb(93,93,93)"/><g><path d=" M 112.936 91.207 C 111.707 89.978 109.721 89.978 108.492 91.207 L 89.635 110.064 C 88.406 111.293 88.406 113.279 89.635 114.508 L 108.492 133.365 C 109.105 133.978 109.91 134.286 110.714 134.286 C 111.519 134.286 112.323 133.978 112.936 133.365 C 114.165 132.136 114.165 130.15 112.936 128.921 L 96.301 112.286 L 112.936 95.651 C 114.165 94.422 114.165 92.435 112.936 91.207 Z " fill="rgb(93,93,93)"/><path d=" M 169.508 110.064 L 161.722 102.278 L 150.651 91.207 C 149.422 89.978 147.435 89.978 146.207 91.207 C 144.978 92.435 144.978 94.422 146.207 95.651 L 162.842 112.286 L 146.207 128.921 C 144.978 130.15 144.978 132.136 146.207 133.365 C 146.819 133.978 147.624 134.286 148.429 134.286 C 149.233 134.286 150.038 133.978 150.651 133.365 L 169.508 114.508 C 170.737 113.279 170.737 111.293 169.508 110.064 Z " fill="rgb(93,93,93)"/></g></g></g><path d=" M 107.954 195.8 L 114.106 195.8 L 114.106 195.8 Q 113.758 200.619 110.548 203.388 L 110.548 203.388 L 110.548 203.388 Q 107.339 206.156 102.089 206.156 L 102.089 206.156 L 102.089 206.156 Q 96.347 206.156 93.055 202.291 L 93.055 202.291 L 93.055 202.291 Q 89.764 198.425 89.764 191.678 L 89.764 191.678 L 89.764 189.853 L 89.764 189.853 Q 89.764 185.546 91.281 182.265 L 91.281 182.265 L 91.281 182.265 Q 92.799 178.983 95.619 177.23 L 95.619 177.23 L 95.619 177.23 Q 98.438 175.477 102.171 175.477 L 102.171 175.477 L 102.171 175.477 Q 107.339 175.477 110.497 178.245 L 110.497 178.245 L 110.497 178.245 Q 113.655 181.014 114.147 186.018 L 114.147 186.018 L 107.995 186.018 L 107.995 186.018 Q 107.77 183.126 106.385 181.824 L 106.385 181.824 L 106.385 181.824 Q 105.001 180.521 102.171 180.521 L 102.171 180.521 L 102.171 180.521 Q 99.095 180.521 97.567 182.726 L 97.567 182.726 L 97.567 182.726 Q 96.039 184.931 95.998 189.565 L 95.998 189.565 L 95.998 191.821 L 95.998 191.821 Q 95.998 196.661 97.464 198.896 L 97.464 198.896 L 97.464 198.896 Q 98.931 201.132 102.089 201.132 L 102.089 201.132 L 102.089 201.132 Q 104.939 201.132 106.344 199.83 L 106.344 199.83 L 106.344 199.83 Q 107.749 198.527 107.954 195.8 L 107.954 195.8 L 107.954 195.8 Z  M 129.754 205.746 L 118.146 205.746 L 118.146 175.887 L 128.605 175.887 L 128.605 175.887 Q 134.04 175.887 136.85 177.968 L 136.85 177.968 L 136.85 177.968 Q 139.659 180.05 139.659 184.069 L 139.659 184.069 L 139.659 184.069 Q 139.659 186.264 138.531 187.935 L 138.531 187.935 L 138.531 187.935 Q 137.403 189.606 135.394 190.386 L 135.394 190.386 L 135.394 190.386 Q 137.69 190.96 139.013 192.703 L 139.013 192.703 L 139.013 192.703 Q 140.336 194.446 140.336 196.969 L 140.336 196.969 L 140.336 196.969 Q 140.336 201.275 137.588 203.49 L 137.588 203.49 L 137.588 203.49 Q 134.84 205.705 129.754 205.746 L 129.754 205.746 L 129.754 205.746 Z  M 129.938 192.744 L 124.299 192.744 L 124.299 200.804 L 129.569 200.804 L 129.569 200.804 Q 131.743 200.804 132.963 199.768 L 132.963 199.768 L 132.963 199.768 Q 134.184 198.732 134.184 196.907 L 134.184 196.907 L 134.184 196.907 Q 134.184 192.806 129.938 192.744 L 129.938 192.744 L 129.938 192.744 Z  M 124.299 180.87 L 124.299 188.396 L 128.852 188.396 L 128.852 188.396 Q 133.507 188.314 133.507 184.685 L 133.507 184.685 L 133.507 184.685 Q 133.507 182.654 132.328 181.762 L 132.328 181.762 L 132.328 181.762 Q 131.148 180.87 128.605 180.87 L 128.605 180.87 L 124.299 180.87 L 124.299 180.87 Z  M 151.103 175.887 L 151.103 200.804 L 164.166 200.804 L 164.166 205.746 L 144.95 205.746 L 144.95 175.887 L 151.103 175.887 L 151.103 175.887 Z " fill-rule="evenodd" fill="rgb(255,255,255)"/></g></svg>