<?xml version="1.0" standalone="no"?><!-- Generator: Gravit.io --><svg xmlns="http://www.w3.org/2000/svg" xmlns:xlink="http://www.w3.org/1999/xlink" style="isolation:isolate" viewBox="0 0 256 256" width="256" height="256"><defs><clipPath id="_clipPath_fuCqdWSzYoowVCmecSUlBS0SWUOdLKXJ"><rect width="256" height="256"/></clipPath></defs><g clip-path="url(#_clipPath_fuCqdWSzYoowVCmecSUlBS0SWUOdLKXJ)"><rect width="256" height="256" style="fill:rgb(0,0,0)" fill-opacity="0"/><g><g><path d=" M 156.239 40 L 65.027 40 C 62.487 40 60.429 42.059 60.429 46.053 L 60.429 212.857 C 60.429 213.941 62.487 216 65.027 216 L 190.973 216 C 193.513 216 195.571 213.941 195.571 212.857 L 195.571 80.788 C 195.571 78.601 195.279 77.897 194.764 77.378 L 158.193 40.808 C 157.675 40.292 156.971 40 156.239 40 Z " fill="rgb(233,233,224)"/><path d=" M 157.857 40.475 L 157.857 77.714 L 195.097 77.714 L 157.857 40.475 Z " fill="rgb(217,215,202)"/><path d=" M 190.973 216 L 65.027 216 C 62.487 216 60.429 213.941 60.429 211.402 L 60.429 162.571 L 195.571 162.571 L 195.571 211.402 C 195.571 213.941 193.513 216 190.973 216 Z " fill="rgb(151,119,168)"/><path d=" M 145.286 140.571 C 144.975 140.571 144.657 140.524 144.346 140.427 C 142.69 139.908 141.766 138.145 142.284 136.489 L 157.999 86.203 C 158.517 84.547 160.28 83.623 161.937 84.141 C 163.593 84.66 164.517 86.423 163.998 88.079 L 148.284 138.365 C 147.866 139.71 146.625 140.571 145.286 140.571 Z " fill="rgb(151,119,168)"/><circle vector-effect="non-scaling-stroke" cx="131.14285714285717" cy="101.28571428571428" r="4.714285714285722" fill="rgb(151,119,168)"/><circle vector-effect="non-scaling-stroke" cx="131.14285714285717" cy="123.28571428571428" r="4.714285714285722" fill="rgb(151,119,168)"/><path d=" M 113.857 134.286 L 107.571 134.286 C 95.44 134.286 85.571 124.417 85.571 112.286 C 85.571 100.154 95.44 90.286 107.571 90.286 L 113.857 90.286 C 115.592 90.286 117 91.694 117 93.429 C 117 95.163 115.592 96.571 113.857 96.571 L 107.571 96.571 C 98.907 96.571 91.857 103.621 91.857 112.286 C 91.857 120.951 98.907 128 107.571 128 L 113.857 128 C 115.592 128 117 129.408 117 131.143 C 117 132.878 115.592 134.286 113.857 134.286 Z " fill="rgb(151,119,168)"/></g></g><path d=" M 110.631 185.986 L 110.631 190.806 L 98.818 190.806 L 98.818 198.804 L 112.682 198.804 L 112.682 203.746 L 92.666 203.746 L 92.666 173.887 L 112.641 173.887 L 112.641 178.87 L 98.818 178.87 L 98.818 185.986 L 110.631 185.986 L 110.631 185.986 Z  M 121.377 173.887 L 126.976 184.182 L 132.574 173.887 L 139.649 173.887 L 130.954 188.693 L 139.875 203.746 L 132.718 203.746 L 126.976 193.287 L 121.233 203.746 L 114.076 203.746 L 122.997 188.693 L 114.302 173.887 L 121.377 173.887 L 121.377 173.887 Z  M 160.937 185.986 L 160.937 190.806 L 149.124 190.806 L 149.124 198.804 L 162.987 198.804 L 162.987 203.746 L 142.972 203.746 L 142.972 173.887 L 162.946 173.887 L 162.946 178.87 L 149.124 178.87 L 149.124 185.986 L 160.937 185.986 L 160.937 185.986 Z " fill-rule="evenodd" fill="rgb(255,255,255)"/></g></svg>