<?xml version="1.0" standalone="no"?><!-- Generator: Gravit.io --><svg xmlns="http://www.w3.org/2000/svg" xmlns:xlink="http://www.w3.org/1999/xlink" style="isolation:isolate" viewBox="0 0 256 256" width="256" height="256"><defs><clipPath id="_clipPath_uyWSUfWwo0VARl51EA8V6uIOxRAroJ7F"><rect width="256" height="256"/></clipPath></defs><g clip-path="url(#_clipPath_uyWSUfWwo0VARl51EA8V6uIOxRAroJ7F)"><rect width="256" height="256" style="fill:rgb(0,0,0)" fill-opacity="0"/><g><g><path d=" M 156.239 40 L 65.027 40 C 62.487 40 60.429 42.059 60.429 46.053 L 60.429 212.857 C 60.429 213.941 62.487 216 65.027 216 L 190.973 216 C 193.513 216 195.571 213.941 195.571 212.857 L 195.571 80.788 C 195.571 78.601 195.279 77.897 194.764 77.378 L 158.193 40.808 C 157.675 40.292 156.971 40 156.239 40 Z " fill="rgb(233,233,224)"/><path d=" M 157.857 40.475 L 157.857 77.714 L 195.097 77.714 L 157.857 40.475 Z " fill="rgb(217,215,202)"/><path d=" M 190.973 216 L 65.027 216 C 62.487 216 60.429 213.941 60.429 211.402 L 60.429 162.571 L 195.571 162.571 L 195.571 211.402 C 195.571 213.941 193.513 216 190.973 216 Z " fill="rgb(145,205,160)"/><path d=" M 113.857 90.286 L 113.857 77.714 L 76.143 77.714 L 76.143 90.286 L 76.143 96.571 L 76.143 102.857 L 76.143 109.143 L 76.143 115.429 L 76.143 121.714 L 76.143 128 L 76.143 134.286 L 76.143 146.857 L 107.571 146.857 L 113.857 146.857 L 179.857 146.857 L 179.857 134.286 L 179.857 128 L 179.857 121.714 L 179.857 115.429 L 179.857 109.143 L 179.857 102.857 L 179.857 90.286 L 113.857 90.286 Z  M 82.429 84 L 107.571 84 L 107.571 90.286 L 82.429 90.286 L 82.429 84 Z  M 82.429 96.571 L 107.571 96.571 L 107.571 102.857 L 82.429 102.857 L 82.429 96.571 Z  M 82.429 109.143 L 107.571 109.143 L 107.571 115.429 L 82.429 115.429 L 82.429 109.143 Z  M 82.429 121.714 L 107.571 121.714 L 107.571 128 L 82.429 128 L 82.429 121.714 Z  M 107.571 140.571 L 82.429 140.571 L 82.429 134.286 L 107.571 134.286 L 107.571 140.571 Z  M 173.571 140.571 L 113.857 140.571 L 113.857 134.286 L 173.571 134.286 L 173.571 140.571 Z  M 173.571 128 L 113.857 128 L 113.857 121.714 L 173.571 121.714 L 173.571 128 Z  M 173.571 115.429 L 113.857 115.429 L 113.857 109.143 L 173.571 109.143 L 173.571 115.429 Z  M 113.857 102.857 L 113.857 96.571 L 173.571 96.571 L 173.571 102.857 L 113.857 102.857 Z " fill="rgb(200,189,184)"/></g></g><path d=" M 96.752 173.887 L 102.351 184.182 L 107.949 173.887 L 115.024 173.887 L 106.329 188.693 L 115.25 203.746 L 108.093 203.746 L 102.351 193.287 L 96.608 203.746 L 89.451 203.746 L 98.372 188.693 L 89.677 173.887 L 96.752 173.887 L 96.752 173.887 Z  M 124.499 173.887 L 124.499 198.804 L 137.563 198.804 L 137.563 203.746 L 118.347 203.746 L 118.347 173.887 L 124.499 173.887 L 124.499 173.887 Z  M 156.573 195.912 L 156.573 195.912 L 156.573 195.912 Q 156.573 194.169 155.343 193.236 L 155.343 193.236 L 155.343 193.236 Q 154.112 192.303 150.913 191.267 L 150.913 191.267 L 150.913 191.267 Q 147.714 190.231 145.848 189.227 L 145.848 189.227 L 145.848 189.227 Q 140.762 186.479 140.762 181.823 L 140.762 181.823 L 140.762 181.823 Q 140.762 179.403 142.125 177.506 L 142.125 177.506 L 142.125 177.506 Q 143.489 175.609 146.042 174.543 L 146.042 174.543 L 146.042 174.543 Q 148.596 173.477 151.774 173.477 L 151.774 173.477 L 151.774 173.477 Q 154.974 173.477 157.476 174.635 L 157.476 174.635 L 157.476 174.635 Q 159.978 175.794 161.362 177.906 L 161.362 177.906 L 161.362 177.906 Q 162.746 180.019 162.746 182.705 L 162.746 182.705 L 156.594 182.705 L 156.594 182.705 Q 156.594 180.654 155.302 179.516 L 155.302 179.516 L 155.302 179.516 Q 154.01 178.378 151.672 178.378 L 151.672 178.378 L 151.672 178.378 Q 149.416 178.378 148.165 179.332 L 148.165 179.332 L 148.165 179.332 Q 146.914 180.285 146.914 181.844 L 146.914 181.844 L 146.914 181.844 Q 146.914 183.3 148.38 184.284 L 148.38 184.284 L 148.38 184.284 Q 149.847 185.269 152.697 186.13 L 152.697 186.13 L 152.697 186.13 Q 157.947 187.709 160.347 190.047 L 160.347 190.047 L 160.347 190.047 Q 162.746 192.385 162.746 195.871 L 162.746 195.871 L 162.746 195.871 Q 162.746 199.747 159.813 201.952 L 159.813 201.952 L 159.813 201.952 Q 156.881 204.156 151.918 204.156 L 151.918 204.156 L 151.918 204.156 Q 148.473 204.156 145.643 202.895 L 145.643 202.895 L 145.643 202.895 Q 142.813 201.634 141.326 199.439 L 141.326 199.439 L 141.326 199.439 Q 139.839 197.245 139.839 194.354 L 139.839 194.354 L 146.012 194.354 L 146.012 194.354 Q 146.012 199.296 151.918 199.296 L 151.918 199.296 L 151.918 199.296 Q 154.112 199.296 155.343 198.404 L 155.343 198.404 L 155.343 198.404 Q 156.573 197.512 156.573 195.912 Z " fill-rule="evenodd" fill="rgb(255,255,255)"/></g></svg>