<?xml version="1.0" standalone="no"?><!-- Generator: Gravit.io --><svg xmlns="http://www.w3.org/2000/svg" xmlns:xlink="http://www.w3.org/1999/xlink" style="isolation:isolate" viewBox="0 0 256 256" width="256" height="256"><defs><clipPath id="_clipPath_JRbDI2Nk1iQLWnj5TvFr9peayMg5GuJ2"><rect width="256" height="256"/></clipPath></defs><g clip-path="url(#_clipPath_JRbDI2Nk1iQLWnj5TvFr9peayMg5GuJ2)"><rect width="256" height="256" style="fill:rgb(0,0,0)" fill-opacity="0"/><g><g><path d=" M 156.239 38 L 65.027 38 C 62.487 38 60.429 40.059 60.429 44.053 L 60.429 210.857 C 60.429 211.941 62.487 214 65.027 214 L 190.973 214 C 193.513 214 195.571 211.941 195.571 210.857 L 195.571 78.788 C 195.571 76.601 195.279 75.897 194.764 75.378 L 158.193 38.808 C 157.675 38.292 156.971 38 156.239 38 Z " fill="rgb(233,233,224)"/><path d=" M 190.973 214 L 65.027 214 C 62.487 214 60.429 211.941 60.429 209.402 L 60.429 160.571 L 195.571 160.571 L 195.571 209.402 C 195.571 211.941 193.513 214 190.973 214 Z " fill="rgb(62,71,83)"/><path d=" M 157.857 38.475 L 157.857 75.714 L 195.097 75.714 L 157.857 38.475 Z " fill="rgb(217,215,202)"/></g></g><path d=" M 102.415 203.746 L 93.166 203.746 L 93.166 173.887 L 102.354 173.887 L 102.354 173.887 Q 106.291 173.887 109.398 175.661 L 109.398 175.661 L 109.398 175.661 Q 112.505 177.435 114.248 180.706 L 114.248 180.706 L 114.248 180.706 Q 115.991 183.977 115.991 188.14 L 115.991 188.14 L 115.991 189.514 L 115.991 189.514 Q 115.991 193.677 114.279 196.917 L 114.279 196.917 L 114.279 196.917 Q 112.566 200.157 109.449 201.941 L 109.449 201.941 L 109.449 201.941 Q 106.332 203.726 102.415 203.746 L 102.415 203.746 L 102.415 203.746 Z  M 102.354 178.87 L 99.318 178.87 L 99.318 198.804 L 102.292 198.804 L 102.292 198.804 Q 105.901 198.804 107.809 196.445 L 107.809 196.445 L 107.809 196.445 Q 109.716 194.087 109.757 189.698 L 109.757 189.698 L 109.757 188.119 L 109.757 188.119 Q 109.757 183.566 107.87 181.218 L 107.87 181.218 L 107.87 181.218 Q 105.983 178.87 102.354 178.87 L 102.354 178.87 L 102.354 178.87 Z  M 126.614 173.887 L 126.614 198.804 L 139.678 198.804 L 139.678 203.746 L 120.462 203.746 L 120.462 173.887 L 126.614 173.887 L 126.614 173.887 Z  M 149.357 173.887 L 149.357 198.804 L 162.421 198.804 L 162.421 203.746 L 143.205 203.746 L 143.205 173.887 L 149.357 173.887 L 149.357 173.887 Z " fill-rule="evenodd" fill="rgb(255,255,255)"/><g><g><g><g><path d=" M 128 98.25 C 122.625 98.25 118.25 102.625 118.25 108 C 118.25 113.375 122.625 117.75 128 117.75 C 133.375 117.75 137.75 113.375 137.75 108 C 137.75 102.625 133.375 98.25 128 98.25 Z " fill="rgb(200,189,184)"/><path d=" M 164.364 101.37 L 160.061 100.541 C 158.134 100.174 156.623 98.913 155.905 97.093 C 155.186 95.263 155.44 93.31 156.603 91.727 L 159.304 88.042 C 160.253 86.752 160.113 84.958 158.979 83.827 L 153.146 77.993 C 152.047 76.891 150.312 76.729 149.028 77.6 L 145.398 80.053 C 143.779 81.155 141.823 81.334 140.019 80.554 C 138.222 79.767 137.016 78.207 136.72 76.267 L 136.025 71.756 C 135.78 70.17 134.415 69 132.81 69 L 124.561 69 C 123.005 69 121.666 70.105 121.37 71.636 L 120.301 77.193 C 119.94 79.075 118.718 80.576 116.947 81.308 C 115.175 82.046 113.245 81.847 111.659 80.771 L 106.972 77.6 C 105.689 76.729 103.96 76.891 102.855 77.993 L 97.021 83.827 C 95.887 84.958 95.747 86.752 96.696 88.042 L 99.397 91.73 C 100.56 93.31 100.814 95.263 100.096 97.093 C 99.377 98.913 97.866 100.174 95.936 100.541 L 91.636 101.37 C 90.105 101.666 89 103.005 89 104.561 L 89 112.81 C 89 114.415 90.17 115.78 91.756 116.024 L 96.267 116.72 C 98.207 117.015 99.767 118.221 100.554 120.018 C 101.337 121.816 101.155 123.775 100.053 125.4 L 97.6 129.027 C 96.725 130.314 96.891 132.043 97.993 133.145 L 103.827 138.979 C 104.961 140.116 106.752 140.246 108.042 139.304 L 111.73 136.603 C 113.31 135.443 115.26 135.192 117.093 135.904 C 118.913 136.622 120.174 138.134 120.541 140.064 L 121.37 144.364 C 121.666 145.895 123.005 147 124.561 147 L 132.81 147 C 134.415 147 135.78 145.83 136.024 144.244 L 136.512 141.072 C 136.817 139.086 138.055 137.51 139.908 136.746 C 141.747 135.979 143.746 136.217 145.368 137.406 L 147.958 139.304 C 149.242 140.247 151.039 140.117 152.173 138.979 L 158.007 133.145 C 159.109 132.044 159.275 130.315 158.4 129.028 L 155.947 125.398 C 154.845 123.776 154.663 121.816 155.446 120.019 C 156.233 118.222 157.793 117.016 159.733 116.72 L 164.244 116.025 C 165.83 115.781 167 114.416 167 112.81 L 167 104.562 C 167 103.005 165.895 101.666 164.364 101.37 Z  M 128 124.25 C 119.04 124.25 111.75 116.96 111.75 108 C 111.75 99.04 119.04 91.75 128 91.75 C 136.96 91.75 144.25 99.04 144.25 108 C 144.25 116.96 136.96 124.25 128 124.25 Z " fill="rgb(200,189,184)"/></g></g></g></g></g></svg>