<?xml version="1.0" standalone="no"?><!-- Generator: Gravit.io --><svg xmlns="http://www.w3.org/2000/svg" xmlns:xlink="http://www.w3.org/1999/xlink" style="isolation:isolate" viewBox="0 0 256 256" width="256" height="256"><defs><clipPath id="_clipPath_NmhFHWVbVhYI4ZKz6Mgmr1klrFV7QdzX"><rect width="256" height="256"/></clipPath></defs><g clip-path="url(#_clipPath_NmhFHWVbVhYI4ZKz6Mgmr1klrFV7QdzX)"><rect width="256" height="256" style="fill:rgb(0,0,0)" fill-opacity="0"/><g><g><path d=" M 156.239 40 L 65.027 40 C 62.487 40 60.429 42.059 60.429 46.053 L 60.429 212.857 C 60.429 213.941 62.487 216 65.027 216 L 190.973 216 C 193.513 216 195.571 213.941 195.571 212.857 L 195.571 80.788 C 195.571 78.601 195.279 77.897 194.764 77.378 L 158.193 40.808 C 157.675 40.292 156.971 40 156.239 40 Z " fill="rgb(233,233,224)"/><path d=" M 157.857 40.475 L 157.857 77.714 L 195.097 77.714 L 157.857 40.475 Z " fill="rgb(217,215,202)"/><path d=" M 190.973 216 L 65.027 216 C 62.487 216 60.429 213.941 60.429 211.402 L 60.429 162.571 L 195.571 162.571 L 195.571 211.402 C 195.571 213.941 193.513 216 190.973 216 Z " fill="rgb(205,103,154)"/></g></g><path d=" M 92.149 195.912 L 92.149 195.912 L 92.149 195.912 Q 92.149 194.169 90.919 193.236 L 90.919 193.236 L 90.919 193.236 Q 89.688 192.303 86.489 191.267 L 86.489 191.267 L 86.489 191.267 Q 83.29 190.231 81.424 189.227 L 81.424 189.227 L 81.424 189.227 Q 76.338 186.479 76.338 181.823 L 76.338 181.823 L 76.338 181.823 Q 76.338 179.403 77.702 177.506 L 77.702 177.506 L 77.702 177.506 Q 79.065 175.609 81.619 174.543 L 81.619 174.543 L 81.619 174.543 Q 84.172 173.477 87.351 173.477 L 87.351 173.477 L 87.351 173.477 Q 90.55 173.477 93.052 174.635 L 93.052 174.635 L 93.052 174.635 Q 95.554 175.794 96.938 177.906 L 96.938 177.906 L 96.938 177.906 Q 98.322 180.019 98.322 182.705 L 98.322 182.705 L 92.17 182.705 L 92.17 182.705 Q 92.17 180.654 90.878 179.516 L 90.878 179.516 L 90.878 179.516 Q 89.586 178.378 87.248 178.378 L 87.248 178.378 L 87.248 178.378 Q 84.992 178.378 83.741 179.332 L 83.741 179.332 L 83.741 179.332 Q 82.49 180.285 82.49 181.844 L 82.49 181.844 L 82.49 181.844 Q 82.49 183.3 83.957 184.284 L 83.957 184.284 L 83.957 184.284 Q 85.423 185.269 88.273 186.13 L 88.273 186.13 L 88.273 186.13 Q 93.523 187.709 95.923 190.047 L 95.923 190.047 L 95.923 190.047 Q 98.322 192.385 98.322 195.871 L 98.322 195.871 L 98.322 195.871 Q 98.322 199.747 95.39 201.952 L 95.39 201.952 L 95.39 201.952 Q 92.457 204.156 87.494 204.156 L 87.494 204.156 L 87.494 204.156 Q 84.049 204.156 81.219 202.895 L 81.219 202.895 L 81.219 202.895 Q 78.389 201.634 76.902 199.439 L 76.902 199.439 L 76.902 199.439 Q 75.415 197.245 75.415 194.354 L 75.415 194.354 L 81.588 194.354 L 81.588 194.354 Q 81.588 199.296 87.494 199.296 L 87.494 199.296 L 87.494 199.296 Q 89.688 199.296 90.919 198.404 L 90.919 198.404 L 90.919 198.404 Q 92.149 197.512 92.149 195.912 Z  M 121.414 203.746 L 119.343 197.594 L 108.556 197.594 L 106.505 203.746 L 99.963 203.746 L 111.078 173.887 L 116.779 173.887 L 127.956 203.746 L 121.414 203.746 L 121.414 203.746 Z  M 113.929 181.434 L 110.217 192.61 L 117.682 192.61 L 113.929 181.434 L 113.929 181.434 Z  M 146.229 195.912 L 146.229 195.912 L 146.229 195.912 Q 146.229 194.169 144.998 193.236 L 144.998 193.236 L 144.998 193.236 Q 143.768 192.303 140.568 191.267 L 140.568 191.267 L 140.568 191.267 Q 137.369 190.231 135.503 189.227 L 135.503 189.227 L 135.503 189.227 Q 130.417 186.479 130.417 181.823 L 130.417 181.823 L 130.417 181.823 Q 130.417 179.403 131.781 177.506 L 131.781 177.506 L 131.781 177.506 Q 133.145 175.609 135.698 174.543 L 135.698 174.543 L 135.698 174.543 Q 138.251 173.477 141.43 173.477 L 141.43 173.477 L 141.43 173.477 Q 144.629 173.477 147.131 174.635 L 147.131 174.635 L 147.131 174.635 Q 149.633 175.794 151.017 177.906 L 151.017 177.906 L 151.017 177.906 Q 152.401 180.019 152.401 182.705 L 152.401 182.705 L 146.249 182.705 L 146.249 182.705 Q 146.249 180.654 144.957 179.516 L 144.957 179.516 L 144.957 179.516 Q 143.665 178.378 141.327 178.378 L 141.327 178.378 L 141.327 178.378 Q 139.071 178.378 137.82 179.332 L 137.82 179.332 L 137.82 179.332 Q 136.569 180.285 136.569 181.844 L 136.569 181.844 L 136.569 181.844 Q 136.569 183.3 138.036 184.284 L 138.036 184.284 L 138.036 184.284 Q 139.502 185.269 142.353 186.13 L 142.353 186.13 L 142.353 186.13 Q 147.603 187.709 150.002 190.047 L 150.002 190.047 L 150.002 190.047 Q 152.401 192.385 152.401 195.871 L 152.401 195.871 L 152.401 195.871 Q 152.401 199.747 149.469 201.952 L 149.469 201.952 L 149.469 201.952 Q 146.536 204.156 141.573 204.156 L 141.573 204.156 L 141.573 204.156 Q 138.128 204.156 135.298 202.895 L 135.298 202.895 L 135.298 202.895 Q 132.468 201.634 130.981 199.439 L 130.981 199.439 L 130.981 199.439 Q 129.494 197.245 129.494 194.354 L 129.494 194.354 L 135.667 194.354 L 135.667 194.354 Q 135.667 199.296 141.573 199.296 L 141.573 199.296 L 141.573 199.296 Q 143.768 199.296 144.998 198.404 L 144.998 198.404 L 144.998 198.404 Q 146.229 197.512 146.229 195.912 Z  M 172.048 195.912 L 172.048 195.912 L 172.048 195.912 Q 172.048 194.169 170.817 193.236 L 170.817 193.236 L 170.817 193.236 Q 169.587 192.303 166.388 191.267 L 166.388 191.267 L 166.388 191.267 Q 163.188 190.231 161.322 189.227 L 161.322 189.227 L 161.322 189.227 Q 156.236 186.479 156.236 181.823 L 156.236 181.823 L 156.236 181.823 Q 156.236 179.403 157.6 177.506 L 157.6 177.506 L 157.6 177.506 Q 158.964 175.609 161.517 174.543 L 161.517 174.543 L 161.517 174.543 Q 164.07 173.477 167.249 173.477 L 167.249 173.477 L 167.249 173.477 Q 170.448 173.477 172.95 174.635 L 172.95 174.635 L 172.95 174.635 Q 175.452 175.794 176.836 177.906 L 176.836 177.906 L 176.836 177.906 Q 178.221 180.019 178.221 182.705 L 178.221 182.705 L 172.068 182.705 L 172.068 182.705 Q 172.068 180.654 170.776 179.516 L 170.776 179.516 L 170.776 179.516 Q 169.484 178.378 167.146 178.378 L 167.146 178.378 L 167.146 178.378 Q 164.891 178.378 163.64 179.332 L 163.64 179.332 L 163.64 179.332 Q 162.389 180.285 162.389 181.844 L 162.389 181.844 L 162.389 181.844 Q 162.389 183.3 163.855 184.284 L 163.855 184.284 L 163.855 184.284 Q 165.321 185.269 168.172 186.13 L 168.172 186.13 L 168.172 186.13 Q 173.422 187.709 175.821 190.047 L 175.821 190.047 L 175.821 190.047 Q 178.221 192.385 178.221 195.871 L 178.221 195.871 L 178.221 195.871 Q 178.221 199.747 175.288 201.952 L 175.288 201.952 L 175.288 201.952 Q 172.355 204.156 167.393 204.156 L 167.393 204.156 L 167.393 204.156 Q 163.947 204.156 161.117 202.895 L 161.117 202.895 L 161.117 202.895 Q 158.287 201.634 156.8 199.439 L 156.8 199.439 L 156.8 199.439 Q 155.313 197.245 155.313 194.354 L 155.313 194.354 L 161.486 194.354 L 161.486 194.354 Q 161.486 199.296 167.393 199.296 L 167.393 199.296 L 167.393 199.296 Q 169.587 199.296 170.817 198.404 L 170.817 198.404 L 170.817 198.404 Q 172.048 197.512 172.048 195.912 Z " fill-rule="evenodd" fill="rgb(255,255,255)"/><path d=" M 161.646 116.188 C 158.386 116.206 155.563 116.989 153.195 118.155 C 152.321 116.425 151.447 114.913 151.301 113.784 C 151.137 112.473 150.937 111.671 151.137 110.105 C 151.337 108.539 152.248 106.317 152.248 106.134 C 152.23 105.971 152.048 105.169 150.172 105.151 C 148.296 105.133 146.675 105.515 146.493 106.007 C 146.311 106.499 145.946 107.628 145.71 108.794 C 145.382 110.506 141.958 116.57 140.009 119.758 C 139.372 118.519 138.825 117.426 138.716 116.552 C 138.552 115.241 138.352 114.439 138.552 112.873 C 138.752 111.307 139.663 109.085 139.663 108.903 C 139.645 108.739 139.463 107.938 137.587 107.919 C 135.711 107.901 134.09 108.284 133.908 108.775 C 133.726 109.267 133.526 110.433 133.125 111.562 C 132.742 112.691 128.189 122.817 127.005 125.458 C 126.404 126.806 125.876 127.88 125.494 128.609 C 125.111 129.337 125.475 128.664 125.439 128.736 C 125.111 129.356 124.929 129.702 124.929 129.702 L 124.929 129.72 C 124.674 130.175 124.401 130.612 124.273 130.612 C 124.182 130.612 124 129.392 124.31 127.717 C 124.983 124.201 126.623 118.72 126.605 118.519 C 126.605 118.428 126.914 117.463 125.548 116.971 C 124.218 116.479 123.745 117.299 123.636 117.299 C 123.526 117.299 123.435 117.59 123.435 117.59 C 123.435 117.59 124.911 111.417 120.612 111.417 C 117.917 111.417 114.201 114.349 112.362 117.026 C 111.196 117.663 108.719 119.011 106.097 120.45 C 105.095 120.996 104.057 121.579 103.073 122.107 L 102.873 121.888 C 97.664 116.334 88.03 112.4 88.431 104.932 C 88.576 102.219 89.523 95.061 106.935 86.392 C 121.196 79.289 132.615 81.238 134.6 85.572 C 137.423 91.765 128.499 103.275 113.674 104.932 C 108.028 105.57 105.059 103.384 104.312 102.565 C 103.529 101.709 103.42 101.672 103.129 101.836 C 102.655 102.091 102.946 102.856 103.129 103.311 C 103.566 104.459 105.387 106.499 108.483 107.519 C 111.197 108.411 117.826 108.903 125.84 105.807 C 134.819 102.328 141.831 92.675 139.773 84.607 C 137.678 76.393 124.055 73.698 111.179 78.269 C 103.511 81.001 95.206 85.263 89.232 90.854 C 82.129 97.483 81 103.275 81.473 105.679 C 83.131 114.257 94.951 119.849 99.686 123.983 C 99.449 124.11 99.231 124.238 99.03 124.347 C 96.663 125.513 87.647 130.23 85.389 135.22 C 82.839 140.866 85.79 144.928 87.757 145.474 C 93.84 147.168 100.069 144.126 103.438 139.118 C 106.789 134.109 106.388 127.607 104.84 124.639 L 104.785 124.529 L 106.643 123.437 C 107.845 122.726 109.029 122.071 110.067 121.506 C 109.485 123.09 109.065 124.966 108.847 127.698 C 108.592 130.904 109.903 135.056 111.634 136.695 C 112.399 137.405 113.309 137.424 113.874 137.424 C 115.877 137.424 116.788 135.766 117.79 133.781 C 119.028 131.359 120.121 128.554 120.121 128.554 C 120.121 128.554 118.755 136.149 122.488 136.149 C 123.854 136.149 125.22 134.382 125.84 133.472 L 125.84 133.49 C 125.84 133.49 125.876 133.435 125.949 133.308 C 126.025 133.195 126.098 133.079 126.167 132.962 L 126.167 132.925 C 126.714 131.978 127.934 129.811 129.755 126.223 C 132.105 121.597 134.363 115.805 134.363 115.805 C 134.363 115.805 134.582 117.226 135.256 119.557 C 135.656 120.942 136.53 122.453 137.204 123.928 C 136.658 124.693 136.33 125.131 136.33 125.131 L 136.348 125.149 C 135.911 125.732 135.419 126.351 134.91 126.97 C 133.052 129.192 130.83 131.724 130.538 132.452 C 130.192 133.308 130.265 133.945 130.939 134.456 C 131.431 134.82 132.305 134.893 133.234 134.82 C 134.91 134.71 136.075 134.292 136.658 134.037 C 137.569 133.709 138.607 133.217 139.608 132.488 C 141.43 131.141 142.541 129.229 142.431 126.679 C 142.377 125.276 141.921 123.892 141.357 122.581 C 141.521 122.344 141.685 122.107 141.849 121.852 C 144.726 117.645 146.948 113.019 146.948 113.019 C 146.948 113.019 147.167 114.44 147.841 116.771 C 148.186 117.955 148.879 119.248 149.498 120.523 C 146.802 122.727 145.109 125.277 144.526 126.952 C 143.451 130.048 144.289 131.451 145.874 131.779 C 146.584 131.924 147.604 131.596 148.369 131.269 C 149.316 130.959 150.463 130.431 151.52 129.648 C 153.341 128.3 155.089 126.424 154.998 123.892 C 154.944 122.727 154.634 121.579 154.215 120.487 C 156.51 119.54 159.478 118.993 163.249 119.449 C 171.353 120.396 172.956 125.459 172.647 127.571 C 172.337 129.684 170.643 130.85 170.078 131.214 C 169.514 131.56 169.332 131.688 169.386 131.942 C 169.459 132.325 169.714 132.307 170.206 132.234 C 170.88 132.125 174.468 130.504 174.613 126.606 C 174.832 121.597 170.078 116.133 161.646 116.188 L 161.646 116.188 Z  M 99.14 137.26 C 96.462 140.192 92.692 141.303 91.09 140.356 C 89.359 139.354 90.033 135.038 93.33 131.924 C 95.333 130.03 97.938 128.281 99.65 127.207 C 100.032 126.97 100.615 126.624 101.307 126.205 C 101.416 126.132 101.489 126.096 101.489 126.096 C 101.617 126.023 101.762 125.932 101.908 125.841 C 103.128 130.285 101.963 134.182 99.14 137.26 L 99.14 137.26 Z  M 118.718 123.947 C 117.79 126.223 115.823 132.069 114.639 131.742 C 113.619 131.468 113 127.043 114.438 122.672 C 115.167 120.468 116.715 117.845 117.625 116.825 C 119.101 115.186 120.703 114.64 121.104 115.313 C 121.578 116.188 119.301 122.526 118.718 123.947 Z  M 134.873 131.669 C 134.472 131.869 134.108 132.015 133.944 131.906 C 133.817 131.833 134.108 131.56 134.108 131.56 C 134.108 131.56 136.13 129.392 136.931 128.391 C 137.386 127.808 137.933 127.134 138.515 126.369 L 138.515 126.588 C 138.516 129.21 136.002 130.958 134.873 131.669 Z  M 147.33 128.828 C 147.039 128.609 147.076 127.935 148.059 125.822 C 148.442 124.985 149.316 123.582 150.827 122.253 C 151.009 122.799 151.119 123.327 151.1 123.819 C 151.082 127.097 148.751 128.318 147.33 128.828 Z " fill="rgb(205,103,154)"/></g></svg>