<?xml version="1.0" standalone="no"?><!-- Generator: Gravit.io --><svg xmlns="http://www.w3.org/2000/svg" xmlns:xlink="http://www.w3.org/1999/xlink" style="isolation:isolate" viewBox="0 0 256 256" width="256" height="256"><defs><clipPath id="_clipPath_ut9G7pZ3aUUdXAsqWnhyy4A56QEzApnR"><rect width="256" height="256"/></clipPath></defs><g clip-path="url(#_clipPath_ut9G7pZ3aUUdXAsqWnhyy4A56QEzApnR)"><rect width="256" height="256" style="fill:rgb(0,0,0)" fill-opacity="0"/><g><path d=" M 111.348 64.839 L 105.606 50.484 L 39 50.484 L 39 65.126 L 39 95.271 L 39 171.065 L 217 171.065 L 217 64.839 L 111.348 64.839 Z " fill="rgb(165,84,4)"/><path d=" M 217 171.065 L 217 64.839 L 111.348 64.839 L 105.606 50.484 L 39 50.484 L 39 64.839" fill="rgb(132,64,2)"/><rect x="50.484" y="76.323" width="155.032" height="103.355" transform="matrix(1,0,0,1,0,0)" fill="rgb(255,255,255)"/><path d=" M 50.484 76.323 L 205.516 76.323 L 205.516 179.677" fill="rgb(218,230,234)"/><rect x="39" y="102.161" width="178" height="103.355" transform="matrix(1,0,0,1,0,0)" fill="rgb(249,141,43)"/><path d=" M 39 102.161 L 217 102.161 L 217 205.516" fill="rgb(226,130,26)"/><circle vector-effect="non-scaling-stroke" cx="184.55806451612906" cy="165.89677419354842" r="19.809677419354813" fill="rgb(13,110,140)"/><path d=" M 198.626 152.116 C 206.377 159.868 206.377 172.213 198.626 179.965 C 190.874 187.716 178.529 187.716 170.777 179.965" fill="rgb(7,126,158)"/></g></g></svg>